<?xml version="1.0" encoding="utf-8"?>
<!-- Generator: Adobe Illustrator 26.1.0, SVG Export Plug-In . SVG Version: 6.00 Build 0)  -->
<svg version="1.1" id="Layer_1" xmlns="http://www.w3.org/2000/svg" xmlns:xlink="http://www.w3.org/1999/xlink" x="0px" y="0px"
	 viewBox="0 0 192 203.9" style="enable-background:new 0 0 192 203.9;" xml:space="preserve">
<style type="text/css">
	.st0{fill:none;}
	.st1{clip-path:url(#SVGID_00000023981564270814235560000009133718530239069067_);fill:#EEEEEE;}
	.st2{clip-path:url(#SVGID_00000176018497713013435260000004620440765084660910_);fill:#FFFFFF;}
	.st3{clip-path:url(#SVGID_00000137107173254078761050000016987296027375567281_);}
	.st4{clip-path:url(#SVGID_00000007430865834834896090000007701215043592903559_);fill:#DB4437;}
	.st5{clip-path:url(#SVGID_00000058578273516432891730000009804089469894605735_);fill:#0F9D58;}
	.st6{clip-path:url(#SVGID_00000178194308276153515060000016701024424187313066_);fill:#FFCD40;}
	.st7{clip-path:url(#SVGID_00000137826538801842634370000009812311699918329504_);}
	.st8{fill:#F1F1F1;}
	.st9{fill:#4285F4;}
	.st10{clip-path:url(#SVGID_00000040532712193646281070000015971575095261772715_);fill:#212121;fill-opacity:5.000000e-02;}
	.st11{fill:#212121;fill-opacity:2.000000e-02;}
	.st12{fill:#FFFFFF;fill-opacity:5.000000e-02;}
	.st13{fill:#231F20;fill-opacity:0.1;}
	.st14{fill:url(#SVGID_00000067951100090853739510000014078670473420266124_);}
</style>
<path class="st0" d="M0,30.1h192v192H0V30.1z"/>
<g>
	<g>
		<defs>
			<path id="SVGID_1_" d="M8,50.1v140c0,6.6,5.4,12,12,12h152c6.6,0,12-5.4,12-12v-140H8z M116,82.1H76c-4.4,0-8-3.6-8-8
				c0-4.4,3.6-8,8-8h40c4.4,0,8,3.6,8,8C124,78.5,120.4,82.1,116,82.1z"/>
		</defs>
		<clipPath id="SVGID_00000057112222740234155810000014411655875879974831_">
			<use xlink:href="#SVGID_1_"  style="overflow:visible;"/>
		</clipPath>
		<path style="clip-path:url(#SVGID_00000057112222740234155810000014411655875879974831_);fill:#EEEEEE;" d="M8,50.1h176v152H8
			V50.1z"/>
	</g>
</g>
<g>
	<g>
		<defs>
			<path id="SVGID_00000073702333246323539080000006361805477403392131_" d="M8,50.1v140c0,6.6,5.4,12,12,12h152c6.6,0,12-5.4,12-12
				v-140H8z M116,82.1H76c-4.4,0-8-3.6-8-8c0-4.4,3.6-8,8-8h40c4.4,0,8,3.6,8,8C124,78.5,120.4,82.1,116,82.1z"/>
		</defs>
		<clipPath id="SVGID_00000088825695057521517160000000869228922235518097_">
			<use xlink:href="#SVGID_00000073702333246323539080000006361805477403392131_"  style="overflow:visible;"/>
		</clipPath>
		<path style="clip-path:url(#SVGID_00000088825695057521517160000000869228922235518097_);fill:#FFFFFF;" d="M116,66.1H76
			c-4.4,0-8,3.6-8,8c0,4.4,3.6,8,8,8h40c4.4,0,8-3.6,8-8C124,69.7,120.4,66.1,116,66.1z"/>
	</g>
</g>
<g>
	<g>
		<defs>
			<path id="SVGID_00000012431448872455808020000009585417582208229295_" d="M8,50.1v140c0,6.6,5.4,12,12,12h152c6.6,0,12-5.4,12-12
				v-140H8z M116,82.1H76c-4.4,0-8-3.6-8-8c0-4.4,3.6-8,8-8h40c4.4,0,8,3.6,8,8C124,78.5,120.4,82.1,116,82.1z"/>
		</defs>
		<clipPath id="SVGID_00000102518336077403828650000003722387439628862397_">
			<use xlink:href="#SVGID_00000012431448872455808020000009585417582208229295_"  style="overflow:visible;"/>
		</clipPath>
		<g style="clip-path:url(#SVGID_00000102518336077403828650000003722387439628862397_);">
			<g>
				<g>
					<defs>
						<circle id="SVGID_00000095321196619297656230000000295945953660318127_" cx="96" cy="190.1" r="76"/>
					</defs>
					<clipPath id="SVGID_00000051368999667503501600000003258677524412996525_">
						<use xlink:href="#SVGID_00000095321196619297656230000000295945953660318127_"  style="overflow:visible;"/>
					</clipPath>
					<path style="clip-path:url(#SVGID_00000051368999667503501600000003258677524412996525_);fill:#DB4437;" d="M32.1,114.1v93.3
						h34L96,155.5h76v-41.4H32.1z M32.1,114.1v93.3h34L96,155.5h76v-41.4H32.1z"/>
				</g>
			</g>
			<g>
				<g>
					<defs>
						<circle id="SVGID_00000003821240092727182170000004065532307169200535_" cx="96" cy="190.1" r="76"/>
					</defs>
					<clipPath id="SVGID_00000095314858693319883740000003774825173691555999_">
						<use xlink:href="#SVGID_00000003821240092727182170000004065532307169200535_"  style="overflow:visible;"/>
					</clipPath>
					<path style="clip-path:url(#SVGID_00000095314858693319883740000003774825173691555999_);fill:#0F9D58;" d="M20,266.1h72.3
						l33.6-33.6v-25.1H66.1L20,128.3V266.1z M20,266.1h72.3l33.6-33.6v-25.1H66.1L20,128.3V266.1z"/>
				</g>
			</g>
			<g>
				<g>
					<defs>
						<circle id="SVGID_00000042738134289620523310000015568603262344877450_" cx="96" cy="190.1" r="76"/>
					</defs>
					<clipPath id="SVGID_00000057144620068163307520000009356597493940301190_">
						<use xlink:href="#SVGID_00000042738134289620523310000015568603262344877450_"  style="overflow:visible;"/>
					</clipPath>
					<path style="clip-path:url(#SVGID_00000057144620068163307520000009356597493940301190_);fill:#FFCD40;" d="M96,155.5
						l29.9,51.8L92.3,266H172V155.5H96z M96,155.5l29.9,51.8L92.3,266H172V155.5H96z"/>
				</g>
			</g>
			<g>
				<g>
					<defs>
						<circle id="SVGID_00000015336246289643961730000016615015121954968502_" cx="96" cy="190.1" r="76"/>
					</defs>
					<clipPath id="SVGID_00000056402581565894201660000008905267983368791690_">
						<use xlink:href="#SVGID_00000015336246289643961730000016615015121954968502_"  style="overflow:visible;"/>
					</clipPath>
					<g style="clip-path:url(#SVGID_00000056402581565894201660000008905267983368791690_);">
						<circle class="st8" cx="96" cy="190.1" r="34.6"/>
						<circle class="st9" cx="96" cy="190.1" r="27.6"/>
					</g>
				</g>
			</g>
		</g>
	</g>
</g>
<g>
	<g>
		<defs>
			<path id="SVGID_00000098189829324221408410000012207329081845293443_" d="M8,50.1v140c0,6.6,5.4,12,12,12h152c6.6,0,12-5.4,12-12
				v-140H8z M116,82.1H76c-4.4,0-8-3.6-8-8c0-4.4,3.6-8,8-8h40c4.4,0,8,3.6,8,8C124,78.5,120.4,82.1,116,82.1z"/>
		</defs>
		<clipPath id="SVGID_00000087407097263190022880000006899863843756381864_">
			<use xlink:href="#SVGID_00000098189829324221408410000012207329081845293443_"  style="overflow:visible;"/>
		</clipPath>
		
			<path style="clip-path:url(#SVGID_00000087407097263190022880000006899863843756381864_);fill:#212121;fill-opacity:5.000000e-02;" d="
			M8,50.1h176v76H8V50.1z"/>
	</g>
</g>
<path class="st11" d="M8,125.1h176v1H8V125.1z"/>
<path class="st12" d="M8,126.1h176v1H8V126.1z"/>
<path class="st11" d="M116,82.1H76c-4.2,0-7.7-3.3-8-7.5c0,0.2,0,0.3,0,0.5c0,4.4,3.6,8,8,8h40c4.4,0,8-3.6,8-8c0-0.2,0-0.3,0-0.5
	C123.7,78.8,120.2,82.1,116,82.1z M8,50.1v1h176v-1H8z"/>
<path class="st13" d="M76,66.1h40c4.2,0,7.7,3.3,8,7.5c0-0.2,0-0.3,0-0.5c0-4.4-3.6-8-8-8H76c-4.4,0-8,3.6-8,8c0,0.2,0,0.3,0,0.5
	C68.3,69.4,71.8,66.1,76,66.1z M172,201.1H20c-6.6,0-12-5.4-12-12v1c0,6.6,5.4,12,12,12h152c6.6,0,12-5.4,12-12v-1
	C184,195.7,178.6,201.1,172,201.1z"/>
<radialGradient id="SVGID_00000036210271902419890220000000905997870124092304_" cx="7.502" cy="735.217" r="227.596" gradientTransform="matrix(1 0 0 1 0 -685.8114)" gradientUnits="userSpaceOnUse">
	<stop  offset="0" style="stop-color:#FFFFFF;stop-opacity:0.1"/>
	<stop  offset="1" style="stop-color:#FFFFFF;stop-opacity:0"/>
</radialGradient>
<path style="fill:url(#SVGID_00000036210271902419890220000000905997870124092304_);" d="M8,50.1v140c0,6.6,5.4,12,12,12h152
	c6.6,0,12-5.4,12-12v-140H8z M116,82.1H76c-4.4,0-8-3.6-8-8c0-4.4,3.6-8,8-8h40c4.4,0,8,3.6,8,8C124,78.5,120.4,82.1,116,82.1z"/>
</svg>
