<?xml version="1.0" encoding="utf-8"?>
<!-- Generator: Adobe Illustrator 26.1.0, SVG Export Plug-In . SVG Version: 6.00 Build 0)  -->
<svg version="1.1" id="Layer_1" xmlns="http://www.w3.org/2000/svg" xmlns:xlink="http://www.w3.org/1999/xlink" x="0px" y="0px"
	 viewBox="0 0 130 130" style="enable-background:new 0 0 130 130;" xml:space="preserve">
<style type="text/css">
	.st0{fill:none;}
	.st1{fill:url(#SVGID_1_);}
	.st2{fill:url(#SVGID_00000034072903285572591350000015106485853810287285_);}
	.st3{fill:url(#SVGID_00000119834097579517622800000014136632328438098584_);}
	.st4{opacity:0.67;}
	.st5{fill:url(#SVGID_00000036935579345385697140000007393372658657114007_);}
	.st6{fill:url(#SVGID_00000173137435990412997550000001165818635871033768_);}
	.st7{fill:#FF9A6C;}
	.st8{fill:#FF735D;}
	.st9{fill:#D34B3D;}
	.st10{fill:#FFBF9D;}
	.st11{fill:#F2F2F2;}
	.st12{fill:url(#SVGID_00000013181633097027989310000000755445817887353731_);}
	.st13{fill:url(#SVGID_00000132059590425690314880000006036639837893299602_);}
	.st14{fill:url(#SVGID_00000000186544549067246550000012382777607067681426_);}
	.st15{fill:url(#SVGID_00000020359425769857158020000012032901241770662072_);}
	.st16{fill:url(#SVGID_00000062887308711371478020000000788733483245905800_);}
	.st17{fill:url(#SVGID_00000023988860596589598600000006098730133311670160_);}
	.st18{fill:url(#SVGID_00000116921360035930171720000008444682469615397298_);}
	.st19{fill:url(#SVGID_00000125604662973852860010000002873199477040748470_);}
	.st20{fill:none;stroke:#E9EAE8;stroke-width:2;stroke-miterlimit:10;}
	.st21{fill:#E9EAE8;}
	.st22{opacity:0.7;fill:none;stroke:#E9EAE8;stroke-width:2;stroke-miterlimit:10;}
	.st23{opacity:0.7;fill:#E9EAE8;}
	.st24{fill:#BC0F0F;}
	.st25{fill:#D2E8F7;}
	.st26{fill:#0F62B5;}
	.st27{fill:#FE9175;}
	.st28{fill:#FFFFFF;}
	.st29{fill:#3A3A3A;}
	.st30{fill:#F2719B;}
	.st31{fill:#FF3D22;}
	.st32{fill:#FFF04D;}
	.st33{opacity:0.7;fill:#841484;}
	.st34{fill:#F2709C;}
	.st35{opacity:0.7;fill:#FF0000;}
	.st36{opacity:0.7;fill:#669898;}
	.st37{fill:#E03B7E;}
	.st38{fill:#FFC132;}
	.st39{fill:#FFB766;}
	.st40{fill:#98C198;}
	.st41{fill:#FFE581;}
	.st42{fill:#FFF434;}
	.st43{fill:#FFD522;}
	.st44{fill:#66D5BA;}
	.st45{fill:#FF9854;}
	.st46{fill:#FFC76F;}
	.st47{clip-path:url(#SVGID_00000121978527471719746410000015747553156277240969_);}
	.st48{fill:#FF245E;}
	.st49{opacity:0.7;}
	.st50{fill:#841484;}
	.st51{fill:#FF0000;}
	.st52{fill:#669898;}
	.st53{clip-path:url(#SVGID_00000063633447265804458060000008067714232264035206_);}
	.st54{clip-path:url(#SVGID_00000052091019369604837120000017677630244079594653_);}
	.st55{clip-path:url(#SVGID_00000158718330370343591170000009546297024375997598_);}
	.st56{clip-path:url(#SVGID_00000145031317348460872760000000723077462794672021_);}
	.st57{clip-path:url(#SVGID_00000141439442445513167940000015677605217979102650_);}
	.st58{clip-path:url(#SVGID_00000101088553845277628240000006754176121251460487_);}
	.st59{clip-path:url(#SVGID_00000124844036878747013210000015550163303977690251_);}
	.st60{clip-path:url(#SVGID_00000080177486714777537890000008186763068731145128_);}
	.st61{clip-path:url(#SVGID_00000036944490082568123540000007747118779737725863_);}
	.st62{clip-path:url(#SVGID_00000007418387401913216800000017930646597654191791_);}
	.st63{fill:#D7F9C7;}
	.st64{fill:#216007;}
	.st65{fill:#D1D1D1;}
	.st66{fill:url(#SVGID_00000013164001430409219410000005316913927856853394_);}
	.st67{fill:url(#SVGID_00000076596119421453689060000010256391537477053826_);}
	.st68{fill:url(#SVGID_00000161602932497006590160000013056511725210451632_);}
	.st69{fill:url(#SVGID_00000090253719966429199220000008263781170029127320_);}
	.st70{fill:url(#SVGID_00000124130155394398869460000012486155331569709720_);}
	.st71{fill:url(#SVGID_00000162350555731684335110000014777712781911916198_);}
	.st72{fill:url(#SVGID_00000101823103016008945130000008337548299869756574_);}
	.st73{fill:url(#SVGID_00000069385911727191897440000017968662246094804876_);}
	.st74{fill:url(#SVGID_00000064326630806632995000000017001180846735936956_);}
	.st75{fill:url(#SVGID_00000159439666484964751820000008518335525557954983_);}
	.st76{fill:url(#SVGID_00000098901567054569898560000003107334308949879231_);}
	.st77{fill:url(#SVGID_00000150103461907423801080000001730376711001627828_);}
	.st78{fill:#FFFFFF;stroke:#1A2E35;stroke-linecap:round;stroke-linejoin:round;stroke-miterlimit:10;}
	.st79{fill:#FFFFFF;stroke:#1E1E1E;stroke-miterlimit:10;}
	.st80{fill:#7F392B;}
	.st81{fill:url(#SVGID_00000114038306670025579120000004442913038265528752_);}
	.st82{fill:none;stroke:#1A2E35;stroke-linecap:round;stroke-linejoin:round;stroke-miterlimit:10;}
	.st83{fill:url(#SVGID_00000177468621388209668960000005684113721139162254_);}
	.st84{fill:#1A2E35;}
	.st85{fill:#DB4B66;}
	.st86{fill:none;stroke:#FFFFFF;stroke-linecap:round;stroke-linejoin:round;stroke-miterlimit:10;}
	.st87{fill:url(#SVGID_00000161608213738112022240000005020190691931836320_);}
	.st88{fill:#1A2E35;stroke:#1A2E35;stroke-linecap:round;stroke-linejoin:round;stroke-miterlimit:10;}
	.st89{fill:url(#SVGID_00000161603479944591774300000004785907155001464732_);}
	.st90{fill:#CE8D84;}
	.st91{fill:#966360;}
	.st92{fill:#375A64;}
	.st93{fill:#F5F5F5;}
	.st94{fill:#E1E1E1;}
	.st95{fill:#ECECEC;}
	.st96{fill:#FAFAFA;}
	.st97{fill:url(#SVGID_00000108988728314471509310000013996391397430744464_);}
	.st98{opacity:0.3;}
	.st99{fill:url(#SVGID_00000124855685041504699360000002677952313246652585_);}
	.st100{opacity:0.2;}
	.st101{fill:#9B8116;}
	.st102{fill:#FFD001;}
	.st103{fill:url(#SVGID_00000078027905894622548870000012560628530983390097_);}
	.st104{fill:url(#SVGID_00000081619964431935887540000007534887876353270424_);}
	.st105{fill:url(#SVGID_00000066516231564880971330000008200090617162992318_);}
	.st106{fill:url(#SVGID_00000029015503131592488680000004936065205271817899_);}
	.st107{fill:url(#SVGID_00000002366168974025543800000016650807471426801318_);}
	.st108{fill:#29B99A;}
	.st109{fill:url(#SVGID_00000115509880960569913160000010343334784680352936_);}
	.st110{clip-path:url(#SVGID_00000172422892390139794210000013474948605829838226_);}
	.st111{clip-path:url(#SVGID_00000025445046796294586950000012468427666880840842_);}
	.st112{clip-path:url(#SVGID_00000130630929417827730150000011995715659624119453_);}
	.st113{clip-path:url(#SVGID_00000142169409317981631910000010721663216037022888_);}
	.st114{clip-path:url(#SVGID_00000116957125766635851050000004675485884514123429_);}
	.st115{clip-path:url(#SVGID_00000082346059615474862440000016143039832157510796_);}
	.st116{clip-path:url(#SVGID_00000087372524996883927040000003968068903246605971_);}
	.st117{clip-path:url(#SVGID_00000008864961677109708880000014569473335826063000_);}
	.st118{clip-path:url(#SVGID_00000104687254284346817790000011292921945357206428_);}
	.st119{clip-path:url(#SVGID_00000145040248106035715740000012442130555977229754_);}
	.st120{clip-path:url(#SVGID_00000074439525664181658250000010021236512189304966_);}
	.st121{fill:#F1F4EF;}
	.st122{fill:url(#SVGID_00000013897769507320910700000000370245152874906298_);}
	.st123{fill:url(#SVGID_00000153664804777929259100000012462383364391191739_);}
	.st124{fill:#FAAE00;}
	.st125{fill:#FFC700;}
	.st126{opacity:0.6;}
	.st127{fill:url(#SVGID_00000170258037329800620480000010151458958228475825_);}
	.st128{fill:url(#SVGID_00000089558001336818250750000015397807679047003057_);}
	.st129{fill:url(#SVGID_00000108995670862510084090000003764166992354385798_);}
	.st130{fill:url(#SVGID_00000076600921988404181390000012940793779277055626_);}
	.st131{fill:url(#SVGID_00000120527206986407293940000000777494935456167871_);}
	.st132{fill:url(#SVGID_00000008110002645738909680000003043341302895276460_);}
	.st133{fill:url(#SVGID_00000136385082663103636650000011200122337163175314_);}
	.st134{fill:url(#SVGID_00000105415272436910875020000011924789146176985013_);}
	.st135{fill:url(#SVGID_00000068674942193328318000000003395179709135478441_);}
	.st136{fill:url(#SVGID_00000094599742561896893040000016631201087642827938_);}
	.st137{fill:url(#SVGID_00000043435069533816327140000001769760204362063290_);}
	.st138{fill:url(#SVGID_00000160887077486634533760000000648564377708121241_);}
	.st139{fill:url(#SVGID_00000025420878592112805300000012349161418769852055_);}
	.st140{fill:url(#SVGID_00000103968296433710047390000008755129220313488804_);}
	.st141{fill:url(#SVGID_00000170265029395309099340000000089693586702132155_);}
	.st142{fill:url(#SVGID_00000083086857594370509240000013538850821918057894_);}
	.st143{fill:url(#SVGID_00000090276733079230095540000012514502960610738307_);}
	.st144{fill:url(#SVGID_00000145057650147516091890000007326392830485256843_);}
	.st145{fill:#99846D;}
	.st146{fill:none;stroke:#CEB1BD;stroke-miterlimit:10;}
	.st147{fill:none;stroke:#CEB1BD;stroke-width:3;stroke-miterlimit:10;}
	.st148{clip-path:url(#SVGID_00000055686533301565781250000005892114418656648594_);fill:#EC632B;}
	.st149{clip-path:url(#SVGID_00000055686533301565781250000005892114418656648594_);}
	.st150{fill:#37A4AB;}
	.st151{fill:#F4B26F;}
	.st152{fill:#EE8A3C;}
	.st153{fill:#6B382A;}
	.st154{clip-path:url(#SVGID_00000077304708695686781790000000891073293765384075_);fill:#F7BE29;}
	.st155{clip-path:url(#SVGID_00000077304708695686781790000000891073293765384075_);}
	.st156{fill:#6B3E5E;}
	.st157{fill:#996934;}
	.st158{clip-path:url(#SVGID_00000028308270552321999120000004005759042491957428_);fill:#37A4AB;}
	.st159{clip-path:url(#SVGID_00000028308270552321999120000004005759042491957428_);fill:#6B3E5E;}
	.st160{clip-path:url(#SVGID_00000028308270552321999120000004005759042491957428_);}
	.st161{fill:#EC632B;}
	.st162{fill:#FBCB43;}
	.st163{fill:#231F20;}
	.st164{fill:#4DBFD9;}
	.st165{fill:#E36363;}
	.st166{fill:url(#SVGID_00000138533389564931732110000016055059795607511941_);}
	.st167{fill:#348091;}
	.st168{fill:#A1822B;}
	.st169{fill:#A64949;}
	.st170{fill:#994242;}
	.st171{fill:url(#SVGID_00000147923950574847447320000000797048224310746541_);}
	.st172{fill:url(#SVGID_00000105396459853447354060000001117891519164172428_);}
	.st173{fill:url(#SVGID_00000124141355952863318140000012748844384368967598_);}
	.st174{fill:url(#SVGID_00000176736370605716887440000004072853888495755407_);}
	.st175{fill:url(#SVGID_00000124131331060268363570000004508005374370718888_);}
	.st176{fill:url(#SVGID_00000122001379253785755540000018290101862824862891_);}
	.st177{fill:url(#SVGID_00000005971433143500770790000002998158545382773136_);}
	.st178{fill:url(#SVGID_00000038370940381372520290000011364106014192754861_);}
	.st179{fill:url(#SVGID_00000142175440477370080890000000142222085615155841_);}
	.st180{fill:url(#SVGID_00000072979598871865038550000002023020926971102855_);}
	.st181{fill:url(#SVGID_00000089557835983211882550000007522361324470443181_);}
	.st182{fill:url(#SVGID_00000022518597244996045250000017762887065807932579_);}
	.st183{fill:#FEB19E;}
	.st184{fill:#FF856A;}
	.st185{fill:#23406D;}
	.st186{fill:#425766;}
	.st187{fill:url(#SVGID_00000008867885447584536850000006577078894042046880_);}
	.st188{fill:url(#SVGID_00000093157625309097291400000018072156109095363462_);}
	.st189{fill:url(#SVGID_00000146465408922402225090000016624602039580550279_);}
	.st190{fill:url(#SVGID_00000127753244603067669340000017456179454145260978_);}
	.st191{fill:url(#SVGID_00000164494690649060441860000005294811119706471091_);}
	.st192{fill:url(#SVGID_00000008133642747388561630000004709647597944439458_);}
	.st193{fill:url(#SVGID_00000148630415476558347220000008361291999114307209_);}
	.st194{fill:url(#SVGID_00000007399601335138854660000014886351874242706346_);}
	.st195{fill:url(#SVGID_00000070117938662645677090000010362406378875336894_);}
	.st196{fill:url(#SVGID_00000036227143747227291360000000568723990753951874_);}
	.st197{fill:url(#SVGID_00000026155007362839996770000014136560920973849535_);}
	.st198{clip-path:url(#SVGID_00000060738747883739549510000005500193620345072773_);}
	.st199{clip-path:url(#SVGID_00000106864967249084055670000017918162768807831474_);}
	.st200{clip-path:url(#SVGID_00000171720072414507296120000010044120238165120422_);}
	.st201{clip-path:url(#SVGID_00000007386285335673339370000018415227050662810261_);}
	.st202{clip-path:url(#SVGID_00000167356421807969296860000000825611576041751440_);}
	.st203{clip-path:url(#SVGID_00000017507002220134872650000003406878846976932797_);}
	.st204{clip-path:url(#SVGID_00000143608038626444591870000000874480401350084778_);}
	.st205{clip-path:url(#SVGID_00000076562432563131508610000007079153142747349145_);}
	.st206{clip-path:url(#SVGID_00000121985341374992739780000000064144418421508738_);}
	.st207{clip-path:url(#SVGID_00000027584602690415131150000005699489827925803688_);}
	.st208{clip-path:url(#SVGID_00000018231159855317833890000007519692834540265379_);}
	.st209{fill:url(#SVGID_00000118356181174273201010000009272617768776215179_);}
	.st210{fill:url(#SVGID_00000111913413924634327060000005942068910561631918_);}
	.st211{fill:url(#SVGID_00000028312347983060409230000005884070016582898091_);}
	.st212{fill:url(#SVGID_00000024702538223718164360000000953598611342288264_);}
	.st213{fill:url(#SVGID_00000054968193693768998470000017004552842911641995_);}
	.st214{fill:url(#SVGID_00000166670404097036244160000014489300913061006762_);}
	.st215{fill:url(#SVGID_00000149367294110091712570000013113507908041354391_);}
	.st216{fill:url(#SVGID_00000169537917367410931260000003464883069498273460_);}
	.st217{fill:url(#SVGID_00000109001081368850210850000000852814242222847386_);}
	.st218{fill:url(#SVGID_00000008137034338981977440000005011826242290929322_);}
	.st219{fill:url(#SVGID_00000176743626062339916730000012339372468108676262_);}
	.st220{fill:url(#SVGID_00000085250097231608297970000017901281511869751214_);}
	.st221{fill:url(#SVGID_00000064326073285057830440000017813232568737716923_);}
	.st222{clip-path:url(#SVGID_00000118395427149013233540000000256989509024764328_);}
	.st223{clip-path:url(#SVGID_00000079455027868292554450000010048372923701605012_);}
	.st224{clip-path:url(#SVGID_00000152223324355961941350000003694833420656798872_);}
	.st225{clip-path:url(#SVGID_00000061464342824652060630000012163297439371358139_);}
	.st226{clip-path:url(#SVGID_00000028319927986668025240000006449853134496217000_);}
	.st227{clip-path:url(#SVGID_00000115491283118520484790000011778719598464173490_);}
	.st228{clip-path:url(#SVGID_00000044140341311550502780000005915250999877329066_);}
	.st229{clip-path:url(#SVGID_00000028317757408597126660000014381221978789693574_);}
	.st230{clip-path:url(#SVGID_00000111910281038756757400000005351053173499967377_);}
	.st231{clip-path:url(#SVGID_00000000919823983961796070000013095385977530054528_);}
	.st232{clip-path:url(#SVGID_00000159466868944674860420000000897361664824554941_);}
	.st233{fill:url(#SVGID_00000158014531060022325840000009155880103673316269_);}
	.st234{fill:url(#SVGID_00000039821670218566551160000009499435462267511731_);}
	.st235{fill:url(#SVGID_00000153681315037896164400000007991036566859117725_);}
	.st236{fill:url(#SVGID_00000000202333969634571440000000342992951210739100_);}
	.st237{fill:url(#SVGID_00000145750322095518653470000007105423345124958119_);}
	.st238{fill:url(#SVGID_00000104703375650318164800000008073973569876275596_);}
	.st239{fill:none;stroke:#CCEEF4;stroke-width:1.6632;stroke-linecap:round;stroke-linejoin:round;stroke-miterlimit:10;}
	.st240{fill:none;stroke:#FFA21E;stroke-width:1.6632;stroke-linecap:round;stroke-linejoin:round;stroke-miterlimit:10;}
	.st241{fill:#FFFBFF;}
	.st242{fill:none;stroke:#FFA21E;stroke-width:1.621;stroke-linecap:round;stroke-linejoin:round;stroke-miterlimit:10;}
	.st243{fill-rule:evenodd;clip-rule:evenodd;fill:#E5E2DB;}
	.st244{fill-rule:evenodd;clip-rule:evenodd;fill:#FEFFFA;}
	.st245{fill-rule:evenodd;clip-rule:evenodd;fill:#F5773D;}
	.st246{fill-rule:evenodd;clip-rule:evenodd;fill:#143143;}
	.st247{fill-rule:evenodd;clip-rule:evenodd;fill:#172C36;}
	.st248{fill-rule:evenodd;clip-rule:evenodd;fill:#FFFFFF;}
	.st249{fill-rule:evenodd;clip-rule:evenodd;fill:url(#SVGID_00000131349309252168940170000014482832214510577851_);}
	.st250{fill-rule:evenodd;clip-rule:evenodd;fill:url(#SVGID_00000136389886014031507150000003370402847540702106_);}
	
		.st251{fill-rule:evenodd;clip-rule:evenodd;fill:#FFFFFF;stroke:#1A2E35;stroke-linecap:round;stroke-linejoin:round;stroke-miterlimit:10;}
	.st252{fill:url(#SVGID_00000039100936073878919440000014940389277040572813_);}
	.st253{fill:url(#SVGID_00000174568954406361467260000000601669719823136650_);}
	.st254{fill:#FBB255;}
	.st255{fill:#EC5553;}
	.st256{fill:url(#SVGID_00000161594493892406572690000004978425272204596886_);}
	.st257{fill:#F5773D;}
	.st258{fill:#F38469;}
	.st259{fill:url(#SVGID_00000183938609059611056030000011129186884421694639_);}
	.st260{fill:#386A87;}
	.st261{fill:#F4A091;}
	.st262{fill:#F18F79;}
	.st263{fill:#FAC9BC;}
	.st264{fill:#F7BFAD;}
	.st265{fill:#414142;}
	.st266{fill:#F3A8BD;}
	.st267{fill:#F091A8;}
	.st268{fill:#7E7A7B;}
	.st269{fill:url(#SVGID_00000102511823752301312670000004319301623852191423_);}
	.st270{fill:#F7F7F7;}
	.st271{fill:#F8CAD5;}
	.st272{fill:#F5BBC6;}
	.st273{fill:url(#SVGID_00000155136545989631426410000012640083391996220583_);}
	.st274{fill:#A2BA63;}
	.st275{fill:#F27540;}
	.st276{fill:#ED4327;}
	.st277{fill:url(#SVGID_00000098214255482304739260000015056555532439801017_);}
	.st278{fill:url(#SVGID_00000091732207676773626280000012185892541364902817_);}
	.st279{fill:url(#SVGID_00000052093683616770345150000015014324298674212258_);}
	.st280{fill:url(#SVGID_00000029735510032935848740000015596131012788766383_);}
	.st281{fill:url(#SVGID_00000106853422396438733360000012280766413436478596_);}
	.st282{fill:url(#SVGID_00000145029295412625810350000009797929640453537681_);}
	.st283{clip-path:url(#SVGID_00000098201956281008659180000009099581670844457623_);}
	.st284{fill:url(#SVGID_00000129167053831071284390000008471614175953804672_);}
	.st285{fill:#FAFCFF;stroke:#0C6BF4;stroke-width:1.1813;stroke-miterlimit:10;}
	.st286{opacity:0.47;fill:#3150BC;}
	.st287{fill:#BAC1CC;}
	.st288{fill:#EDF1F9;}
	.st289{fill:#F4D242;}
	.st290{fill:#593131;}
	.st291{fill:#754343;}
	.st292{fill:url(#SVGID_00000026865462651347970990000003715707676373982888_);}
	.st293{fill:url(#SVGID_00000047050784344729936930000000962497245188892816_);}
	.st294{fill:url(#SVGID_00000011001200137507971940000014517029035194597285_);}
	.st295{fill:#A8AFBA;}
	.st296{fill:url(#SVGID_00000083071608378403697140000004856388051100300728_);}
	.st297{fill:url(#SVGID_00000142892296355850810970000005481389314276867207_);}
	.st298{fill:url(#SVGID_00000061443173258712568670000013476143173494831766_);}
	.st299{fill:#A1A7AF;}
	.st300{fill:url(#SVGID_00000101800199475751627000000001823509588354780546_);}
	.st301{fill:url(#SVGID_00000097465400482005788950000014316004934983123374_);}
	.st302{fill:url(#SVGID_00000143593257602577656040000006288525112764856999_);}
	.st303{fill:#F49D8C;}
	.st304{fill:url(#SVGID_00000132793497300353977240000011274663893962467250_);}
	.st305{fill:url(#SVGID_00000165198450070272909330000014181492393181203079_);}
	.st306{fill:url(#SVGID_00000020388580330572530390000001600056576862708923_);}
	.st307{fill:#383838;}
	.st308{fill:#838689;}
	.st309{fill:url(#SVGID_00000085958493834760970820000006430722218731929749_);}
	.st310{fill:url(#SVGID_00000014594903091633541410000012699245517420331913_);}
	.st311{fill:url(#SVGID_00000075135422681093979840000016593676440826032807_);}
	.st312{fill:#EFA245;}
	.st313{fill:url(#SVGID_00000104669541226567543760000008822222254764372369_);}
	.st314{fill:url(#SVGID_00000143584288787296993100000010194183115843219894_);}
	.st315{fill:url(#SVGID_00000114073881670680709220000003773710234251502228_);}
	.st316{fill:#32424C;}
	.st317{fill:url(#SVGID_00000042727092740072752860000016310730874229852598_);}
	.st318{fill:url(#SVGID_00000068638149154288708910000013144794007087858869_);}
	.st319{fill:url(#SVGID_00000009579967082061634520000005865565769205707158_);}
	.st320{fill:url(#SVGID_00000119817179174390599100000011729938918726413987_);}
	.st321{fill:#E1E7F4;}
	.st322{fill:#F8FBFF;}
	.st323{fill:url(#SVGID_00000140001639141038670110000004162025813460801944_);}
	.st324{fill:url(#SVGID_00000045597653529822097390000017655501917787838396_);}
	.st325{fill:url(#SVGID_00000018953495624868626120000012252815285331558045_);}
	.st326{fill:url(#SVGID_00000103983180086266433020000013448567500707469493_);}
	.st327{fill:url(#SVGID_00000026123127958840541340000003370891668339944864_);}
	.st328{fill:url(#SVGID_00000096778997164195734420000000135898867661191866_);}
	.st329{fill:url(#SVGID_00000070078539440828908730000000030511360056585891_);}
	.st330{fill:url(#SVGID_00000105415408246866991690000013699488002025230479_);}
	.st331{fill:url(#SVGID_00000152228670485271901980000002365185389081394610_);}
	.st332{fill:url(#SVGID_00000115501457071389399890000013662348020516852646_);}
	.st333{fill:url(#SVGID_00000065058949622127726950000004838695629841852826_);}
	.st334{fill:url(#SVGID_00000116946972833348175190000015637592736943340475_);}
	.st335{fill:url(#SVGID_00000087370537099796638010000002729782366650486660_);}
	.st336{fill:url(#SVGID_00000031203203704220921690000011896432869656072593_);}
	.st337{fill:url(#SVGID_00000144334333908304956710000017619537627910759048_);}
	.st338{fill:url(#SVGID_00000154389776243012547060000014782697027985385128_);}
	.st339{fill:url(#SVGID_00000132076980572621560660000002149321836942872220_);}
	.st340{fill:url(#SVGID_00000035525027779094426050000012235421339089672364_);}
	.st341{fill:url(#SVGID_00000074413184973386972450000004249200135892754335_);}
	.st342{fill:url(#SVGID_00000029031616945952410010000017102892044474791062_);}
	.st343{fill:url(#SVGID_00000056425058455613831670000013328912094572014210_);}
	.st344{fill:url(#SVGID_00000072280844736968922720000007568263858075463307_);}
	.st345{fill:url(#SVGID_00000172441534441520755810000013001887040908427446_);}
	.st346{fill:url(#SVGID_00000183934950130892235380000010362781884584195716_);}
	.st347{fill:url(#SVGID_00000096054792957899411570000017699156183243348907_);}
	.st348{fill:url(#SVGID_00000180346914646701002790000010810808667070018467_);}
	.st349{fill:url(#SVGID_00000084494702169539276780000001852778398015934134_);}
	.st350{fill:url(#SVGID_00000136369826384502671910000016943231791980701112_);}
	.st351{fill:url(#SVGID_00000137132496088004911280000016260434341761586322_);}
	.st352{fill:url(#SVGID_00000097487239773149190120000005809205292159635897_);}
	.st353{fill:url(#SVGID_00000066486847113902599390000006557762444419929755_);}
	.st354{fill:url(#SVGID_00000132772394492519807570000002047806481300884914_);}
	.st355{fill:url(#SVGID_00000084523733258033593390000008240799434594626231_);}
	.st356{fill:url(#SVGID_00000080190950104435785560000016693989543139217809_);}
	.st357{fill:url(#SVGID_00000078038748633724897460000006082762859018860184_);}
	.st358{fill:url(#SVGID_00000099629921822076286010000012071435698479264431_);}
	.st359{fill:url(#SVGID_00000052073432928004751780000008399971990884662689_);}
	.st360{fill:url(#SVGID_00000088124336257422921350000017926223460599337346_);}
	.st361{fill:url(#SVGID_00000117657727831271121310000012354901237422541229_);}
	.st362{fill:url(#SVGID_00000008118195103375840310000012618113159725996210_);}
	.st363{fill:url(#SVGID_00000123428351648353483470000009863866691920976278_);}
	.st364{fill:url(#SVGID_00000083786669131893579480000017283590305568287898_);}
	.st365{fill:url(#SVGID_00000167387037649715421220000007857165162706749060_);}
	.st366{fill:url(#SVGID_00000134932853661987835470000005647274600529384368_);}
	.st367{fill:url(#SVGID_00000146476043529599483980000001462954907375092098_);}
	.st368{fill:url(#SVGID_00000174601828997046715450000015607593123844313760_);}
	.st369{fill:url(#SVGID_00000013887329890287839760000000272612858038872501_);}
	.st370{fill:url(#SVGID_00000074418923192473920440000005040690172018004118_);}
	.st371{fill:url(#SVGID_00000118385181258784636570000013782981223939338680_);}
	.st372{fill:url(#SVGID_00000087386823893589824760000014920547419795748751_);}
	.st373{fill:url(#SVGID_00000008114115883162410740000005858497567579674028_);}
	.st374{fill:url(#SVGID_00000018925474696295429890000005205355383572029631_);}
	.st375{fill:url(#SVGID_00000120532746645832750580000009183958749145308808_);}
	.st376{fill:url(#SVGID_00000147931329203849153100000011694417653502109090_);}
	.st377{fill:url(#SVGID_00000003813391150141696460000016158535020436271766_);}
	.st378{fill:url(#SVGID_00000173860883849510009790000000575152159296661692_);}
	.st379{fill:url(#SVGID_00000050658181420208714730000005113150244212829341_);}
	.st380{fill:url(#SVGID_00000140727147099070207770000010277934608796368809_);}
	.st381{fill:url(#SVGID_00000147941503417997368120000006517451066097479573_);}
	.st382{fill:url(#SVGID_00000027604135477485172450000001471263930012911031_);}
	.st383{fill:url(#SVGID_00000138563259129474893420000012099488391922676864_);}
	.st384{fill:url(#SVGID_00000176734750567021740100000007894780470354489781_);}
	.st385{fill:url(#SVGID_00000109734931442850273180000010702865053866574234_);}
	.st386{fill:url(#SVGID_00000016039888976598711980000012465109215984265374_);}
	.st387{fill:url(#SVGID_00000054972726447041217100000009788848652491644078_);}
	.st388{fill:url(#SVGID_00000101801437719347320410000015811242562880052621_);}
	.st389{fill:url(#SVGID_00000058573572006658361400000005430993235450234806_);}
	.st390{fill:url(#SVGID_00000111894355199983405130000007888904661297376170_);}
	.st391{fill:url(#SVGID_00000007387915308621472340000002241888301232634033_);}
	.st392{opacity:0.4;fill:#FAAE00;}
	.st393{fill:url(#SVGID_00000075874843860611603160000006758862519148063130_);}
	.st394{fill:url(#SVGID_00000062171759847596688240000015963765907891693488_);}
	.st395{opacity:0.1;}
	.st396{fill:#0E6ADD;}
	.st397{opacity:0.2;fill:#0E6ADD;}
	.st398{fill:url(#SVGID_00000181787843856217674100000016482297214815670439_);}
	.st399{fill:url(#SVGID_00000148624705882862834990000013156621818744416417_);stroke:#DBDBDB;stroke-miterlimit:10;}
	.st400{fill:url(#SVGID_00000130624896052283871760000009356417872620698553_);}
	.st401{fill:url(#SVGID_00000157276508559115374370000011840968821493863578_);}
	.st402{fill:url(#SVGID_00000062185342847899941920000004051250960287283339_);}
	.st403{fill-rule:evenodd;clip-rule:evenodd;fill:url(#SVGID_00000093889319092705914640000004519838444891296655_);}
	.st404{fill-rule:evenodd;clip-rule:evenodd;fill:url(#SVGID_00000098198889488428698300000004924448584265969827_);}
	.st405{fill:url(#SVGID_00000018933715548353223830000014365343111284139167_);}
	.st406{fill:url(#SVGID_00000093856491120011688520000007896940478266623126_);}
	.st407{fill:url(#SVGID_00000060712121178529884740000011716112354069981331_);}
	.st408{fill:url(#SVGID_00000055704992443854673210000010904484230648950460_);}
	.st409{fill:url(#SVGID_00000045577525187501297290000016385886106200393383_);}
	.st410{fill:url(#SVGID_00000020397428578186692170000016603838185291271592_);}
	.st411{fill:url(#SVGID_00000155106145971032204290000016678309550751384707_);}
	.st412{fill:url(#SVGID_00000104685668700251466350000017703929054963713441_);}
	.st413{fill:url(#SVGID_00000118365823688828746300000006054913014167689150_);}
	.st414{fill:url(#SVGID_00000173868884261104941470000002253381615237777537_);}
	.st415{fill:url(#SVGID_00000142856529416006065900000001516214286499464074_);}
	.st416{fill-rule:evenodd;clip-rule:evenodd;fill:url(#SVGID_00000086680048734063853840000013063612067411131287_);}
	.st417{fill-rule:evenodd;clip-rule:evenodd;fill:url(#SVGID_00000173145314602442924510000001961509390790450099_);}
	.st418{fill:url(#SVGID_00000064345465423981210640000007243348923098499991_);}
	.st419{fill:url(#SVGID_00000179634485617603586500000003327692385855345073_);}
	.st420{fill:url(#SVGID_00000173871524412032480670000006441349220554367674_);}
	.st421{fill:url(#SVGID_00000035515375211570805340000001583849007306263480_);}
	.st422{fill:url(#SVGID_00000173143895696093100090000007699158197296446375_);}
	.st423{fill:url(#SVGID_00000180354609170524098750000006124323059019959733_);}
	.st424{fill:url(#SVGID_00000096765206988128183530000016574776829478164354_);}
	.st425{fill:url(#SVGID_00000130617262927568732170000016098654445887832752_);}
	.st426{fill:url(#SVGID_00000171682948584163672520000010037490662532336824_);}
</style>
<g>
	<g>
		<g>
			<rect x="8.51" y="25.94" class="st162" width="112.98" height="73.97"/>
			<path class="st163" d="M121.49,100.71H8.51c-0.44,0-0.79-0.35-0.79-0.79V25.94c0-0.44,0.35-0.79,0.79-0.79h112.98
				c0.44,0,0.79,0.35,0.79,0.79v73.97C122.28,100.35,121.93,100.71,121.49,100.71z M9.3,99.12H120.7V26.73H9.3V99.12z"/>
		</g>
		<g>
			<rect x="12.12" y="39.08" class="st28" width="106.05" height="56.26"/>
			<path class="st163" d="M118.97,96.13H11.33V38.29h107.64V96.13z M12.92,94.55h104.46V39.87H12.92V94.55z"/>
		</g>
		<g>
			<path class="st28" d="M114.27,32.43c0,1.26-1.02,2.28-2.28,2.28c-1.26,0-2.28-1.02-2.28-2.28c0-1.26,1.02-2.28,2.28-2.28
				C113.24,30.15,114.27,31.17,114.27,32.43z"/>
			<path class="st163" d="M111.98,30.15c1.26,0,2.28,1.02,2.28,2.28c0,1.26-1.02,2.28-2.28,2.28c-1.26,0-2.28-1.02-2.28-2.28
				C109.7,31.17,110.72,30.15,111.98,30.15L111.98,30.15z M111.98,28.57c-2.13,0-3.87,1.74-3.87,3.87c0,2.13,1.74,3.87,3.87,3.87
				c2.13,0,3.87-1.74,3.87-3.87C115.85,30.3,114.12,28.57,111.98,28.57L111.98,28.57z"/>
		</g>
		<g>
			<path class="st28" d="M105.07,32.43c0,1.26-1.02,2.28-2.28,2.28c-1.26,0-2.28-1.02-2.28-2.28c0-1.26,1.02-2.28,2.28-2.28
				C104.05,30.15,105.07,31.17,105.07,32.43z"/>
			<path class="st163" d="M102.79,30.15c1.26,0,2.28,1.02,2.28,2.28c0,1.26-1.02,2.28-2.28,2.28c-1.26,0-2.28-1.02-2.28-2.28
				C100.51,31.17,101.53,30.15,102.79,30.15L102.79,30.15z M102.79,28.57c-2.13,0-3.87,1.74-3.87,3.87c0,2.13,1.74,3.87,3.87,3.87
				c2.13,0,3.87-1.74,3.87-3.87C106.66,30.3,104.93,28.57,102.79,28.57L102.79,28.57z"/>
		</g>
		<g>
			<path class="st28" d="M95.88,32.43c0,1.26-1.02,2.28-2.28,2.28c-1.26,0-2.28-1.02-2.28-2.28c0-1.26,1.02-2.28,2.28-2.28
				C94.86,30.15,95.88,31.17,95.88,32.43z"/>
			<path class="st163" d="M93.6,30.15c1.26,0,2.28,1.02,2.28,2.28c0,1.26-1.02,2.28-2.28,2.28c-1.26,0-2.28-1.02-2.28-2.28
				C91.32,31.17,92.34,30.15,93.6,30.15L93.6,30.15z M93.6,28.57c-2.13,0-3.87,1.74-3.87,3.87c0,2.13,1.74,3.87,3.87,3.87
				c2.13,0,3.87-1.74,3.87-3.87C97.47,30.3,95.74,28.57,93.6,28.57L93.6,28.57z"/>
		</g>
		<g>
			<rect x="25.37" y="46.03" class="st163" width="21.3" height="1.59"/>
		</g>
		<g>
			<rect x="25.37" y="67.05" class="st163" width="33.66" height="1.59"/>
		</g>
		<g>
			<path class="st28" d="M32.36,55.19c0,1.26-1.02,2.28-2.28,2.28c-1.26,0-2.28-1.02-2.28-2.28c0-1.26,1.02-2.28,2.28-2.28
				C31.34,52.91,32.36,53.93,32.36,55.19z"/>
			<path class="st163" d="M30.08,52.91c1.26,0,2.28,1.02,2.28,2.28c0,1.26-1.02,2.28-2.28,2.28c-1.26,0-2.28-1.02-2.28-2.28
				C27.8,53.93,28.82,52.91,30.08,52.91L30.08,52.91z M30.08,51.32c-2.13,0-3.87,1.73-3.87,3.87c0,2.13,1.73,3.87,3.87,3.87
				c2.13,0,3.87-1.73,3.87-3.87C33.95,53.06,32.21,51.32,30.08,51.32L30.08,51.32z"/>
		</g>
		<g>
			<circle class="st28" cx="38.41" cy="55.19" r="2.28"/>
			<path class="st163" d="M38.41,52.91c1.26,0,2.28,1.02,2.28,2.28c0,1.26-1.02,2.28-2.28,2.28c-1.26,0-2.28-1.02-2.28-2.28
				C36.13,53.93,37.15,52.91,38.41,52.91L38.41,52.91z M38.41,51.32c-2.13,0-3.87,1.73-3.87,3.87c0,2.13,1.74,3.87,3.87,3.87
				c2.13,0,3.87-1.73,3.87-3.87C42.28,53.06,40.54,51.32,38.41,51.32L38.41,51.32z"/>
		</g>
		<g>
			<circle class="st28" cx="46.74" cy="55.19" r="2.28"/>
			<path class="st163" d="M46.74,52.91c1.26,0,2.28,1.02,2.28,2.28c0,1.26-1.02,2.28-2.28,2.28c-1.26,0-2.28-1.02-2.28-2.28
				C44.46,53.93,45.48,52.91,46.74,52.91L46.74,52.91z M46.74,51.32c-2.13,0-3.87,1.73-3.87,3.87c0,2.13,1.73,3.87,3.87,3.87
				s3.87-1.73,3.87-3.87C50.61,53.06,48.88,51.32,46.74,51.32L46.74,51.32z"/>
		</g>
		<g>
			<circle class="st28" cx="55.08" cy="55.19" r="2.28"/>
			<path class="st163" d="M55.08,52.91c1.26,0,2.28,1.02,2.28,2.28c0,1.26-1.02,2.28-2.28,2.28c-1.26,0-2.28-1.02-2.28-2.28
				C52.8,53.93,53.82,52.91,55.08,52.91L55.08,52.91z M55.08,51.32c-2.13,0-3.87,1.73-3.87,3.87c0,2.13,1.73,3.87,3.87,3.87
				c2.13,0,3.87-1.73,3.87-3.87C58.94,53.06,57.21,51.32,55.08,51.32L55.08,51.32z"/>
		</g>
		<g>
			<path class="st28" d="M65.69,55.19c0,1.26-1.02,2.28-2.28,2.28c-1.26,0-2.28-1.02-2.28-2.28c0-1.26,1.02-2.28,2.28-2.28
				C64.67,52.91,65.69,53.93,65.69,55.19z"/>
			<path class="st163" d="M63.41,52.91c1.26,0,2.28,1.02,2.28,2.28c0,1.26-1.02,2.28-2.28,2.28c-1.26,0-2.28-1.02-2.28-2.28
				C61.13,53.93,62.15,52.91,63.41,52.91L63.41,52.91z M63.41,51.32c-2.13,0-3.87,1.73-3.87,3.87c0,2.13,1.74,3.87,3.87,3.87
				c2.13,0,3.87-1.73,3.87-3.87C67.28,53.06,65.54,51.32,63.41,51.32L63.41,51.32z"/>
		</g>
		<g>
			<path class="st28" d="M32.36,76.61c0,1.26-1.02,2.28-2.28,2.28c-1.26,0-2.28-1.02-2.28-2.28c0-1.26,1.02-2.28,2.28-2.28
				C31.34,74.33,32.36,75.35,32.36,76.61z"/>
			<path class="st163" d="M30.08,74.33c1.26,0,2.28,1.02,2.28,2.28c0,1.26-1.02,2.28-2.28,2.28c-1.26,0-2.28-1.02-2.28-2.28
				C27.8,75.35,28.82,74.33,30.08,74.33L30.08,74.33z M30.08,72.74c-2.13,0-3.87,1.73-3.87,3.87c0,2.13,1.73,3.87,3.87,3.87
				c2.13,0,3.87-1.73,3.87-3.87C33.95,74.48,32.21,72.74,30.08,72.74L30.08,72.74z"/>
		</g>
		<g>
			<circle class="st28" cx="38.41" cy="76.61" r="2.28"/>
			<path class="st163" d="M38.41,74.33c1.26,0,2.28,1.02,2.28,2.28c0,1.26-1.02,2.28-2.28,2.28c-1.26,0-2.28-1.02-2.28-2.28
				C36.13,75.35,37.15,74.33,38.41,74.33L38.41,74.33z M38.41,72.74c-2.13,0-3.87,1.73-3.87,3.87c0,2.13,1.74,3.87,3.87,3.87
				c2.13,0,3.87-1.73,3.87-3.87C42.28,74.48,40.54,72.74,38.41,72.74L38.41,72.74z"/>
		</g>
		<g>
			<circle class="st28" cx="46.74" cy="76.61" r="2.28"/>
			<path class="st163" d="M46.74,74.33c1.26,0,2.28,1.02,2.28,2.28c0,1.26-1.02,2.28-2.28,2.28c-1.26,0-2.28-1.02-2.28-2.28
				C44.46,75.35,45.48,74.33,46.74,74.33L46.74,74.33z M46.74,72.74c-2.13,0-3.87,1.73-3.87,3.87c0,2.13,1.73,3.87,3.87,3.87
				s3.87-1.73,3.87-3.87C50.61,74.48,48.88,72.74,46.74,72.74L46.74,72.74z"/>
		</g>
		<g>
			<circle class="st28" cx="55.08" cy="76.61" r="2.28"/>
			<path class="st163" d="M55.08,74.33c1.26,0,2.28,1.02,2.28,2.28c0,1.26-1.02,2.28-2.28,2.28c-1.26,0-2.28-1.02-2.28-2.28
				C52.8,75.35,53.82,74.33,55.08,74.33L55.08,74.33z M55.08,72.74c-2.13,0-3.87,1.73-3.87,3.87c0,2.13,1.73,3.87,3.87,3.87
				c2.13,0,3.87-1.73,3.87-3.87C58.94,74.48,57.21,72.74,55.08,72.74L55.08,72.74z"/>
		</g>
		<g>
			<path class="st28" d="M65.69,76.61c0,1.26-1.02,2.28-2.28,2.28c-1.26,0-2.28-1.02-2.28-2.28c0-1.26,1.02-2.28,2.28-2.28
				C64.67,74.33,65.69,75.35,65.69,76.61z"/>
			<path class="st163" d="M63.41,74.33c1.26,0,2.28,1.02,2.28,2.28c0,1.26-1.02,2.28-2.28,2.28c-1.26,0-2.28-1.02-2.28-2.28
				C61.13,75.35,62.15,74.33,63.41,74.33L63.41,74.33z M63.41,72.74c-2.13,0-3.87,1.73-3.87,3.87c0,2.13,1.74,3.87,3.87,3.87
				c2.13,0,3.87-1.73,3.87-3.87C67.28,74.48,65.54,72.74,63.41,72.74L63.41,72.74z"/>
		</g>
	</g>
	<g>
		<g>
			<linearGradient id="SVGID_1_" gradientUnits="userSpaceOnUse" x1="70.2733" y1="69.6045" x2="113.8856" y2="69.6045">
				<stop  offset="2.237672e-07" style="stop-color:#F3719C"/>
				<stop  offset="1" style="stop-color:#FF9373"/>
			</linearGradient>
			<path class="st1" d="M107.5,54.19c-8.52-8.52-22.32-8.52-30.84,0c-8.52,8.52-8.52,22.32,0,30.84c8.52,8.52,22.32,8.52,30.84,0
				C116.01,76.51,116.01,62.7,107.5,54.19z M103.59,81.11c-6.36,6.36-16.66,6.36-23.01,0c-6.36-6.36-6.36-16.66,0-23.01
				c6.36-6.35,16.66-6.35,23.01,0C109.94,64.45,109.94,74.76,103.59,81.11z"/>
			<path class="st163" d="M92.08,92.2c-6.04,0-11.71-2.35-15.98-6.62c-4.27-4.27-6.62-9.94-6.62-15.98c0-6.04,2.35-11.71,6.62-15.98
				c4.27-4.27,9.94-6.62,15.98-6.62c6.04,0,11.71,2.35,15.98,6.62c4.27,4.27,6.62,9.94,6.62,15.98c0,6.04-2.35,11.71-6.62,15.98
				C103.79,89.85,98.12,92.2,92.08,92.2z M92.08,48.59c-5.61,0-10.89,2.19-14.86,6.15c-3.97,3.97-6.15,9.25-6.15,14.86
				c0,5.61,2.19,10.89,6.15,14.86c3.97,3.97,9.25,6.15,14.86,6.15s10.89-2.19,14.86-6.15c3.97-3.97,6.15-9.25,6.15-14.86
				c0-5.61-2.19-10.89-6.15-14.86C102.97,50.78,97.69,48.59,92.08,48.59z M92.08,86.67c-4.56,0-8.84-1.78-12.07-5
				c-6.65-6.65-6.65-17.48,0-24.14c3.22-3.22,7.51-5,12.07-5c4.56,0,8.84,1.77,12.07,5c6.65,6.65,6.65,17.48,0,24.14
				C100.92,84.9,96.64,86.67,92.08,86.67z M92.08,54.12c-4.13,0-8.02,1.61-10.95,4.53c-6.03,6.04-6.03,15.86,0,21.89
				c2.92,2.92,6.81,4.53,10.95,4.53c4.13,0,8.02-1.61,10.95-4.53c6.04-6.04,6.04-15.86,0-21.89C100.1,55.73,96.21,54.12,92.08,54.12
				z"/>
		</g>
		<g>
			<circle class="st164" cx="92.08" cy="69.6" r="16.27"/>
			<path class="st163" d="M92.08,86.67c-4.56,0-8.84-1.78-12.07-5c-6.65-6.65-6.65-17.48,0-24.14c3.22-3.22,7.51-5,12.07-5
				c4.56,0,8.84,1.77,12.07,5c6.65,6.65,6.65,17.48,0,24.14C100.92,84.9,96.64,86.67,92.08,86.67z M92.08,54.12
				c-4.13,0-8.02,1.61-10.95,4.53c-6.03,6.04-6.03,15.86,0,21.89c2.92,2.92,6.81,4.53,10.95,4.53c4.13,0,8.02-1.61,10.95-4.53
				c6.04-6.04,6.04-15.86,0-21.89C100.1,55.73,96.21,54.12,92.08,54.12z"/>
		</g>
		<g>
			
				<linearGradient id="SVGID_00000182520496673062776430000017634174025754957751_" gradientUnits="userSpaceOnUse" x1="38.4115" y1="103.0577" x2="79.8512" y2="103.0577">
				<stop  offset="2.237672e-07" style="stop-color:#F3719C"/>
				<stop  offset="1" style="stop-color:#FF9373"/>
			</linearGradient>
			<polygon style="fill:url(#SVGID_00000182520496673062776430000017634174025754957751_);" points="44.4,123.73 38.41,117.75 
				73.87,82.38 79.85,88.37 			"/>
			<path class="st163" d="M44.4,124.85l-7.11-7.11l36.58-36.49l7.1,7.11L44.4,124.85z M39.53,117.75l4.86,4.86l34.33-34.24
				l-4.86-4.86L39.53,117.75z"/>
		</g>
	</g>
</g>
</svg>
