<svg
            width="265"
            height="204"
            viewBox="0 0 265 204"
            fill="none"
            xmlns="http://www.w3.org/2000/svg">
            <path
              d="M264.858 127.891C264.858 147.117 260.614 161.942 255.047 173.112C244.53 194.248 229.315 202.283 229.315 202.283H33.3527C33.3527 202.283 26.8959 196.158 19.6723 184.522C18.9129 183.31 18.1522 182.037 17.3922 180.703C16.5644 179.272 15.7421 177.766 14.9273 176.199C7.21063 161.415 0 140.615 0 114.524C0 49.1315 99.6397 12.9976 163.708 12.9976C227.783 12.9969 264.858 56.117 264.858 127.891Z"
              fill="#FDE4E9" />
            <path
              d="M255.046 159.293V173.112C244.53 194.248 229.315 202.283 229.315 202.283H33.3523C33.3523 202.283 26.8955 196.157 19.6719 184.522V170.039H30.1958V128.178L39.7344 138.103H43.6913V180.956H48.0125V155.049H49.334V150.046H58.1058V155.049H59.4272V180.956H62.6515V133.435H68.3551V82.9088H72.5729V64.7299H78.2765V52.7658H83.7959V49.1313H93.6009V52.7658H95.6269V78.9185H98.6335V123.243H103.399V180.956H106.001V133.435H111.704V82.9088H114.416V78.9185H116.518V72.7105H121.125V57.201H121.729V72.7105H126.329V78.9185H128.438V82.9088H131.143V133.435H132.951L139.852 145.33V155.049H142.584V112.607H143.899V108.87H146.973V97.7065H147.576V108.87H150.644V112.607H151.013L159.942 125.016V129.855H163.619V118.521H168.603V111.053H173.416V108.788H181.983V111.053H183.749V127.37H186.378V155.022H190.534V136.241H198.401V123.531H201.106V120.841H203.215V116.652H213.027V120.841H215.129V123.531H217.839V136.241H221.954V188.772H225.002V183.084H232.027V169.491H235.08V165.645H243.831V159.293H245.234V156.336H253.061V159.293H255.046Z"
              fill="#CCCCCC" />
            <path
              d="M96.3235 202.047C96.3235 202.995 80.9943 203.763 62.0882 203.763C43.1794 203.763 27.8516 202.995 27.8516 202.047C27.8516 201.099 43.1794 200.332 62.0882 200.332C80.995 200.332 96.3235 201.099 96.3235 202.047Z"
              fill="#BBC8CF" />
            <path
              d="M179.188 202.284C179.188 203.232 192.745 204 209.469 204C226.192 204 239.748 203.232 239.748 202.284C239.748 201.337 226.192 200.569 209.469 200.569C192.745 200.569 179.188 201.337 179.188 202.284Z"
              fill="#BBC8CF" />
            <path
              d="M184.068 201.854C187.506 189.122 188.422 178.276 188.422 178.276L196.192 177.993C196.192 177.993 194.413 189.278 190.437 201.854H184.068Z"
              fill="#8D5433" />
            <path
              d="M194.248 153.424C190.573 154.678 188.951 160.379 187.907 168.009C186.862 175.639 185.048 194.104 185.048 194.104C185.048 194.104 190.297 194.603 193.546 194.307C197.499 180.18 206.117 149.376 194.248 153.424Z"
              fill="#C4C4C4" />
            <path
              d="M200.682 201.854C202.371 200.354 203.598 199.283 203.598 199.283C203.598 199.283 205.472 200.337 208.188 201.854H200.682Z"
              fill="#017CA8" />
            <path
              d="M214.945 140.419C194.172 144.039 187.49 119.398 187.49 119.398C187.49 119.398 184.148 116.047 184.58 107.793C184.994 99.8795 190.995 91.4177 202.192 90.5793C219.474 89.2856 228.999 99.0753 229.535 114.196C230 127.247 222.082 139.176 214.945 140.419Z"
              fill="#1A1B25" />
            <path
              d="M225.857 201.854H191.541L192.385 197.118L190.798 181.803C190.798 181.803 187.895 178.344 187.906 174.735C189.493 168.005 192.899 165.846 194.247 153.424C198.072 152.063 201.344 150.696 201.344 150.696L209.586 155.437L217.835 150.696C217.835 150.696 220.28 150.761 224.106 152.118C227.93 153.48 228.152 164.37 228.152 174.913C228.152 178.951 224.203 197.118 224.203 197.118L225.857 201.854Z"
              fill="#DADADA" />
            <path
              d="M201.343 150.696C199.132 155.3 188.159 166.289 201.239 167.026C218.862 168.021 217.014 154.406 217.835 150.696C214.712 150.15 213.501 142.55 215.875 137.574C218.249 132.597 200.796 136.51 202.965 138.882C205.135 141.255 204.485 150.15 201.343 150.696Z"
              fill="#8D5433" />
            <path
              d="M203.214 148.98C208.285 147.018 210.917 140.816 210.895 135.271C206.722 135.731 201.749 137.55 202.967 138.882C204.598 140.672 204.635 146.143 203.214 148.98Z"
              fill="#EBDFDA" />
            <path
              d="M222.533 106.026L221.659 127.362C221.659 135.648 207.836 146.029 201.803 146.029C196.742 146.029 191.222 137.942 189.11 129.908C186.819 121.179 187.666 109.892 188.057 106.026H222.533Z"
              fill="#8D5433" />
            <path
              d="M217.878 124.37C217.878 126.903 218.849 128.689 221.592 128.956C225.603 129.343 226.327 125.947 226.284 123.839C226.233 121.397 223.889 119.741 222.415 119.837C219.666 120.02 217.878 121.84 217.878 124.37Z"
              fill="#8D5433" />
            <path
              d="M209.429 120.556C209.429 121.438 208.715 122.15 207.838 122.15C206.957 122.15 206.245 121.438 206.245 120.556C206.245 119.678 206.957 118.968 207.838 118.968C208.715 118.968 209.429 119.678 209.429 120.556Z"
              fill="#1A1B25" />
            <path
              d="M194.18 120.556C194.18 121.438 193.469 122.15 192.588 122.15C191.71 122.15 190.996 121.438 190.996 120.556C190.996 119.678 191.71 118.968 192.588 118.968C193.469 118.968 194.18 119.678 194.18 120.556Z"
              fill="#1A1B25" />
            <path
              d="M204.351 132.989C204.351 137.407 201.102 138.278 199.442 138.278C197.782 138.278 193.957 137.408 193.957 132.989H204.351Z"
              fill="#72210D" />
            <path
              d="M204.286 132.99C203.142 132.47 200.802 131.765 199.154 131.765C197.504 131.765 195.821 132.266 193.964 132.99H204.286Z"
              fill="#72210D" />
            <path
              d="M230.021 201.853C230.279 188.746 228.575 178.087 228.575 178.087L236.047 175.946C236.047 175.946 237.102 188.126 236.104 201.853H230.021Z"
              fill="#8D5433" />
            <path
              d="M224.106 152.118C221.474 151.763 224.559 168.558 226.834 172.211C227.065 180.607 229.103 194.262 229.103 194.262C229.103 194.262 234.318 193.485 237.402 192.417C237.841 177.754 236.536 153.789 224.106 152.118Z"
              fill="#C4C4C4" />
            <path
              d="M199.136 125.92C198.163 125.92 197.351 126.475 197.113 127.23C197.067 127.087 197.034 126.935 197.034 126.777C197.034 125.804 197.976 125.014 199.136 125.014C200.297 125.014 201.24 125.804 201.24 126.777C201.24 126.935 201.206 127.087 201.16 127.23C200.919 126.475 200.11 125.92 199.136 125.92Z"
              fill="#EBDFDA" />
            <path
              d="M224.432 124.54C224.396 125.567 223.142 127.013 222.449 126.577C221.756 126.14 223.32 123.696 220.888 124.205C220.888 125.016 221.322 126.671 222.66 126.91C223.981 127.148 225.126 126.029 225.123 124.388C225.117 121.249 222.055 121.478 222.055 121.478C222.055 121.478 224.521 121.924 224.432 124.54Z"
              fill="#EBDFDA" />
            <path
              d="M189.437 116.963C189.535 117.288 190.175 116.465 191.693 115.973C192.621 115.672 193.405 115.973 193.974 116.207C194.547 116.442 194.789 115.066 194.493 114.819C194.125 114.513 192.841 114.186 191.603 114.595C190.116 115.084 189.338 116.639 189.437 116.963Z"
              fill="#1A1B25" />
            <path
              d="M211.667 116.885C211.567 117.209 210.688 116.645 209.171 116.153C208.242 115.852 207.458 116.153 206.89 116.387C206.316 116.623 206.074 115.247 206.37 114.999C206.738 114.693 208.023 114.368 209.259 114.774C210.748 115.263 211.766 116.562 211.667 116.885Z"
              fill="#1A1B25" />
            <path
              d="M222.591 106.026C224.705 116.108 219.468 125.326 219.468 125.326C219.986 120.559 217.26 114.236 213.839 112.085C207.653 108.196 197.034 106.906 190.997 111.415C188.434 113.328 187.55 119.396 187.49 119.398L188.143 106.026C188.143 106.026 220.746 103.722 222.591 106.026Z"
              fill="#EBDFDA" />
            <path
              d="M187.03 103.069C186.104 107.835 186.449 115.074 187.602 117.616C187.906 110.881 190.153 106.765 199.93 106.765C209.707 106.765 217.749 109.268 219.5 118.372C221.118 120.652 219.468 125.326 219.468 125.326C219.468 125.326 221.637 122.951 223.353 117.017C224.361 113.531 223.921 107.478 223.389 103.068H187.03V103.069Z"
              fill="#1A1B25" />
            <path
              d="M216.912 95.1177C216.912 95.1177 222.674 106.304 228.307 108.384C236.091 111.26 240.123 100.953 235.817 91.4675C231.681 82.3582 222.638 80.9312 219.307 83.9681C215.989 86.9919 216.912 95.1177 216.912 95.1177Z"
              fill="#1A1B25" />
            <path
              d="M204.149 133.207C203.811 135.272 201.629 136.998 199.414 136.998C197.034 136.998 194.702 135.881 194.123 133.207H204.149Z"
              fill="white" />
            <path
              d="M220.813 129.049C220.813 129.925 221.526 130.636 222.401 130.636C223.279 130.636 223.99 129.925 223.99 129.049C223.99 128.173 223.279 127.462 222.401 127.462C221.526 127.462 220.813 128.173 220.813 129.049Z"
              fill="#FCC000" />
            <path
              d="M61.3073 147.456C77.4834 147.373 81.986 134.315 81.986 134.315C81.986 134.315 89.1118 130.343 89.1118 119.527C89.1118 109.82 87.5664 99.805 73.1835 98.354C53.4996 96.3698 44.4669 103.587 44.3759 119.304C44.2937 133.322 50.0938 147.513 61.3073 147.456Z"
              fill="#1A1B25" />
            <path
              d="M86.7595 165.732C86.3651 163.588 84.6725 160.568 82.0638 159.786C80.9772 159.395 80.6307 190.541 80.6307 190.541L79.7529 201.617H91.1848C91.1848 201.617 87.1539 167.875 86.7595 165.732Z"
              fill="#7A5D92" />
            <path
              d="M41.8857 201.617H81.9842C82.3279 195.598 83.8767 187.266 83.5501 184.093C83.0311 179.018 81.7383 171.612 80.3929 159.189C76.5668 157.828 71.6355 156.025 71.6355 156.025L63.3917 160.766L55.1437 156.025C55.1437 156.025 50.2563 156.409 46.4288 157.765C42.604 159.128 44.8519 171.464 44.8519 182.008C44.8526 183.889 42.819 192.648 41.8857 201.617Z"
              fill="#CCCCCC" />
            <path
              d="M41.2861 201.617H56.6263L57.932 179.467L54.4065 156.046C54.4065 156.046 49.5437 156.075 45.7169 157.433C41.8921 158.794 44.0749 171.469 44.0749 182.012C44.0749 183.576 42.7144 191.912 41.2861 201.617Z"
              fill="#6E5483" />
            <path
              d="M84.7914 201.617C84.8688 195.931 84.9222 187.12 84.5826 183.792C84.0622 178.717 83.4083 172.208 82.0622 159.786C80.0902 159.084 77.3836 158.109 75.222 157.326L72.7002 178.569L74.1429 201.617H84.7914Z"
              fill="#6E5483" />
            <path
              d="M71.6363 156.026C72.1067 159.294 75.3591 163.049 67.5117 163.049C59.6609 163.049 55.9655 159.735 55.1445 156.026C58.2688 155.479 59.478 147.879 57.1042 142.903C54.7317 137.925 72.1855 141.84 70.0156 144.212C67.8451 146.585 68.4956 155.479 71.6363 156.026Z"
              fill="#F9BB8D" />
            <path
              d="M69.7677 154.31C64.6968 152.346 62.0648 146.146 62.088 140.601C66.2593 141.059 71.233 142.878 70.0156 144.211C68.3825 146.002 68.3469 151.473 69.7677 154.31Z"
              fill="#CCC3BE" />
            <path
              d="M50.4473 111.354L51.3216 132.692C51.3216 140.978 65.1431 151.358 71.1767 151.358C76.2374 151.358 83.9376 142.76 85.0756 135.02C86.3875 126.09 85.3138 115.221 84.9242 111.354L50.4473 111.354Z"
              fill="#F9BB8D" />
            <path
              d="M55.1026 129.699C55.1026 132.232 54.1324 134.018 51.3902 134.284C47.3791 134.673 46.6527 131.276 46.6972 129.168C46.7479 126.727 49.0937 125.07 50.5658 125.168C53.3149 125.349 55.1026 127.17 55.1026 129.699Z"
              fill="#F9BB8D" />
            <path
              d="M63.5537 125.886C63.5537 126.768 64.2651 127.48 65.1429 127.48C66.0241 127.48 66.7369 126.768 66.7369 125.886C66.7369 125.008 66.0241 124.297 65.1429 124.297C64.2651 124.297 63.5537 125.008 63.5537 125.886Z"
              fill="#1A1B25" />
            <path
              d="M78.8008 125.887C78.8008 126.768 79.5115 127.481 80.3934 127.481C81.2705 127.481 81.9847 126.768 81.9847 125.887C81.9847 125.008 81.2705 124.297 80.3934 124.297C79.5122 124.297 78.8008 125.008 78.8008 125.887Z"
              fill="#1A1B25" />
            <path
              d="M67.5107 137.38C67.5107 141.274 71.0575 142.04 72.8692 142.04C74.681 142.04 78.8563 141.273 78.8563 137.38H67.5107Z"
              fill="white" />
            <path
              d="M73.8463 131.25C74.8186 131.25 75.6293 131.805 75.8682 132.56C75.9148 132.415 75.9483 132.265 75.9483 132.107C75.9483 131.133 75.0041 130.343 73.8463 130.343C72.6843 130.343 71.7422 131.133 71.7422 132.107C71.7422 132.264 71.7751 132.415 71.8196 132.56C72.0599 131.805 72.8699 131.25 73.8463 131.25Z"
              fill="#E0D5D0" />
            <path
              d="M48.5503 129.869C48.5866 130.895 49.841 132.341 50.5346 131.906C51.2269 131.469 49.6623 129.025 52.0958 129.534C52.0958 130.344 51.661 132.001 50.3224 132.239C49.0009 132.476 47.8561 131.357 47.8574 129.716C47.865 126.577 50.927 126.806 50.927 126.806C50.927 126.806 48.4606 127.254 48.5503 129.869Z"
              fill="#E0D5D0" />
            <path
              d="M83.543 122.294C83.445 122.617 82.8076 121.795 81.2889 121.302C80.3611 121.001 79.5765 121.302 79.0068 121.537C78.4344 121.771 78.1913 120.396 78.4891 120.148C78.8555 119.843 80.1407 119.515 81.38 119.925C82.8651 120.413 83.6436 121.97 83.543 122.294Z"
              fill="#1A1B25" />
            <path
              d="M61.313 122.214C61.4129 122.54 62.2907 121.973 63.8087 121.483C64.7365 121.181 65.5212 121.483 66.0908 121.715C66.6633 121.952 66.907 120.575 66.6099 120.328C66.2422 120.021 64.957 119.696 63.7211 120.103C62.2325 120.593 61.2164 121.892 61.313 122.214Z"
              fill="#1A1B25" />
            <path
              d="M50.3896 111.354C50.3896 111.354 53.0093 129.653 55.1025 129.7C53.6899 123.8 57.6914 114.423 63.8872 118.436C72.2626 123.861 76.7426 113.082 82.2196 118.28C84.5393 120.48 85.8314 124.865 85.8909 124.868L84.8379 111.354H50.3896Z"
              fill="#E0D5D0" />
            <path
              d="M85.9486 108.397C86.8757 113.163 86.8613 121.079 85.7076 123.62C85.8911 116.793 82.3361 109.833 75.044 115.719C68.3764 121.101 62.301 110.62 57.6908 116.703C53.219 122.603 55.1437 131.451 55.1437 131.451L53.5128 130.654C53.5128 130.654 51.3429 128.279 49.6264 122.346C48.6205 118.861 49.0588 112.807 49.5921 108.397H85.9486Z"
              fill="#1A1B25" />
            <path
              d="M39.3697 201.617C40.4899 189.423 42.9719 179.95 42.9719 179.95L35.7476 177.091C35.7476 177.091 33.6387 188.387 33.1943 201.617H39.3697Z"
              fill="#F9BB8D" />
            <path
              d="M41.1746 201.617C42.1702 191.016 43.6786 179.434 45.6944 176.303C47.8704 172.588 48.3154 156.878 45.717 157.433C34.3755 162.534 32.0591 184.651 32.0283 201.617H41.1746Z"
              fill="#7A5D92" />
            <path
              d="M161.049 8.83962C151.122 -2.63445 85.6608 -3.25455 76.9754 8.83962C68.2878 20.9345 68.9088 37.6179 76.9754 48.1618C78.9117 50.6942 84.1963 52.6517 91.2419 54.0124L80.5399 90.1724L108.047 55.9836C129.6 57.2512 155.171 54.7728 161.049 48.1611C170.977 36.9978 170.977 20.3144 161.049 8.83962Z"
              fill="#F48439" />
            <path
              d="M131.723 26.7586C141.649 15.2845 207.111 14.6644 215.797 26.7586C224.484 38.8534 223.862 55.5368 215.797 66.0807C213.86 68.6125 208.575 70.5707 201.53 71.9314L205.249 84.7791L184.724 73.9026C163.172 75.1702 137.601 72.6918 131.723 66.08C121.794 54.9174 121.794 38.2333 131.723 26.7586Z"
              fill="#EF598C" />
          </svg>