<?xml version="1.0" encoding="utf-8"?>
<!-- Generator: Adobe Illustrator 26.1.0, SVG Export Plug-In . SVG Version: 6.00 Build 0)  -->
<svg version="1.1" id="Layer_1" xmlns="http://www.w3.org/2000/svg" xmlns:xlink="http://www.w3.org/1999/xlink" x="0px" y="0px"
	 viewBox="0 0 172.6 133.5" style="enable-background:new 0 0 172.6 133.5;" xml:space="preserve">
<style type="text/css">
	
		.st0{clip-path:url(#SVGID_00000090275539844234497870000003307742489939774869_);fill:url(#SVGID_00000022556635833740396490000001871373894358601139_);}
	
		.st1{clip-path:url(#SVGID_00000141435367295394484180000006186026435506559638_);fill:url(#SVGID_00000044861185890037766210000004704035440600653698_);}
	
		.st2{clip-path:url(#SVGID_00000176734280552832376430000003302822604803399609_);fill:url(#SVGID_00000035532593987151651330000005989831589103024269_);}
</style>
<g>
	<g>
		<g>
			<g>
				<defs>
					<path id="SVGID_1_" d="M171.3,70.4V41c0,0,0,0,0,0c0-6.3-5.1-11.4-11.4-11.4l0,0c0,0-0.1,0-0.1,0c0,0,0,0,0,0l0,0l0,0l0,0l0,0
						c-3.5-0.1-8.5-0.9-12-4.4c-3.1-3.1-4.1-8.3-4.4-12.6l0,0c0-0.1,0-0.2,0-0.3c0-0.1,0-0.1,0-0.2c-0.6-5.8-5.5-10.3-11.4-10.3
						H40.6c-0.4,0-0.8,0-1.2,0.1c-0.1,0-0.3,0-0.4,0.1c-0.2,0-0.5,0.1-0.7,0.1c-0.2,0-0.3,0.1-0.5,0.1c-0.2,0-0.4,0.1-0.6,0.2
						c-0.2,0-0.3,0.1-0.5,0.2c-0.2,0.1-0.4,0.1-0.6,0.2c-0.2,0.1-0.3,0.1-0.5,0.2c-0.2,0.1-0.4,0.2-0.6,0.3
						c-0.1,0.1-0.3,0.2-0.4,0.2c-0.2,0.1-0.4,0.2-0.5,0.3c-0.2,0.1-0.3,0.2-0.4,0.3c-0.2,0.1-0.3,0.2-0.5,0.3
						c-0.2,0.2-0.5,0.4-0.7,0.6c0,0-0.1,0.1-0.1,0.1s-0.1,0.1-0.1,0.1c-0.2,0.2-0.5,0.5-0.7,0.7c-0.1,0.1-0.2,0.3-0.3,0.4
						c-0.1,0.2-0.2,0.3-0.3,0.4C31,7,30.9,7.2,30.8,7.4c-0.1,0.2-0.2,0.3-0.3,0.4c-0.1,0.2-0.2,0.4-0.3,0.5
						c-0.1,0.2-0.1,0.3-0.2,0.5c-0.1,0.2-0.1,0.4-0.2,0.5c-0.1,0.2-0.1,0.4-0.2,0.5c0,0.2-0.1,0.4-0.1,0.5c0,0.2-0.1,0.4-0.1,0.6
						c0,0.2-0.1,0.4-0.1,0.6c0,0.2-0.1,0.3-0.1,0.5c0,0.2,0,0.3,0,0.5l0,0c-0.3,4.3-1.3,9.5-4.4,12.6c-3.5,3.5-8.4,4.3-12,4.4l0,0
						l0,0l0,0c0,0,0,0,0,0c0,0-0.1,0-0.1,0l0,0c-0.4,0-0.7,0-1,0c-0.2,0-0.3,0-0.5,0.1c-0.2,0-0.4,0-0.6,0.1c-0.2,0-0.4,0.1-0.6,0.1
						c-0.2,0-0.3,0.1-0.5,0.1c-0.2,0.1-0.4,0.1-0.6,0.2c-0.2,0.1-0.3,0.1-0.5,0.2c-0.2,0.1-0.3,0.2-0.5,0.2s-0.3,0.1-0.5,0.2
						c-0.2,0.1-0.3,0.2-0.5,0.3c-0.2,0.1-0.3,0.2-0.5,0.3c-0.2,0.1-0.3,0.2-0.5,0.4c-0.1,0.1-0.3,0.2-0.4,0.3
						c-0.6,0.5-1.1,1-1.6,1.6c-0.1,0.1-0.2,0.3-0.3,0.4c-0.1,0.2-0.3,0.3-0.4,0.5c-0.1,0.2-0.2,0.3-0.3,0.5s-0.2,0.3-0.3,0.5
						s-0.2,0.3-0.2,0.5s-0.2,0.3-0.2,0.5c-0.1,0.2-0.1,0.3-0.2,0.5c-0.1,0.2-0.1,0.4-0.2,0.6c0,0.2-0.1,0.3-0.1,0.5
						c0,0.2-0.1,0.4-0.1,0.6c-0.1,0.2-0.1,0.4-0.1,0.6c0,0.2-0.1,0.3-0.1,0.5c0,0.4-0.1,0.8-0.1,1.1l0,0l0,0l0,0v29.4c0,0,0,0,0,0
						c0,6.3,5.1,11.4,11.4,11.4l0,0c0,0,0.1,0,0.1,0l0,0l0,0l0,0l0,0c3.5,0.1,8.5,0.9,12,4.4c3,3.1,4.1,8.1,4.4,12.4v29.2
						c0,3.7,4.7,5.3,7,2.4l16.5-20.7h79.4c0,0,0,0,0,0c6.1,0,11.1-4.8,11.4-10.8l0,0c0.3-4.3,1.3-9.5,4.4-12.6
						c3.5-3.5,8.4-4.3,12-4.4l0,0l0,0l0,0c0,0,0,0,0,0c0,0,0.1,0,0.1,0l0,0c0.3,0,0.6,0,0.9-0.1c0.1,0,0.1,0,0.2,0
						C166.8,81.2,171.3,76.3,171.3,70.4L171.3,70.4L171.3,70.4L171.3,70.4z M144.1,82.4c-3.6,3.6-8.6,4.3-12.2,4.4l0,0H40.8l0,0
						c-3.5,0-8.6-0.8-12.2-4.4c-2.9-2.9-4-7.9-4.4-12.3V41.4c0.4-4.4,1.5-9.5,4.4-12.4c3.6-3.6,8.6-4.3,12.2-4.4l0,0h91.1l0,0
						c3.6,0,8.6,0.8,12.2,4.4c2.9,2.9,4,7.9,4.4,12.4V70C148.1,74.4,147,79.5,144.1,82.4z"/>
				</defs>
				<clipPath id="SVGID_00000181079645488806010180000001637522852652777861_">
					<use xlink:href="#SVGID_1_"  style="overflow:visible;"/>
				</clipPath>
				
					<linearGradient id="SVGID_00000146485959285753362760000004942797648266497669_" gradientUnits="userSpaceOnUse" x1="14.5862" y1="785.8347" x2="158.459" y2="595.3311" gradientTransform="matrix(1 0 0 1 0 -632)">
					<stop  offset="3.190000e-02" style="stop-color:#FF46D7"/>
					<stop  offset="0.1565" style="stop-color:#E658FE"/>
					<stop  offset="0.3012" style="stop-color:#C040FF"/>
					<stop  offset="0.5414" style="stop-color:#A143EF"/>
					<stop  offset="0.755" style="stop-color:#6344CD"/>
					<stop  offset="0.8505" style="stop-color:#4747BB"/>
					<stop  offset="0.984" style="stop-color:#4786C9"/>
				</linearGradient>
				
					<rect x="-0.2" y="-27.4" style="clip-path:url(#SVGID_00000181079645488806010180000001637522852652777861_);fill:url(#SVGID_00000146485959285753362760000004942797648266497669_);" width="172.8" height="172.8"/>
			</g>
		</g>
		<g>
			<g>
				<defs>
					<path id="SVGID_00000069369319411595640990000007281700953395248551_" d="M61,38.4L61,38.4c-6.3,0-11.4,5.1-11.4,11.4v11.4
						c0,6.3,5.1,11.4,11.4,11.4l0,0c6.3,0,11.4-5.1,11.4-11.4V49.8C72.4,43.5,67.3,38.4,61,38.4z"/>
				</defs>
				<clipPath id="SVGID_00000025429310155023246800000014847153219227871382_">
					<use xlink:href="#SVGID_00000069369319411595640990000007281700953395248551_"  style="overflow:visible;"/>
				</clipPath>
				
					<linearGradient id="SVGID_00000021114964257689142160000012639560593679210639_" gradientUnits="userSpaceOnUse" x1="14.5862" y1="785.8347" x2="158.459" y2="595.3311" gradientTransform="matrix(1 0 0 1 0 -632)">
					<stop  offset="3.190000e-02" style="stop-color:#FF46D7"/>
					<stop  offset="0.1565" style="stop-color:#E658FE"/>
					<stop  offset="0.3012" style="stop-color:#C040FF"/>
					<stop  offset="0.5414" style="stop-color:#A143EF"/>
					<stop  offset="0.755" style="stop-color:#6344CD"/>
					<stop  offset="0.8505" style="stop-color:#4747BB"/>
					<stop  offset="0.984" style="stop-color:#4786C9"/>
				</linearGradient>
				
					<rect x="-0.2" y="-27.4" style="clip-path:url(#SVGID_00000025429310155023246800000014847153219227871382_);fill:url(#SVGID_00000021114964257689142160000012639560593679210639_);" width="172.8" height="172.8"/>
			</g>
		</g>
		<g>
			<g>
				<defs>
					<path id="SVGID_00000106839296330386422370000009151384639414346132_" d="M111.7,38.4L111.7,38.4c-6.3,0-11.4,5.1-11.4,11.4
						v11.4c0,6.3,5.1,11.4,11.4,11.4l0,0c6.3,0,11.4-5.1,11.4-11.4V49.8C123.1,43.5,118,38.4,111.7,38.4z"/>
				</defs>
				<clipPath id="SVGID_00000091733871026871031260000001792882815632742587_">
					<use xlink:href="#SVGID_00000106839296330386422370000009151384639414346132_"  style="overflow:visible;"/>
				</clipPath>
				
					<linearGradient id="SVGID_00000109028688412369153480000001121385152488924055_" gradientUnits="userSpaceOnUse" x1="14.5862" y1="785.8347" x2="158.459" y2="595.3311" gradientTransform="matrix(1 0 0 1 0 -632)">
					<stop  offset="3.190000e-02" style="stop-color:#FF46D7"/>
					<stop  offset="0.1565" style="stop-color:#E658FE"/>
					<stop  offset="0.3012" style="stop-color:#C040FF"/>
					<stop  offset="0.5414" style="stop-color:#A143EF"/>
					<stop  offset="0.755" style="stop-color:#6344CD"/>
					<stop  offset="0.8505" style="stop-color:#4747BB"/>
					<stop  offset="0.984" style="stop-color:#4786C9"/>
				</linearGradient>
				
					<rect x="-0.2" y="-27.4" style="clip-path:url(#SVGID_00000091733871026871031260000001792882815632742587_);fill:url(#SVGID_00000109028688412369153480000001121385152488924055_);" width="172.8" height="172.8"/>
			</g>
		</g>
	</g>
</g>
</svg>
