<?xml version="1.0" encoding="utf-8"?>
<!-- Generator: Adobe Illustrator 26.1.0, SVG Export Plug-In . SVG Version: 6.00 Build 0)  -->
<svg version="1.1" id="Layer_1" xmlns="http://www.w3.org/2000/svg" xmlns:xlink="http://www.w3.org/1999/xlink" x="0px" y="0px"
	 viewBox="0 0 680 688" style="enable-background:new 0 0 680 688;" xml:space="preserve">
<style type="text/css">
	.st0{opacity:0.67;}
	.st1{fill:url(#SVGID_1_);}
	.st2{fill:url(#SVGID_00000068648957286195869760000006356605590799371408_);}
	.st3{fill:#FFD001;}
	.st4{fill:#FFFFFF;}
	.st5{fill:none;stroke:#CCEEF4;stroke-width:1.6632;stroke-linecap:round;stroke-linejoin:round;stroke-miterlimit:10;}
	.st6{fill:none;stroke:#FFA21E;stroke-width:1.6632;stroke-linecap:round;stroke-linejoin:round;stroke-miterlimit:10;}
	.st7{fill:#FFFBFF;}
	.st8{fill:none;stroke:#FFA21E;stroke-width:1.621;stroke-linecap:round;stroke-linejoin:round;stroke-miterlimit:10;}
	.st9{fill-rule:evenodd;clip-rule:evenodd;fill:#E5E2DB;}
	.st10{fill-rule:evenodd;clip-rule:evenodd;fill:#FEFFFA;}
	.st11{fill-rule:evenodd;clip-rule:evenodd;fill:#F5773D;}
	.st12{fill-rule:evenodd;clip-rule:evenodd;fill:#143143;}
	.st13{fill-rule:evenodd;clip-rule:evenodd;fill:#172C36;}
	.st14{fill-rule:evenodd;clip-rule:evenodd;fill:#FFFFFF;}
	.st15{fill-rule:evenodd;clip-rule:evenodd;fill:url(#SVGID_00000080918163453595727700000018402397868218992808_);}
	.st16{fill-rule:evenodd;clip-rule:evenodd;fill:url(#SVGID_00000109030969988712885260000006625045614345739910_);}
	
		.st17{fill-rule:evenodd;clip-rule:evenodd;fill:#FFFFFF;stroke:#1A2E35;stroke-linecap:round;stroke-linejoin:round;stroke-miterlimit:10;}
	.st18{fill:url(#SVGID_00000041295399780635401840000017851841266787276201_);}
	.st19{fill:url(#SVGID_00000112618311332744427380000000773254709427783307_);}
	.st20{fill:#FBB255;}
	.st21{fill:#29B99A;}
	.st22{fill:#EC5553;}
	.st23{fill:url(#SVGID_00000038377197717479259780000010227254811292780934_);}
	.st24{fill:#F5773D;}
	.st25{fill:#F38469;}
	.st26{fill:url(#SVGID_00000093143072492198361840000007110820040408674449_);}
	.st27{fill:#386A87;}
	.st28{fill:#F4A091;}
	.st29{fill:#F18F79;}
	.st30{fill:#FAC9BC;}
	.st31{fill:#F7BFAD;}
	.st32{fill:#414142;}
	.st33{fill:#F3A8BD;}
	.st34{fill:#F091A8;}
	.st35{fill:#7E7A7B;}
	.st36{fill:#E9EAE8;}
	.st37{fill:url(#SVGID_00000110466254598572890420000017626326408560649885_);}
	.st38{fill:#F7F7F7;}
	.st39{fill:#F8CAD5;}
	.st40{fill:#F5BBC6;}
	.st41{fill:url(#SVGID_00000147208704600525572350000002085088463679422371_);}
	.st42{fill:#A2BA63;}
	.st43{fill:#F27540;}
	.st44{fill:#ED4327;}
	.st45{fill:#FFFFFF;stroke:#1A2E35;stroke-linecap:round;stroke-linejoin:round;stroke-miterlimit:10;}
	.st46{fill:#FFFFFF;stroke:#1E1E1E;stroke-miterlimit:10;}
	.st47{fill:#7F392B;}
	.st48{fill:none;stroke:#667478;stroke-linecap:round;stroke-linejoin:round;stroke-miterlimit:10;}
	.st49{fill:url(#SVGID_00000000928406295799014880000004033792258167167418_);}
	.st50{fill:none;stroke:#DB4B66;stroke-miterlimit:10;}
	.st51{fill:#FFB766;}
	.st52{fill:url(#SVGID_00000060002475325745959590000002039274714732278657_);}
	.st53{fill:#1A2E35;}
	.st54{fill:#FCD1C0;}
	.st55{fill:#375A64;}
	.st56{fill:url(#SVGID_00000011745759919983694870000018003103422071977098_);}
	.st57{fill:url(#SVGID_00000053516910586378626340000008566882058785031846_);}
	.st58{fill:#1A2E35;stroke:#1A2E35;stroke-linecap:round;stroke-linejoin:round;stroke-miterlimit:10;}
</style>
<g>
	<g>
		<path class="st3" d="M506.2,377.23l-29.36,27.67l68.33-3.59l-32.1-24.44C511.01,375.29,508.1,375.45,506.2,377.23z"/>
		<polyline class="st3" points="476.92,404.89 511.8,426.01 545.25,401.31 538.32,401.67 489.33,404.24 476.92,404.89 511.8,426.01 
			545.25,401.31 		"/>
		<g>
			<path class="st4" d="M531.95,438.7l-38.04,2c-0.66,0.03-1.22-0.47-1.25-1.13l-2.77-52.77c-0.03-0.66,0.47-1.22,1.13-1.25l38.04-2
				c0.66-0.03,1.22,0.47,1.25,1.13l2.77,52.77C533.11,438.1,532.61,438.66,531.95,438.7z"/>
			<g>
				<line class="st5" x1="499.64" y1="397.25" x2="521.7" y2="396.09"/>
				<line class="st5" x1="500.05" y1="404.96" x2="522.1" y2="403.8"/>
				<line class="st5" x1="500.45" y1="412.67" x2="522.51" y2="411.51"/>
			</g>
		</g>
		<path class="st3" d="M511.8,426.01l-34.89-21.12l1.91,36.47c0.06,1.11,1.23,1.95,2.62,1.88l63.3-3.32
			c1.39-0.07,2.47-1.03,2.41-2.14l-1.91-36.47L511.8,426.01z"/>
		<g>
			<g>
				<polyline class="st6" points="545.25,401.31 511.8,426.01 476.92,404.89 				"/>
				<line class="st6" x1="487.82" y1="432.81" x2="498.04" y2="417.68"/>
				<line class="st6" x1="536.77" y1="430.24" x2="525.02" y2="416.27"/>
			</g>
		</g>
	</g>
	<g>
		<path class="st3" d="M228.65,212.8l-57.91,3.04l-2.98-8.84c-0.89-2.44-2.16-2.97-5.45-2.8l-24.17,1.27
			c-1.42,0.07-2.51,1.29-2.44,2.71l0.63,12.05l0.01,0.25l2.66,50.66c0.07,1.42,1.29,2.51,2.71,2.44l89.88-4.72
			c1.42-0.07,2.52-1.29,2.45-2.71l-2.67-50.91C231.29,213.81,230.07,212.72,228.65,212.8z"/>
		
			<rect x="145.56" y="219.74" transform="matrix(0.9986 -0.0524 0.0524 0.9986 -12.909 10.0705)" class="st7" width="80.09" height="62.96"/>
		<path class="st3" d="M229.74,233.71l-57.91,3.04l-2.98-8.85c-0.89-2.44-2.16-2.97-5.45-2.8l-24.17,1.27
			c-1.42,0.07-2.51,1.29-2.44,2.71l0.63,12.05l0.01,0.25l2.66,50.66c0.07,1.42,1.29,2.51,2.71,2.43l89.88-4.72
			c1.42-0.07,2.52-1.29,2.45-2.7l-2.67-50.91C232.38,234.72,231.17,233.63,229.74,233.71z"/>
		<path class="st8" d="M232.46,236.15c-0.07-1.43-1.29-2.51-2.72-2.44l-57.91,3.04l-2.98-8.85c-0.89-2.44-2.16-2.97-5.45-2.8
			l-24.17,1.27c-1.42,0.07-2.51,1.29-2.44,2.71"/>
		<path class="st8" d="M224.37,290.2l-1.84-35.16c-0.07-1.26-1.15-2.23-2.41-2.16l-51.28,2.69l-2.63-7.83
			c-0.79-2.16-1.92-2.63-4.83-2.48l-21.4,1.12c-1.26,0.07-2.23,1.14-2.16,2.4"/>
	</g>
	<g>
		<polygon class="st9" points="42.41,443.82 122.64,469.18 141.31,436.39 61.09,411.02 		"/>
		
			<rect x="58.78" y="382.01" transform="matrix(0.301 -0.9536 0.9536 0.301 -339.5683 384.8871)" class="st10" width="67.96" height="84.13"/>
		<path class="st11" d="M71.3,403.79l3.56,1.13l2.1-6.63l1.73,7.84l3.54,1.12l4.22-13.33l-3.54-1.12l-2.16,6.81l-1.65-8.02
			l-3.57-1.13L71.3,403.79L71.3,403.79z M84.48,404.75c-0.88,2.79,1.43,3.79,2.63,4.12c0,0,3.92,1.18,5.88,1.52l0.94-2.95
			l-4.69-1.48c-0.53-0.17-1.14-0.34-0.83-1.31l0.25-0.8l4.96,1.39l0.93-2.94l-4.84-1.76l0.25-0.8c0.16-0.49,0.32-1.02,1.27-0.72
			l4.87,1.54l0.94-2.97c-2.04-0.97-5.87-2.18-5.87-2.18c-1.29-0.41-3.5-0.72-4.37,2.03L84.48,404.75L84.48,404.75z M97.85,397.53
			l-0.45,14.53l4.27,1.35l2.45-4.01l-0.16,4.74l4.27,1.35l7.49-12.3l-3.72-1.18l-4.51,8.47l0.11-6.82l1.55-2.55l-3.72-1.18
			l-4.51,8.47l0.64-9.7L97.85,397.53L97.85,397.53z M114.99,408.03c-0.27,0.86-1.08,3.91,2.39,5.01l1.64,0.52
			c0.8,0.25,0.88,0.58,0.71,1.11l-0.09,0.29c-0.17,0.55-0.53,0.66-1.31,0.41c-1.7-0.54-3.95-1.39-4.66-1.7l-0.87,2.76
			c1.63,1.2,2.03,1.32,5.44,2.4c1.81,0.57,3.92,0.48,5-2.91l0.19-0.6c0.46-1.46,0.59-4.07-2.19-4.95l-1.71-0.54
			c-0.98-0.31-1-0.66-0.82-1.22l0.06-0.2c0.24-0.77,0.62-0.69,1.61-0.37c1.2,0.38,3.19,1.07,4.32,1.57l0.87-2.75
			c-1.19-0.92-2.71-1.7-5.46-2.39c-2.08-0.52-4,0.08-4.75,2.47L114.99,408.03z"/>
		
			<rect x="74.73" y="392.66" transform="matrix(0.302 -0.9533 0.9533 0.302 -341.3472 360.7978)" class="st12" width="1.94" height="41.66"/>
		
			<rect x="72.83" y="398.67" transform="matrix(0.302 -0.9533 0.9533 0.302 -348.3998 363.1762)" class="st13" width="1.95" height="41.66"/>
		
			<rect x="70.92" y="404.67" transform="matrix(0.302 -0.9533 0.9533 0.302 -355.4509 365.554)" class="st13" width="1.95" height="41.66"/>
		
			<rect x="69.02" y="410.68" transform="matrix(0.302 -0.9533 0.9533 0.302 -362.5037 367.9325)" class="st13" width="1.94" height="41.66"/>
		
			<rect x="67.12" y="416.68" transform="matrix(0.302 -0.9533 0.9533 0.302 -369.5547 370.3104)" class="st13" width="1.94" height="41.66"/>
		
			<rect x="65.22" y="422.68" transform="matrix(0.302 -0.9533 0.9533 0.302 -376.6073 372.6888)" class="st13" width="1.95" height="41.66"/>
		
			<rect x="63.32" y="428.69" transform="matrix(0.302 -0.9533 0.9533 0.302 -383.6601 375.0672)" class="st13" width="1.94" height="41.66"/>
		
			<rect x="114.18" y="408.22" transform="matrix(0.302 -0.9533 0.9533 0.302 -325.7226 407.1291)" class="st12" width="1.94" height="35.55"/>
		
			<rect x="112.28" y="414.22" transform="matrix(0.302 -0.9533 0.9533 0.302 -332.7752 409.5075)" class="st13" width="1.95" height="35.55"/>
		
			<rect x="110.38" y="420.22" transform="matrix(0.302 -0.9533 0.9533 0.302 -339.8262 411.8854)" class="st13" width="1.95" height="35.55"/>
		
			<rect x="108.47" y="426.23" transform="matrix(0.302 -0.9533 0.9533 0.302 -346.879 414.2639)" class="st13" width="1.94" height="35.55"/>
		
			<rect x="106.57" y="432.23" transform="matrix(0.302 -0.9533 0.9533 0.302 -353.93 416.6417)" class="st13" width="1.94" height="35.55"/>
		
			<rect x="104.67" y="438.24" transform="matrix(0.302 -0.9533 0.9533 0.302 -360.9826 419.0201)" class="st13" width="1.95" height="35.55"/>
		
			<rect x="102.77" y="444.24" transform="matrix(0.302 -0.9533 0.9533 0.302 -368.0354 421.3986)" class="st13" width="1.94" height="35.55"/>
	</g>
	<g>
		<path class="st14" d="M483.8,13.41l31.56,4.81c1.55,0.23,2.63,1.7,2.39,3.26l-8.04,52.75c-0.23,1.55-1.7,2.63-3.26,2.39
			l-31.55-4.81c-1.55-0.24-2.63-1.7-2.4-3.26l8.04-52.75C480.78,14.26,482.24,13.17,483.8,13.41z"/>
		<linearGradient id="SVGID_1_" gradientUnits="userSpaceOnUse" x1="476.2028" y1="43.139" x2="514.6172" y2="43.139">
			<stop  offset="2.237672e-07" style="stop-color:#F3719C"/>
			<stop  offset="1" style="stop-color:#FF9373"/>
		</linearGradient>
		<polygon style="fill-rule:evenodd;clip-rule:evenodd;fill:url(#SVGID_1_);" points="483.53,16.75 514.62,21.49 507.29,69.53 
			476.2,64.79 		"/>
		
			<linearGradient id="SVGID_00000026165577901264191590000018073376921749072567_" gradientUnits="userSpaceOnUse" x1="483.5271" y1="43.139" x2="514.6172" y2="43.139">
			<stop  offset="2.237672e-07" style="stop-color:#F3719C"/>
			<stop  offset="1" style="stop-color:#FF9373"/>
		</linearGradient>
		
			<polygon style="fill-rule:evenodd;clip-rule:evenodd;fill:url(#SVGID_00000026165577901264191590000018073376921749072567_);" points="
			483.53,16.75 514.62,21.49 507.29,69.53 		"/>
		<path class="st17" d="M491.48,27l5.63,0.86c0.55,0.09,1.03,0.36,1.37,0.75l0.1-0.11c1.63,1.37,2.95,3.42,3.86,5.83
			c1.19,3.14,1.71,7.01,1.33,10.81c-0.39,3.88-1.73,7.73-4.27,10.77c-1.68,2-3.86,3.64-6.61,4.67l-0.07-0.17
			c-0.21,0.03-0.43,0.03-0.66,0l-5.63-0.86c-1.24-0.19-2.1-1.36-1.91-2.6l0.82-5.35c0.19-1.24,1.36-2.1,2.6-1.91l5.63,0.86
			c0.94,0.14,1.66,0.85,1.88,1.73c1.7-2.12,2.61-4.86,2.89-7.67c0.27-2.66-0.03-5.35-0.75-7.63c-0.5,0.56-1.26,0.87-2.05,0.75
			l-5.64-0.86c-1.24-0.19-2.1-1.36-1.91-2.6l0.82-5.35C489.08,27.67,490.24,26.81,491.48,27z"/>
	</g>
	<g>
		
			<linearGradient id="SVGID_00000063591774427124527310000016992617403230184839_" gradientUnits="userSpaceOnUse" x1="49.4516" y1="292.4992" x2="74.3842" y2="292.4992">
			<stop  offset="0" style="stop-color:#404F5E"/>
			<stop  offset="1" style="stop-color:#26282A"/>
		</linearGradient>
		<polyline style="fill:url(#SVGID_00000063591774427124527310000016992617403230184839_);" points="73.6,284.43 49.45,285.7 
			50.23,300.56 74.38,299.3 73.6,284.43 		"/>
		
			<linearGradient id="SVGID_00000132076606060976396140000017439247653542213292_" gradientUnits="userSpaceOnUse" x1="36.298" y1="326.7473" x2="116.5594" y2="326.7473">
			<stop  offset="0" style="stop-color:#404F5E"/>
			<stop  offset="1" style="stop-color:#26282A"/>
		</linearGradient>
		<path style="fill:url(#SVGID_00000132076606060976396140000017439247653542213292_);" d="M51.57,343.87l-0.78-14.93l7.17-0.38
			l0.78,14.93L51.57,343.87 M60.73,343.39l-0.78-14.93l7.3-0.38l0.78,14.93L60.73,343.39 M70.02,342.91l-0.78-14.93l7.3-0.38
			l0.78,14.93L70.02,342.91 M79.31,342.42l-0.78-14.93l7.3-0.38l0.78,14.93L79.31,342.42 M88.6,341.93L87.81,327l7.3-0.38
			l0.78,14.93L88.6,341.93 M97.88,341.44l-0.78-14.93l7.57-0.4l0.78,14.93L97.88,341.44 M50.68,326.95l-0.74-14.13l7.17-0.38
			l0.74,14.13L50.68,326.95 M59.84,326.47l-0.74-14.13l7.3-0.38l0.74,14.13L59.84,326.47 M69.13,325.99l-0.74-14.13l7.3-0.38
			l0.74,14.13L69.13,325.99 M78.42,325.5l-0.74-14.13l7.3-0.38l0.74,14.13L78.42,325.5 M87.71,325.01l-0.74-14.13l7.3-0.38
			l0.74,14.13L87.71,325.01 M96.99,324.52l-0.74-14.13l7.57-0.4l0.74,14.13L96.99,324.52 M77.57,309.38
			c-1.25,0.07-2.31-0.89-2.37-2.14c-0.07-1.25,0.89-2.31,2.14-2.38c1.25-0.07,2.31,0.89,2.38,2.14
			C79.78,308.25,78.82,309.31,77.57,309.38 M116.18,302.16l-31.5,1.65l-9.72,0.51l-38.67,2.03l0.38,7.17l6.1-0.32l1.81,34.5
			l1.59-0.08l0.19,3.72l64.49-3.38l-0.2-3.72l2.12-0.11l-1.81-34.5l5.58-0.29L116.18,302.16"/>
		
			<rect x="43.79" y="280.85" transform="matrix(0.9986 -0.0524 0.0524 0.9986 -15.0297 3.3242)" class="st20" width="24.19" height="14.88"/>
		
			<rect x="72.57" y="284.2" transform="matrix(0.9986 -0.0524 0.0524 0.9986 -15.0356 4.7571)" class="st21" width="21.26" height="9.83"/>
		<path class="st22" d="M78.65,299.61l-9.72,0.51l-38.67,2.03l0.38,7.17l6.1-0.32l1.81,34.5l1.59-0.08l0.2,3.72l64.5-3.38
			l-0.19-3.72l2.12-0.11l-1.81-34.5l5.58-0.29l-0.38-7.17L78.65,299.61z M52.7,339.29l-7.17,0.38l-0.78-14.93l7.17-0.38L52.7,339.29
			z M51.81,322.37l-7.17,0.38l-0.74-14.13l7.17-0.38L51.81,322.37z M61.99,338.8l-7.3,0.38l-0.78-14.93l7.3-0.38L61.99,338.8z
			 M61.1,321.88l-7.3,0.38l-0.74-14.13l7.3-0.38L61.1,321.88z M71.28,338.32l-7.3,0.38l-0.78-14.93l7.3-0.38L71.28,338.32z
			 M70.39,321.4l-7.3,0.38l-0.74-14.13l7.3-0.38L70.39,321.4z M69.16,303.03c-0.07-1.25,0.89-2.31,2.14-2.38
			c1.25-0.07,2.31,0.89,2.38,2.14c0.07,1.25-0.89,2.31-2.14,2.37C70.29,305.24,69.23,304.28,69.16,303.03z M80.57,337.83l-7.3,0.38
			l-0.78-14.93l7.3-0.38L80.57,337.83z M79.68,320.91l-7.3,0.38l-0.74-14.13l7.3-0.38L79.68,320.91z M89.86,337.34l-7.3,0.38
			l-0.78-14.93l7.3-0.38L89.86,337.34z M88.97,320.42l-7.3,0.38l-0.74-14.13l7.3-0.38L88.97,320.42z M99.41,336.84l-7.57,0.4
			l-0.78-14.93l7.57-0.4L99.41,336.84z M98.52,319.92l-7.57,0.4l-0.74-14.13l7.57-0.4L98.52,319.92z"/>
	</g>
	<g>
		
			<linearGradient id="SVGID_00000121981933103723061570000011000180937060412091_" gradientUnits="userSpaceOnUse" x1="-135.7025" y1="17.4911" x2="-77.3123" y2="17.4911" gradientTransform="matrix(0.9423 -0.3347 0.3347 0.9423 543.4539 101.5758)">
			<stop  offset="0" style="stop-color:#404F5E"/>
			<stop  offset="1" style="stop-color:#26282A"/>
		</linearGradient>
		<path style="fill:url(#SVGID_00000121981933103723061570000011000180937060412091_);" d="M465.86,128.22
			c0.29,0.39,0.53,0.83,0.7,1.31l0.87,2.46l2.42,6.8l5.66,15.95c0.92,2.58-0.44,5.44-3.02,6.36l-45.85,16.28
			c-0.08,0.03-0.16,0.05-0.24,0.08c1.27,1.7,3.56,2.46,5.66,1.72l21.81-7.74l24.05-8.54c2.58-0.92,3.94-3.78,3.02-6.36l-5.66-15.95
			l-2.42-6.8l-0.87-2.46C471.09,128.82,468.37,127.47,465.86,128.22"/>
		<path class="st24" d="M475.51,154.74c0.92,2.58-0.44,5.44-3.02,6.36l-45.85,16.28c-2.58,0.92-5.44-0.44-6.36-3.02l-8.95-25.21
			c-0.92-2.58,0.44-5.44,3.02-6.36l45.85-16.28c2.58-0.92,5.44,0.45,6.36,3.03L475.51,154.74"/>
		<polyline class="st4" points="469.85,138.79 414.62,158.41 412.2,151.61 467.43,131.99 469.85,138.79 		"/>
		<polyline class="st20" points="437.38,171.19 425.65,175.36 423.24,168.55 434.96,164.39 437.38,171.19 		"/>
		<path class="st25" d="M436.11,134.98l-21.76,7.86c-2.58,0.93-3.92,3.8-2.99,6.37l0.89,2.46l26.45-9.55L436.11,134.98"/>
		<path class="st25" d="M423.24,168.55L423.24,168.55l11.73-4.17l2.42,6.8l-11.73,4.17L423.24,168.55 M441.11,149l-26.5,9.41
			l5.66,15.95c0.92,2.58,3.78,3.94,6.36,3.02l21.81-7.74L441.11,149"/>
		<polyline class="st4" points="438.7,142.2 412.2,151.61 414.62,158.41 441.11,149 438.7,142.2 		"/>
		
			<rect x="424.09" y="166.26" transform="matrix(0.9423 -0.3347 0.3347 0.9423 -32.0377 153.8103)" class="st20" width="12.44" height="7.22"/>
	</g>
	<g>
		
			<linearGradient id="SVGID_00000060010991996232019090000005020417784194971575_" gradientUnits="userSpaceOnUse" x1="580.1305" y1="254.4581" x2="652.8416" y2="254.4581">
			<stop  offset="0" style="stop-color:#404F5E"/>
			<stop  offset="1" style="stop-color:#26282A"/>
		</linearGradient>
		<path style="fill:url(#SVGID_00000060010991996232019090000005020417784194971575_);" d="M610.55,236.45
			c-8.31,0.44-14.71,7.55-14.27,15.85c0.32,6.08,4.22,11.15,9.56,13.25c-1.36-1.52-2.42-3.31-3.08-5.29c-2.22-2.09-3.67-5-3.84-8.29
			c-0.35-6.76,4.84-12.52,11.6-12.88c2.23-0.12,4.36,0.37,6.22,1.32c0.36-0.01,0.72,0,1.07,0.01c0.19,0.01,0.37,0.04,0.56,0.05
			c0.31,0.03,0.62,0.05,0.93,0.09c0.23,0.03,0.46,0.09,0.69,0.14c0.25,0.05,0.51,0.09,0.75,0.15c0.26,0.06,0.51,0.15,0.76,0.23
			c0.21,0.06,0.42,0.12,0.62,0.19c0.17,0.06,0.34,0.13,0.5,0.2C619.66,238.18,615.3,236.2,610.55,236.45 M591.02,235.5l-6.84,0.36
			c-2.35,0.12-4.16,2.13-4.04,4.49l0.06,1.05l4.17-0.22l-0.15-2.83l6.93-0.36L591.02,235.5 M642.73,232.78l-6.47,0.34
			c-0.29,0.54-0.43,1.15-0.4,1.79c0.1,1.96,1.86,3.46,3.92,3.36c0.74-0.04,1.43-0.28,1.99-0.67c0.25-0.71,0.73-1.33,1.37-1.77
			c0.14-0.41,0.21-0.85,0.19-1.31C643.28,233.88,643.07,233.29,642.73,232.78 M646.67,232.58l-1.24,0.06l0.13,2.51
			c1.86,0.12,3.37,1.54,3.46,3.35c0.1,1.82-1.26,3.39-3.09,3.7l1.17,22.38c0.12,2.35-1.69,4.36-4.04,4.49l-23.12,1.21
			c-0.06,0.01-0.11,0.02-0.17,0.03c-0.12,0.02-0.24,0.06-0.37,0.08c-0.52,0.08-1.04,0.14-1.57,0.17c-0.53,0.03-1.06,0.03-1.58,0
			c-0.12-0.01-0.24-0.03-0.36-0.04c-0.06,0-0.12-0.01-0.18-0.01l-33.92,1.78l0,0.01c0.12,2.35,2.13,4.16,4.49,4.04l62.5-3.28
			c2.35-0.12,4.16-2.13,4.04-4.49l-0.06-1.14l-1.29-24.63l-0.32-6.19C651.04,234.26,649.02,232.45,646.67,232.58"/>
		<path class="st27" d="M640.95,228.59l-42.35,2.22l-0.2-3.91l-12.07,0.63l0.2,3.91l-8.08,0.42c-2.35,0.12-4.16,2.13-4.04,4.49
			l1.68,31.96c0.12,2.35,2.13,4.16,4.49,4.04l62.5-3.28c2.35-0.12,4.16-2.13,4.04-4.49l-1.68-31.96
			C645.31,230.28,643.3,228.47,640.95,228.59 M591.29,240.81l-12.43,0.65l-0.37-7.1l12.43-0.65L591.29,240.81 M612.13,266.57
			c-8.31,0.44-15.42-5.97-15.85-14.27c-0.44-8.31,5.97-15.42,14.27-15.85c8.31-0.44,15.42,5.97,15.86,14.27
			C626.84,259.02,620.44,266.14,612.13,266.57 M639.77,238.27c-2.06,0.11-3.81-1.39-3.92-3.36c-0.1-1.96,1.48-3.64,3.54-3.74
			c2.06-0.11,3.81,1.39,3.92,3.35C643.42,236.48,641.83,238.16,639.77,238.27"/>
		<path class="st28" d="M617.11,259.47c-1.19,0.06-2.2-0.85-2.26-2.03c-0.06-1.18,0.85-2.2,2.03-2.26c1.18-0.06,2.2,0.85,2.26,2.03
			C619.21,258.4,618.3,259.41,617.11,259.47 M616.27,240.43c-0.51,0.03-1.02,0.08-1.51,0.16c-0.19,0.03-0.38,0.08-0.57,0.11
			c-0.3,0.06-0.6,0.11-0.89,0.18c-0.24,0.06-0.46,0.14-0.69,0.21c-0.23,0.07-0.47,0.14-0.7,0.22c-0.26,0.1-0.51,0.21-0.76,0.32
			c-0.19,0.08-0.38,0.15-0.57,0.24c-0.27,0.13-0.53,0.28-0.79,0.42c-0.16,0.09-0.32,0.17-0.47,0.26c-0.27,0.16-0.53,0.34-0.79,0.52
			c-0.13,0.09-0.27,0.18-0.4,0.27c-0.03,0.02-0.07,0.05-0.1,0.07c1.01,0.67,1.7,1.79,1.77,3.1c0.11,2.18-1.56,4.05-3.75,4.16
			c-1.11,0.06-2.13-0.34-2.88-1.04c-0.86,2.03-1.29,4.28-1.17,6.63c0.07,1.39,0.33,2.72,0.75,3.97c2.35,2.21,5.56,3.49,9.04,3.31
			c6.76-0.35,11.95-6.12,11.6-12.88c-0.24-4.52-2.9-8.34-6.66-10.27C616.57,240.42,616.42,240.42,616.27,240.43"/>
		<path class="st29" d="M610.5,239.09c-6.76,0.35-11.95,6.12-11.6,12.88c0.17,3.29,1.62,6.2,3.84,8.29
			c-0.42-1.26-0.68-2.59-0.75-3.97c-0.12-2.35,0.3-4.6,1.17-6.63c-0.74-0.68-1.22-1.63-1.28-2.71c-0.11-2.18,1.56-4.05,3.75-4.16
			c0.88-0.05,1.71,0.2,2.39,0.65c0.03-0.02,0.06-0.05,0.1-0.07c0.13-0.1,0.27-0.18,0.4-0.27c0.26-0.18,0.52-0.36,0.79-0.52
			c0.15-0.09,0.31-0.17,0.47-0.26c0.26-0.15,0.52-0.29,0.79-0.42c0.19-0.09,0.38-0.16,0.57-0.24c0.25-0.11,0.5-0.22,0.76-0.32
			c0.23-0.08,0.47-0.15,0.7-0.22c0.23-0.07,0.46-0.15,0.69-0.21c0.29-0.08,0.59-0.13,0.89-0.18c0.19-0.04,0.37-0.09,0.57-0.11
			c0.5-0.08,1-0.13,1.51-0.16c0.15-0.01,0.3-0.01,0.45-0.02C614.87,239.46,612.74,238.98,610.5,239.09"/>
		<path class="st30" d="M608.03,243.43c-0.23,0.17-0.44,0.36-0.66,0.54c-0.11,0.1-0.23,0.19-0.34,0.29
			c-0.25,0.22-0.48,0.45-0.71,0.69c-1.33,1.35-2.4,2.95-3.15,4.71c0.76,0.69,1.78,1.09,2.88,1.04c2.18-0.11,3.86-1.98,3.75-4.16
			C609.73,245.23,609.04,244.1,608.03,243.43"/>
		<path class="st31" d="M605.64,242.78c-2.19,0.11-3.86,1.98-3.75,4.16c0.06,1.08,0.54,2.03,1.28,2.71
			c0.75-1.76,1.82-3.36,3.15-4.71c0.23-0.24,0.46-0.47,0.71-0.69c0.11-0.1,0.23-0.19,0.34-0.29c0.22-0.18,0.43-0.37,0.66-0.54
			C607.34,242.98,606.52,242.74,605.64,242.78"/>
		<path class="st30" d="M616.89,255.18c-1.19,0.06-2.1,1.07-2.03,2.26c0.06,1.19,1.07,2.1,2.26,2.03c1.18-0.06,2.1-1.07,2.03-2.26
			C619.08,256.03,618.07,255.12,616.89,255.18"/>
		<path class="st4" d="M640.95,228.59l-42.35,2.22l-0.2-3.91l-12.07,0.63l0.2,3.91l-8.08,0.42c-2.35,0.12-4.16,2.13-4.04,4.49
			l0.32,6.19l25.61-1.34c2.57-2.75,6.16-4.54,10.21-4.76c4.05-0.21,7.8,1.2,10.65,3.66l24.56-1.29l-0.32-6.19
			C645.31,230.28,643.3,228.47,640.95,228.59z M591.29,240.81l-12.43,0.65l-0.37-7.1l12.43-0.65L591.29,240.81z M639.77,238.27
			c-2.06,0.11-3.81-1.39-3.92-3.36c-0.1-1.96,1.48-3.64,3.54-3.74c2.06-0.11,3.81,1.39,3.92,3.35
			C643.42,236.48,641.83,238.16,639.77,238.27z"/>
		<path class="st4" d="M604.59,240.98l12-0.63c-1.83-0.91-3.9-1.37-6.08-1.26C608.32,239.21,606.31,239.89,604.59,240.98z"/>
		<path class="st4" d="M580.58,272.35l62.5-3.28c2.35-0.12,4.16-2.13,4.04-4.49l-0.06-1.14l-28.91,1.52
			c-1.82,0.92-3.85,1.49-6.02,1.61c-2.16,0.11-4.24-0.24-6.15-0.97l-29.95,1.57l0.06,1.14
			C576.22,270.67,578.22,272.48,580.58,272.35z"/>
	</g>
	<g>
		<path class="st32" d="M183.99,185.06c-10.08-6.59-12.92-20.16-6.33-30.24c6.59-10.08,20.16-12.92,30.24-6.33
			c10.08,6.59,12.92,20.16,6.32,30.24C207.64,188.81,194.07,191.65,183.99,185.06 M185.12,183.34c9.13,5.97,21.41,3.4,27.39-5.73
			c5.97-9.13,3.4-21.42-5.73-27.39c-9.13-5.97-21.42-3.4-27.39,5.73C173.42,165.08,175.99,177.37,185.12,183.34"/>
		<path class="st33" d="M189.72,148.01c-4.1,1.36-7.79,4.05-10.33,7.94c-1.25,1.92-2.13,3.97-2.65,6.08
			c-1.52,7.68,1.63,15.88,8.58,20.42c0.21,0.14,0.42,0.27,0.63,0.4c-4.04-5.14-5.55-11.87-4.16-18.23c0.5-2.82,1.56-5.59,3.22-8.14
			c0.83-1.28,1.78-2.44,2.82-3.48c0.17-1.48,1.17-2.8,2.67-3.29c0.6-0.2,1.22-0.24,1.81-0.16c1.31-0.76,2.68-1.37,4.1-1.84
			c0.66-0.22,1.33-0.41,2.01-0.56C195.48,146.78,192.5,147.09,189.72,148.01"/>
		<path class="st34" d="M196.41,147.71c-1.42,0.47-2.8,1.09-4.1,1.84c1.42,0.21,2.67,1.2,3.15,2.65c0.68,2.06-0.44,4.28-2.49,4.96
			c-2.06,0.68-4.28-0.44-4.96-2.5c-0.18-0.55-0.24-1.12-0.18-1.67c-1.04,1.04-1.98,2.2-2.82,3.48c-1.67,2.55-2.72,5.32-3.22,8.14
			c-1.4,6.36,0.12,13.09,4.16,18.23c5.11,3.08,11.11,3.57,16.42,1.81c4.1-1.36,7.79-4.05,10.33-7.94c1.25-1.92,2.13-3.98,2.65-6.09
			c1.52-7.68-1.63-15.87-8.58-20.41c-2.6-1.7-5.46-2.71-8.35-3.07C197.75,147.31,197.08,147.49,196.41,147.71"/>
		<path class="st35" d="M189.91,147.12c-4.1,1.36-7.79,4.05-10.33,7.94c-1.43,2.18-2.37,4.55-2.85,6.96
			c0.52-2.11,1.4-4.16,2.65-6.08c2.54-3.89,6.23-6.59,10.33-7.94c2.79-0.92,5.77-1.22,8.71-0.86c2.89,0.36,5.75,1.37,8.35,3.07
			c6.94,4.54,10.09,12.73,8.58,20.41c1.95-7.93-1.17-16.58-8.38-21.3C201.73,145.91,195.44,145.29,189.91,147.12"/>
		<path class="st36" d="M242.09,203.33c1.14,0.75,2.67,0.43,3.42-0.72l3.97-6.06c0.75-1.14,0.43-2.67-0.72-3.42l-30.75-18.14
			c-1.14-0.75-2.68-0.43-3.42,0.72l-2.16,3.31c-0.75,1.14-0.43,2.68,0.71,3.42L242.09,203.33z"/>
		
			<linearGradient id="SVGID_00000043453839868791619460000005388455564239406253_" gradientUnits="userSpaceOnUse" x1="212.0291" y1="179.1398" x2="219.8686" y2="179.1398">
			<stop  offset="0" style="stop-color:#404F5E"/>
			<stop  offset="1" style="stop-color:#26282A"/>
		</linearGradient>
		<path style="fill:url(#SVGID_00000043453839868791619460000005388455564239406253_);" d="M214.59,175.71
			c0.75-1.14,2.28-1.46,3.42-0.72l1.85,1.09l-4.98,7.61l-1.74-1.26c-1.14-0.75-1.46-2.28-0.71-3.42L214.59,175.71z"/>
		<path class="st38" d="M184.19,184.18c-10.08-6.59-12.92-20.16-6.33-30.24s20.16-12.92,30.24-6.33
			c10.08,6.59,12.92,20.16,6.33,30.24C207.83,187.93,194.27,190.77,184.19,184.18 M185.31,182.45c9.13,5.97,21.42,3.4,27.39-5.73
			c5.97-9.13,3.4-21.42-5.73-27.39c-9.13-5.97-21.42-3.4-27.39,5.73C173.61,164.2,176.18,176.48,185.31,182.45"/>
		<path class="st39" d="M190.5,149.71c-1.5,0.5-2.51,1.82-2.67,3.29c1.36-1.36,2.87-2.51,4.48-3.45
			C191.72,149.47,191.1,149.51,190.5,149.71"/>
		<path class="st40" d="M192.31,149.56c-1.62,0.94-3.13,2.09-4.48,3.45c-0.06,0.54-0.01,1.11,0.18,1.67c0.68,2.06,2.9,3.18,4.96,2.5
			c2.06-0.68,3.17-2.9,2.49-4.96C194.98,150.75,193.73,149.77,192.31,149.56"/>
	</g>
	<g>
		<path class="st4" d="M663.82,78.64c1.04,19.86-14.21,36.8-34.07,37.84c-19.86,1.04-36.8-14.21-37.84-34.07
			c-1.04-19.86,14.21-36.8,34.07-37.84C645.84,43.53,662.78,58.79,663.82,78.64z"/>
		
			<linearGradient id="SVGID_00000137126107641674426710000009564850335137466753_" gradientUnits="userSpaceOnUse" x1="618.9121" y1="18.4862" x2="634.9121" y2="129.3434">
			<stop  offset="2.237672e-07" style="stop-color:#F3719C"/>
			<stop  offset="1" style="stop-color:#FF9373"/>
		</linearGradient>
		<path style="fill:url(#SVGID_00000137126107641674426710000009564850335137466753_);" d="M659,78.9
			c0.9,17.19-12.31,31.86-29.5,32.77c-17.19,0.9-31.86-12.31-32.77-29.5c-0.9-17.19,12.31-31.87,29.5-32.77
			C643.43,48.49,658.1,61.7,659,78.9z"/>
		<path class="st4" d="M628.83,54.92c0.07,1.27-0.91,2.36-2.18,2.42c-1.27,0.07-2.36-0.91-2.42-2.18c-0.07-1.27,0.91-2.36,2.18-2.42
			C627.68,52.67,628.76,53.65,628.83,54.92z"/>
		<path class="st4" d="M631.51,105.9c0.07,1.27-0.91,2.36-2.18,2.42c-1.27,0.07-2.36-0.91-2.42-2.18c-0.07-1.27,0.91-2.36,2.18-2.42
			C630.35,103.65,631.44,104.63,631.51,105.9z"/>
		<path class="st4" d="M602.26,79.57c1.27-0.07,2.36,0.91,2.42,2.18s-0.91,2.36-2.18,2.42c-1.27,0.07-2.36-0.91-2.42-2.18
			C600.01,80.72,600.99,79.63,602.26,79.57z"/>
		<path class="st4" d="M653.23,76.89c1.27-0.07,2.36,0.91,2.42,2.18c0.07,1.27-0.91,2.36-2.18,2.42c-1.27,0.07-2.36-0.91-2.42-2.18
			C650.99,78.04,651.96,76.96,653.23,76.89z"/>
		
			<rect x="626.85" y="60.52" transform="matrix(0.9986 -0.0524 0.0524 0.9986 -2.8528 32.9787)" class="st36" width="1.32" height="20.75"/>
		<polygon class="st36" points="647.86,97.93 648.22,98.25 628.63,80.62 628.28,80.3 		"/>
	</g>
	<g>
		
			<rect x="631.98" y="342.51" transform="matrix(0.9986 -0.0524 0.0524 0.9986 -17.2725 33.7336)" class="st4" width="5.43" height="7.51"/>
		
			<rect x="632.37" y="349.93" transform="matrix(0.9986 -0.0524 0.0524 0.9986 -17.6608 33.7642)" class="st22" width="5.43" height="7.51"/>
		
			<rect x="632.76" y="357.35" transform="matrix(0.9986 -0.0524 0.0524 0.9986 -18.0491 33.7948)" class="st42" width="5.43" height="7.51"/>
		
			<rect x="633.14" y="364.77" transform="matrix(0.9986 -0.0524 0.0524 0.9986 -18.4373 33.8253)" class="st20" width="5.43" height="7.51"/>
		<path class="st43" d="M636.32,389.46c0.22,4.23-3.03,7.84-7.26,8.06l-33.19,1.74c-4.23,0.22-7.84-3.03-8.06-7.26l-2.59-49.3
			c-0.22-4.23,3.03-7.84,7.26-8.06l33.19-1.74c4.23-0.22,7.84,3.03,8.06,7.26L636.32,389.46"/>
		<polyline class="st4" points="621.97,350.86 599.95,352.01 599.69,347.07 621.71,345.91 621.97,350.86 		"/>
		<polyline class="st4" points="622.39,358.84 600.37,359.99 600.11,355.04 622.13,353.89 622.39,358.84 		"/>
		<polyline class="st4" points="622.81,366.81 600.79,367.97 600.53,363.02 622.55,361.87 622.81,366.81 		"/>
		<path class="st4" d="M590.65,351.46c0.04,0.75-0.54,1.39-1.29,1.43l-4.95,0.26c-0.75,0.04-1.39-0.54-1.43-1.28
			c-0.04-0.75,0.54-1.39,1.29-1.43l4.95-0.26C589.97,350.14,590.61,350.71,590.65,351.46"/>
		<path class="st4" d="M591.06,359.28c0.04,0.75-0.54,1.39-1.29,1.43l-4.95,0.26c-0.75,0.04-1.39-0.54-1.43-1.29
			c-0.04-0.75,0.54-1.39,1.29-1.43l4.95-0.26C590.38,357.95,591.02,358.53,591.06,359.28"/>
		<path class="st4" d="M591.47,367.1c0.04,0.75-0.54,1.39-1.29,1.43l-4.95,0.26c-0.75,0.04-1.39-0.54-1.43-1.29
			c-0.04-0.75,0.54-1.39,1.29-1.43l4.95-0.26C590.79,365.77,591.43,366.35,591.47,367.1"/>
		<path class="st4" d="M591.88,374.92c0.04,0.75-0.54,1.39-1.29,1.43l-4.95,0.26c-0.75,0.04-1.39-0.54-1.43-1.28
			c-0.04-0.75,0.54-1.39,1.29-1.43l4.95-0.26C591.2,373.59,591.84,374.17,591.88,374.92"/>
		<path class="st4" d="M592.29,382.73c0.04,0.75-0.54,1.39-1.29,1.43l-4.95,0.26c-0.75,0.04-1.39-0.54-1.43-1.28
			c-0.04-0.75,0.54-1.39,1.29-1.43l4.95-0.26C591.61,381.41,592.25,381.99,592.29,382.73"/>
		<path class="st4" d="M592.7,390.55c0.04,0.75-0.54,1.39-1.29,1.43l-4.95,0.26c-0.75,0.04-1.39-0.54-1.43-1.28
			c-0.04-0.75,0.54-1.39,1.29-1.43l4.95-0.26C592.02,389.23,592.66,389.8,592.7,390.55"/>
		<path class="st44" d="M610.56,333.7l-18.08,0.95l0,0c-0.02,0-0.03,0-0.05,0c0,0,0,0,0,0c-0.01,0-0.01,0-0.02,0c0,0-0.01,0-0.01,0
			c0,0-0.01,0-0.01,0c0,0-0.01,0-0.01,0c0,0-0.01,0-0.01,0c0,0-0.01,0-0.01,0c0,0-0.01,0-0.01,0c0,0-0.01,0-0.01,0
			c0,0-0.01,0-0.01,0c-0.01,0-0.01,0-0.02,0c0,0-0.01,0-0.01,0c0,0-0.01,0-0.01,0c0,0-0.01,0-0.01,0c0,0-0.01,0-0.01,0
			c0,0-0.01,0-0.01,0c0,0-0.01,0-0.01,0c0,0-0.01,0-0.01,0c0,0-0.01,0-0.01,0c-0.01,0-0.01,0-0.02,0c0,0,0,0-0.01,0
			c-0.01,0-0.01,0-0.02,0c0,0,0,0-0.01,0c-0.01,0-0.01,0-0.02,0c0,0,0,0,0,0c-0.01,0-0.01,0-0.02,0c0,0,0,0,0,0
			c-0.01,0-0.02,0-0.02,0l0,0c-0.01,0-0.01,0-0.02,0l0,0c-0.02,0-0.03,0-0.05,0.01c0,0,0,0,0,0c-3.95,0.44-6.92,3.86-6.8,7.86
			l3.58-0.19c0.75-0.04,1.39,0.54,1.43,1.28l0,0l0,0c0.04,0.75-0.54,1.39-1.29,1.43l-3.59,0.19l0.27,5.11l3.59-0.19
			c0.75-0.04,1.39,0.54,1.43,1.29l0,0l0,0c0.04,0.75-0.54,1.39-1.29,1.43l-3.59,0.19l0.27,5.11l3.59-0.19
			c0.75-0.04,1.39,0.54,1.43,1.29l0,0l0,0c0.04,0.75-0.54,1.39-1.29,1.43l-3.59,0.19l0.27,5.11l3.59-0.19
			c0.75-0.04,1.39,0.54,1.43,1.28l0,0l0,0c0.04,0.75-0.54,1.39-1.29,1.43l-3.59,0.19l0.27,5.11l3.59-0.19
			c0.75-0.04,1.39,0.54,1.43,1.29l0,0l0,0c0.04,0.75-0.54,1.39-1.29,1.43l-3.59,0.19l0.27,5.11l3.59-0.19
			c0.75-0.04,1.39,0.54,1.43,1.28l0,0l0,0c0.04,0.75-0.54,1.39-1.29,1.43l-3.59,0.19l0.27,5.11l3.59-0.19
			c0.75-0.04,1.39,0.54,1.43,1.28l0,0l0,0c0.04,0.75-0.54,1.39-1.29,1.43l-3.58,0.19c0.3,4.04,3.68,7.14,7.7,7.11l0,0
			c0.01,0,0.02,0,0.02,0c0,0,0,0,0,0c0.01,0,0.01,0,0.02,0c0,0,0,0,0,0c0.01,0,0.02,0,0.02,0c0,0,0,0,0,0c0.01,0,0.01,0,0.02,0
			c0,0,0,0,0,0c0.01,0,0.01,0,0.02,0c0,0,0,0,0.01,0c0.01,0,0.01,0,0.02,0c0,0,0.01,0,0.01,0c0,0,0.01,0,0.01,0c0,0,0.01,0,0.01,0
			c0,0,0.01,0,0.01,0c0,0,0.01,0,0.01,0c0.01,0,0.01,0,0.02,0c0,0,0.01,0,0.01,0c0.01,0,0.01,0,0.02,0c0,0,0.01,0,0.01,0
			c0,0,0.01,0,0.01,0c0,0,0,0,0,0c0.01,0,0.01,0,0.02,0c0,0,0,0,0,0c0.02,0,0.03,0,0.05,0l18.08-0.95l-1.62-30.95l-11.54,0.61
			l-0.26-4.95l11.54-0.61l-0.16-3.03l-11.54,0.61l-0.26-4.95l11.54-0.61l-0.16-3.03l-11.54,0.61l-0.26-4.95l11.54-0.61L610.56,333.7
			"/>
		
			<rect x="599.82" y="346.76" transform="matrix(0.9986 -0.0524 0.0524 0.9986 -17.468 32.2128)" class="st4" width="11.55" height="4.95"/>
		
			<rect x="600.24" y="354.74" transform="matrix(0.9986 -0.0524 0.0524 0.9986 -17.8854 32.2457)" class="st4" width="11.55" height="4.95"/>
		
			<rect x="600.65" y="362.72" transform="matrix(0.9986 -0.0524 0.0524 0.9986 -18.3029 32.2786)" class="st4" width="11.55" height="4.95"/>
		<path class="st4" d="M590.65,351.46c-0.04-0.75-0.68-1.32-1.43-1.29l-3.59,0.19l-1.36,0.07c-0.75,0.04-1.32,0.68-1.29,1.43
			c0.04,0.75,0.68,1.32,1.43,1.28l1.36-0.07l3.59-0.19C590.11,352.85,590.68,352.21,590.65,351.46z"/>
		<path class="st4" d="M591.06,359.28c-0.04-0.75-0.68-1.33-1.43-1.29l-3.59,0.19l-1.36,0.07c-0.75,0.04-1.32,0.68-1.29,1.43
			c0.04,0.75,0.68,1.32,1.43,1.29l1.36-0.07l3.59-0.19C590.52,360.67,591.1,360.03,591.06,359.28z"/>
		<path class="st4" d="M591.47,367.1c-0.04-0.75-0.68-1.32-1.43-1.28l-3.59,0.19l-1.36,0.07c-0.75,0.04-1.32,0.68-1.29,1.43
			c0.04,0.75,0.68,1.33,1.43,1.29l1.36-0.07l3.59-0.19C590.93,368.49,591.51,367.85,591.47,367.1z"/>
		<path class="st4" d="M591.88,374.92c-0.04-0.75-0.68-1.32-1.43-1.29l-3.59,0.19l-1.36,0.07c-0.75,0.04-1.32,0.68-1.29,1.43
			c0.04,0.75,0.68,1.32,1.43,1.28l1.36-0.07l3.59-0.19C591.34,376.3,591.92,375.66,591.88,374.92z"/>
		<path class="st4" d="M592.29,382.73c-0.04-0.75-0.68-1.32-1.43-1.28l-3.59,0.19l-1.36,0.07c-0.75,0.04-1.32,0.68-1.29,1.43
			c0.04,0.75,0.68,1.32,1.43,1.28l1.36-0.07l3.59-0.19C591.75,384.12,592.33,383.48,592.29,382.73z"/>
		<path class="st4" d="M592.7,390.55c-0.04-0.75-0.68-1.32-1.43-1.28l-3.59,0.19l-1.36,0.07c-0.75,0.04-1.32,0.68-1.29,1.43
			c0.04,0.75,0.68,1.32,1.43,1.28l1.36-0.07l3.58-0.19C592.16,391.94,592.74,391.3,592.7,390.55z"/>
	</g>
</g>
</svg>
