<?xml version="1.0" encoding="utf-8"?>
<!-- Generator: Adobe Illustrator 26.1.0, SVG Export Plug-In . SVG Version: 6.00 Build 0)  -->
<svg version="1.1" id="Layer_1" xmlns="http://www.w3.org/2000/svg" xmlns:xlink="http://www.w3.org/1999/xlink" x="0px" y="0px"
	 viewBox="0 0 680 688" style="enable-background:new 0 0 680 688;" xml:space="preserve">
<style type="text/css">
	.st0{opacity:0.67;}
	.st1{fill:url(#SVGID_1_);}
	.st2{fill:url(#SVGID_00000090285021398881568110000017833992663358173088_);}
	.st3{fill:#FFD001;}
	.st4{fill:#FFFFFF;}
	.st5{fill:none;stroke:#CCEEF4;stroke-width:1.6632;stroke-linecap:round;stroke-linejoin:round;stroke-miterlimit:10;}
	.st6{fill:none;stroke:#FFA21E;stroke-width:1.6632;stroke-linecap:round;stroke-linejoin:round;stroke-miterlimit:10;}
	.st7{fill:#FFFBFF;}
	.st8{fill:none;stroke:#FFA21E;stroke-width:1.621;stroke-linecap:round;stroke-linejoin:round;stroke-miterlimit:10;}
	.st9{fill-rule:evenodd;clip-rule:evenodd;fill:#E5E2DB;}
	.st10{fill-rule:evenodd;clip-rule:evenodd;fill:#FEFFFA;}
	.st11{fill-rule:evenodd;clip-rule:evenodd;fill:#F5773D;}
	.st12{fill-rule:evenodd;clip-rule:evenodd;fill:#143143;}
	.st13{fill-rule:evenodd;clip-rule:evenodd;fill:#172C36;}
	.st14{fill-rule:evenodd;clip-rule:evenodd;fill:#FFFFFF;}
	.st15{fill-rule:evenodd;clip-rule:evenodd;fill:url(#SVGID_00000137824320776634633550000017030438722883071380_);}
	.st16{fill-rule:evenodd;clip-rule:evenodd;fill:url(#SVGID_00000047775413695558436780000001332670648467188614_);}
	
		.st17{fill-rule:evenodd;clip-rule:evenodd;fill:#FFFFFF;stroke:#1A2E35;stroke-linecap:round;stroke-linejoin:round;stroke-miterlimit:10;}
	.st18{fill:url(#SVGID_00000120535373686454181220000015504474383967835834_);}
	.st19{fill:url(#SVGID_00000080921635835839920810000012547558105044766139_);}
	.st20{fill:#FBB255;}
	.st21{fill:#29B99A;}
	.st22{fill:#EC5553;}
	.st23{fill:url(#SVGID_00000091017404660022450580000006076136937985051298_);}
	.st24{fill:#F5773D;}
	.st25{fill:#F38469;}
	.st26{fill:url(#SVGID_00000009579700268804977240000008386169167387337645_);}
	.st27{fill:#386A87;}
	.st28{fill:#F4A091;}
	.st29{fill:#F18F79;}
	.st30{fill:#FAC9BC;}
	.st31{fill:#F7BFAD;}
	.st32{fill:#414142;}
	.st33{fill:#F3A8BD;}
	.st34{fill:#F091A8;}
	.st35{fill:#7E7A7B;}
	.st36{fill:#E9EAE8;}
	.st37{fill:url(#SVGID_00000175312389769041576460000010508324518080117899_);}
	.st38{fill:#F7F7F7;}
	.st39{fill:#F8CAD5;}
	.st40{fill:#F5BBC6;}
	.st41{fill:url(#SVGID_00000139265453653217390490000007959960459588368005_);}
	.st42{fill:#A2BA63;}
	.st43{fill:#F27540;}
	.st44{fill:#ED4327;}
	.st45{fill:#FFFFFF;stroke:#1A2E35;stroke-linecap:round;stroke-linejoin:round;stroke-miterlimit:10;}
	.st46{fill:#FFFFFF;stroke:#1E1E1E;stroke-miterlimit:10;}
	.st47{fill:#7F392B;}
	.st48{fill:none;stroke:#667478;stroke-linecap:round;stroke-linejoin:round;stroke-miterlimit:10;}
	.st49{fill:url(#SVGID_00000079485814330795814370000010040579917894516128_);}
	.st50{fill:none;stroke:#DB4B66;stroke-miterlimit:10;}
	.st51{fill:#FFB766;}
	.st52{fill:url(#SVGID_00000088108876862226974720000014771397178796982965_);}
	.st53{fill:#1A2E35;}
	.st54{fill:#FCD1C0;}
	.st55{fill:#375A64;}
	.st56{fill:url(#SVGID_00000051376148519547726080000012035052716075083150_);}
	.st57{fill:url(#SVGID_00000036250636432167886690000016964192302564981689_);}
	.st58{fill:#1A2E35;stroke:#1A2E35;stroke-linecap:round;stroke-linejoin:round;stroke-miterlimit:10;}
</style>
<g>
	<path class="st45" d="M124.65,626.17c0,0-11.22-5.78-13.6-7.93s-22.1-22.49-26.56-20.89c-4.46,1.6-9.84,11.89-14.37,20.76
		c-4.54,8.88-19,27.83-22.44,40.29c-3.44,12.46,2.36,10.34,4.53,8.4s21.49-15.23,31.23-20.28s14.2-6.66,14.2-6.66l18.09,6.78
		L124.65,626.17z"/>
	<path class="st46" d="M105.28,612.65c-6.89-6.62-17.64-16.43-20.79-15.3c-4.46,1.6-9.84,11.89-14.37,20.76
		c-4.54,8.88-19,27.83-22.44,40.29c-3.44,12.46,2.36,10.34,4.53,8.4c2.17-1.93,21.49-15.23,31.23-20.28
		c4.15-2.16,7.34-3.68,9.63-4.72l-8.94-8.05C84.12,633.75,96.01,619.27,105.28,612.65z"/>
	<path class="st45" d="M90.17,599.64c-0.25-0.17-0.49-0.34-0.73-0.49c-0.05-0.03-0.1-0.07-0.15-0.1c-0.37-0.24-0.73-0.45-1.07-0.64
		c-0.1-0.05-0.19-0.1-0.28-0.15c-0.27-0.15-0.53-0.27-0.78-0.39c-0.08-0.04-0.16-0.08-0.24-0.11c-0.31-0.13-0.6-0.24-0.87-0.32
		c-0.06-0.02-0.11-0.02-0.16-0.04c-0.22-0.06-0.42-0.09-0.61-0.11c-0.06-0.01-0.13-0.01-0.19-0.01c-0.22,0-0.43,0.01-0.61,0.08
		c-4.46,1.6-9.84,11.89-14.37,20.76c-4.54,8.88-19,27.83-22.44,40.29c-1.48,5.36-1.24,8.01-0.33,9.15
		c3.29-12.53,16.35-31.39,27.47-46.5C82.89,610.08,87.64,603.33,90.17,599.64z"/>
</g>
<g>
	<path class="st46" d="M634.22,625.25c0,0,23.36-16.91,29.25-22.45c5.89-5.54,13.65-11.65,15.75-7.96c2.1,3.69,1.27,15.15-4.6,30.19
		c-5.87,15.04-21.84,36.8-23.16,38.77c-1.32,1.97-2.45,7.73-9.53,8.58c-7.09,0.85-22.2-15.47-22.2-15.47L634.22,625.25z"/>
	<path class="st45" d="M641.92,672.38c7.09-0.85,8.21-6.61,9.53-8.58c1.32-1.97,17.3-23.73,23.16-38.77
		c5.87-15.04,6.69-26.5,4.6-30.19c-0.41-0.71-1.03-1.05-1.8-1.11c-0.32,4.8-1.47,13.64-5.49,25.26c-4.27,12.36-21.64,38.32-32,53.21
		C640.63,672.37,641.31,672.46,641.92,672.38z"/>
</g>
<path class="st47" d="M224.5,458.03c0,0-7.6,10.39-5.73,24.72c1.86,14.33,33.53,39.68,33.53,39.68s11.21-19.09,22.51-29.3
	c11.3-10.21,29.74-18.58,29.74-18.58l87.84,23.88c0,0,33.18-23.57,37.94-45.65c4.76-22.08-11.84-70.42-19.82-81.48
	s-12.58-21.17-12.58-21.17L280.7,372.57c0,0,3.49,17.21-12.82,37.68C251.56,430.71,224.5,458.03,224.5,458.03z"/>
<g>
	<path class="st45" d="M285.89,404.08c0,0,4.43,48.26,4.03,49.7s-3.37,48.86-3.37,48.86c33.19-2.98,68.75-20.62,104.02-15.62
		l18.93-118.91l-10.87-71.21L285.8,311.86L285.89,404.08z"/>
	<g>
		<path class="st48" d="M354.43,411.96c3.29-2.71,5.35-4.42,5.35-4.42"/>
		<path class="st48" d="M291.22,463.61c0,0,12.08-11.59,18.77-15.98c4.56-2.99,26.01-20.51,39.22-31.38"/>
		<path class="st48" d="M358.24,389.17c0,0-29.33,34.41-44.16,48.45"/>
		<path class="st48" d="M354.91,460.02c-10.83,3.58-24.47,8.07-34.46,11.28"/>
		<path class="st48" d="M372.6,454.15c0,0-4.46,1.49-11.07,3.68"/>
	</g>
</g>
<g>
	<g>
		<g>
			<path class="st45" d="M561.96,154.66l20.22-37.69c0,0,6.32-14.47,9.6-14.56c2.69-0.08,1.26,2.89-0.06,5.92
				c-1.32,3.03-5.62,19.91-5.62,19.91l15.37-17.46c0,0,2.03-2.28,4.1,0.53c2.02,2.74-10.53,17.94-10.53,17.94s18.78-8.76,19.64-6.58
				c0.85,2.18-17.33,15.34-17.33,15.34s19.23-0.27,18.97,1.96s-16.41,4.56-16.41,4.56s-1.96,4.91-10.49,11.65
				c-8.53,6.74-15.42,9.32-15.42,9.32L561.96,154.66z"/>
			<path class="st45" d="M571.44,144.92c0,0,9.87-2.37,17.34-7.94c7.48-5.57,14.26-10.37,14.39-7.79c0.14,2.58-8.33,10.43-9.4,11.22
				c-1.07,0.8-2.62,6.43-6.06,11.42c-3.44,4.99-13.19,9.57-13.19,9.57"/>
		</g>
		<polygon class="st45" points="552.34,161.83 563.61,150.88 578.58,168.22 568.36,178.01 		"/>
	</g>
	
		<linearGradient id="SVGID_1_" gradientUnits="userSpaceOnUse" x1="298.9919" y1="353.2869" x2="496.7895" y2="353.2869" gradientTransform="matrix(0.9986 -0.0524 0.0524 0.9986 62.5132 -23.9661)">
		<stop  offset="2.237672e-07" style="stop-color:#F3719C"/>
		<stop  offset="1" style="stop-color:#FF9373"/>
	</linearGradient>
	<path class="st1" d="M388.27,321.04c0,0,0,7.03,10.54,31.64c10.54,24.61,24.65,67.9,27.9,80.31c3.24,12.41,3.63,19.79,3.63,19.79
		s9.93-29.38,8.01-58.88c-1.92-29.5-21.06-69.94-21.06-69.94s61.22-46.14,71.81-55.94c10.59-9.81,81.64-87.17,81.64-87.17
		l-18.39-19.02l-82.45,64.64l-70.76,40.72c0,0-14.32,9.26-16.32,13.44c-2,4.18-4.63,17.63-3.67,21.65
		C380.09,306.3,388.27,321.04,388.27,321.04z"/>
	<path class="st50" d="M407.48,358.51c1.4,2.79,2.79,4.66,3.01,5.39"/>
	<path class="st50" d="M388.79,288.82l14.91,30.3l-12.31-1.94l14.64,11.07c0,0-2.04,10.47-1.58,19.32c0.16,2.96,0.83,5.61,1.68,7.87
		"/>
	<line class="st50" x1="438.08" y1="266.79" x2="440.89" y2="259.07"/>
	<polyline class="st50" points="413.95,274.55 417.28,323.96 435.38,274.22 	"/>
</g>
<path class="st51" d="M355,325.86l13.61,15.87c0,0,3.74-1.23,8.63-6.67c4.9-5.44,9.48-16.73,10.07-18.84
	c0.58-2.1-6.98-7.92-6.98-7.92l-34.37,3.19L355,325.86z"/>
<path class="st45" d="M349.22,197.33c0,0,20.07,7.02,21.55,10.5c1.47,3.48,2.85,11.16,2.85,11.16s21.95,5.95,21.22,10.51
	c-0.73,4.56-7.88,9.78-7.88,9.78s4.41,10.1,6.07,17.12c1.66,7.02,1.2,10.6-0.83,14.9c-2.04,4.31-6.07,7.42-6.07,7.42
	s-7.39,19.12-10.11,28.95c-2.71,9.83-4.07,14.75-9,13.07c-4.93-1.68-7.36-4.78-7.36-4.78s-9.32-17.6-16.1-23.7
	c-6.78-6.1-12.76-9.34-13.76-9.94c-1-0.59-5.97-2.92-6.19-7.1c-0.22-4.19,5.38-8.36,5.38-8.36s-15.8,0.51-19.41-19.01
	c-3.61-19.51,13.81-38.52,20.28-44.35C336.32,197.69,349.22,197.33,349.22,197.33z"/>
<path class="st45" d="M329.64,283.67l-5.58,5.47l23.43,51.62l19.49-23.48C366.99,317.29,343.24,286.06,329.64,283.67z"/>
<path class="st45" d="M377.75,307.96l10.84,15.67c0,0-2.03-18.89-6.5-31.78L377.75,307.96z"/>
<linearGradient id="SVGID_00000078023206550136637790000014257898572360832645_" gradientUnits="userSpaceOnUse" x1="298.6163" y1="225.3714" x2="409.7856" y2="225.3714">
	<stop  offset="2.237672e-07" style="stop-color:#F3719C"/>
	<stop  offset="1" style="stop-color:#FF9373"/>
</linearGradient>
<path style="fill:url(#SVGID_00000078023206550136637790000014257898572360832645_);" d="M337.61,286.69
	c0,0-25.85-11.02-34.77-36.93s6.87-28.97,6.87-28.97s-18.56-8.59-7.64-25.78c10.92-17.19,25.56-18.55,17.22-7.36
	c0,0,22.69-14.76,45.08-9.15c22.39,5.61,22.4-15.06,28.09-14.43c5.69,0.62,5.16,14.94-0.11,19.77c0,0,12.2-12.26,15.19-9.88
	s6.45,27.49-14.36,40.55c0,0,10.75,10.76-1.82,37.22C378.77,278.2,337.61,286.69,337.61,286.69z"/>
<path class="st45" d="M385.71,216.98c8.45,23.45,15.51,46.66,4.64,66.77c-2.8,5.18-8.08,8.44-13.97,8.58
	c-11.45,0.28-31.38-3.18-44.71-27.37c0,0-4.27,5.66-12.35-4.78c-8.08-10.44-5.53-14.82-0.86-16.58
	c4.67-1.76,13.89,13.23,13.89,13.23s12.39-12.47,3.08-33.8c0,0,11.68,4.65,18.34,3.44c6.66-1.21-1.74-9.68-1.74-9.68
	S364.91,228.35,385.71,216.98z"/>
<g>
	<g>
		<g>
			<g>
				<g>
					<g>
						<g>
							<g>
								<g>
									<g>
										<g>
											<g>
												<g>
													<g>
														<g>
															<g>
																<g>
																	<g>
																		<g>
																			<path class="st53" d="M389,239.69c0.26,1.26-0.59,2.51-1.9,2.8c-1.3,0.29-2.57-0.48-2.83-1.74
																				c-0.26-1.26,0.59-2.51,1.9-2.81C387.47,237.66,388.74,238.43,389,239.69z"/>
																		</g>
																	</g>
																</g>
															</g>
														</g>
													</g>
												</g>
											</g>
										</g>
									</g>
								</g>
							</g>
							<g>
								<g>
									<g>
										<g>
											<g>
												<g>
													<g>
														<g>
															<g>
																<g>
																	<g>
																		<g>
																			<g>
																				<path class="st53" d="M388.72,235.35c-0.17,0.43-2.41-0.41-4.88,0.44c-2.48,0.81-3.8,2.84-4.19,2.6
																					c-0.18-0.1-0.1-0.8,0.46-1.71c0.55-0.9,1.66-1.97,3.21-2.49c1.54-0.52,3.06-0.33,4.03,0.06
																					C388.34,234.64,388.81,235.16,388.72,235.35z"/>
																			</g>
																		</g>
																	</g>
																</g>
															</g>
														</g>
													</g>
												</g>
											</g>
										</g>
									</g>
								</g>
							</g>
						</g>
						<g>
							<g>
								<g>
									<g>
										<g>
											<g>
												<g>
													<g>
														<g>
															<g>
																<g>
																	<g>
																		<g>
																			<path class="st53" d="M363.94,244.92c0.26,1.26-0.59,2.51-1.9,2.8c-1.3,0.29-2.57-0.48-2.83-1.74
																				c-0.26-1.26,0.59-2.51,1.9-2.81C362.41,242.89,363.68,243.67,363.94,244.92z"/>
																		</g>
																	</g>
																</g>
															</g>
														</g>
													</g>
												</g>
											</g>
										</g>
									</g>
								</g>
							</g>
							<g>
								<g>
									<g>
										<g>
											<g>
												<g>
													<g>
														<g>
															<g>
																<g>
																	<g>
																		<g>
																			<g>
																				<path class="st53" d="M363.96,240.82c-0.28,0.42-2.61-0.77-5.54-0.26c-2.93,0.47-4.81,2.38-5.19,2.07
																					c-0.18-0.13,0.04-0.84,0.86-1.7c0.8-0.85,2.25-1.79,4.08-2.1c1.83-0.31,3.48,0.11,4.48,0.66
																					C363.67,240.03,364.09,240.63,363.96,240.82z"/>
																			</g>
																		</g>
																	</g>
																</g>
															</g>
														</g>
													</g>
												</g>
											</g>
										</g>
									</g>
								</g>
							</g>
						</g>
						<g>
							<g>
								<g>
									<g>
										<g>
											<g>
												<g>
													<g>
														<g>
															<g>
																<g>
																	<g>
																		<g>
																			<path class="st53" d="M375.19,257.15c-0.04-0.14,1.52-0.69,4.06-1.46c0.65-0.18,1.25-0.41,1.28-0.88
																				c0.07-0.5-0.32-1.16-0.77-1.87c-0.89-1.49-1.82-3.05-2.79-4.68c-3.91-6.67-6.85-12.2-6.58-12.36
																				c0.27-0.15,3.66,5.13,7.56,11.8c0.95,1.65,1.85,3.22,2.71,4.72c0.38,0.71,0.95,1.48,0.78,2.52
																				c-0.09,0.52-0.52,0.96-0.92,1.14c-0.4,0.2-0.77,0.27-1.09,0.34C376.84,257.01,375.22,257.3,375.19,257.15z"/>
																		</g>
																	</g>
																</g>
															</g>
														</g>
													</g>
												</g>
											</g>
										</g>
									</g>
								</g>
							</g>
						</g>
					</g>
				</g>
			</g>
			<g>
				<g>
					<g>
						<g>
							<g>
								<g>
									<g>
										<g>
											<g>
												<g>
													<g>
														<g>
															<path class="st53" d="M364.18,234.83c-0.23,0.72-2.85,0.5-5.89,1c-3.06,0.44-5.48,1.45-5.92,0.83
																c-0.19-0.3,0.21-0.98,1.17-1.71c0.96-0.73,2.51-1.45,4.34-1.74c1.83-0.28,3.52-0.06,4.66,0.34
																C363.68,233.96,364.27,234.49,364.18,234.83z"/>
														</g>
													</g>
												</g>
											</g>
										</g>
									</g>
								</g>
							</g>
						</g>
					</g>
				</g>
			</g>
			<g>
				<g>
					<g>
						<g>
							<g>
								<g>
									<g>
										<g>
											<g>
												<g>
													<g>
														<g>
															<path class="st53" d="M387.58,228.6c-0.32,0.71-2.39,0.68-4.69,1.33c-2.31,0.57-4.11,1.63-4.73,1.16
																c-0.28-0.23-0.14-0.89,0.54-1.68c0.67-0.78,1.94-1.63,3.52-2.05c1.58-0.42,3.1-0.3,4.06,0.04
																C387.27,227.75,387.71,228.26,387.58,228.6z"/>
														</g>
													</g>
												</g>
											</g>
										</g>
									</g>
								</g>
							</g>
						</g>
					</g>
				</g>
			</g>
		</g>
	</g>
</g>
<g>
	<path class="st54" d="M372.38,263.12c0.44-0.64,1.16-1.05,1.9-1.25c1.1-0.3,2.35-0.18,3.29,0.47c0.94,0.66,1.48,1.9,1.17,3
		l-0.1-0.28c0.02,1.1-0.59,2.18-1.54,2.74c-0.94,0.56-2.17,0.6-3.16,0.13c-0.99-0.47-1.72-1.43-1.95-2.51
		C371.83,264.64,371.94,263.78,372.38,263.12z"/>
</g>
<g>
	<g>
		<g>
			<path class="st55" d="M368.1,243.35c-0.06,0.01-0.01-0.91-0.42-2.47c-0.41-1.53-1.46-3.77-3.78-5.49
				c-1.15-0.84-2.59-1.55-4.25-1.82c-1.65-0.26-3.5-0.19-5.26,0.5c-0.88,0.32-1.74,0.79-2.52,1.39c-0.79,0.58-1.51,1.31-2.09,2.14
				c-1.22,1.65-1.89,3.76-1.89,5.93c0.04,2.17,0.75,4.27,1.99,5.89c0.6,0.83,1.33,1.54,2.13,2.11c0.79,0.58,1.65,1.04,2.54,1.34
				c1.77,0.66,3.62,0.7,5.27,0.41c1.65-0.3,3.08-1.04,4.22-1.9c2.29-1.76,3.3-4.02,3.68-5.56
				C368.1,244.26,368.04,243.34,368.1,243.35c0.02,0,0.02,0.22,0.02,0.65c0,0.22,0,0.48-0.05,0.79c-0.04,0.31-0.07,0.67-0.18,1.07
				c-0.34,1.57-1.32,3.91-3.65,5.76c-1.16,0.9-2.63,1.68-4.34,2.01c-1.7,0.32-3.63,0.29-5.47-0.38c-0.93-0.31-1.83-0.78-2.65-1.39
				c-0.84-0.59-1.6-1.33-2.23-2.19c-1.3-1.69-2.05-3.89-2.09-6.15c0-2.26,0.71-4.47,1.98-6.18c0.62-0.87,1.36-1.62,2.19-2.23
				c0.82-0.62,1.71-1.11,2.63-1.43c1.83-0.71,3.76-0.77,5.47-0.48c1.72,0.3,3.2,1.05,4.37,1.93c2.37,1.81,3.39,4.13,3.75,5.7
				c0.11,0.39,0.16,0.76,0.2,1.07c0.05,0.31,0.07,0.58,0.07,0.79C368.12,243.12,368.11,243.35,368.1,243.35z"/>
		</g>
	</g>
</g>
<g>
	<g>
		<g>
			<path class="st55" d="M396.6,237.83c-0.06,0.01-0.01-0.91-0.42-2.47c-0.41-1.53-1.46-3.77-3.78-5.49
				c-1.15-0.84-2.59-1.55-4.25-1.82c-1.65-0.26-3.5-0.19-5.26,0.5c-0.89,0.32-1.74,0.79-2.52,1.39c-0.79,0.58-1.51,1.31-2.09,2.14
				c-1.22,1.65-1.89,3.76-1.89,5.93c0.04,2.17,0.75,4.27,1.99,5.89c0.6,0.83,1.33,1.54,2.13,2.11c0.79,0.58,1.65,1.04,2.54,1.34
				c1.77,0.66,3.62,0.7,5.27,0.41c1.65-0.3,3.08-1.04,4.22-1.9c2.29-1.76,3.3-4.02,3.68-5.56
				C396.61,238.74,396.54,237.82,396.6,237.83c0.02,0,0.02,0.22,0.02,0.65c0,0.22,0,0.48-0.05,0.79c-0.04,0.31-0.07,0.68-0.18,1.07
				c-0.34,1.57-1.32,3.91-3.65,5.76c-1.16,0.9-2.63,1.68-4.34,2.01c-1.7,0.32-3.63,0.29-5.47-0.38c-0.93-0.31-1.83-0.78-2.65-1.39
				c-0.84-0.59-1.6-1.33-2.23-2.19c-1.3-1.69-2.05-3.89-2.09-6.15c0-2.26,0.71-4.47,1.98-6.18c0.62-0.87,1.36-1.62,2.19-2.23
				c0.82-0.62,1.71-1.11,2.63-1.43c1.83-0.71,3.76-0.77,5.47-0.48c1.72,0.3,3.2,1.05,4.37,1.93c2.37,1.81,3.39,4.13,3.75,5.7
				c0.11,0.39,0.16,0.76,0.2,1.07c0.05,0.31,0.07,0.58,0.07,0.79C396.62,237.6,396.62,237.83,396.6,237.83z"/>
		</g>
	</g>
</g>
<g>
	<g>
		<path class="st55" d="M394.63,230.23c0,0-3.56-4.38-9.6-3.38c-6.28,1.04-9.84,6.85-9.84,6.85c-5.96-0.35-8.94,2-8.94,2
			s-3.83-4.28-10.64-3.37c-5.72,0.77-9.13,7.13-9.13,7.13l-4.41,1.3l1.03,3.95l4.99-1.34c0,0,1.04-7.66,7.23-8.96
			c8.32-1.75,10.63,4.24,10.63,4.24l1.96-0.51l-0.81-1.1c0,0,4.44-2.37,7.96-1.46l0.24,1.45l1.43-0.13c0,0,1.11-7.14,8.62-8.14
			c8.55-1.14,10.67,6.9,10.67,6.9l3.29-0.85l-0.69-3.96L394.63,230.23z"/>
	</g>
</g>
<g>
	<g>
		<g>
			<path class="st4" d="M358.63,252.31c0.01,0.05-0.69,0.24-1.86,0.18c-1.15-0.05-2.78-0.41-4.29-1.39
				c-1.51-0.97-2.52-2.3-3.04-3.33c-0.53-1.04-0.65-1.76-0.6-1.77c0.07-0.02,0.29,0.65,0.88,1.61c0.58,0.96,1.57,2.19,3.01,3.11
				c1.43,0.92,2.97,1.32,4.08,1.45C357.92,252.31,358.63,252.24,358.63,252.31z"/>
		</g>
	</g>
</g>
<g>
	<g>
		<g>
			<g>
				<g>
					<g>
						<g>
							<g>
								<g>
									<g>
										<g>
											<g>
												<path class="st53" d="M372.33,261.93c0.31-0.1,0.89,2.03,3.13,3.05c2.23,1.03,4.44,0.18,4.54,0.47
													c0.07,0.13-0.4,0.55-1.35,0.83c-0.93,0.29-2.39,0.35-3.76-0.27c-1.36-0.63-2.18-1.74-2.49-2.6
													C372.09,262.55,372.18,261.96,372.33,261.93z"/>
											</g>
										</g>
									</g>
								</g>
							</g>
						</g>
					</g>
				</g>
			</g>
		</g>
	</g>
</g>
<linearGradient id="SVGID_00000065038908385815250840000008445157075741485959_" gradientUnits="userSpaceOnUse" x1="10.7191" y1="610.3898" x2="536.9005" y2="610.3898" gradientTransform="matrix(0.9986 -0.0524 0.0524 0.9986 62.5132 -23.9661)">
	<stop  offset="0" style="stop-color:#404F5E"/>
	<stop  offset="1" style="stop-color:#26282A"/>
</linearGradient>
<path style="fill:url(#SVGID_00000065038908385815250840000008445157075741485959_);" d="M286,487c0,0-4.4,25.69-1.25,40.27
	s10.33,24.65,10.33,24.65l-16.45,82.74l-161.65-24.67l-8.84,30.89c0,0,102.44,19.7,140.99,29.56c38.55,9.86,59.83,16.83,63.55,15.21
	c3.72-1.62,7.29-6.09,7.29-6.09l40.86-115.87l111.26,1.91c0,0,35.18,27.15,62.27,45.22c27.09,18.07,86.14,51.76,86.14,51.76
	s7.86-4.22,10.18-14.32c2.32-10.1,3.55-23,3.55-23s-5.49-4.94-9.38-6.64c-3.89-1.7-9.03,0-12.4-0.78
	c-3.37-0.77-81.82-69.1-90.78-76.71c-8.96-7.61-20.86-26-33.43-30.1s-97.49-20.23-97.49-20.23l4.31-32.66C362,487,315,490,286,487z"
	/>
<g>
	<g>
		
			<linearGradient id="SVGID_00000104702447597977819240000004539026633864195251_" gradientUnits="userSpaceOnUse" x1="163.8637" y1="389.413" x2="344.1582" y2="389.413">
			<stop  offset="2.237672e-07" style="stop-color:#F3719C"/>
			<stop  offset="1" style="stop-color:#FF9373"/>
		</linearGradient>
		<path style="fill:url(#SVGID_00000104702447597977819240000004539026633864195251_);" d="M324.06,289.14l-10.35,7.32
			c0,0-43.17,2.27-45.97,5.37c-2.8,3.11-81.25,80.49-81.8,84.22c-0.54,3.73-22.08,94.04-22.08,94.04l28.63,9.6l33.92-86.89
			l45.97-26.46c0,0-0.12,11.85-8.86,28.59s-39.03,53.11-39.03,53.11s31.39-29.4,50.83-39.67c19.44-10.27,32.26-5.76,47.08-26.52
			c14.82-20.76,22.83-37.46,21.62-53.31S324.06,289.14,324.06,289.14z"/>
		<path class="st50" d="M272.39,376.33c0,0,2.06-10.1-1.03-26.59"/>
		<path class="st50" d="M319.72,387.81c-2.04,3.98-3.46,6.57-3.46,6.57"/>
		<path class="st50" d="M316.76,298.15l6.04,23.37l11.38,5.32l-8.35,3.03c0,0,9.63,21.33,4.42,34.92
			c-2.36,6.16-5.45,12.81-8.13,18.24"/>
	</g>
	<polygon class="st45" points="163.86,480.09 160.13,493.9 185.54,502.81 187.92,488.88 	"/>
	<g>
		<polygon class="st58" points="151.25,517.15 144.96,530.9 149.54,533 153.24,524.91 185.72,539.78 182.02,547.86 186.61,549.96 
			192.9,536.21 		"/>
		<path class="st3" d="M181.31,683.36L47.47,622.11c-3.02-1.38-4.34-4.95-2.96-7.96l46.81-102.29c1.38-3.02,4.95-4.34,7.96-2.96
			l133.84,61.25c3.02,1.38,4.34,4.95,2.96,7.96l-46.81,102.29C187.89,683.41,184.32,684.74,181.31,683.36z"/>
	</g>
	<path class="st45" d="M185.54,502.81l5.77,16.62c0,0-0.4,9.37-0.26,12.04c0.14,2.66,6.24,8.58,3.2,10.07
		c-3.04,1.5-6.12,2.1-7.6-0.49c-1.47-2.59-3.04-6.97-3.04-6.97l-3.34,12.64c0,0-7.25-2.29-9.56-3.95c-2.31-1.66-2.24-8.79-2.24-8.79
		s-14.09-5.49-15.57-8.09c-1.47-2.59-0.61-11.55-0.61-11.55l7.83-20.45L185.54,502.81z"/>
</g>
<path class="st51" d="M368.61,341.73c0,0-2.98,6.4-20.46,4.73c-17.48-1.67-39.32-23.1-56.07-24.81
	c-16.74-1.71-43.12,17.43-64.73,14.5c-21.62-2.94-42.49-12.94-42.49-12.94l-33.62,22.12c0,0,34.74,13.35,38.08,13.54
	c3.34,0.19,47.91,3.41,61.28-2.85c13.36-6.25,31.12-20.5,45.39-16.44c14.27,4.06,31.96,23.85,48.82,20.75
	C361.67,357.22,368.61,341.73,368.61,341.73z"/>
</svg>
