<svg xmlns="http://www.w3.org/2000/svg" xmlns:xlink="http://www.w3.org/1999/xlink" version="1.1" id="Layer_1" width="800px" height="800px" viewBox="796 796 200 200" enable-background="new 796 796 200 200" xml:space="preserve">
  <!-- Define linear gradient -->
  <defs>
    <linearGradient id="gradient" x1="0%" y1="0%" x2="100%" y2="100%">
      <stop offset="0%" style="stop-color:rgb(242, 112, 156);stop-opacity:1" />
      <stop offset="100%" style="stop-color:rgb(255, 148, 114);stop-opacity:1" />
    </linearGradient>
  </defs>
  <!-- Apply gradient fill to the path -->
  <path d="M896.001,812.517c-55.23,0-100.001,31.369-100.001,70.071c0,18.018,9.72,34.439,25.67,46.851c3.721,2.895,5.446,7.685,4.424,12.286l-6.872,30.926c-0.498,2.242,0.419,4.561,2.316,5.855c1.896,1.295,4.391,1.304,6.297,0.022l36.909-24.804c3.238-2.176,7.17-3.074,11.032-2.516c6.532,0.945,13.294,1.448,20.226,1.448c55.227,0,99.999-31.37,99.999-70.069C996,843.886,951.229,812.517,896.001,812.517z" fill="url(#gradient)" />
</svg>