<?xml version="1.0" encoding="utf-8"?>
<!-- Generator: Adobe Illustrator 26.1.0, SVG Export Plug-In . SVG Version: 6.00 Build 0)  -->
<svg version="1.1" id="Layer_1" xmlns="http://www.w3.org/2000/svg" xmlns:xlink="http://www.w3.org/1999/xlink" x="0px" y="0px"
	 viewBox="0 0 101 195" style="enable-background:new 0 0 101 195;" xml:space="preserve">
<style type="text/css">
	.st0{fill:#FDBD8E;}
	.st1{fill:#FB9988;}
	.st2{fill:#FD7D6F;}
	.st3{fill:#FFDABA;}
	.st4{fill:#FF5773;}
	.st5{fill:#E0385C;}
	.st6{fill:#204D74;}
	.st7{fill:#FFF0E7;}
	.st8{fill:#414156;}
	.st9{fill:#313044;}
	.st10{fill:#5E5E73;}
	.st11{fill:#55062C;}
	.st12{fill:#3F0727;}
	.st13{fill:#161818;}
	.st14{fill:#6F0A32;}
</style>
<g>
	<g>
		<g>
			<g>
				<path class="st0" d="M97.98,45.35c0.15,0.61-7.99,5.33-8.98,5.38l-1.38-0.11l-3.97,2.4c0,0-0.6-0.54-1.14-1.42
					c-0.29-0.47-0.57-1.05-0.72-1.7c-0.09-0.36-0.13-0.75-0.12-1.15c0.01-0.21,2.05-1.63,2.05-1.63s-1.01-3.09,0.11-4.5
					c0.66-0.83,1.34-1.67,1.64-2.69c0.16-0.53,0.25-1.09,0.47-1.6c0.22-0.51,0.6-0.99,1.14-1.15c0.06-0.02,0.13-0.03,0.19-0.02
					c0.13,0.03,0.2,0.17,0.24,0.31c0.01,0.01,0.01,0.03,0.01,0.04c0.39,1.51,0.24,3.16-0.41,4.57c0,0,4.9-1.8,6.03-2.74
					c0,0,2.9-1.32,3.26-0.83c0.13,0.18,0.2,0.37,0.23,0.53c0.06,0.28,0.02,0.48,0.02,0.48s-5.73,3.62-5.82,3.93
					c-0.09,0.31,5.7-1.68,6.22-1.44c0.15,0.07,0.24,0.26,0.3,0.5c0.05,0.22,0.08,0.48,0.09,0.72c0.02,0.4-0.01,0.75-0.01,0.75
					s0.04,0.07,0.1,0.19c0.08,0.16,0.19,0.4,0.29,0.66C97.87,45.01,97.93,45.18,97.98,45.35z"/>
				<path class="st1" d="M97.98,45.35c0.15,0.61-7.99,5.33-8.98,5.38l-1.38-0.11l-3.97,2.4c0,0-0.6-0.54-1.14-1.42
					c1.75-0.8,3.29-2.05,4.42-3.62c1.08-1.5,1.78-3.26,2.99-4.64c0.76-0.87,1.71-1.57,2.68-2.19c1.03-0.65,2.11-1.25,3.22-1.76
					c0.32-0.15,0.58-0.26,0.82-0.33c0.06,0.28,0.02,0.48,0.02,0.48s-5.73,3.62-5.82,3.93c-0.09,0.31,5.7-1.68,6.22-1.44
					c0.15,0.07,0.24,0.26,0.3,0.5c0.05,0.22,0.08,0.48,0.09,0.72c0.02,0.4-0.01,0.75-0.01,0.75s0.04,0.07,0.1,0.19
					c0.08,0.16,0.19,0.4,0.29,0.66C97.87,45.01,97.93,45.18,97.98,45.35z"/>
				<g>
					<g>
						<path class="st2" d="M97.43,43.25c-0.16,0.07-0.32,0.15-0.49,0.22c-0.98,0.41-1.92,0.66-2.6,0.8
							c-0.64,0.13-1.06,0.18-1.11,0.19c0.04-0.02,0.41-0.23,0.99-0.53c0.62-0.31,1.48-0.73,2.44-1.13c0.23-0.1,0.46-0.19,0.68-0.27
							C97.4,42.74,97.42,43,97.43,43.25z"/>
					</g>
					<g>
						<path class="st2" d="M97.81,44.84c-1.55,0.68-2.91,0.95-2.99,0.97c0.07-0.06,1.17-0.9,2.7-1.63
							C97.59,44.34,97.71,44.58,97.81,44.84z"/>
					</g>
				</g>
				<path class="st3" d="M87.51,37.48c-0.08,0.08-0.17,0.16-0.24,0.24c-0.63,0.69-0.79,1.67-1.16,2.53
					c-0.51,1.18-1.45,2.17-1.74,3.42c-0.24,1.06,0.02,2.15,0.18,3.23c0.05,0.33,0.09,0.69-0.06,0.99c-0.13,0.25-0.36,0.41-0.59,0.57
					c-0.69,0.48-1.43,0.93-2.11,1.44c-0.09-0.36-0.13-0.75-0.12-1.15c0.01-0.21,2.05-1.63,2.05-1.63s-1.01-3.09,0.11-4.5
					c0.66-0.83,1.34-1.67,1.64-2.69c0.16-0.53,0.25-1.09,0.47-1.6c0.22-0.51,0.6-0.99,1.14-1.15c0.06-0.02,0.13-0.03,0.19-0.02
					C87.4,37.21,87.47,37.35,87.51,37.48z"/>
				<path class="st2" d="M88.04,43.37c0.67,0.72,0.9,1.78,0.78,2.76c-0.12,0.95-0.54,1.97-1.12,2.73c0.01-0.79,0.51-1.6,0.61-2.41
					C88.41,45.74,88.58,43.94,88.04,43.37z"/>
			</g>
		</g>
		<g>
			<path class="st0" d="M54.35,64.03c1.77,2.32,3.35,3.96,4.68,4.58c0.13,0.06,0.25,0.11,0.37,0.15
				c6.65,2.13,25.55-16.53,25.55-16.53l-0.92-1.25l-1.2-1.64l-0.75-1.02c0,0-13.58,6.88-19.28,10.96l-0.03,0.02
				c-0.33,0.24-0.63,0.46-0.9,0.68c0,0-1.23-2.21-1.97-3.22L54.35,64.03z"/>
			<path class="st1" d="M59.04,68.61c0.13,0.06,0.25,0.11,0.37,0.15c6.65,2.13,25.55-16.53,25.55-16.53l-0.92-1.25l-0.25-0.06
				C83.79,50.91,68.49,67.67,59.04,68.61L59.04,68.61z"/>
			<path class="st3" d="M61.89,59.97l20.95-10.63l-0.75-1.02c0,0-13.58,6.88-19.28,10.96l-0.03,0.02L61.89,59.97z"/>
			<path class="st4" d="M60.55,55.93l-5.26,6.89l-1.7,2.22c-0.75-0.6-1.52-1.24-2.32-1.93c-2.44-2.1-5.07-4.56-7.58-7.01l-1.14-11.2
				c-0.23-2.22,0.13-4.51,1.29-6.41c0.33-0.55,1.03-0.52,2.84,0.97c0.8,0.66,8.5,9.63,8.5,9.63C57.24,51.5,59.3,54.22,60.55,55.93z"
				/>
			<path class="st5" d="M54.59,63.52l-1,1.51c-0.75-0.6-1.52-1.24-2.32-1.93l-5.32-4.83v-2.82L54.59,63.52z"/>
			<path class="st5" d="M44.7,38.2c5.29,0.92,13.26,12.97,15.99,17.55l-0.77,1l-4.5-6.44C52.52,46.18,48.51,41.57,44.7,38.2z"/>
		</g>
	</g>
	<g>
		<g>
			<g>
				<g>
					<g>
						<path class="st7" d="M38.42,189.42c0,0,0.45,2.77,0.77,3.12c0.32,0.35,15.96,0,15.96,0l-0.02-2.41l-9.35-3.16L38.42,189.42z"
							/>
						<path class="st4" d="M55.13,190.12c0,0-15.75,1.16-16.57,0.07c-0.56-0.74-0.39-8.28-0.39-8.28l4.27-0.17
							C42.45,181.74,55.77,190.12,55.13,190.12z"/>
					</g>
					<g>
						<path class="st7" d="M19.34,190.39c-0.37,1.43-3.26,3.53-4.6,4.43c-0.39,0.27-0.92,0.24-1.29-0.06
							c-1.17-0.97-3.61-3.12-3.84-4.37c-0.07-0.38,0.06-1.1,0.32-1.99c0.2-0.72,0.48-1.55,0.79-2.4c0.97-2.66,2.21-5.46,2.21-5.46
							l4.81,0.2c0,0,1.11,4.17,1.52,7.14c0,0.01,0,0.02,0,0.02C19.41,188.97,19.47,189.89,19.34,190.39z"/>
						<path class="st4" d="M19.27,187.88c-0.58,1.42-3.26,3.35-4.52,4.21c-0.39,0.27-0.92,0.24-1.29-0.06
							c-0.96-0.8-2.78-2.4-3.53-3.63c0.2-0.72,0.48-1.55,0.79-2.4c0.97-2.66,2.21-5.46,2.21-5.46l4.81,0.2
							C17.75,180.74,18.86,184.91,19.27,187.88z"/>
					</g>
				</g>
				<g>
					<path class="st7" d="M12.83,185.34c0.06,0.31,0.39,0.48,0.68,0.6c1.09,0.41,2.4,0.53,3.36-0.13c0.07-0.05,0.14-0.1,0.18-0.18
						c0.08-0.14,0.02-0.33-0.08-0.45c-0.11-0.12-0.26-0.19-0.41-0.25C16.02,184.71,12.55,183.91,12.83,185.34z"/>
					<path class="st7" d="M12.48,187.99c0.06,0.31,0.39,0.48,0.68,0.59c1.09,0.41,2.4,0.53,3.36-0.13c0.07-0.05,0.14-0.1,0.18-0.18
						c0.08-0.14,0.02-0.33-0.08-0.45c-0.11-0.12-0.26-0.19-0.41-0.25C15.67,187.37,12.2,186.56,12.48,187.99z"/>
				</g>
				<g>
					<path class="st7" d="M45.79,186.53c0.24,0.09,0.51-0.08,0.73-0.25c0.79-0.63,1.48-1.54,1.47-2.54c0-0.07-0.01-0.15-0.04-0.21
						c-0.06-0.12-0.21-0.16-0.35-0.13c-0.13,0.03-0.25,0.11-0.36,0.19C46.83,183.9,44.67,186.11,45.79,186.53z"/>
					<path class="st7" d="M47.46,187.94c0.24,0.09,0.51-0.08,0.73-0.25c0.79-0.63,1.48-1.54,1.47-2.54c0-0.07-0.01-0.15-0.04-0.21
						c-0.06-0.12-0.21-0.16-0.35-0.13c-0.13,0.03-0.25,0.11-0.36,0.19C48.51,185.31,46.34,187.53,47.46,187.94z"/>
				</g>
			</g>
			<g>
				<path class="st8" d="M48.7,139.46c-0.99,2.86-3.58,43.99-3.58,43.99h-7.51c0,0-2.95-32.42-2.37-35.39
					c0.78-4.06,3.4-11.78,3.4-11.78c-0.29-1.59-0.71-32.78-0.71-32.78l-1.98-0.16c0,0-6.23,34.22-8.08,38.19
					c-1.84,3.98-8.93,40.42-8.93,40.42h-7.37c0,0,1.38-29.29,1.56-31.67c0.34-4.57,6.23-15.91,6.23-15.91s-0.27-30.4,0-35.01
					c0.01-0.16,0.02-0.33,0.03-0.49c0.05-0.69,0.13-1.39,0.23-2.09c0.02-0.13,0.04-0.27,0.06-0.4c0.02-0.15,0.04-0.3,0.07-0.44
					c0.03-0.19,0.06-0.37,0.09-0.55c0.03-0.16,0.05-0.31,0.08-0.46c0.25-1.34,0.56-2.68,0.92-3.98c0.09-0.32,0.18-0.64,0.27-0.96
					c0.06-0.2,0.12-0.4,0.17-0.59c0.04-0.14,0.09-0.29,0.13-0.43c0.22-0.72,0.45-1.44,0.69-2.12c0.05-0.13,0.09-0.26,0.14-0.39
					c0.05-0.14,0.09-0.27,0.14-0.4c0.02-0.06,0.04-0.11,0.06-0.17c0.01-0.03,0.02-0.05,0.03-0.07l0,0c0.07-0.18,0.13-0.37,0.2-0.54
					c0.15-0.4,0.3-0.8,0.45-1.18c0.15-0.38,0.29-0.75,0.44-1.11h0c0.2-0.5,0.4-0.98,0.6-1.44c0.04-0.09,0.08-0.19,0.12-0.28
					c0.19-0.44,0.38-0.86,0.55-1.24c0.04-0.1,0.09-0.19,0.13-0.28c0.37-0.8,0.68-1.45,0.91-1.93v0c0.05-0.1,0.1-0.19,0.14-0.28
					c0.02-0.04,0.04-0.08,0.06-0.12c0.16-0.31,0.24-0.48,0.24-0.48h22.1c0,0,0.14,0.62,0.37,1.67c0.07,0.31,0.14,0.65,0.22,1.02
					c0.06,0.27,0.12,0.55,0.18,0.86c0.06,0.29,0.13,0.6,0.19,0.92c0.35,1.66,0.77,3.67,1.19,5.81c0.88,4.47,1.8,9.51,2.24,13.12
					C53.8,108.43,49.69,136.59,48.7,139.46z"/>
				<path class="st9" d="M29.16,77.05c0,0-0.26,0.76-0.68,1.96c-0.2,0.57-0.43,1.23-0.69,1.96c-0.27,0.75-0.56,1.58-0.88,2.44
					c-0.17,0.47-0.35,0.95-0.52,1.44c-0.15,0.42-0.31,0.85-0.47,1.27c-1.35,3.63-2.77,7.27-3.53,8.6c-1.71,3,0,38.44,0,38.44
					s-6.58,15.94-7.21,16.58c-0.53,0.53-1.94,24.23-2.4,32.2h-1.2c0,0,1.38-29.29,1.56-31.67c0.34-4.57,6.23-15.91,6.23-15.91
					s-0.27-30.4,0-35.01c0.01-0.16,0.02-0.33,0.03-0.49c0.05-0.69,0.13-1.39,0.23-2.09c0.02-0.13,0.04-0.27,0.06-0.4
					c0.02-0.15,0.04-0.3,0.07-0.44c0.03-0.19,0.06-0.37,0.09-0.55c0.03-0.16,0.05-0.31,0.08-0.46c0.25-1.34,0.56-2.68,0.92-3.98
					c0.09-0.32,0.18-0.64,0.27-0.96c0.06-0.2,0.12-0.4,0.17-0.59c0.04-0.14,0.09-0.29,0.13-0.43c0.22-0.72,0.45-1.44,0.69-2.12
					c0.05-0.13,0.09-0.26,0.14-0.39c0.05-0.14,0.09-0.27,0.14-0.4c0.02-0.06,0.04-0.11,0.06-0.17c0.01-0.03,0.02-0.05,0.03-0.07l0,0
					c0.07-0.18,0.13-0.37,0.2-0.54c0.15-0.4,0.3-0.8,0.45-1.18c0.15-0.38,0.29-0.75,0.44-1.11h0c0.2-0.5,0.4-0.98,0.6-1.44
					c0.04-0.09,0.08-0.19,0.12-0.28c0.19-0.44,0.38-0.86,0.55-1.24c0.04-0.1,0.09-0.19,0.13-0.28c0.37-0.8,0.68-1.45,0.91-1.93v0
					c0.05-0.1,0.1-0.19,0.14-0.28c0.02-0.04,0.04-0.08,0.06-0.12c0.16-0.31,0.24-0.48,0.24-0.48h1.93l0.18,0.03L29.16,77.05z"/>
				<path class="st9" d="M50.56,87.19c-6.4,2.81-17.72,0.69-24.64-1.06c-0.43-0.11-0.85-0.22-1.25-0.32
					c-0.46-0.12-0.89-0.24-1.29-0.35c-0.24-0.07-0.48-0.13-0.7-0.2c0.12-0.33,0.24-0.65,0.36-0.96c0.03-0.07,0.06-0.15,0.09-0.22
					c0.11-0.29,0.22-0.58,0.34-0.85c0.03-0.08,0.07-0.17,0.1-0.25h0c0.2-0.5,0.4-0.98,0.6-1.44c0.02-0.04,0.03-0.08,0.05-0.12
					c0.03-0.05,0.05-0.11,0.07-0.16c0.16-0.37,0.31-0.71,0.46-1.04c0.03-0.07,0.06-0.13,0.09-0.2c0.04-0.1,0.09-0.19,0.13-0.28
					c0.37-0.8,0.68-1.45,0.91-1.93v0c0.05-0.1,0.1-0.19,0.14-0.28c0.02-0.04,0.04-0.08,0.06-0.12c0.16-0.31,0.24-0.48,0.24-0.48
					h22.1c0,0,0.14,0.62,0.37,1.67c0.07,0.31,0.14,0.65,0.22,1.02c0.06,0.27,0.12,0.55,0.18,0.86c0.06,0.29,0.13,0.6,0.19,0.92
					C49.73,83.05,50.14,85.06,50.56,87.19z"/>
				<path class="st9" d="M40.83,135.43l-0.23-29.18l-2.68-2.76c0,0,0.43,31.19,0.71,32.78c0,0-2.62,7.72-3.4,11.78
					c-0.58,2.97,2.37,35.39,2.37,35.39h1.67l-2.24-33.27L40.83,135.43z"/>
				<path class="st10" d="M23.63,140.74c0.05,0.13,0.12,0.27,0.24,0.33c0.12,0.07,0.28,0.04,0.41,0.01c0.69-0.19,1.25-0.7,1.69-1.26
					c0.97-1.21,3.02-5.38,0.13-5.44C23.28,134.31,22.89,138.86,23.63,140.74z"/>
				<path class="st10" d="M42.95,141.91c0.22,0.62,0.57,1.27,1.19,1.49c0.51,0.18,1.1,0.01,1.53-0.32c0.43-0.33,0.74-0.79,1.02-1.26
					c0.51-0.86,0.94-1.78,1.08-2.76c0.29-2-1.25-4.62-3.54-3.63C41.91,136.44,42.27,140.01,42.95,141.91z"/>
				<path class="st10" d="M28.95,76.91c-0.23,0.63-0.55,1.24-0.98,1.79c-0.13,0.17-0.27,0.33-0.42,0.48
					c-0.94,0.97-2.11,1.65-3.33,2.22c0.03-0.05,0.05-0.11,0.07-0.16c0.16-0.37,0.31-0.71,0.46-1.04c0.72-0.39,1.39-0.84,1.98-1.4
					c0.6-0.57,1.01-1.2,1.3-1.89H28.95z"/>
				<path class="st10" d="M30.66,76.91c-0.03,0.13-0.06,0.25-0.1,0.37c-0.4,1.42-1.15,2.74-2.2,3.83c-0.55,0.56-1.15,1.05-1.8,1.47
					c-0.55,0.36-1.12,0.67-1.72,0.95c-0.59,0.28-1.2,0.53-1.81,0.75c0.03-0.07,0.06-0.15,0.09-0.22c0.11-0.29,0.22-0.58,0.34-0.85
					c0.03-0.01,0.06-0.03,0.09-0.04c1.27-0.52,2.49-1.16,3.53-2.04c0.15-0.13,0.3-0.25,0.44-0.39c1.08-1.03,1.82-2.3,2.21-3.69
					c0.01-0.05,0.03-0.1,0.04-0.15H30.66z"/>
				<path class="st10" d="M49,79.6c-0.57-0.17-1.11-0.47-1.6-0.88c-0.55-0.46-1.14-1.11-1.58-1.81h0.97
					c0.51,0.71,1.22,1.32,1.99,1.67C48.85,78.89,48.92,79.23,49,79.6z"/>
				<path class="st10" d="M49.37,81.38c-2.39-0.51-4.45-2.19-5.41-4.47h0.93c0.85,1.75,2.43,3.04,4.28,3.55
					C49.24,80.75,49.31,81.06,49.37,81.38z"/>
			</g>
		</g>
		<g>
			<g>
				<path class="st4" d="M48.41,76.91C39.68,84.24,25.77,78,25.77,78c0.06-2.17-2.18-11.81-4.05-20.56
					c-0.5-2.36-0.98-4.66-1.38-6.73c-0.64-3.31-0.45-6.29-0.12-8.34c0.24-1.47,0.56-2.46,0.72-2.77c0.18-0.37,0.86-0.93,1.73-1.53
					c0,0,0.01-0.01,0.01-0.01c0.16-0.11,0.29-0.19,0.39-0.26c0.02-0.01,0.04-0.03,0.06-0.04c0.06-0.04,0.1-0.06,0.13-0.08
					c0.01-0.01,0.02-0.01,0.02-0.01c0.01-0.01,0.01-0.01,0.02-0.01c1.53-0.99,3.39-1.99,4.35-2.33c0.01,0,0.02-0.01,0.03-0.01
					c0.31-0.11,0.62-0.21,0.91-0.3c1.18-0.37,2.09-0.58,2.09-0.58h7.09c0,0,0.01,0,0.03,0c0.01,0,0.01,0,0.02,0c0.03,0,0.06,0,0.1,0
					c0,0,0.01,0,0.01,0c0.22,0,0.65,0.02,1.29,0.18v0c0.25,0.06,0.54,0.15,0.85,0.26c0.84,0.3,1.9,0.81,3.18,1.65
					c0.78,0.51,1.65,1.15,2.59,1.95c5.31,4.46,5.04,13.02,1.88,19.16C46.78,59.46,48.41,76.91,48.41,76.91z"/>
				<g>
					<path class="st5" d="M46.47,56.75c0,0-0.26-0.01-0.73-0.04c-0.46-0.03-1.14-0.07-1.96-0.12c-1.64-0.08-3.9-0.21-6.18,0.4
						c-0.58,0.15-1.16,0.33-1.75,0.49c-0.59,0.16-1.18,0.29-1.74,0.37c-1.13,0.16-2.15,0.16-3,0.1c-0.43-0.03-0.83-0.11-1.17-0.22
						c-0.34-0.11-0.61-0.26-0.8-0.41c-0.2-0.15-0.31-0.3-0.38-0.41c-0.07-0.11-0.09-0.16-0.09-0.16s0.05,0.04,0.14,0.12
						c0.1,0.07,0.24,0.17,0.45,0.25c0.41,0.17,1.05,0.21,1.84,0.1c0.8-0.11,1.75-0.29,2.77-0.57c0.51-0.14,1.03-0.3,1.58-0.49
						c0.55-0.19,1.14-0.4,1.79-0.57c1.3-0.34,2.61-0.39,3.73-0.28c1.14,0.1,2.12,0.34,2.93,0.56c0.81,0.23,1.45,0.45,1.89,0.62
						C46.23,56.65,46.47,56.75,46.47,56.75z"/>
				</g>
			</g>
		</g>
		<g>
			<g>
				<g>
					<path class="st1" d="M24.19,86.8c0,0,2.82-2.16,3.55-1.41c0.73,0.75-1.4,2.69-1.4,2.69L24.19,86.8z"/>
					<path class="st0" d="M32.88,89.48c-0.28,0.76-5.25-1.77-5.25-1.77l-1.14,1.04l1.98,1.25l1.66,2.98c0,0-0.39,0.54-0.91,1.16
						c-0.06,0.08-0.13,0.16-0.2,0.24c-0.31,0.37-0.66,0.75-0.99,1.06c-0.03,0.03-0.06,0.06-0.09,0.09
						c-0.17,0.15-0.33,0.28-0.47,0.38c-0.16,0.11-0.3,0.17-0.42,0.18l-1.77-1.98c0,0-3.66,0.17-4.16-0.08
						c-0.2-0.1-0.7-0.93-1.24-1.88c-0.26-0.46-0.52-0.95-0.76-1.41l1.11-1.21l2.51-2.74c0.35-0.09,0.82-0.2,1.34-0.3v0
						c0.26-0.05,0.53-0.1,0.81-0.15c1.01-0.17,2.1-0.27,2.96-0.17c0.36,0.04,0.68,0.13,0.94,0.26
						C30.51,87.32,33.16,88.73,32.88,89.48z"/>
					<g>
						<g>
							<path class="st2" d="M28.03,95.45c-0.03,0.03-0.06,0.06-0.09,0.09c-0.06-0.09-0.14-0.21-0.24-0.36
								c-0.22-0.33-0.53-0.77-0.87-1.23c-0.35-0.46-0.69-0.86-0.98-1.13c-0.07-0.07-0.14-0.13-0.2-0.18
								c-0.06-0.05-0.12-0.09-0.16-0.13c-0.09-0.07-0.14-0.11-0.14-0.11s0.07,0.01,0.18,0.04c0.06,0.01,0.13,0.03,0.22,0.06
								c0.08,0.03,0.17,0.07,0.27,0.11c0.4,0.18,0.9,0.54,1.28,1.05c0.38,0.51,0.57,1.04,0.67,1.42
								C27.99,95.22,28.02,95.35,28.03,95.45z"/>
						</g>
						<g>
							<path class="st2" d="M29.22,94.15c-0.06,0.08-0.13,0.16-0.2,0.24c-0.01-0.02-0.03-0.04-0.04-0.06
								c-0.22-0.33-0.53-0.77-0.87-1.23c-0.35-0.47-0.69-0.86-0.98-1.13c-0.07-0.07-0.14-0.13-0.2-0.18
								c-0.06-0.05-0.12-0.09-0.16-0.13c-0.09-0.07-0.14-0.11-0.14-0.11s0.06,0.01,0.18,0.04c0.06,0.02,0.13,0.03,0.22,0.06
								c0.08,0.03,0.17,0.07,0.27,0.11c0.4,0.18,0.9,0.54,1.28,1.05C28.92,93.28,29.11,93.77,29.22,94.15z"/>
						</g>
						<path class="st1" d="M27.47,95.91c-0.16,0.11-0.3,0.17-0.42,0.18l-1.77-1.98c0,0-3.66,0.17-4.16-0.08
							c-0.2-0.1-0.7-0.93-1.24-1.88c-0.26-0.46-0.52-0.95-0.76-1.41l1.11-1.21c0.21,0.43,0.42,0.87,0.65,1.29
							c0.61,1.15,1.26,2.11,1.72,2.2c1.23,0.25,3.23,0.51,3.23,0.51L27.47,95.91z"/>
					</g>
				</g>
			</g>
			<path class="st0" d="M22.73,86.78l-2.51,2.74l-1.11,1.21c0,0-17.78-11.71-18.28-14.99c-0.16-1.09,0.75-4.63,2.99-9.29l1.84,0.51
				l7.36,2.06l-3.21,5.65L22.73,86.78z"/>
			<path class="st1" d="M20.22,89.52l-1.11,1.21c0,0-17.78-11.71-18.28-14.99c-0.16-1.09,0.75-4.63,2.99-9.29l1.84,0.51
				c-1.07,2.82-2.94,8.06-2.44,8.83C3.92,76.85,20.22,89.52,20.22,89.52z"/>
			<path class="st4" d="M23.29,37.65l-0.01,2.77l-0.03,14.33l-1.54,2.69l-0.65,1.14L14.2,69.35l-9.72-2.72l-1.25-0.35
				c4.52-9.4,11.67-22.25,12.34-23.03c0.81-0.95,5.4-4.05,7.1-5.18c0,0,0.01-0.01,0.01-0.01c0.16-0.11,0.29-0.19,0.39-0.26
				c0.02-0.01,0.04-0.03,0.06-0.04c0.06-0.04,0.1-0.06,0.13-0.08c0.01-0.01,0.02-0.01,0.02-0.01
				C23.29,37.65,23.29,37.65,23.29,37.65z"/>
			<path class="st5" d="M29.7,36.41c0,0-3.25,2.01-6.42,4.01c-1.08,0.68-2.14,1.35-3.07,1.95c-1.6,1.03-2.78,1.83-2.91,2
				C16.94,44.85,7.3,61.7,4.48,66.63l-1.25-0.35c4.52-9.4,11.67-22.25,12.34-23.03c0.81-0.95,5.4-4.05,7.1-5.18
				c0,0,0.01-0.01,0.01-0.01c0.16-0.11,0.29-0.19,0.39-0.26c0.02-0.01,0.04-0.03,0.06-0.04c0.06-0.04,0.1-0.06,0.13-0.08
				c0.01-0.01,0.02-0.01,0.02-0.01c0.01-0.01,0.01-0.01,0.02-0.01c1.53-0.99,3.39-1.99,4.35-2.33c0.01,0,0.02-0.01,0.03-0.01
				c0.31-0.11,0.62-0.21,0.91-0.3L29.7,36.41z"/>
			<polygon class="st7" points="3.22,63.94 2.06,67.5 13.64,70.79 15.34,68.67 			"/>
		</g>
	</g>
	<g>
		<path class="st11" d="M49.3,31.37c-0.97,0.33-2,0.59-3.06,0.8c-7.12,1.4-16.02,0.34-21.17-0.51c-2.59-0.43-4.24-0.82-4.24-0.82
			s-0.83-6.98-0.83-9.65c0-1.63,0.12-3.14,0.34-4.54c1.48-9.61,7.33-13.99,7.74-14.29c0.01,0,0.01-0.01,0.02-0.01c0,0,0.01,0,0.01,0
			h10.97l4.02,2.07l0.81,0.41l0.31,0.16l4.41,2.26l0.11,3.79l0.08,3.01L49.3,31.37z"/>
		<path class="st12" d="M47.08,30.01c-0.2,0.74-0.48,1.48-0.84,2.16c-7.12,1.4-16.02,0.34-21.17-0.51
			c-0.01-0.01-0.02-0.03-0.03-0.04c-1.76-2.67-2.55-5.9-2.63-9.09c-0.08-3.19,0.51-6.37,1.35-9.45c0.66-2.42,1.49-4.82,2.88-6.9
			c1.06-1.58,2.48-2.95,4.18-3.81c0.08-0.04,0.17-0.09,0.26-0.13c1.88-0.88,3.95-0.92,6.02-0.9c2.66,0.02,5.38,1.26,6.81,3.51
			c1.3,2.04,1.42,4.58,1.73,6.98c0.4,3.04,1.16,6.02,1.63,9.06C47.73,23.91,47.89,27.05,47.08,30.01z"/>
		<g>
			<path class="st12" d="M50.04,23.05c-0.03-0.17-0.08-0.41-0.16-0.7c-0.08-0.29-0.19-0.64-0.37-1.01
				c-0.17-0.37-0.42-0.77-0.75-1.13c-0.34-0.36-0.73-0.62-1.09-0.82c-0.37-0.19-0.71-0.31-1.01-0.4c-0.13-0.04-0.24-0.07-0.35-0.09
				c-0.13-0.12-0.21-0.19-0.21-0.19s0.02,0.06,0.07,0.16c-0.08-0.02-0.15-0.03-0.22-0.04c-0.17-0.03-0.26-0.04-0.26-0.04
				s0.23,0.15,0.61,0.4c0.08,0.19,0.18,0.43,0.3,0.7c0.3,0.72,0.7,1.7,0.88,2.78c0.18,1.08,0.14,2.15,0.14,2.93
				c0,0.39-0.01,0.72-0.01,0.94c0,0.22,0.01,0.35,0.01,0.35s0.05-0.11,0.14-0.32c0.09-0.21,0.21-0.51,0.33-0.89
				c0.12-0.38,0.26-0.84,0.33-1.38c0.08-0.53,0.11-1.15,0-1.79c-0.1-0.64-0.34-1.21-0.6-1.69c-0.25-0.45-0.52-0.82-0.77-1.12
				c0.38,0.27,0.8,0.6,1.17,1c0.57,0.61,1,1.29,1.32,1.79c0.16,0.25,0.3,0.45,0.39,0.6c0.1,0.14,0.15,0.22,0.15,0.22
				S50.07,23.22,50.04,23.05z"/>
			<g>
				<g>
					<g>
						<path class="st0" d="M43.25,36.52c-0.56,1.94-2.03,4.71-5.93,6.01c-5.17,1.73-8.57-4.77-9.65-7.22
							c1.58-0.56,2.99-0.88,2.99-0.88h7.09c0,0,0.01,0,0.03,0c0.01,0,0.01,0,0.02,0c0.03,0,0.06,0,0.1,0c0,0,0.01,0,0.01,0
							c0.22,0,0.65,0.02,1.29,0.18v0c0.25,0.06,0.54,0.15,0.85,0.26C40.9,35.17,41.97,35.67,43.25,36.52z"/>
						<path class="st0" d="M37.05,41.54l-6.38-7.11c0.01-1.06,0.1-1.45,0.2-4.07c0.1-2.91,0.21-5.63,0.21-5.63l8.2,3.24
							c-0.92,2.05-1.33,4.39-1.47,6.62C37.52,39.28,37.05,41.54,37.05,41.54z"/>
						<path class="st1" d="M39.28,27.97c-0.92,2.05-1.33,4.39-1.47,6.62c-0.26,0.11-0.51,0.21-0.75,0.29
							c-0.95,0.33-4.01-2.38-6.19-4.52c0.1-2.91,0.21-5.63,0.21-5.63L39.28,27.97z"/>
					</g>
					<g>
						<g>
							<path class="st0" d="M47.88,18.22c-0.17,0.76-0.38,1.56-0.64,2.39c0,0,0.37,4.11-0.06,5.03c-0.43,0.92-3.2,6.66-6.1,6.3
								c-2.42-0.3-8.35-3.84-10.41-5.96c-0.41-0.42-0.67-0.78-0.72-1.05c-0.28-1.63-1.25-8.82-1.35-9.42
								C28.36,13.88,27.68,1.54,42.6,4.97c2.69,0.62,4.81,2.7,5.42,5.39C48.46,12.31,48.6,14.92,47.88,18.22z"/>
							<path class="st3" d="M47.24,20.61c0,0,0.37,4.11-0.06,5.03c-0.43,0.92-3.2,6.66-6.1,6.3c-2.42-0.3-8.35-3.84-10.41-5.96
								c2.52,1.75,9.25,6.22,11.22,5.53c2.44-0.85,5.21-6.26,5.15-6.79c-0.05-0.54-0.21-4.04-0.21-4.04s0.49-1.11,1.05-2.46
								C47.72,18.98,47.5,19.78,47.24,20.61z"/>
						</g>
						<g>
							<path class="st3" d="M30.62,24.73c-1.87-0.15-3.24-1.26-3.97-2.19c-0.16-0.21-0.3-0.41-0.4-0.59
								c-0.54-0.97-0.69-4.34,0.69-5.12c0.97-0.55,1.67,0.25,2,0.77v0c0.14,0.22,0.22,0.4,0.22,0.4L30.62,24.73z"/>
							<path class="st0" d="M30.62,24.73c-1.87-0.15-3.24-1.26-3.97-2.19c-0.06-0.1-0.12-0.19-0.17-0.27
								c-0.54-0.97-0.69-4.34,0.69-5.12c0.78-0.44,1.39-0.01,1.77,0.45v0c0.14,0.22,0.22,0.4,0.22,0.4L30.62,24.73z"/>
							<path class="st1" d="M26.51,19.5c-0.07,0.27-0.03,0.55,0.06,0.82c0.38,1.13,1.5,1.99,2.58,2.79
								c-0.33-0.55-0.45-1.17-0.38-1.77c0.02-0.21,0.07-0.42,0.07-0.63C28.86,19.87,26.92,17.91,26.51,19.5z"/>
							<g>
								<path class="st2" d="M29.7,23.43c0,0-0.02-0.01-0.06-0.03c-0.04-0.02-0.1-0.06-0.17-0.1c-0.14-0.1-0.34-0.25-0.53-0.48
									c-0.19-0.23-0.36-0.53-0.44-0.9c-0.07-0.36-0.06-0.78,0.14-1.19c0.02-0.05,0.05-0.1,0.08-0.15l0.02-0.04c0.01-0.01,0,0,0,0
									l0,0l0,0l0,0c0,0,0,0,0-0.01l-0.02-0.03l-0.04-0.06c-0.02-0.04-0.05-0.08-0.07-0.13c-0.1-0.17-0.21-0.32-0.33-0.47
									c-0.11-0.14-0.23-0.28-0.35-0.4c-0.12-0.12-0.23-0.23-0.34-0.32c-0.11-0.08-0.23-0.14-0.35-0.15
									c-0.12-0.01-0.22,0.01-0.3,0.05c-0.07,0.04-0.12,0.08-0.13,0.12c-0.02,0.04-0.02,0.06-0.02,0.06c0,0-0.01-0.02,0-0.06
									c0.01-0.04,0.04-0.1,0.11-0.15c0.07-0.05,0.19-0.1,0.34-0.11c0.15,0,0.32,0.05,0.46,0.13c0.15,0.08,0.28,0.19,0.42,0.3
									c0.14,0.12,0.28,0.24,0.41,0.39c0.14,0.14,0.27,0.3,0.38,0.48c0.03,0.04,0.06,0.09,0.09,0.13l0.04,0.07l0.06,0.1l0.04,0.07
									c-0.01,0.02-0.03,0.04-0.04,0.07l-0.06,0.1c-0.02,0.04-0.05,0.08-0.07,0.13c-0.17,0.35-0.21,0.72-0.17,1.05
									c0.04,0.33,0.15,0.62,0.29,0.86c0.14,0.23,0.29,0.41,0.41,0.52c0.06,0.06,0.11,0.1,0.14,0.13
									C29.69,23.42,29.7,23.43,29.7,23.43z"/>
							</g>
						</g>
					</g>
				</g>
			</g>
			<g>
				<path class="st11" d="M49.24,15.27c0,0-1.91-2.55-2.97-1.54c-1.06,1.01-0.58,1.12-0.58,1.12L49.24,15.27z"/>
				<path class="st11" d="M34.16,15.66c0,0,3.52-4.05,4.95-2.61c0.84,0.84,0.26,1.41,0.26,1.41L34.16,15.66z"/>
				<path class="st13" d="M38.86,16.08c-0.17,0.43-0.73,0.78-1.13,0.97c-0.2-0.23-0.45-0.37-0.72-0.37c-0.68,0-1.24,0.89-1.24,1.99
					c0,1.1,0.56,1.99,1.24,1.99c0.68,0,1.24-0.89,1.24-1.99c0-0.34-0.05-0.66-0.15-0.94C38.63,17.26,38.86,16.08,38.86,16.08z"/>
				<path class="st7" d="M34.59,17.55c0,0,0.44,0.68,1.19,0.99c0.76,0.31,1.54,0.12,1.54,0.12s-0.44-0.68-1.19-0.99
					C35.38,17.36,34.59,17.55,34.59,17.55z"/>
				<path class="st13" d="M47.25,17.14c-0.12,0.3-0.5,0.53-0.78,0.67c-0.14-0.14-0.31-0.22-0.48-0.22c-0.52,0-0.93,0.67-0.93,1.5
					c0,0.83,0.42,1.5,0.93,1.5c0.52,0,0.93-0.67,0.93-1.5c0-0.31-0.06-0.6-0.16-0.84C47.1,17.9,47.25,17.14,47.25,17.14z"/>
				<path class="st7" d="M47.72,18.36c0,0-0.33,0.44-0.87,0.66c-0.54,0.22-1.08,0.13-1.08,0.13s0.33-0.44,0.87-0.66
					C47.18,18.27,47.72,18.36,47.72,18.36z"/>
				<g>
					<path class="st1" d="M41.76,23.25c-0.31-0.11-0.61-0.28-0.93-0.25c0.32,0.74,0.94,1.34,1.69,1.63
						c0.06,0.02,0.12,0.04,0.18,0.04c0.08,0,0.15-0.04,0.21-0.08c0.41-0.24,0.78-0.57,1.07-0.95c0.06-0.08,0.12-0.16,0.14-0.26
						c0.07-0.31-0.14-0.24-0.33-0.17c-0.22,0.08-0.44,0.14-0.67,0.17C42.66,23.46,42.19,23.41,41.76,23.25z"/>
					<path class="st2" d="M42.59,24.46c0.19-0.17,0.41-0.32,0.6-0.48c0.24-0.21,0.47-0.43,0.66-0.68c-1.02-0.7-1.01-1.77-0.96-2.97
						c0.02-0.54,0.17-1.08,0.44-1.56c0.14-0.25,0.31-0.48,0.5-0.69c0.1-0.11,0.21-0.21,0.32-0.3c0.11-0.09,0.22-0.14,0.35-0.2
						c-0.06,0.07-0.11,0.16-0.16,0.23c-0.15,0.19-0.3,0.37-0.43,0.58c-0.13,0.21-0.24,0.43-0.33,0.65c-0.18,0.45-0.29,0.94-0.3,1.43
						c-0.02,0.48,0.05,0.96,0.23,1.41c0.2,0.51,0.55,1.02,1.02,1.32c0,0-0.7,0.81-0.76,0.88c-0.18,0.17-0.37,0.32-0.58,0.46
						c-0.2,0.13-0.44,0.28-0.69,0.27c-0.08,0-0.16-0.02-0.22-0.07c0.04-0.03,0.08-0.06,0.12-0.1c0.02-0.02,0.03-0.03,0.05-0.05
						C42.49,24.55,42.54,24.5,42.59,24.46z"/>
				</g>
				<g>
					<path class="st2" d="M40.83,27.59c0.76,0.38,1.69,0.41,2.47,0.07c-0.27,0.4-0.65,0.63-1.13,0.61
						C41.7,28.25,41.16,27.94,40.83,27.59z"/>
					<path class="st2" d="M37.96,25.43c1.94,1.42,4.6,1.78,6.85,0.94c-1.23,0.26-2.49,0.17-3.74-0.01
						C40.11,26.22,38.77,25.96,37.96,25.43z"/>
				</g>
				<path class="st1" d="M45.6,23.68c0.16,0.44,1.1,0.49,2.1,0.11c1-0.37,1.67-1.03,1.51-1.47c-0.16-0.44-1.1-0.49-2.1-0.11
					C46.11,22.59,45.44,23.24,45.6,23.68z"/>
				<path class="st1" d="M33.05,21.65c-0.17,0.66,0.91,1.51,2.42,1.9c1.5,0.39,2.86,0.17,3.03-0.48c0.17-0.66-0.91-1.51-2.42-1.9
					C34.57,20.77,33.22,20.99,33.05,21.65z"/>
			</g>
			<path class="st13" d="M48.85,15.59c-0.16-0.11-0.34-0.21-0.52-0.29c-0.17-0.08-0.35-0.15-0.54-0.2c-0.33-0.1-0.68-0.15-1.04-0.15
				c-0.05,0-0.1,0-0.15,0c-0.15,0-0.3,0.02-0.44,0.04c-1.63,0.26-2.92,1.56-3.16,3.2c-0.66-0.29-1.38-0.13-1.83,0.04
				c-0.2-1.67-1.38-3.05-2.96-3.51c-0.37-0.11-0.76-0.17-1.17-0.17c-1.07,0-2.05,0.41-2.78,1.08c-0.48,0.44-0.86,0.98-1.09,1.59
				l-3.83-0.62l-0.59-0.1h-0.01l-1.05-0.17l-0.02,0.11l-0.03,0.2l-0.05,0.3l0,0.01l0.08,0.01l0.59,0.09l0.06,0.01h0l0.25,0.04l0,0
				l0.27,0.04l0.15,0.03l0.2,0.03l1.57,0.26l2.21,0.36c-0.06,0.28-0.1,0.57-0.1,0.88c0,0.89,0.28,1.72,0.76,2.39
				c0.75,1.06,1.99,1.76,3.39,1.76c0.49,0,0.96-0.08,1.4-0.24c1.54-0.55,2.66-2,2.75-3.71c0.33-0.15,1.17-0.45,1.77-0.01
				c0.01,0.2,0.03,0.4,0.07,0.59c0.06,0.28,0.14,0.55,0.26,0.81c0.55,1.23,1.74,2.12,3.15,2.23c0.1,0.01,0.21,0.01,0.31,0.01
				c0.06,0,0.11,0,0.17,0c0.15-0.01,0.3-0.02,0.44-0.05c0.03,0,0.05-0.01,0.08-0.01c0.01,0,0.03,0,0.04-0.01
				c0.31-0.06,0.6-0.16,0.87-0.28c0.13-0.06,0.25-0.13,0.37-0.2c0.1-0.06,0.21-0.13,0.3-0.21c0.01-0.01,0.02-0.02,0.03-0.03
				c0.16-0.13,0.31-0.26,0.45-0.41c0.64-0.68,1.04-1.6,1.04-2.61C50.55,17.43,49.87,16.27,48.85,15.59z M38.02,22.1
				c-0.31,0.09-0.64,0.14-0.97,0.14c-1.08,0-2.05-0.49-2.69-1.26c-0.52-0.61-0.83-1.4-0.83-2.26c0-1.94,1.58-3.52,3.52-3.52
				c1.94,0,3.52,1.58,3.52,3.52C40.57,20.32,39.49,21.68,38.02,22.1z M49.18,20.77c-0.06,0.07-0.12,0.14-0.18,0.2
				c-0.1,0.1-0.21,0.2-0.32,0.28c-0.16,0.13-0.33,0.24-0.52,0.33c-0.24,0.12-0.49,0.21-0.76,0.27c-0.02,0-0.05,0.01-0.07,0.01
				c-0.01,0-0.02,0-0.03,0c-0.13,0.03-0.27,0.04-0.41,0.04c-0.04,0-0.09,0-0.14,0c-1.66,0-3.02-1.28-3.15-2.9
				c-0.01-0.09-0.01-0.17-0.01-0.26c0-0.14,0.01-0.28,0.03-0.41c0.18-1.4,1.27-2.51,2.66-2.72c0.15-0.02,0.31-0.04,0.47-0.04
				c0.55,0,1.06,0.14,1.51,0.38c0.22,0.12,0.43,0.27,0.61,0.44c0.64,0.58,1.04,1.41,1.04,2.34C49.91,19.52,49.64,20.22,49.18,20.77z
				"/>
		</g>
		<path class="st12" d="M49.02,11.17c-0.02,1.32-0.15,2.38-0.22,2.89c-0.03,0.21-0.05,0.33-0.05,0.33c-4.8-3.37-4.82-7.26-4.68-8.48
			c-1.3,6.8-15.71,10.71-15.71,10.71l-2.02,0.88c0,0-0.58-0.59-1.09-1.77c-0.82-1.89-1.48-5.31,0.62-10.28
			c0.55-1.3,1.31-2.31,2.2-3.08c0.01,0,0.01-0.01,0.02-0.01c4.64-4.01,12.74-1.69,12.74-1.69C48.11,0,49.1,6.91,49.02,11.17z"/>
		<path class="st12" d="M32.19,19.92c-0.05-0.16-0.14-0.39-0.25-0.67c-0.12-0.28-0.28-0.61-0.5-0.95c-0.22-0.34-0.51-0.71-0.89-1.02
			c-0.38-0.31-0.8-0.52-1.19-0.67c-0.39-0.14-0.75-0.22-1.05-0.26c-0.13-0.02-0.25-0.03-0.36-0.04c-0.14-0.1-0.23-0.16-0.23-0.16
			s0.03,0.05,0.09,0.15c-0.08-0.01-0.16-0.01-0.22-0.01c-0.17-0.01-0.26-0.01-0.26-0.01s0.25,0.12,0.66,0.32
			c0.1,0.18,0.24,0.4,0.39,0.66c0.39,0.67,0.92,1.59,1.23,2.64c0.32,1.05,0.43,2.11,0.52,2.89c0.05,0.39,0.09,0.71,0.12,0.93
			c0.03,0.22,0.05,0.34,0.05,0.34s0.03-0.12,0.1-0.34c0.06-0.22,0.14-0.53,0.21-0.92c0.07-0.39,0.14-0.87,0.15-1.41
			c0.01-0.54-0.04-1.15-0.24-1.77c-0.19-0.62-0.5-1.16-0.82-1.6c-0.31-0.41-0.62-0.75-0.91-1.01c0.41,0.22,0.87,0.49,1.3,0.84
			c0.65,0.53,1.16,1.15,1.55,1.6c0.2,0.23,0.35,0.41,0.46,0.54c0.11,0.13,0.18,0.2,0.18,0.2S32.24,20.08,32.19,19.92z"/>
		<path class="st11" d="M49.02,11.17c-0.1-0.03-0.2-0.08-0.3-0.12c-2.28-1.03-3.76-4.05-4.51-6.05c-0.41-1.09-0.62-1.89-0.62-1.89
			c-0.02,0.37-0.2,0.82-0.49,1.31c-1.48,2.47-5.77,5.97-5.77,5.97l0.64-1.97c0,0-1.17,1.91-5.61,4.71c-1.81,1.14-4.52,1.98-7.1,2.59
			c-1.83,0.43-3.59,0.73-4.92,0.93c0.28-1.79,0.7-3.4,1.22-4.84c2.25-6.26,6.18-9.2,6.52-9.45c0.01,0,0.01-0.01,0.02-0.01
			c4.64-4.01,12.74-1.69,12.74-1.69c0.52-0.05,1-0.06,1.46-0.03C48.24,0.97,49.09,7.21,49.02,11.17z"/>
		<path class="st14" d="M42.29,0.64c-0.84,1.72-2.5,3-4.11,4.11c0.28-0.52,0.41-1.12,0.36-1.72c-2.08,3.03-5.04,5.45-8.43,6.89
			c0.4-0.8,0.59-1.7,0.55-2.59c-2.09,1.9-4.64,3.29-7.36,4.03c-0.46,0.13-1.11,0.35-1.75,0.46c2.25-6.26,6.18-9.2,6.52-9.45
			c0.01,0,0.01-0.01,0.02-0.01c4.64-4.01,12.74-1.69,12.74-1.69C41.35,0.62,41.83,0.61,42.29,0.64z"/>
	</g>
</g>
</svg>
