<svg width="32" height="32" viewBox="0 0 32 32" fill="none" xmlns="http://www.w3.org/2000/svg">
<rect width="32" height="32" rx="16" fill="white"/>
<path d="M9.89102 14.9564C9.8041 14.9096 9.70651 14.8862 9.60778 14.8883C9.50905 14.8905 9.41257 14.9181 9.32777 14.9686C9.24297 15.0191 9.17275 15.0906 9.12399 15.1763C9.07522 15.2619 9.04958 15.3587 9.04956 15.4572V22.6662C9.04956 22.8171 9.10968 22.9619 9.21669 23.0686C9.3237 23.1753 9.46884 23.2353 9.62017 23.2353C9.77151 23.2353 9.91664 23.1753 10.0237 23.0686C10.1307 22.9619 10.1908 22.8171 10.1908 22.6662V16.4103L14.2946 18.614C14.4635 18.705 14.6674 18.705 14.8363 18.614L18.9401 16.4103V22.6662C18.9401 22.8171 19.0002 22.9619 19.1073 23.0686C19.2143 23.1753 19.3594 23.2353 19.5107 23.2353C19.6621 23.2353 19.8072 23.1753 19.9142 23.0686C20.0212 22.9619 20.0814 22.8171 20.0814 22.6662V15.4572C20.0813 15.3587 20.0557 15.2619 20.0069 15.1763C19.9582 15.0906 19.8879 15.0191 19.8031 14.9686C19.7183 14.9181 19.6219 14.8905 19.5231 14.8883C19.4244 14.8862 19.3268 14.9096 19.2399 14.9564L14.5655 17.4666L9.89102 14.9564Z" fill="#EF598C"/>
<path fill-rule="evenodd" clip-rule="evenodd" d="M18.6046 12.5903C15.9167 12.3504 13.2127 12.3504 10.5248 12.5903L9.36989 12.6927C8.7683 12.7463 8.20239 13.0005 7.76354 13.4144C7.32469 13.8283 7.03852 14.3777 6.95126 14.9738C6.57224 17.5588 6.57224 20.185 6.95126 22.7701C7.03871 23.3661 7.32506 23.9154 7.76405 24.3291C8.20303 24.7429 8.76904 24.997 9.37065 25.0504L10.524 25.1536C13.2128 25.3933 15.9167 25.3933 18.6054 25.1536L19.7595 25.0504C20.361 24.9968 20.9268 24.7427 21.3657 24.3289C21.8045 23.9152 22.0908 23.366 22.1782 22.7701C22.5572 20.185 22.5572 17.5588 22.1782 14.9738C22.0909 14.3776 21.8046 13.8281 21.3656 13.4142C20.9266 13.0003 20.3605 12.7461 19.7588 12.6927L18.6046 12.5903ZM10.6267 13.724C13.2473 13.4897 15.8836 13.4897 18.5042 13.724L19.6584 13.8272C20.0044 13.8578 20.3299 14.0039 20.5824 14.2418C20.8349 14.4798 20.9996 14.7956 21.0499 15.1384C21.4129 17.6142 21.4129 20.1296 21.0499 22.6054C20.9996 22.9482 20.8349 23.2641 20.5824 23.502C20.3299 23.7399 20.0044 23.886 19.6584 23.9167L18.5042 24.0199C15.884 24.2536 13.247 24.2536 10.6267 24.0199L9.4726 23.9167C9.1266 23.886 8.80107 23.7399 8.54858 23.502C8.29609 23.2641 8.13138 22.9482 8.08107 22.6054C7.71805 20.1296 7.71805 17.6142 8.08107 15.1384C8.13138 14.7956 8.29609 14.4798 8.54858 14.2418C8.80107 14.0039 9.1266 13.8578 9.4726 13.8272L10.6267 13.724Z" fill="#EF598C"/>
<path d="M25.2269 11.6291L24.2639 11.9162C24.1972 12.1484 24.1056 12.3728 23.9908 12.5854L24.4622 13.467C24.4799 13.5003 24.4864 13.5384 24.4807 13.5756C24.475 13.6128 24.4574 13.6473 24.4306 13.6738L23.7436 14.363C23.7171 14.3898 23.6826 14.4073 23.6453 14.413C23.608 14.4187 23.5699 14.4122 23.5366 14.3946L22.6598 13.9265C22.445 14.0469 22.2174 14.1432 21.9814 14.2136L21.6939 15.1642C21.6817 15.1992 21.6588 15.2295 21.6283 15.2507C21.5978 15.2718 21.5614 15.2828 21.5243 15.2819H20.5526C20.5153 15.2818 20.479 15.2697 20.449 15.2475C20.419 15.2253 20.3969 15.1941 20.3859 15.1585L20.0984 14.2108C19.8604 14.1408 19.6309 14.0445 19.4143 13.9236L18.5518 14.3888C18.5185 14.4065 18.4804 14.413 18.4431 14.4073C18.4058 14.4016 18.3714 14.384 18.3449 14.3572L17.6463 13.6766C17.6195 13.6501 17.6019 13.6157 17.5962 13.5785C17.5905 13.5412 17.597 13.5031 17.6147 13.4699L18.0804 12.6083C17.9596 12.3928 17.8632 12.1645 17.7929 11.9277L16.8414 11.6405C16.8057 11.6295 16.7745 11.6075 16.7523 11.5775C16.73 11.5475 16.7179 11.5113 16.7178 11.474V10.5033C16.7179 10.466 16.73 10.4298 16.7523 10.3998C16.7745 10.3699 16.8057 10.3478 16.8414 10.3368L17.7987 10.0496C17.8697 9.81672 17.9661 9.59234 18.0861 9.38047L17.6147 8.47873C17.597 8.44545 17.5905 8.40736 17.5962 8.37012C17.6019 8.33287 17.6195 8.29845 17.6463 8.27197L18.3334 7.58561C18.3599 7.55881 18.3943 7.54126 18.4316 7.53557C18.4689 7.52988 18.507 7.53635 18.5403 7.55402L19.4286 8.02786C19.6388 7.91469 19.8604 7.8242 20.0898 7.75792L20.3773 6.79014C20.3883 6.7545 20.4104 6.72331 20.4404 6.7011C20.4704 6.67889 20.5067 6.66682 20.544 6.66665H21.5157C21.553 6.66682 21.5893 6.67889 21.6193 6.7011C21.6493 6.72331 21.6714 6.7545 21.6824 6.79014L21.9699 7.76079C22.1973 7.82725 22.417 7.91774 22.6253 8.03074L23.5193 7.55402C23.5526 7.53635 23.5908 7.52988 23.6281 7.53557C23.6653 7.54126 23.6998 7.55881 23.7263 7.58561L24.4134 8.27197C24.4402 8.29845 24.4578 8.33287 24.4635 8.37012C24.4692 8.40736 24.4627 8.44545 24.445 8.47873L23.9678 9.36898C24.0821 9.57781 24.1736 9.79828 24.2409 10.0266L25.2097 10.3138C25.2453 10.3248 25.2766 10.3469 25.2988 10.3768C25.321 10.4068 25.3331 10.4431 25.3333 10.4804V11.4596C25.335 11.4953 25.3257 11.5307 25.3067 11.561C25.2877 11.5913 25.2598 11.615 25.2269 11.6291ZM21.0385 9.39482C20.7258 9.39482 20.4201 9.48746 20.1601 9.66101C19.9 9.83457 19.6974 10.0812 19.5777 10.3699C19.4581 10.6585 19.4267 10.976 19.4878 11.2824C19.5488 11.5888 19.6993 11.8703 19.9205 12.0911C20.1416 12.312 20.4233 12.4625 20.73 12.5234C21.0367 12.5844 21.3546 12.5531 21.6435 12.4335C21.9324 12.314 22.1794 12.1115 22.3531 11.8518C22.5268 11.5921 22.6196 11.2867 22.6196 10.9743C22.6196 10.5554 22.453 10.1536 22.1565 9.85744C21.8599 9.56123 21.4578 9.39482 21.0385 9.39482Z" fill="#EF598C"/>
</svg>
