<svg width="32" height="32" viewBox="0 0 32 32" fill="none" xmlns="http://www.w3.org/2000/svg">
<rect x="0.75" y="0.75" width="30.5" height="30.5" rx="15.25" stroke="#EF598C" stroke-width="1.5"/>
<path d="M9.89126 14.9563C9.80435 14.9095 9.70675 14.8861 9.60802 14.8882C9.50929 14.8903 9.41281 14.918 9.32801 14.9685C9.24321 15.0189 9.173 15.0905 9.12423 15.1761C9.07547 15.2618 9.04982 15.3586 9.0498 15.4571V22.666C9.0498 22.817 9.10992 22.9617 9.21693 23.0685C9.32394 23.1752 9.46908 23.2352 9.62041 23.2352C9.77175 23.2352 9.91689 23.1752 10.0239 23.0685C10.1309 22.9617 10.191 22.817 10.191 22.666V16.4102L14.2949 18.6139C14.4638 18.7049 14.6676 18.7049 14.8365 18.6139L18.9404 16.4102V22.666C18.9404 22.817 19.0005 22.9617 19.1075 23.0685C19.2145 23.1752 19.3596 23.2352 19.511 23.2352C19.6623 23.2352 19.8075 23.1752 19.9145 23.0685C20.0215 22.9617 20.0816 22.817 20.0816 22.666V15.4571C20.0816 15.3586 20.0559 15.2618 20.0072 15.1761C19.9584 15.0905 19.8882 15.0189 19.8034 14.9685C19.7186 14.918 19.6221 14.8903 19.5234 14.8882C19.4246 14.8861 19.3271 14.9095 19.2401 14.9563L14.5657 17.4665L9.89126 14.9563Z" fill="#EF598C"/>
<path fill-rule="evenodd" clip-rule="evenodd" d="M18.6046 12.5901C15.9167 12.3503 13.2127 12.3503 10.5248 12.5901L9.36989 12.6926C8.7683 12.7462 8.20239 13.0004 7.76354 13.4143C7.32469 13.8282 7.03852 14.3776 6.95126 14.9736C6.57224 17.5587 6.57224 20.1849 6.95126 22.7699C7.03871 23.366 7.32506 23.9153 7.76405 24.329C8.20303 24.7428 8.76904 24.9969 9.37065 25.0502L10.524 25.1534C13.2128 25.3932 15.9167 25.3932 18.6054 25.1534L19.7595 25.0502C20.361 24.9967 20.9268 24.7425 21.3657 24.3288C21.8045 23.9151 22.0908 23.3659 22.1782 22.7699C22.5572 20.1849 22.5572 17.5587 22.1782 14.9736C22.0909 14.3774 21.8046 13.828 21.3656 13.4141C20.9266 13.0002 20.3605 12.746 19.7588 12.6926L18.6046 12.5901ZM10.6267 13.7238C13.2473 13.4896 15.8836 13.4896 18.5042 13.7238L19.6584 13.827C20.0044 13.8577 20.3299 14.0038 20.5824 14.2417C20.8349 14.4796 20.9996 14.7955 21.0499 15.1383C21.4129 17.6141 21.4129 20.1294 21.0499 22.6053C20.9996 22.9481 20.8349 23.2639 20.5824 23.5019C20.3299 23.7398 20.0044 23.8859 19.6584 23.9165L18.5042 24.0197C15.884 24.2535 13.247 24.2535 10.6267 24.0197L9.4726 23.9165C9.1266 23.8859 8.80107 23.7398 8.54858 23.5019C8.29609 23.2639 8.13138 22.9481 8.08107 22.6053C7.71805 20.1294 7.71805 17.6141 8.08107 15.1383C8.13138 14.7955 8.29609 14.4796 8.54858 14.2417C8.80107 14.0038 9.1266 13.8577 9.4726 13.827L10.6267 13.7238Z" fill="#EF598C"/>
<path d="M25.2269 11.6292L24.2639 11.9164C24.1972 12.1486 24.1056 12.3729 23.9908 12.5855L24.4622 13.4671C24.4799 13.5004 24.4864 13.5385 24.4807 13.5757C24.475 13.613 24.4574 13.6474 24.4306 13.6739L23.7436 14.3631C23.7171 14.3899 23.6826 14.4074 23.6453 14.4131C23.608 14.4188 23.5699 14.4124 23.5366 14.3947L22.6598 13.9266C22.445 14.0471 22.2174 14.1434 21.9814 14.2138L21.6939 15.1643C21.6817 15.1993 21.6588 15.2296 21.6283 15.2508C21.5978 15.2719 21.5614 15.2829 21.5243 15.2821H20.5526C20.5153 15.2819 20.479 15.2698 20.449 15.2476C20.419 15.2254 20.3969 15.1942 20.3859 15.1586L20.0984 14.2109C19.8604 14.1409 19.6309 14.0446 19.4143 13.9237L18.5518 14.3889C18.5185 14.4066 18.4804 14.4131 18.4431 14.4074C18.4058 14.4017 18.3714 14.3842 18.3449 14.3574L17.6463 13.6767C17.6195 13.6503 17.6019 13.6158 17.5962 13.5786C17.5905 13.5413 17.597 13.5033 17.6147 13.47L18.0804 12.6084C17.9596 12.3929 17.8632 12.1647 17.7929 11.9278L16.8414 11.6407C16.8057 11.6297 16.7745 11.6076 16.7523 11.5776C16.73 11.5477 16.7179 11.5114 16.7178 11.4741V10.5034C16.7179 10.4662 16.73 10.4299 16.7523 10.3999C16.7745 10.37 16.8057 10.3479 16.8414 10.3369L17.7987 10.0497C17.8697 9.81684 17.9661 9.59246 18.0861 9.38059L17.6147 8.47885C17.597 8.44558 17.5905 8.40749 17.5962 8.37024C17.6019 8.33299 17.6195 8.29857 17.6463 8.27209L18.3334 7.58574C18.3599 7.55893 18.3943 7.54138 18.4316 7.53569C18.4689 7.53 18.507 7.53647 18.5403 7.55415L19.4286 8.02799C19.6388 7.91482 19.8604 7.82432 20.0898 7.75804L20.3773 6.79026C20.3883 6.75463 20.4104 6.72343 20.4404 6.70122C20.4704 6.67902 20.5067 6.66694 20.544 6.66677H21.5157C21.553 6.66694 21.5893 6.67902 21.6193 6.70122C21.6493 6.72343 21.6714 6.75463 21.6824 6.79026L21.9699 7.76091C22.1973 7.82737 22.417 7.91787 22.6253 8.03086L23.5193 7.55415C23.5526 7.53647 23.5908 7.53 23.6281 7.53569C23.6653 7.54138 23.6998 7.55893 23.7263 7.58574L24.4134 8.27209C24.4402 8.29857 24.4578 8.33299 24.4635 8.37024C24.4692 8.40749 24.4627 8.44558 24.445 8.47885L23.9678 9.3691C24.0821 9.57794 24.1736 9.79841 24.2409 10.0267L25.2097 10.3139C25.2453 10.3249 25.2766 10.347 25.2988 10.377C25.321 10.4069 25.3331 10.4432 25.3333 10.4805V11.4597C25.335 11.4955 25.3257 11.5308 25.3067 11.5611C25.2877 11.5914 25.2598 11.6152 25.2269 11.6292ZM21.0385 9.39495C20.7258 9.39495 20.4201 9.48758 20.1601 9.66114C19.9 9.83469 19.6974 10.0814 19.5777 10.37C19.4581 10.6586 19.4267 10.9762 19.4878 11.2826C19.5488 11.5889 19.6993 11.8704 19.9205 12.0913C20.1416 12.3122 20.4233 12.4626 20.73 12.5235C21.0367 12.5845 21.3546 12.5532 21.6435 12.4337C21.9324 12.3141 22.1794 12.1117 22.3531 11.8519C22.5268 11.5922 22.6196 11.2868 22.6196 10.9744C22.6196 10.5555 22.453 10.1538 22.1565 9.85756C21.8599 9.56135 21.4578 9.39495 21.0385 9.39495Z" fill="#EF598C"/>
</svg>
