<svg width="17" height="23" viewBox="0 0 17 23" fill="none" xmlns="http://www.w3.org/2000/svg">
<path d="M6.24384 5.29834H5.65382C4.89348 5.29834 4.2771 5.91472 4.2771 6.67506V6.67506C4.2771 7.4354 4.89348 8.05177 5.65382 8.05177H6.11272C6.61962 8.05177 7.03053 7.64086 7.03053 7.13396V7.13396" stroke="url(#paint0_linear_286_4639)" stroke-width="0.471198" stroke-linecap="round" stroke-linejoin="round"/>
<path d="M5.06323 6.60961L5.7189 7.26527L7.29249 5.56055" stroke="url(#paint1_linear_286_4639)" stroke-width="0.471198" stroke-linecap="round" stroke-linejoin="round"/>
<path d="M16.2461 0.774902H3.42949C2.62968 0.774902 1.86263 1.09262 1.29709 1.65817C0.73154 2.22372 0.413818 2.99076 0.413818 3.79057V19.6228C0.413818 19.8228 0.493249 20.0145 0.634636 20.1559C0.776023 20.2973 0.967784 20.3767 1.16774 20.3767H14.7382C14.9382 20.3767 15.13 20.2973 15.2713 20.1559C15.4127 20.0145 15.4922 19.8228 15.4922 19.6228C15.4922 19.4229 15.4127 19.2311 15.2713 19.0897C15.13 18.9483 14.9382 18.8689 14.7382 18.8689H1.92165C1.92165 18.469 2.08051 18.0855 2.36329 17.8027C2.64606 17.5199 3.02958 17.3611 3.42949 17.3611H16.2461C16.446 17.3611 16.6378 17.2816 16.7792 17.1403C16.9206 16.9989 17 16.8071 17 16.6072V1.52882C17 1.32887 16.9206 1.13711 16.7792 0.995719C16.6378 0.854333 16.446 0.774902 16.2461 0.774902ZM15.4922 15.8532H3.42949C2.89999 15.8524 2.37972 15.9919 1.92165 16.2575V3.79057C1.92165 3.39067 2.08051 3.00714 2.36329 2.72437C2.64606 2.4416 3.02958 2.28274 3.42949 2.28274H15.4922V15.8532Z" fill="url(#paint2_linear_286_4639)"/>
<path d="M10.1199 5.58105L12.5188 7.98" stroke="url(#paint3_linear_286_4639)" stroke-width="0.565438" stroke-linecap="round"/>
<path d="M12.5186 5.58105L10.1196 7.98" stroke="url(#paint4_linear_286_4639)" stroke-width="0.565438" stroke-linecap="round"/>
<path d="M3.28686 21.2249C3.28686 21.4346 3.41315 21.6236 3.60684 21.7038C3.80052 21.784 4.02347 21.7396 4.1717 21.5914L5.31301 20.45L6.45432 21.5914C6.60255 21.7396 6.8255 21.784 7.01918 21.7038C7.21287 21.6236 7.33916 21.4346 7.33916 21.2249V17.2671C7.33916 16.8764 7.02293 16.5601 6.63216 16.5601H3.99386C3.60535 16.5601 3.28686 16.8749 3.28686 17.2671V21.2249Z" fill="white" stroke="url(#paint5_linear_286_4639)" stroke-width="1.03664" stroke-linejoin="round"/>
<path d="M5.11023 11.0956C5.09099 11.0288 5.06397 10.9697 5.02916 10.9184C4.99436 10.8662 4.95176 10.8222 4.90138 10.7865C4.85192 10.7498 4.79512 10.7219 4.731 10.7027C4.6678 10.6834 4.59773 10.6738 4.52078 10.6738C4.37697 10.6738 4.25056 10.7095 4.14156 10.781C4.03347 10.8524 3.94919 10.9564 3.88874 11.0929C3.82828 11.2284 3.79805 11.3942 3.79805 11.5903C3.79805 11.7863 3.82782 11.953 3.88736 12.0904C3.9469 12.2278 4.03118 12.3327 4.14018 12.4051C4.24919 12.4765 4.37788 12.5122 4.52628 12.5122C4.66093 12.5122 4.77589 12.4884 4.87115 12.4408C4.96733 12.3922 5.04061 12.324 5.09099 12.2361C5.14229 12.1481 5.16794 12.0441 5.16794 11.9242L5.28885 11.942H4.56338V11.4941H5.7409V11.8486C5.7409 12.0959 5.68869 12.3084 5.58426 12.4861C5.47984 12.6629 5.33603 12.7994 5.15282 12.8956C4.96962 12.9908 4.75986 13.0385 4.52353 13.0385C4.25972 13.0385 4.02797 12.9803 3.82828 12.864C3.62859 12.7467 3.47287 12.5805 3.36112 12.3652C3.25028 12.149 3.19486 11.8926 3.19486 11.5958C3.19486 11.3677 3.22784 11.1643 3.29379 10.9857C3.36066 10.8062 3.45409 10.6541 3.57409 10.5295C3.69409 10.405 3.83378 10.3102 3.99316 10.2451C4.15255 10.1801 4.32521 10.1476 4.51116 10.1476C4.67055 10.1476 4.81894 10.1709 4.95634 10.2176C5.09374 10.2634 5.21557 10.3285 5.32183 10.4127C5.429 10.497 5.51648 10.5973 5.58426 10.7137C5.65205 10.8291 5.69556 10.9564 5.71479 11.0956H5.11023ZM7.92591 10.186H8.52086V12.0135C8.52086 12.2186 8.47185 12.3982 8.37384 12.5521C8.27674 12.706 8.14072 12.826 7.96576 12.9121C7.7908 12.9973 7.58699 13.0398 7.35433 13.0398C7.12075 13.0398 6.91648 12.9973 6.74152 12.9121C6.56656 12.826 6.43054 12.706 6.33344 12.5521C6.23634 12.3982 6.18779 12.2186 6.18779 12.0135V10.186H6.78274V11.9626C6.78274 12.0698 6.8061 12.1651 6.85281 12.2484C6.90045 12.3318 6.96731 12.3973 7.05342 12.4449C7.13952 12.4925 7.23983 12.5163 7.35433 12.5163C7.46974 12.5163 7.57005 12.4925 7.65523 12.4449C7.74134 12.3973 7.80775 12.3318 7.85447 12.2484C7.9021 12.1651 7.92591 12.0698 7.92591 11.9626V10.186ZM9.60529 10.186V13H9.01035V10.186H9.60529ZM11.0923 13H10.0948V10.186H11.1006C11.3836 10.186 11.6273 10.2424 11.8315 10.355C12.0358 10.4668 12.1929 10.6275 12.3028 10.8373C12.4136 11.0471 12.4691 11.2981 12.4691 11.5903C12.4691 11.8834 12.4136 12.1353 12.3028 12.346C12.1929 12.5567 12.0349 12.7183 11.8288 12.831C11.6236 12.9437 11.3781 13 11.0923 13ZM10.6897 12.4902H11.0676C11.2435 12.4902 11.3914 12.4591 11.5114 12.3968C11.6323 12.3336 11.723 12.2361 11.7834 12.1041C11.8448 11.9713 11.8755 11.8 11.8755 11.5903C11.8755 11.3823 11.8448 11.2124 11.7834 11.0805C11.723 10.9486 11.6328 10.8515 11.5128 10.7892C11.3928 10.7269 11.2448 10.6958 11.069 10.6958H10.6897V12.4902ZM12.9098 13V10.186H14.8059V10.6766H13.5047V11.3471H14.7084V11.8376H13.5047V12.5095H14.8114V13H12.9098Z" fill="url(#paint6_linear_286_4639)"/>
<defs>
<linearGradient id="paint0_linear_286_4639" x1="5.65382" y1="5.29834" x2="5.65382" y2="8.05177" gradientUnits="userSpaceOnUse">
<stop stop-color="#F586A3"/>
<stop offset="1" stop-color="#FA897F"/>
</linearGradient>
<linearGradient id="paint1_linear_286_4639" x1="6.17786" y1="5.56055" x2="6.17786" y2="7.26527" gradientUnits="userSpaceOnUse">
<stop stop-color="#F586A3"/>
<stop offset="1" stop-color="#FA897F"/>
</linearGradient>
<linearGradient id="paint2_linear_286_4639" x1="8.70691" y1="0.774902" x2="8.70691" y2="20.3767" gradientUnits="userSpaceOnUse">
<stop stop-color="#F586A3"/>
<stop offset="1" stop-color="#FA897F"/>
</linearGradient>
<linearGradient id="paint3_linear_286_4639" x1="11.3193" y1="6.78053" x2="10.6122" y2="7.48764" gradientUnits="userSpaceOnUse">
<stop stop-color="#F586A3"/>
<stop offset="1" stop-color="#FA897F"/>
</linearGradient>
<linearGradient id="paint4_linear_286_4639" x1="11.3191" y1="6.78053" x2="10.612" y2="6.07342" gradientUnits="userSpaceOnUse">
<stop stop-color="#F586A3"/>
<stop offset="1" stop-color="#FA897F"/>
</linearGradient>
<linearGradient id="paint5_linear_286_4639" x1="5.31301" y1="17.0784" x2="5.31301" y2="21.2249" gradientUnits="userSpaceOnUse">
<stop stop-color="#F586A3"/>
<stop offset="1" stop-color="#FA897F"/>
</linearGradient>
<linearGradient id="paint6_linear_286_4639" x1="9.49976" y1="9" x2="9.49976" y2="14" gradientUnits="userSpaceOnUse">
<stop stop-color="#F586A3"/>
<stop offset="1" stop-color="#FA897F"/>
</linearGradient>
</defs>
</svg>
