<?xml version="1.0" encoding="utf-8"?>
<!-- Generator: Adobe Illustrator 26.1.0, SVG Export Plug-In . SVG Version: 6.00 Build 0)  -->
<svg version="1.1" id="Layer_1" xmlns="http://www.w3.org/2000/svg" xmlns:xlink="http://www.w3.org/1999/xlink" x="0px" y="0px"
	 viewBox="0 0 1400 403" style="enable-background:new 0 0 1400 403;" xml:space="preserve">
<style type="text/css">
	.st0{fill:#F3F3F3;}
	.st1{fill:url(#SVGID_1_);}
	.st2{fill:url(#SVGID_00000057110961536576130690000014769116447514665388_);}
	.st3{fill:url(#SVGID_00000076575654395127395520000013742008187801861249_);}
	.st4{fill:#FFD001;}
	.st5{fill:#FFFFFF;}
	.st6{fill:none;stroke:#CCEEF4;stroke-width:1.6632;stroke-linecap:round;stroke-linejoin:round;stroke-miterlimit:10;}
	.st7{fill:none;stroke:#FFA21E;stroke-width:1.6632;stroke-linecap:round;stroke-linejoin:round;stroke-miterlimit:10;}
	.st8{fill:#FFFBFF;}
	.st9{fill:none;stroke:#FFA21E;stroke-width:1.621;stroke-linecap:round;stroke-linejoin:round;stroke-miterlimit:10;}
	.st10{fill-rule:evenodd;clip-rule:evenodd;fill:#E5E2DB;}
	.st11{fill-rule:evenodd;clip-rule:evenodd;fill:#FEFFFA;}
	.st12{fill-rule:evenodd;clip-rule:evenodd;fill:#F5773D;}
	.st13{fill-rule:evenodd;clip-rule:evenodd;fill:#143143;}
	.st14{fill-rule:evenodd;clip-rule:evenodd;fill:#172C36;}
	.st15{fill-rule:evenodd;clip-rule:evenodd;fill:#FFFFFF;}
	.st16{fill-rule:evenodd;clip-rule:evenodd;fill:url(#SVGID_00000031176123104108524220000016255871324941303222_);}
	.st17{fill-rule:evenodd;clip-rule:evenodd;fill:url(#SVGID_00000155144185377737475920000008527734697203071667_);}
	
		.st18{fill-rule:evenodd;clip-rule:evenodd;fill:#FFFFFF;stroke:#1A2E35;stroke-linecap:round;stroke-linejoin:round;stroke-miterlimit:10;}
	.st19{fill:url(#SVGID_00000079475274948345434650000001914559378839943815_);}
	.st20{fill:url(#SVGID_00000145744394050696129140000000596775329974402468_);}
	.st21{fill:#FBB255;}
	.st22{fill:#29B99A;}
	.st23{fill:#EC5553;}
	.st24{fill:url(#SVGID_00000176729173047327427240000011167728853086787516_);}
	.st25{fill:#F5773D;}
	.st26{fill:#F38469;}
	.st27{fill:url(#SVGID_00000161602733871389593170000018154475557585590951_);}
	.st28{fill:#386A87;}
	.st29{fill:#F4A091;}
	.st30{fill:#F18F79;}
	.st31{fill:#FAC9BC;}
	.st32{fill:#F7BFAD;}
	.st33{fill:#414142;}
	.st34{fill:#F3A8BD;}
	.st35{fill:#F091A8;}
	.st36{fill:#7E7A7B;}
	.st37{fill:#E9EAE8;}
	.st38{fill:url(#SVGID_00000119827386364677398570000012782073556137818036_);}
	.st39{fill:#F7F7F7;}
	.st40{fill:#F8CAD5;}
	.st41{fill:#F5BBC6;}
	.st42{fill:url(#SVGID_00000034090104431142529780000004537485819321704110_);}
	.st43{fill:#A2BA63;}
	.st44{fill:#F27540;}
	.st45{fill:#ED4327;}
	.st46{fill:#FFFFFF;stroke:#1A2E35;stroke-linecap:round;stroke-linejoin:round;stroke-miterlimit:10;}
	.st47{fill:#FFFFFF;stroke:#1E1E1E;stroke-miterlimit:10;}
	.st48{fill:#7F392B;}
	.st49{fill:url(#SVGID_00000088127678107381244010000003792240063275565700_);}
	.st50{fill:none;stroke:#1A2E35;stroke-linecap:round;stroke-linejoin:round;stroke-miterlimit:10;}
	.st51{fill:url(#SVGID_00000003817467237980190890000002817721802130129332_);}
	.st52{fill:#FFB766;}
	.st53{fill:url(#SVGID_00000005946382219421958290000002036130687707263905_);}
	.st54{fill:#1A2E35;stroke:#1A2E35;stroke-linecap:round;stroke-linejoin:round;stroke-miterlimit:10;}
	.st55{fill:#FE9175;}
	.st56{fill:#FF9A6C;}
	.st57{fill:#DB4B66;}
	.st58{fill:#1A2E35;}
	.st59{fill:#375A64;}
	.st60{font-family:'Montserrat-SemiBold';}
	.st61{font-size:47px;}
	.st62{font-family:'MyriadPro-Regular';}
	.st63{font-size:26px;}
	.st64{fill:#F9F9F9;}
</style>
<rect x="-24" y="298" class="st0" width="1496" height="134"/>
<linearGradient id="SVGID_1_" gradientUnits="userSpaceOnUse" x1="-5" y1="195.125" x2="1311" y2="195.125">
	<stop  offset="0" style="stop-color:#404F5E"/>
	<stop  offset="1" style="stop-color:#26282A"/>
</linearGradient>
<rect x="-5" y="20.25" class="st1" width="1316" height="349.75"/>
<linearGradient id="SVGID_00000138545004672908069850000004716646535545547654_" gradientUnits="userSpaceOnUse" x1="221" y1="277" x2="659" y2="277">
	<stop  offset="2.237672e-07" style="stop-color:#F3719C"/>
	<stop  offset="1" style="stop-color:#FF9373"/>
</linearGradient>
<rect x="221" y="247" style="fill:url(#SVGID_00000138545004672908069850000004716646535545547654_);" width="438" height="60"/>
<linearGradient id="SVGID_00000178174676331753353330000001596190793231065733_" gradientUnits="userSpaceOnUse" x1="849" y1="196.625" x2="1422" y2="196.625">
	<stop  offset="2.237672e-07" style="stop-color:#F3719C"/>
	<stop  offset="1" style="stop-color:#FF9373"/>
</linearGradient>
<polygon style="fill:url(#SVGID_00000178174676331753353330000001596190793231065733_);" points="1204,20.25 849,373 1422,370 
	1419,20.25 "/>
<g>
	<g>
		<path class="st4" d="M1120.5,244.21l-13.3,17.8l36.73-8.44l-19.74-10.21C1122.92,242.7,1121.36,243.06,1120.5,244.21z"/>
		<polyline class="st4" points="1107.24,262 1128.18,270.14 1143.98,253.56 1140.25,254.41 1113.92,260.47 1107.24,262 
			1128.18,270.14 1143.98,253.56 		"/>
		<g>
			<path class="st5" d="M1139.79,275.23l-19.41,4.46c-0.64,0.15-1.28-0.25-1.43-0.89l-6.28-27.32c-0.15-0.64,0.26-1.28,0.9-1.43
				l19.41-4.46c0.64-0.15,1.28,0.25,1.43,0.89l6.28,27.32C1140.84,274.44,1140.44,275.08,1139.79,275.23z"/>
			<g>
				<line class="st6" x1="1118.85" y1="255.69" x2="1130.7" y2="252.97"/>
				<line class="st6" x1="1119.8" y1="259.84" x2="1131.66" y2="257.11"/>
				<line class="st6" x1="1120.75" y1="263.98" x2="1132.61" y2="261.25"/>
			</g>
		</g>
		<path class="st4" d="M1128.18,270.14l-20.94-8.14l4.51,19.6c0.14,0.6,0.85,0.94,1.6,0.77l34.03-7.82c0.75-0.17,1.24-0.79,1.1-1.39
			l-4.51-19.6L1128.18,270.14z"/>
		<g>
			<g>
				<polyline class="st7" points="1143.98,253.56 1128.18,270.14 1107.24,262 				"/>
				<line class="st7" x1="1115.81" y1="276.11" x2="1119.92" y2="266.93"/>
				<line class="st7" x1="1142.13" y1="270.06" x2="1134.42" y2="263.6"/>
			</g>
		</g>
	</g>
	<g>
		<path class="st4" d="M888.31,133.68l-31.13,7.16l-2.46-4.51c-0.72-1.24-1.45-1.41-3.22-1l-12.99,2.99
			c-0.76,0.18-1.24,0.94-1.07,1.7l1.49,6.48l0.03,0.13l6.26,27.23c0.18,0.77,0.94,1.24,1.7,1.07l48.32-11.11
			c0.76-0.18,1.24-0.94,1.07-1.7l-6.29-27.37C889.84,133.98,889.08,133.5,888.31,133.68z"/>
		
			<rect x="846.55" y="141.28" transform="matrix(0.9746 -0.224 0.224 0.9746 -13.4566 198.6301)" class="st8" width="44.11" height="34.68"/>
		<path class="st4" d="M890.9,144.92l-31.13,7.16l-2.46-4.52c-0.72-1.24-1.45-1.41-3.22-1l-12.99,2.99
			c-0.76,0.18-1.24,0.94-1.07,1.7l1.49,6.48l0.03,0.14l6.26,27.23c0.18,0.76,0.94,1.24,1.7,1.06l48.32-11.11
			c0.76-0.18,1.25-0.94,1.07-1.7l-6.29-27.37C892.43,145.22,891.66,144.74,890.9,144.92z"/>
		<path class="st9" d="M892.6,145.98c-0.18-0.77-0.94-1.24-1.71-1.07l-31.13,7.16l-2.46-4.52c-0.72-1.24-1.45-1.41-3.22-1
			l-12.99,2.99c-0.76,0.18-1.24,0.94-1.07,1.7"/>
		<path class="st9" d="M893.35,176.08l-4.34-18.9c-0.16-0.68-0.83-1.1-1.51-0.94l-27.56,6.34l-2.17-4c-0.64-1.1-1.29-1.24-2.85-0.88
			l-11.5,2.64c-0.68,0.16-1.1,0.83-0.94,1.51"/>
	</g>
	<g>
		<polygon class="st10" points="809.24,276.73 855.18,282.86 862.19,263.29 816.26,257.16 		"/>
		
			<rect x="815.96" y="238.06" transform="matrix(0.1318 -0.9913 0.9913 0.1318 465.6942 1054.1857)" class="st11" width="37.44" height="46.34"/>
		<path class="st12" d="M821.11,252.26l2.04,0.27l0.51-3.8l1.68,4.09l2.03,0.27l1.02-7.64l-2.03-0.27l-0.52,3.9l-1.66-4.19
			l-2.05-0.27L821.11,252.26L821.11,252.26z M828.35,251.53c-0.21,1.6,1.14,1.92,1.82,1.99c0,0,2.24,0.27,3.33,0.26l0.23-1.69
			l-2.68-0.36c-0.3-0.04-0.65-0.07-0.57-0.63l0.06-0.46l2.82,0.28l0.23-1.68l-2.79-0.49l0.06-0.46c0.04-0.28,0.08-0.59,0.62-0.51
			l2.79,0.37l0.23-1.7c-1.2-0.33-3.39-0.63-3.39-0.63c-0.74-0.1-1.97-0.06-2.18,1.52L828.35,251.53L828.35,251.53z M834.92,246.34
			l1.14,7.93l2.44,0.33l0.95-2.41l0.37,2.59l2.44,0.33l2.89-7.38l-2.13-0.29l-1.64,5.03l-0.59-3.71l0.6-1.53l-2.13-0.29l-1.64,5.03
			l-0.57-5.32L834.92,246.34L834.92,246.34z M845.21,250.41c-0.07,0.49-0.21,2.22,1.77,2.49l0.94,0.13
			c0.46,0.06,0.53,0.23,0.49,0.53l-0.02,0.17c-0.04,0.31-0.22,0.41-0.67,0.35c-0.97-0.13-2.28-0.38-2.69-0.48l-0.21,1.58
			c1,0.49,1.23,0.53,3.18,0.79c1.03,0.14,2.17-0.11,2.43-2.06l0.05-0.34c0.11-0.84-0.07-2.26-1.66-2.48l-0.98-0.13
			c-0.56-0.08-0.6-0.26-0.56-0.59l0.02-0.11c0.06-0.44,0.27-0.43,0.84-0.36c0.69,0.09,1.83,0.28,2.49,0.44l0.21-1.58
			c-0.73-0.39-1.63-0.67-3.19-0.78c-1.18-0.08-2.16,0.42-2.34,1.79L845.21,250.41z"/>
		
			<rect x="823.88" y="245.63" transform="matrix(0.1328 -0.9911 0.9911 0.1328 460.076 1040.0676)" class="st13" width="1.07" height="22.95"/>
		
			<rect x="823.42" y="249.07" transform="matrix(0.1328 -0.9911 0.9911 0.1328 456.2677 1042.5929)" class="st14" width="1.07" height="22.95"/>
		
			<rect x="822.96" y="252.51" transform="matrix(0.1328 -0.9911 0.9911 0.1328 452.4604 1045.1177)" class="st14" width="1.07" height="22.95"/>
		
			<rect x="822.5" y="255.95" transform="matrix(0.1328 -0.9911 0.9911 0.1328 448.6521 1047.6431)" class="st14" width="1.07" height="22.95"/>
		
			<rect x="822.04" y="259.39" transform="matrix(0.1328 -0.9911 0.9911 0.1328 444.8447 1050.1678)" class="st14" width="1.07" height="22.95"/>
		
			<rect x="821.58" y="262.83" transform="matrix(0.1328 -0.9911 0.9911 0.1328 441.0365 1052.6932)" class="st14" width="1.07" height="22.95"/>
		
			<rect x="821.12" y="266.27" transform="matrix(0.1328 -0.9911 0.9911 0.1328 437.2282 1055.2186)" class="st14" width="1.07" height="22.95"/>
		
			<rect x="846.48" y="250.35" transform="matrix(0.1328 -0.9911 0.9911 0.1328 476.6659 1065.0852)" class="st13" width="1.07" height="19.58"/>
		
			<rect x="846.01" y="253.79" transform="matrix(0.1328 -0.9911 0.9911 0.1328 472.8577 1067.6106)" class="st14" width="1.07" height="19.58"/>
		
			<rect x="845.55" y="257.22" transform="matrix(0.1328 -0.9911 0.9911 0.1328 469.0504 1070.1354)" class="st14" width="1.07" height="19.58"/>
		
			<rect x="845.09" y="260.66" transform="matrix(0.1328 -0.9911 0.9911 0.1328 465.2421 1072.6608)" class="st14" width="1.07" height="19.58"/>
		
			<rect x="844.63" y="264.1" transform="matrix(0.1328 -0.9911 0.9911 0.1328 461.4347 1075.1855)" class="st14" width="1.07" height="19.58"/>
		
			<rect x="844.17" y="267.54" transform="matrix(0.1328 -0.9911 0.9911 0.1328 457.6265 1077.7108)" class="st14" width="1.07" height="19.58"/>
		
			<rect x="843.71" y="270.98" transform="matrix(0.1328 -0.9911 0.9911 0.1328 453.8182 1080.2363)" class="st14" width="1.07" height="19.58"/>
	</g>
	<g>
		<path class="st15" d="M1031.43,196.73l17.58-0.39c0.87-0.02,1.59,0.67,1.61,1.54l0.65,29.39c0.02,0.86-0.67,1.59-1.54,1.61
			l-17.58,0.39c-0.87,0.02-1.59-0.67-1.61-1.54l-0.65-29.39C1029.87,197.48,1030.56,196.75,1031.43,196.73z"/>
		
			<linearGradient id="SVGID_00000010995606940098902320000008904424207727449998_" gradientUnits="userSpaceOnUse" x1="1024.8839" y1="223.8049" x2="1046.0433" y2="223.8049" gradientTransform="matrix(0.985 -0.1727 0.1727 0.985 -18.0015 170.0917)">
			<stop  offset="2.237672e-07" style="stop-color:#F3719C"/>
			<stop  offset="1" style="stop-color:#FF9373"/>
		</linearGradient>
		
			<polygon style="fill-rule:evenodd;clip-rule:evenodd;fill:url(#SVGID_00000010995606940098902320000008904424207727449998_);" points="
			1031.6,198.57 1048.91,198.18 1049.51,224.94 1032.19,225.33 		"/>
		
			<linearGradient id="SVGID_00000183218430118602296060000000538788572368027049_" gradientUnits="userSpaceOnUse" x1="1028.9183" y1="223.8049" x2="1046.0433" y2="223.8049" gradientTransform="matrix(0.985 -0.1727 0.1727 0.985 -18.0015 170.0917)">
			<stop  offset="2.237672e-07" style="stop-color:#F3719C"/>
			<stop  offset="1" style="stop-color:#FF9373"/>
		</linearGradient>
		
			<polygon style="fill-rule:evenodd;clip-rule:evenodd;fill:url(#SVGID_00000183218430118602296060000000538788572368027049_);" points="
			1031.6,198.57 1048.91,198.18 1049.51,224.94 		"/>
		<path class="st18" d="M1036.89,203.37l3.14-0.07c0.31-0.01,0.59,0.1,0.81,0.28l0.04-0.07c1.02,0.59,1.93,1.57,2.65,2.79
			c0.94,1.59,1.6,3.64,1.75,5.74c0.16,2.14-0.2,4.36-1.29,6.25c-0.72,1.25-1.75,2.34-3.14,3.16l-0.05-0.09
			c-0.11,0.04-0.23,0.06-0.36,0.06l-3.14,0.07c-0.69,0.01-1.27-0.54-1.28-1.23l-0.07-2.98c-0.02-0.69,0.54-1.27,1.23-1.28l3.14-0.07
			c0.53-0.01,0.98,0.3,1.18,0.76c0.72-1.31,0.95-2.89,0.84-4.44c-0.11-1.47-0.52-2.9-1.13-4.07c-0.22,0.35-0.6,0.59-1.04,0.6
			l-3.14,0.07c-0.69,0.01-1.27-0.54-1.28-1.23l-0.07-2.98C1035.65,203.96,1036.19,203.38,1036.89,203.37z"/>
	</g>
	<g>
		
			<linearGradient id="SVGID_00000158742723354205549920000008556345340477686191_" gradientUnits="userSpaceOnUse" x1="800.2859" y1="164.5146" x2="814.0193" y2="164.5146" gradientTransform="matrix(0.985 -0.1727 0.1727 0.985 -18.0015 170.0917)">
			<stop  offset="0" style="stop-color:#404F5E"/>
			<stop  offset="1" style="stop-color:#26282A"/>
		</linearGradient>
		<polyline style="fill:url(#SVGID_00000158742723354205549920000008556345340477686191_);" points="811.01,187.29 798.02,190.27 
			799.86,198.26 812.84,195.28 811.01,187.29 		"/>
		
			<linearGradient id="SVGID_00000121971749226068791860000016881620525347230602_" gradientUnits="userSpaceOnUse" x1="793.0406" y1="183.3792" x2="837.2504" y2="183.3792" gradientTransform="matrix(0.985 -0.1727 0.1727 0.985 -18.0015 170.0917)">
			<stop  offset="0" style="stop-color:#404F5E"/>
			<stop  offset="1" style="stop-color:#26282A"/>
		</linearGradient>
		<path style="fill:url(#SVGID_00000121971749226068791860000016881620525347230602_);" d="M804.71,221.63l-1.84-8.03l3.85-0.89
			l1.84,8.03L804.71,221.63 M809.63,220.5l-1.84-8.03l3.93-0.9l1.84,8.03L809.63,220.5 M814.62,219.35l-1.84-8.03l3.92-0.9
			l1.84,8.03L814.62,219.35 M819.62,218.2l-1.84-8.03l3.92-0.9l1.84,8.03L819.62,218.2 M824.61,217.06l-1.84-8.03l3.92-0.9
			l1.84,8.03L824.61,217.06 M829.6,215.91l-1.84-8.03l4.07-0.94l1.84,8.03L829.6,215.91 M802.62,212.54l-1.75-7.6l3.85-0.89
			l1.75,7.6L802.62,212.54 M807.54,211.4l-1.75-7.6l3.93-0.9l1.75,7.6L807.54,211.4 M812.53,210.26l-1.75-7.6l3.92-0.9l1.75,7.6
			L812.53,210.26 M817.52,209.11l-1.75-7.6l3.92-0.9l1.75,7.6L817.52,209.11 M822.52,207.96l-1.75-7.6l3.92-0.9l1.75,7.6
			L822.52,207.96 M827.51,206.81l-1.75-7.6l4.07-0.94l1.75,7.6L827.51,206.81 M815.53,200.44c-0.67,0.15-1.34-0.26-1.49-0.93
			c-0.15-0.67,0.26-1.34,0.93-1.49c0.67-0.15,1.34,0.27,1.49,0.94C816.62,199.62,816.2,200.29,815.53,200.44 M835.79,192.85
			l-16.93,3.89l-5.22,1.2l-20.79,4.78l0.89,3.85l3.28-0.75l4.26,18.55l0.86-0.2l0.46,2l34.67-7.97l-0.46-2l1.14-0.26l-4.26-18.55
			l3-0.69L835.79,192.85"/>
		
			<rect x="795.1" y="186.97" transform="matrix(0.9746 -0.224 0.224 0.9746 -22.4257 184.4775)" class="st21" width="13.32" height="8.2"/>
		
			<rect x="810.81" y="186.21" transform="matrix(0.9746 -0.224 0.224 0.9746 -21.5654 187.7616)" class="st22" width="11.71" height="5.42"/>
		<path class="st23" d="M815.19,195.04l-5.22,1.2l-20.79,4.78l0.89,3.85l3.28-0.75l4.26,18.55l0.86-0.2l0.46,2l34.67-7.97l-0.46-2
			l1.14-0.26l-4.26-18.55l3-0.69l-0.89-3.85L815.19,195.04z M804.88,219.04l-3.85,0.89l-1.84-8.03l3.85-0.89L804.88,219.04z
			 M802.79,209.94l-3.85,0.89l-1.75-7.6l3.85-0.89L802.79,209.94z M809.88,217.89l-3.92,0.9l-1.84-8.03l3.92-0.9L809.88,217.89z
			 M807.79,208.79l-3.92,0.9l-1.75-7.6l3.92-0.9L807.79,208.79z M814.87,216.74l-3.92,0.9l-1.84-8.03l3.92-0.9L814.87,216.74z
			 M812.78,207.65l-3.92,0.9l-1.75-7.6l3.92-0.9L812.78,207.65z M810.37,197.8c-0.15-0.67,0.26-1.34,0.93-1.49
			c0.67-0.15,1.34,0.27,1.49,0.94c0.15,0.67-0.27,1.34-0.94,1.49C811.19,198.89,810.52,198.47,810.37,197.8z M819.86,215.59
			l-3.92,0.9l-1.84-8.03l3.92-0.9L819.86,215.59z M817.77,206.5l-3.92,0.9l-1.75-7.6l3.92-0.9L817.77,206.5z M824.86,214.45
			l-3.92,0.9l-1.84-8.03l3.92-0.9L824.86,214.45z M822.77,205.35l-3.92,0.9l-1.75-7.6l3.92-0.9L822.77,205.35z M829.99,213.27
			l-4.07,0.94l-1.84-8.03l4.07-0.94L829.99,213.27z M827.9,204.17l-4.07,0.94l-1.75-7.6l4.07-0.94L827.9,204.17z"/>
	</g>
	<g>
		
			<linearGradient id="SVGID_00000158004391182119491790000004474860081625199495_" gradientUnits="userSpaceOnUse" x1="518.0524" y1="-158.7649" x2="550.215" y2="-158.7649" gradientTransform="matrix(0.8704 -0.4924 0.4924 0.8704 615.474 481.8339)">
			<stop  offset="0" style="stop-color:#404F5E"/>
			<stop  offset="1" style="stop-color:#26282A"/>
		</linearGradient>
		<path style="fill:url(#SVGID_00000158004391182119491790000004474860081625199495_);" d="M1008.97,65.23
			c0.2,0.18,0.37,0.4,0.5,0.64l0.71,1.25l1.96,3.46l4.59,8.11c0.74,1.31,0.28,2.99-1.04,3.74l-23.33,13.2
			c-0.04,0.02-0.08,0.04-0.12,0.07c0.85,0.8,2.16,1,3.23,0.39l11.09-6.28l12.23-6.92c1.31-0.74,1.78-2.42,1.04-3.74l-4.59-8.11
			l-1.96-3.46l-0.71-1.25C1011.86,65.06,1010.26,64.58,1008.97,65.23"/>
		<path class="st25" d="M1016.73,78.7c0.74,1.31,0.28,2.99-1.04,3.74l-23.33,13.2c-1.31,0.74-2.99,0.28-3.74-1.04l-7.26-12.83
			c-0.74-1.31-0.28-2.99,1.04-3.74l23.33-13.2c1.31-0.74,2.99-0.28,3.74,1.04L1016.73,78.7"/>
		<polyline class="st5" points="1012.14,70.59 984.04,86.48 982.08,83.02 1010.18,67.13 1012.14,70.59 		"/>
		<polyline class="st21" points="997.6,91.25 991.64,94.63 989.68,91.17 995.65,87.79 997.6,91.25 		"/>
		<path class="st26" d="M993.47,71.73l-11.06,6.33c-1.31,0.75-1.77,2.43-1.02,3.74l0.72,1.25l13.44-7.7L993.47,71.73"/>
		<path class="st26" d="M989.68,91.17L989.68,91.17l5.97-3.38l1.96,3.46l-5.97,3.38L989.68,91.17 M997.52,78.86l-13.48,7.63
			l4.59,8.11c0.74,1.31,2.42,1.78,3.74,1.04l11.09-6.28L997.52,78.86"/>
		<polyline class="st5" points="995.56,75.4 982.08,83.02 984.04,86.48 997.52,78.86 995.56,75.4 		"/>
		
			<rect x="990.21" y="89.22" transform="matrix(0.8704 -0.4924 0.4924 0.8704 83.8734 501.0423)" class="st21" width="6.85" height="3.98"/>
	</g>
	<g>
		
			<linearGradient id="SVGID_00000181077471856323097750000006696503317288998072_" gradientUnits="userSpaceOnUse" x1="1092.5951" y1="143.5607" x2="1132.6459" y2="143.5607" gradientTransform="matrix(0.985 -0.1727 0.1727 0.985 -18.0015 170.0917)">
			<stop  offset="0" style="stop-color:#404F5E"/>
			<stop  offset="1" style="stop-color:#26282A"/>
		</linearGradient>
		<path style="fill:url(#SVGID_00000181077471856323097750000006696503317288998072_);" d="M1097.76,110.19
			c-4.46,1.03-7.26,5.49-6.24,9.96c0.75,3.27,3.35,5.65,6.44,6.28c-0.88-0.69-1.63-1.56-2.18-2.58c-1.4-0.92-2.47-2.37-2.87-4.13
			c-0.84-3.63,1.43-7.25,5.07-8.09c1.2-0.28,2.4-0.21,3.5,0.13c0.19-0.04,0.39-0.07,0.58-0.09c0.1-0.01,0.2-0.01,0.31-0.02
			c0.17-0.02,0.34-0.03,0.51-0.04c0.13,0,0.26,0.01,0.39,0.01c0.14,0,0.28,0,0.42,0.01c0.15,0.01,0.29,0.03,0.44,0.05
			c0.12,0.01,0.24,0.02,0.36,0.04c0.1,0.02,0.19,0.04,0.29,0.06C1102.87,110.26,1100.32,109.6,1097.76,110.19 M1087.07,111.53
			l-3.68,0.85c-1.27,0.29-2.05,1.55-1.76,2.82l0.13,0.57l2.24-0.52l-0.35-1.52l3.73-0.86L1087.07,111.53 M1114.87,105.14l-3.48,0.8
			c-0.1,0.32-0.13,0.66-0.05,1.01c0.24,1.05,1.34,1.7,2.44,1.45c0.4-0.09,0.75-0.29,1.02-0.55c0.07-0.41,0.27-0.79,0.57-1.09
			c0.04-0.24,0.03-0.48-0.02-0.73C1115.28,105.68,1115.1,105.38,1114.87,105.14 M1116.99,104.65l-0.66,0.15l0.31,1.35
			c1.02-0.11,1.97,0.51,2.2,1.49c0.22,0.98-0.36,1.96-1.33,2.3l2.77,12.03c0.29,1.27-0.5,2.53-1.76,2.82l-12.43,2.86
			c-0.03,0.01-0.06,0.02-0.09,0.03c-0.06,0.02-0.13,0.05-0.19,0.08c-0.27,0.09-0.55,0.17-0.84,0.24c-0.29,0.07-0.57,0.11-0.86,0.15
			c-0.07,0.01-0.13,0.01-0.2,0.01c-0.03,0-0.07,0.01-0.1,0.01l-18.23,4.19l0,0.01c0.29,1.27,1.55,2.06,2.82,1.76l33.6-7.72
			c1.26-0.29,2.05-1.55,1.76-2.82l-0.14-0.61l-3.04-13.24l-0.77-3.33C1119.52,105.15,1118.26,104.36,1116.99,104.65"/>
		<path class="st28" d="M1113.51,103.03l-22.76,5.23l-0.48-2.1l-6.49,1.49l0.48,2.1l-4.34,1c-1.27,0.29-2.05,1.55-1.76,2.82
			l3.95,17.18c0.29,1.27,1.55,2.06,2.82,1.76l33.6-7.72c1.26-0.29,2.05-1.55,1.76-2.82l-3.95-17.18
			C1116.04,103.53,1114.77,102.74,1113.51,103.03 M1087.73,114.39l-6.68,1.54l-0.88-3.82l6.68-1.54L1087.73,114.39 M1101.49,126.38
			c-4.46,1.03-8.93-1.77-9.96-6.24c-1.03-4.46,1.77-8.93,6.24-9.96c4.47-1.03,8.93,1.77,9.96,6.24
			C1108.75,120.89,1105.95,125.35,1101.49,126.38 M1113.79,108.4c-1.11,0.25-2.2-0.39-2.44-1.45c-0.24-1.05,0.46-2.11,1.57-2.37
			c1.11-0.25,2.2,0.39,2.44,1.45C1115.6,107.08,1114.89,108.14,1113.79,108.4"/>
		<path class="st29" d="M1103.51,122.05c-0.64,0.15-1.27-0.25-1.42-0.89c-0.15-0.64,0.25-1.27,0.89-1.42
			c0.64-0.15,1.27,0.25,1.42,0.89C1104.55,121.27,1104.15,121.91,1103.51,122.05 M1101.25,111.8c-0.28,0.06-0.54,0.14-0.81,0.23
			c-0.1,0.03-0.2,0.08-0.3,0.12c-0.16,0.06-0.32,0.12-0.47,0.19c-0.12,0.06-0.24,0.12-0.36,0.18c-0.12,0.06-0.24,0.12-0.36,0.19
			c-0.13,0.08-0.26,0.16-0.38,0.25c-0.1,0.06-0.19,0.12-0.29,0.19c-0.13,0.1-0.26,0.2-0.39,0.31c-0.08,0.06-0.16,0.12-0.23,0.18
			c-0.13,0.11-0.25,0.24-0.38,0.36c-0.06,0.06-0.13,0.12-0.19,0.19c-0.02,0.02-0.03,0.03-0.05,0.05c0.61,0.27,1.1,0.81,1.26,1.51
			c0.27,1.17-0.46,2.35-1.64,2.61c-0.59,0.14-1.19,0.02-1.66-0.29c-0.27,1.18-0.29,2.45,0,3.71c0.17,0.74,0.44,1.44,0.79,2.08
			c1.48,0.97,3.35,1.37,5.22,0.94c3.63-0.84,5.9-4.46,5.07-8.09c-0.56-2.43-2.37-4.25-4.59-4.94
			C1101.41,111.77,1101.33,111.79,1101.25,111.8"/>
		<path class="st30" d="M1097.99,111.63c-3.63,0.84-5.9,4.46-5.07,8.09c0.41,1.77,1.47,3.21,2.87,4.13
			c-0.35-0.64-0.61-1.34-0.79-2.08c-0.29-1.26-0.27-2.52,0-3.71c-0.46-0.3-0.82-0.77-0.95-1.35c-0.27-1.17,0.46-2.34,1.64-2.61
			c0.47-0.11,0.95-0.05,1.36,0.13c0.02-0.02,0.03-0.03,0.05-0.05c0.06-0.06,0.13-0.12,0.19-0.19c0.12-0.12,0.25-0.24,0.38-0.36
			c0.07-0.06,0.15-0.12,0.23-0.18c0.13-0.1,0.25-0.21,0.39-0.31c0.09-0.07,0.19-0.12,0.29-0.19c0.13-0.08,0.25-0.17,0.38-0.25
			c0.12-0.07,0.24-0.12,0.36-0.19c0.12-0.06,0.23-0.13,0.36-0.18c0.15-0.07,0.31-0.13,0.47-0.19c0.1-0.04,0.19-0.08,0.3-0.12
			c0.26-0.09,0.53-0.17,0.81-0.23c0.08-0.02,0.16-0.04,0.24-0.05C1100.39,111.41,1099.19,111.35,1097.99,111.63"/>
		<path class="st31" d="M1097.06,114.22c-0.11,0.12-0.21,0.23-0.31,0.36c-0.05,0.06-0.11,0.12-0.16,0.19
			c-0.11,0.14-0.22,0.29-0.32,0.44c-0.59,0.86-1.02,1.83-1.26,2.85c0.48,0.3,1.07,0.42,1.66,0.29c1.17-0.27,1.91-1.44,1.64-2.61
			C1098.15,115.03,1097.67,114.48,1097.06,114.22"/>
		<path class="st32" d="M1095.7,114.09c-1.17,0.27-1.91,1.44-1.64,2.61c0.13,0.58,0.49,1.05,0.95,1.35
			c0.24-1.03,0.67-1.99,1.26-2.85c0.1-0.15,0.21-0.3,0.32-0.44c0.05-0.06,0.11-0.12,0.16-0.19c0.1-0.12,0.2-0.24,0.31-0.36
			C1096.65,114.04,1096.17,113.98,1095.7,114.09"/>
		<path class="st31" d="M1102.98,119.75c-0.64,0.15-1.04,0.78-0.89,1.42c0.15,0.64,0.78,1.04,1.42,0.89
			c0.64-0.15,1.03-0.78,0.89-1.42C1104.25,120,1103.62,119.6,1102.98,119.75"/>
		<path class="st5" d="M1113.51,103.03l-22.76,5.23l-0.48-2.1l-6.49,1.49l0.48,2.1l-4.34,1c-1.27,0.29-2.05,1.55-1.76,2.82
			l0.77,3.33l13.76-3.16c1.13-1.73,2.91-3.05,5.08-3.55c2.17-0.5,4.35-0.09,6.13,0.97l13.2-3.04l-0.77-3.33
			C1116.04,103.53,1114.77,102.74,1113.51,103.03z M1087.73,114.39l-6.68,1.54l-0.88-3.82l6.68-1.54L1087.73,114.39z M1113.79,108.4
			c-1.11,0.25-2.2-0.39-2.44-1.45c-0.24-1.05,0.46-2.11,1.57-2.37c1.11-0.25,2.2,0.39,2.44,1.45
			C1115.6,107.08,1114.89,108.14,1113.79,108.4z"/>
		<path class="st5" d="M1094.96,113.21l6.45-1.48c-1.08-0.32-2.25-0.37-3.42-0.1C1096.82,111.9,1095.79,112.46,1094.96,113.21z"/>
		<path class="st5" d="M1084.92,132.52l33.6-7.72c1.26-0.29,2.05-1.55,1.76-2.82l-0.14-0.61l-15.54,3.57
			c-0.9,0.67-1.95,1.18-3.11,1.44c-1.16,0.27-2.33,0.27-3.43,0.06l-16.1,3.7l0.14,0.61
			C1082.39,132.02,1083.65,132.81,1084.92,132.52z"/>
	</g>
	<g>
		<path class="st33" d="M861.45,122.87c-6.1-2.62-8.93-9.71-6.31-15.8c2.62-6.1,9.71-8.93,15.81-6.31c6.1,2.62,8.93,9.71,6.31,15.8
			C874.63,122.66,867.54,125.49,861.45,122.87 M861.89,121.83c5.52,2.37,11.94-0.19,14.31-5.71c2.37-5.52-0.19-11.94-5.71-14.31
			c-5.52-2.37-11.94,0.19-14.31,5.71C853.81,113.04,856.37,119.46,861.89,121.83"/>
		<path class="st34" d="M861.03,102.23c-2.1,1.13-3.84,2.94-4.85,5.29c-0.5,1.16-0.78,2.36-0.86,3.55
			c-0.09,4.31,2.39,8.46,6.6,10.27c0.13,0.05,0.25,0.11,0.38,0.16c-2.68-2.4-4.14-5.91-3.99-9.49c0-1.58,0.31-3.18,0.97-4.72
			c0.33-0.77,0.73-1.49,1.2-2.15c-0.05-0.82,0.37-1.63,1.14-2.04c0.31-0.17,0.64-0.25,0.97-0.26c0.64-0.54,1.32-1,2.05-1.39
			c0.34-0.18,0.68-0.35,1.04-0.5C864.04,101.01,862.45,101.46,861.03,102.23"/>
		<path class="st35" d="M864.64,101.43c-0.73,0.39-1.41,0.86-2.05,1.39c0.79-0.02,1.56,0.4,1.96,1.14c0.57,1.05,0.17,2.36-0.88,2.93
			c-1.05,0.57-2.36,0.17-2.93-0.88c-0.15-0.28-0.23-0.59-0.25-0.89c-0.46,0.66-0.87,1.38-1.2,2.15c-0.66,1.54-0.97,3.14-0.97,4.72
			c-0.15,3.59,1.31,7.09,3.99,9.49c3.06,1.18,6.37,0.88,9.08-0.58c2.1-1.13,3.84-2.94,4.85-5.29c0.5-1.16,0.78-2.36,0.86-3.56
			c0.09-4.31-2.39-8.46-6.59-10.26c-1.57-0.67-3.22-0.95-4.82-0.87C865.32,101.08,864.97,101.25,864.64,101.43"/>
		<path class="st36" d="M861.05,101.73c-2.1,1.13-3.84,2.94-4.85,5.29c-0.57,1.32-0.85,2.69-0.88,4.05
			c0.08-1.19,0.36-2.39,0.86-3.55c1.01-2.35,2.75-4.17,4.85-5.29c1.43-0.77,3.01-1.21,4.64-1.29c1.6-0.08,3.25,0.2,4.82,0.87
			c4.2,1.8,6.69,5.95,6.59,10.26c0.3-4.49-2.21-8.89-6.57-10.76C867.35,99.94,863.88,100.21,861.05,101.73"/>
		<path class="st37" d="M894.71,127.26c0.69,0.3,1.49-0.02,1.79-0.72l1.58-3.67c0.3-0.69-0.02-1.49-0.71-1.79l-18.41-6.92
			c-0.69-0.3-1.49,0.02-1.79,0.71l-0.86,2c-0.3,0.69,0.02,1.49,0.71,1.79L894.71,127.26z"/>
		
			<linearGradient id="SVGID_00000057121679954738415850000000036648012629407376_" gradientUnits="userSpaceOnUse" x1="889.8371" y1="102.0738" x2="894.1552" y2="102.0738" gradientTransform="matrix(0.985 -0.1727 0.1727 0.985 -18.0015 170.0917)">
			<stop  offset="0" style="stop-color:#404F5E"/>
			<stop  offset="1" style="stop-color:#26282A"/>
		</linearGradient>
		<path style="fill:url(#SVGID_00000057121679954738415850000000036648012629407376_);" d="M877.16,114.89
			c0.3-0.69,1.1-1.01,1.79-0.71l1.11,0.42l-1.98,4.6l-1.07-0.52c-0.69-0.3-1.01-1.1-0.71-1.79L877.16,114.89z"/>
		<path class="st39" d="M861.47,122.38c-6.1-2.62-8.93-9.71-6.31-15.8s9.71-8.93,15.81-6.31c6.1,2.62,8.93,9.71,6.31,15.8
			C874.65,122.16,867.56,124.99,861.47,122.38 M861.92,121.33c5.52,2.37,11.94-0.19,14.31-5.71c2.37-5.52-0.19-11.94-5.71-14.31
			c-5.52-2.37-11.94,0.19-14.31,5.71C853.83,112.54,856.39,118.96,861.92,121.33"/>
		<path class="st40" d="M861.62,103.08c-0.77,0.41-1.19,1.22-1.14,2.04c0.61-0.87,1.32-1.64,2.1-2.3
			C862.26,102.83,861.92,102.91,861.62,103.08"/>
		<path class="st41" d="M862.58,102.82c-0.79,0.66-1.5,1.43-2.1,2.3c0.02,0.3,0.1,0.6,0.25,0.89c0.57,1.05,1.88,1.45,2.93,0.88
			c1.05-0.57,1.45-1.88,0.88-2.93C864.14,103.22,863.37,102.8,862.58,102.82"/>
	</g>
	<g>
		<path class="st5" d="M1111.66,19.5c2.45,10.68-4.21,21.32-14.89,23.77c-10.68,2.45-21.32-4.21-23.77-14.89
			c-2.45-10.68,4.21-21.32,14.89-23.77C1098.56,2.16,1109.21,8.83,1111.66,19.5z"/>
		
			<linearGradient id="SVGID_00000163046584067173958390000013282157022406411435_" gradientUnits="userSpaceOnUse" x1="1113.9568" y1="13.5824" x2="1122.7699" y2="74.6449" gradientTransform="matrix(0.985 -0.1727 0.1727 0.985 -18.0015 170.0917)">
			<stop  offset="2.237672e-07" style="stop-color:#F3719C"/>
			<stop  offset="1" style="stop-color:#FF9373"/>
		</linearGradient>
		<path style="fill:url(#SVGID_00000163046584067173958390000013282157022406411435_);" d="M1109.07,20.1
			c2.12,9.24-3.65,18.46-12.89,20.58c-9.24,2.12-18.46-3.65-20.58-12.89c-2.12-9.24,3.65-18.46,12.89-20.58
			C1097.73,5.09,1106.94,10.86,1109.07,20.1z"/>
		<path class="st5" d="M1090.42,9.96c0.16,0.68-0.27,1.37-0.95,1.52c-0.68,0.16-1.36-0.27-1.52-0.95c-0.16-0.68,0.27-1.37,0.95-1.52
			C1089.58,8.85,1090.26,9.28,1090.42,9.96z"/>
		<path class="st5" d="M1096.72,37.36c0.16,0.68-0.27,1.36-0.95,1.52c-0.68,0.16-1.36-0.27-1.52-0.95
			c-0.16-0.68,0.27-1.36,0.95-1.52C1095.88,36.25,1096.56,36.68,1096.72,37.36z"/>
		<path class="st5" d="M1078.34,25.86c0.68-0.16,1.36,0.27,1.52,0.95s-0.27,1.37-0.95,1.52c-0.68,0.16-1.36-0.27-1.52-0.95
			C1077.23,26.7,1077.66,26.02,1078.34,25.86z"/>
		<path class="st5" d="M1105.75,19.56c0.68-0.16,1.36,0.27,1.52,0.95s-0.27,1.37-0.95,1.52c-0.68,0.16-1.37-0.27-1.52-0.95
			S1105.06,19.72,1105.75,19.56z"/>
		
			<rect x="1090.86" y="13.04" transform="matrix(0.9746 -0.224 0.224 0.9746 23.5359 244.9463)" class="st37" width="0.73" height="11.43"/>
		<polygon class="st37" points="1104.83,31.49 1105.05,31.62 1092.75,23.92 1092.53,23.78 		"/>
	</g>
	<g>
		
			<rect x="1119.81" y="165.41" transform="matrix(0.9746 -0.224 0.224 0.9746 -9.0178 255.4673)" class="st5" width="2.99" height="4.14"/>
		
			<rect x="1120.73" y="169.39" transform="matrix(0.9746 -0.224 0.224 0.9746 -9.8881 255.774)" class="st23" width="2.99" height="4.14"/>
		
			<rect x="1121.64" y="173.38" transform="matrix(0.9746 -0.224 0.224 0.9746 -10.7584 256.0809)" class="st43" width="2.99" height="4.14"/>
		
			<rect x="1122.56" y="177.37" transform="matrix(0.9746 -0.224 0.224 0.9746 -11.6286 256.3876)" class="st21" width="2.99" height="4.14"/>
		<path class="st44" d="M1126.3,190.75c0.52,2.27-0.9,4.54-3.17,5.06l-17.84,4.1c-2.27,0.52-4.54-0.9-5.06-3.17l-6.09-26.5
			c-0.52-2.27,0.9-4.54,3.17-5.06l17.84-4.1c2.27-0.52,4.54,0.9,5.06,3.17L1126.3,190.75"/>
		<polyline class="st5" points="1114.84,171.17 1103,173.89 1102.39,171.24 1114.23,168.51 1114.84,171.17 		"/>
		<polyline class="st5" points="1115.83,175.46 1103.99,178.18 1103.38,175.52 1115.22,172.8 1115.83,175.46 		"/>
		<polyline class="st5" points="1116.81,179.75 1104.98,182.47 1104.37,179.81 1116.2,177.09 1116.81,179.75 		"/>
		<path class="st5" d="M1097.9,174.48c0.09,0.4-0.16,0.8-0.56,0.9l-2.66,0.61c-0.4,0.09-0.8-0.16-0.9-0.56
			c-0.09-0.4,0.16-0.8,0.56-0.9l2.66-0.61C1097.41,173.83,1097.81,174.08,1097.9,174.48"/>
		<path class="st5" d="M1098.87,178.68c0.09,0.4-0.16,0.8-0.56,0.9l-2.66,0.61c-0.4,0.09-0.8-0.16-0.9-0.56
			c-0.09-0.4,0.16-0.8,0.56-0.9l2.66-0.61C1098.37,178.03,1098.78,178.28,1098.87,178.68"/>
		<path class="st5" d="M1099.83,182.89c0.09,0.4-0.16,0.8-0.56,0.9l-2.66,0.61c-0.4,0.09-0.8-0.16-0.9-0.56
			c-0.09-0.4,0.16-0.8,0.56-0.9l2.66-0.61C1099.34,182.23,1099.74,182.48,1099.83,182.89"/>
		<path class="st5" d="M1100.8,187.09c0.09,0.4-0.16,0.8-0.56,0.9l-2.66,0.61c-0.4,0.09-0.8-0.16-0.9-0.56
			c-0.09-0.4,0.16-0.8,0.56-0.9l2.66-0.61C1100.31,186.43,1100.71,186.69,1100.8,187.09"/>
		<path class="st5" d="M1101.77,191.29c0.09,0.4-0.16,0.8-0.56,0.9l-2.66,0.61c-0.4,0.09-0.8-0.16-0.9-0.56
			c-0.09-0.4,0.16-0.8,0.56-0.9l2.66-0.61C1101.27,190.64,1101.67,190.89,1101.77,191.29"/>
		<path class="st5" d="M1102.73,195.49c0.09,0.4-0.16,0.8-0.56,0.9l-2.66,0.61c-0.4,0.09-0.8-0.16-0.9-0.56
			c-0.09-0.4,0.16-0.8,0.56-0.9l2.66-0.61C1102.24,194.84,1102.64,195.09,1102.73,195.49"/>
		<path class="st45" d="M1107.02,162.95l-9.72,2.23l0,0c-0.01,0-0.02,0-0.02,0.01c0,0,0,0,0,0c0,0-0.01,0-0.01,0c0,0,0,0-0.01,0
			c0,0,0,0-0.01,0s0,0-0.01,0s0,0-0.01,0c0,0,0,0-0.01,0c0,0,0,0-0.01,0c0,0,0,0-0.01,0c0,0,0,0-0.01,0c0,0-0.01,0-0.01,0
			c0,0,0,0-0.01,0c0,0,0,0-0.01,0c0,0,0,0-0.01,0c0,0,0,0-0.01,0c0,0,0,0-0.01,0c0,0,0,0-0.01,0c0,0,0,0-0.01,0c0,0,0,0-0.01,0
			c0,0-0.01,0-0.01,0c0,0,0,0,0,0c0,0-0.01,0-0.01,0c0,0,0,0,0,0c0,0-0.01,0-0.01,0c0,0,0,0,0,0c0,0-0.01,0-0.01,0c0,0,0,0,0,0
			c0,0-0.01,0-0.01,0l0,0c0,0-0.01,0-0.01,0l0,0c-0.01,0-0.02,0-0.02,0.01c0,0,0,0,0,0c-2.1,0.62-3.39,2.75-2.94,4.91l1.93-0.44
			c0.4-0.09,0.8,0.16,0.9,0.56l0,0l0,0c0.09,0.4-0.16,0.8-0.56,0.9l-1.93,0.44l0.63,2.74l1.93-0.44c0.4-0.09,0.8,0.16,0.9,0.56l0,0
			l0,0c0.09,0.4-0.16,0.8-0.56,0.9l-1.93,0.44l0.63,2.74l1.93-0.44c0.4-0.09,0.8,0.16,0.9,0.56l0,0l0,0c0.09,0.4-0.16,0.8-0.56,0.9
			l-1.93,0.44l0.63,2.74l1.93-0.44c0.4-0.09,0.8,0.16,0.9,0.56l0,0l0,0c0.09,0.4-0.16,0.8-0.56,0.9l-1.93,0.44l0.63,2.74l1.93-0.44
			c0.4-0.09,0.8,0.16,0.9,0.56l0,0l0,0c0.09,0.4-0.16,0.8-0.56,0.9l-1.93,0.44l0.63,2.75l1.93-0.44c0.4-0.09,0.8,0.16,0.9,0.56l0,0
			l0,0c0.09,0.4-0.16,0.8-0.56,0.9l-1.93,0.44l0.63,2.75l1.93-0.44c0.4-0.09,0.8,0.16,0.9,0.56l0,0l0,0c0.09,0.4-0.16,0.8-0.56,0.9
			l-1.93,0.44c0.55,2.16,2.67,3.53,4.86,3.12l0,0c0,0,0.01,0,0.01,0c0,0,0,0,0,0c0,0,0.01,0,0.01,0c0,0,0,0,0,0c0,0,0.01,0,0.01,0
			c0,0,0,0,0,0c0,0,0.01,0,0.01,0c0,0,0,0,0,0c0,0,0.01,0,0.01,0c0,0,0,0,0,0c0,0,0.01,0,0.01,0c0,0,0,0,0.01,0c0,0,0,0,0.01,0
			c0,0,0,0,0.01,0c0,0,0,0,0.01,0c0,0,0,0,0,0c0,0,0.01,0,0.01,0c0,0,0,0,0,0c0,0,0.01,0,0.01,0c0,0,0,0,0.01,0c0,0,0,0,0.01,0
			c0,0,0,0,0,0c0,0,0.01,0,0.01,0c0,0,0,0,0,0c0.01,0,0.02,0,0.03-0.01l9.72-2.23l-3.83-16.64l-6.2,1.43l-0.61-2.66l6.2-1.43
			l-0.37-1.63l-6.2,1.43l-0.61-2.66l6.2-1.43l-0.37-1.63l-6.2,1.43l-0.61-2.66l6.2-1.43L1107.02,162.95"/>
		
			<rect x="1102.62" y="170.49" transform="matrix(0.9746 -0.224 0.224 0.9746 -10.3926 252.1047)" class="st5" width="6.36" height="2.73"/>
		
			<rect x="1103.6" y="174.78" transform="matrix(0.9746 -0.224 0.224 0.9746 -11.3284 252.4346)" class="st5" width="6.36" height="2.73"/>
		
			<rect x="1104.59" y="179.06" transform="matrix(0.9746 -0.224 0.224 0.9746 -12.2641 252.7645)" class="st5" width="6.36" height="2.73"/>
		<path class="st5" d="M1097.9,174.48c-0.09-0.4-0.49-0.65-0.9-0.56l-1.93,0.44l-0.73,0.17c-0.4,0.09-0.65,0.49-0.56,0.9
			c0.09,0.4,0.49,0.65,0.9,0.56l0.73-0.17l1.93-0.44C1097.74,175.28,1097.99,174.88,1097.9,174.48z"/>
		<path class="st5" d="M1098.87,178.68c-0.09-0.4-0.49-0.65-0.9-0.56l-1.93,0.44l-0.73,0.17c-0.4,0.09-0.65,0.49-0.56,0.9
			c0.09,0.4,0.49,0.65,0.9,0.56l0.73-0.17l1.93-0.44C1098.71,179.49,1098.96,179.09,1098.87,178.68z"/>
		<path class="st5" d="M1099.83,182.89c-0.09-0.4-0.49-0.65-0.9-0.56l-1.93,0.44l-0.73,0.17c-0.4,0.09-0.65,0.49-0.56,0.9
			c0.09,0.4,0.49,0.65,0.9,0.56l0.73-0.17l1.93-0.44C1099.68,183.69,1099.93,183.29,1099.83,182.89z"/>
		<path class="st5" d="M1100.8,187.09c-0.09-0.4-0.49-0.65-0.9-0.56l-1.93,0.44l-0.73,0.17c-0.4,0.09-0.65,0.49-0.56,0.9
			c0.09,0.4,0.49,0.65,0.9,0.56l0.73-0.17l1.93-0.44C1100.64,187.89,1100.89,187.49,1100.8,187.09z"/>
		<path class="st5" d="M1101.77,191.29c-0.09-0.4-0.49-0.65-0.9-0.56l-1.93,0.44l-0.73,0.17c-0.4,0.09-0.65,0.49-0.56,0.9
			c0.09,0.4,0.49,0.65,0.9,0.56l0.73-0.17l1.93-0.44C1101.61,192.1,1101.86,191.69,1101.77,191.29z"/>
		<path class="st5" d="M1102.73,195.49c-0.09-0.4-0.49-0.65-0.9-0.56l-1.93,0.44l-0.73,0.17c-0.4,0.09-0.65,0.49-0.56,0.9
			c0.09,0.4,0.49,0.65,0.9,0.56l0.73-0.17l1.93-0.44C1102.57,196.3,1102.83,195.9,1102.73,195.49z"/>
	</g>
	<g>
		<path class="st46" d="M865.68,368.25c0,0-6.64-2.07-8.14-3.01s-14.13-10.1-16.4-8.81c-2.27,1.29-4.21,7.38-5.82,12.63
			c-1.62,5.25-7.66,16.91-8.35,23.99c-0.68,7.09,2.26,5.38,3.26,4.13c0.99-1.26,10.21-10.3,15.01-13.98
			c4.8-3.67,7.07-4.96,7.07-4.96l10.46,1.96L865.68,368.25z"/>
		<path class="st47" d="M853.88,362.76c-4.37-2.94-11.13-7.23-12.74-6.32c-2.27,1.29-4.21,7.38-5.82,12.63
			c-1.62,5.25-7.66,16.91-8.35,23.99c-0.68,7.09,2.26,5.38,3.26,4.13c0.99-1.26,10.21-10.3,15.01-13.98
			c2.05-1.56,3.63-2.69,4.78-3.48l-5.62-3.52C844.41,376.22,849.49,367.23,853.88,362.76z"/>
		<path class="st46" d="M844.45,357.13c-0.15-0.07-0.3-0.14-0.44-0.2c-0.03-0.01-0.06-0.03-0.09-0.04
			c-0.22-0.09-0.44-0.17-0.64-0.25c-0.06-0.02-0.11-0.04-0.17-0.06c-0.16-0.05-0.31-0.1-0.46-0.14c-0.05-0.01-0.09-0.03-0.14-0.04
			c-0.18-0.04-0.35-0.07-0.5-0.09c-0.03,0-0.06,0-0.09-0.01c-0.12-0.01-0.24-0.01-0.34,0c-0.04,0-0.07,0.01-0.11,0.01
			c-0.12,0.02-0.23,0.05-0.32,0.1c-2.27,1.29-4.21,7.38-5.82,12.63c-1.62,5.25-7.66,16.91-8.35,23.99c-0.29,3.05,0.09,4.47,0.69,5
			c0.59-7.11,5.88-18.59,10.48-27.84C841.5,363.49,843.43,359.38,844.45,357.13z"/>
	</g>
	<g>
		<path class="st47" d="M1142.06,319.29c0,0,11.06-11.4,13.73-14.96c2.67-3.56,6.3-7.62,7.79-5.81c1.49,1.8,2.13,8.1,0.38,16.82
			c-1.75,8.72-8.35,22.04-8.88,23.24c-0.53,1.2-0.59,4.43-4.36,5.56c-3.76,1.13-13.52-6.28-13.52-6.28L1142.06,319.29z"/>
		<path class="st46" d="M1150.72,344.13c3.76-1.13,3.83-4.37,4.36-5.56c0.53-1.2,7.13-14.52,8.88-23.24
			c1.75-8.72,1.11-15.01-0.38-16.82c-0.29-0.35-0.66-0.47-1.08-0.43c0.28,2.63,0.5,7.54-0.58,14.23c-1.14,7.11-8.1,22.85-12.3,31.91
			C1150.02,344.24,1150.4,344.23,1150.72,344.13z"/>
	</g>
	<path class="st48" d="M903.87,267.53c0,0-3.13,6.36-0.76,13.96c2.37,7.6,21.97,18.34,21.97,18.34s4.27-11.42,9.43-18.04
		c5.16-6.62,14.37-12.91,14.37-12.91l49.93,4.6c0,0,15.76-15.94,16.24-28.38c0.48-12.43-13.12-37.08-18.5-42.32
		c-5.38-5.24-8.84-10.29-8.84-10.29l-61.47,23.32c0,0,3.53,9-3.37,21.66C915.95,250.13,903.87,267.53,903.87,267.53z"/>
	
		<linearGradient id="SVGID_00000039844587732158556580000005717861514440517298_" gradientUnits="userSpaceOnUse" x1="749.7287" y1="303.1588" x2="1039.5605" y2="303.1588" gradientTransform="matrix(0.9746 -0.224 0.224 0.9746 53.3126 223.266)">
		<stop  offset="0" style="stop-color:#404F5E"/>
		<stop  offset="1" style="stop-color:#26282A"/>
	</linearGradient>
	<path style="fill:url(#SVGID_00000039844587732158556580000005717861514440517298_);" d="M940.57,270.71c0,0-0.53,21.05,2.56,28.66
		c3.09,7.61,7.95,12.39,7.95,12.39l-1.06,46.46l-90.05,1.99l-1.86,17.6c0,0,57.45,0.94,79.3,2.63c21.85,1.68,34.06,3.44,35.92,2.21
		c1.86-1.23,3.37-4,3.37-4l11.15-66.75l60.55-9.54c0,0,21.67,11.39,38.09,18.61c16.42,7.23,51.66,19.89,51.66,19.89
		s3.86-3.03,4.16-8.74c0.3-5.7-0.26-12.82-0.26-12.82s-3.45-2.16-5.72-2.71c-2.27-0.55-4.9,0.86-6.8,0.76
		c-1.9-0.1-50.96-29.71-56.55-32.99c-5.58-3.28-13.79-12.12-21-13.15c-7.21-1.03-54.82-1.7-54.82-1.7l-2.29-6.45
		C971.71,264.55,952.91,266.96,940.57,270.71z"/>
	<g>
		<path class="st46" d="M932.04,232.42c0,0,6.99,25.76,6.92,26.58c-0.08,0.82,1.99,17.07,1.99,17.07
			c17.72-4.77,36.17-7.97,55.78-8.61l-1.04-66.31l-12.67-37.6l-59.79,18.84L932.04,232.42z"/>
		<g>
			<path class="st50" d="M969.97,230.18c1.53-1.79,2.48-2.91,2.48-2.91"/>
			<path class="st50" d="M940.59,264.21c0,0,5.45-7.44,8.66-10.45c2.19-2.05,12.16-13.6,18.3-20.75"/>
			<path class="st50" d="M969.87,217.45c0,0-12.64,21.46-19.35,30.49"/>
			<path class="st50" d="M974.81,256.21c-5.53,2.97-12.51,6.71-17.62,9.4"/>
			<path class="st50" d="M983.85,251.34c0,0-2.28,1.23-5.66,3.05"/>
		</g>
	</g>
	<g>
		<g>
			<g>
				<path class="st46" d="M1058.1,70.84l7.39-22.37c0,0,3.11-10.11,3.82-8.81c0.72,1.3,0.96,1.45,0.53,3.22
					c-0.43,1.77-1.15,11.33-1.15,11.33l6.68-10.93c0,0,2.26-1.98,2.27-0.1c0.01,1.88-4.01,10.74-4.01,10.74s9.36-6.54,10.03-5.44
					s-7.94,9.97-7.94,9.97s10.41-1.97,10.48-0.74c0.08,1.24-8.47,4.04-8.47,4.04s-0.6,2.85-4.58,7.32
					c-3.99,4.47-7.48,6.52-7.48,6.52L1058.1,70.84z"/>
				<path class="st46" d="M1062.32,64.65c0,0,5.13-2.22,8.66-5.96c3.53-3.73,6.75-6.98,7.07-5.59c0.32,1.39-3.53,6.45-4.03,6.98
					c-0.5,0.53-0.81,3.74-2.2,6.77c-1.39,3.03-6.25,6.45-6.25,6.45"/>
			</g>
			<polygon class="st46" points="1053.57,75.65 1058.64,68.63 1068.41,76.62 1063.8,82.9 			"/>
		</g>
		
			<linearGradient id="SVGID_00000146462929609005609410000001370991256604356525_" gradientUnits="userSpaceOnUse" x1="908.5155" y1="158.4839" x2="1017.4666" y2="158.4839" gradientTransform="matrix(0.9746 -0.224 0.224 0.9746 53.3126 223.266)">
			<stop  offset="2.237672e-07" style="stop-color:#F3719C"/>
			<stop  offset="1" style="stop-color:#FF9373"/>
		</linearGradient>
		<path style="fill:url(#SVGID_00000146462929609005609410000001370991256604356525_);" d="M979.69,177.63c0,0,0.67,3.81,8.73,16.16
			c8.06,12.35,19.83,34.5,22.77,40.92c2.94,6.43,3.85,10.39,3.85,10.39s2.59-16.89-1.25-32.71c-3.85-15.82-18.08-35.94-18.08-35.94
			s28.83-30.85,33.64-37.18c4.81-6.33,36-55.06,36-55.06l-11.79-8.57l-38.59,42.91l-34.52,28.82c0,0-6.89,6.39-7.57,8.84
			c-0.69,2.46-0.83,10.01,0.07,12.1C973.85,170.41,979.69,177.63,979.69,177.63z"/>
		<path class="st50" d="M993.68,196.13c1.02,1.38,1.96,2.27,2.15,2.64"/>
		<path class="st50" d="M976.91,160.1l10.97,15.02l-6.87,0.12l9,4.61c0,0-0.11,5.87,0.98,10.63c0.37,1.59,0.98,2.96,1.66,4.11"/>
		<line class="st50" x1="1001.55" y1="143.46" x2="1002.34" y2="139.01"/>
		<polyline class="st50" points="989.2,149.96 995.71,176.45 1000.79,147.75 		"/>
	</g>
	<path class="st52" d="M962.1,183.41l8.89,7.31c0,0,1.91-1.02,4.05-4.44c2.14-3.42,3.55-9.98,3.67-11.18
		c0.11-1.2-4.54-3.64-4.54-3.64l-18.35,5L962.1,183.41z"/>
	<g>
		<g>
			
				<linearGradient id="SVGID_00000076575008922214456830000008790307322529180573_" gradientUnits="userSpaceOnUse" x1="785.0253" y1="196.9213" x2="888.2256" y2="196.9213" gradientTransform="matrix(0.9746 -0.224 0.224 0.9746 53.3126 223.266)">
				<stop  offset="2.237672e-07" style="stop-color:#F3719C"/>
				<stop  offset="1" style="stop-color:#FF9373"/>
			</linearGradient>
			<path style="fill:url(#SVGID_00000076575008922214456830000008790307322529180573_);" d="M941.82,166.43l-4.92,4.95
				c0,0-23.21,5.34-24.43,7.29c-1.22,1.95-36.43,51.4-36.37,53.47c0.06,2.07-3.04,53.12-3.04,53.12l16.44,2.49l10.14-50.37
				l22.43-18.73c0,0,1.06,6.44-2.09,16.35c-3.15,9.91-16.12,32.53-16.12,32.53s14.23-18.94,23.81-26.36s16.95-6.19,23.02-18.87
				c6.07-12.67,8.82-22.49,6.66-30.98C955.2,182.84,941.82,166.43,941.82,166.43z"/>
			<path class="st50" d="M922.08,218.65c0,0,0.16-5.68-3.08-14.33"/>
			<path class="st50" d="M948.85,220.38c-0.73,2.35-1.25,3.89-1.25,3.89"/>
			<path class="st50" d="M938.71,172.01l5.5,12.1l6.68,1.81l-4.24,2.44c0,0,7.25,10.65,5.72,18.53c-0.69,3.56-1.74,7.47-2.67,10.67"
				/>
		</g>
		<polygon class="st46" points="873.06,285.26 872.35,293.11 886.98,295.53 886.95,287.74 		"/>
		<g>
			<polygon class="st54" points="869.74,306.57 867.64,314.63 870.33,315.33 871.57,310.59 890.6,315.57 889.36,320.31 
				892.05,321.01 894.15,312.95 			"/>
			<path class="st55" d="M899.25,393.21l-73.21-19.14c-3.21-0.84-5.13-4.12-4.29-7.33l14.3-54.73c0.84-3.21,4.12-5.13,7.33-4.29
				l73.21,19.14c3.21,0.84,5.13,4.12,4.29,7.33l-14.3,54.73C905.74,392.12,902.46,394.04,899.25,393.21z"/>
		</g>
		<path class="st46" d="M886.98,295.53l4.71,8.47c0,0,0.67,5.12,1,6.56c0.33,1.43,4.2,4.06,2.69,5.16c-1.51,1.1-3.12,1.72-4.17,0.46
			c-1.05-1.27-2.31-3.49-2.31-3.49l-0.61,7.18c0,0-4.15-0.55-5.56-1.23c-1.41-0.68-2.05-4.56-2.05-4.56s-8.17-1.64-9.21-2.91
			c-1.05-1.27-1.43-6.21-1.43-6.21l2.3-11.84L886.98,295.53z"/>
	</g>
	<path class="st46" d="M944.33,162.93l-2.48,3.62l17.9,27.01l8.21-15.11C967.96,178.45,951.94,163.01,944.33,162.93z"/>
	<path class="st46" d="M974.68,176.23l7.37,7.47c0,0-2.9-10.06-6.55-16.63L974.68,176.23z"/>
	<path class="st52" d="M970.99,190.72c0,0-1.01,3.76-10.65,4.51c-9.64,0.75-23.53-8.79-32.78-8.13
		c-9.25,0.66-21.74,13.56-33.74,14.02c-12.01,0.46-24.28-2.98-24.28-2.98l-16.14,15.2c0,0,20.12,3.94,21.95,3.73
		c1.83-0.21,26.32-2.71,32.97-7.37c6.66-4.66,14.93-14.08,23.06-13.24c8.13,0.85,19.61,9.9,28.46,6.61
		C968.7,199.79,970.99,190.72,970.99,190.72z"/>
	<path class="st46" d="M946.74,114.23c0,0,11.56,1.9,12.69,3.65c1.13,1.75,3.19,15.03,3.19,15.03s2.26,0.97,2.29,3.51
		c0.04,2.54,6.29-3.01,6.29-3.01s3.35,5.06,4.92,8.71c1.57,3.65,1.66,5.63,0.97,8.16c-0.69,2.53-2.59,4.61-2.59,4.61
		s-2.19,11.08-2.73,16.67c-0.54,5.59-0.81,8.39-3.64,7.95c-2.84-0.44-4.45-1.89-4.45-1.89s-6.73-8.66-10.99-11.33
		c-4.26-2.67-7.81-3.86-8.41-4.08c-0.6-0.23-3.51-1.02-4.03-3.27s2.12-5.05,2.12-5.05s-8.52,1.78-12.34-8.47s3.83-22.21,6.79-25.99
		C939.77,115.65,946.74,114.23,946.74,114.23z"/>
	<g>
		<g>
			<path class="st56" d="M964.45,148.67c0.11-0.41,0.4-0.76,0.75-1c0.52-0.36,1.18-0.53,1.79-0.37s1.12,0.71,1.17,1.33l-0.1-0.13
				c0.22,0.56,0.1,1.24-0.28,1.71c-0.38,0.47-1.01,0.72-1.61,0.66c-0.6-0.06-1.16-0.42-1.48-0.93
				C964.45,149.56,964.34,149.1,964.45,148.67z"/>
		</g>
		<g>
			<path class="st57" d="M950.83,167.38c0,0-15.45-0.88-24.91-12.65c-9.46-11.76-1.85-16.3-1.85-16.3s-11.22-0.98-8.77-11.93
				c2.45-10.95,9.78-14.39,7.55-7.03c0,0,9-11.88,21.65-13.16c12.65-1.27,8.8-11.98,11.86-12.72c3.07-0.74,5.46,6.78,3.63,10.27
				c0,0,4.03-8.63,6.03-7.96c1.99,0.67,8.47,13.04,0.13,23.7c0,0,7.58,3.57,6.01,19.63C970.58,155.29,950.83,167.38,950.83,167.38z"
				/>
			<path class="st46" d="M962.74,122.27c8.76,10.57,16.75,21.28,14.87,33.74c-0.48,3.21-2.61,5.88-5.64,7.06
				c-5.88,2.28-16.86,4.21-28.28-5.84c0,0-1.16,3.73-7.29-0.17c-6.13-3.9-5.63-6.65-3.54-8.43c2.09-1.78,9.67,4.26,9.67,4.26
				s4.09-8.77-4.72-18.09c0,0,6.92,0.23,10.15-1.64c3.23-1.87-2.71-4.69-2.71-4.69S954.09,132.04,962.74,122.27z"/>
		</g>
		<g>
			<g>
				<g>
					<g>
						<g>
							<g>
								<g>
									<g>
										<g>
											<g>
												<g>
													<g>
														<g>
															<g>
																<g>
																	<g>
																		<g>
																			<g>
																				<g>
																					<path class="st58" d="M968.69,133.42c0.37,0.6,0.16,1.41-0.46,1.81c-0.62,0.4-1.42,0.23-1.79-0.37
																						c-0.37-0.6-0.16-1.41,0.46-1.81C967.52,132.66,968.32,132.82,968.69,133.42z"/>
																				</g>
																			</g>
																		</g>
																	</g>
																</g>
															</g>
														</g>
													</g>
												</g>
											</g>
										</g>
									</g>
									<g>
										<g>
											<g>
												<g>
													<g>
														<g>
															<g>
																<g>
																	<g>
																		<g>
																			<g>
																				<g>
																					<g>
																						<path class="st58" d="M967.73,131.23c-0.01,0.25-1.33,0.24-2.45,1.14c-1.13,0.88-1.44,2.18-1.68,2.13
																							c-0.11-0.02-0.2-0.4-0.08-0.97c0.12-0.57,0.49-1.33,1.2-1.89c0.7-0.56,1.52-0.74,2.1-0.72
																							C967.4,130.93,967.74,131.11,967.73,131.23z"/>
																					</g>
																				</g>
																			</g>
																		</g>
																	</g>
																</g>
															</g>
														</g>
													</g>
												</g>
											</g>
										</g>
									</g>
								</g>
								<g>
									<g>
										<g>
											<g>
												<g>
													<g>
														<g>
															<g>
																<g>
																	<g>
																		<g>
																			<g>
																				<g>
																					<path class="st58" d="M956.68,140.82c0.37,0.6,0.16,1.41-0.46,1.81c-0.62,0.4-1.42,0.23-1.79-0.37
																						c-0.37-0.6-0.16-1.41,0.46-1.81C955.51,140.05,956.31,140.21,956.68,140.82z"/>
																				</g>
																			</g>
																		</g>
																	</g>
																</g>
															</g>
														</g>
													</g>
												</g>
											</g>
										</g>
									</g>
									<g>
										<g>
											<g>
												<g>
													<g>
														<g>
															<g>
																<g>
																	<g>
																		<g>
																			<g>
																				<g>
																					<g>
																						<path class="st58" d="M955.92,138.69c-0.06,0.27-1.5,0.09-2.92,0.9c-1.43,0.79-2.05,2.13-2.31,2.04
																							c-0.12-0.04-0.14-0.45,0.13-1.04c0.26-0.59,0.83-1.35,1.72-1.85c0.89-0.5,1.82-0.59,2.45-0.5
																							C955.63,138.33,955.96,138.56,955.92,138.69z"/>
																					</g>
																				</g>
																			</g>
																		</g>
																	</g>
																</g>
															</g>
														</g>
													</g>
												</g>
											</g>
										</g>
									</g>
								</g>
								<g>
									<g>
										<g>
											<g>
												<g>
													<g>
														<g>
															<g>
																<g>
																	<g>
																		<g>
																			<g>
																				<g>
																					<path class="st58" d="M964.79,145.05c-0.05-0.07,0.66-0.64,1.83-1.51c0.3-0.21,0.57-0.45,0.5-0.7
																						c-0.05-0.27-0.38-0.54-0.75-0.83c-0.74-0.61-1.51-1.24-2.32-1.9c-3.27-2.73-5.83-5.05-5.72-5.18
																						c0.11-0.13,2.85,1.97,6.12,4.7c0.8,0.68,1.56,1.32,2.29,1.94c0.33,0.3,0.77,0.59,0.87,1.16
																						c0.05,0.29-0.09,0.59-0.26,0.76c-0.17,0.18-0.35,0.28-0.5,0.38C965.62,144.67,964.83,145.12,964.79,145.05z"/>
																				</g>
																			</g>
																		</g>
																	</g>
																</g>
															</g>
														</g>
													</g>
												</g>
											</g>
										</g>
									</g>
								</g>
							</g>
						</g>
					</g>
					<g>
						<g>
							<g>
								<g>
									<g>
										<g>
											<g>
												<g>
													<g>
														<g>
															<g>
																<g>
																	<path class="st58" d="M954.92,135.54c0.02,0.42-1.38,0.79-2.87,1.62c-1.5,0.8-2.57,1.77-2.91,1.53
																		c-0.16-0.12-0.08-0.55,0.29-1.11c0.36-0.56,1.03-1.22,1.92-1.71c0.89-0.49,1.81-0.69,2.48-0.69
																		C954.5,135.18,954.9,135.35,954.92,135.54z"/>
																</g>
															</g>
														</g>
													</g>
												</g>
											</g>
										</g>
									</g>
								</g>
							</g>
						</g>
					</g>
					<g>
						<g>
							<g>
								<g>
									<g>
										<g>
											<g>
												<g>
													<g>
														<g>
															<g>
																<g>
																	<path class="st58" d="M965.88,127.94c-0.03,0.43-1.11,0.8-2.18,1.56c-1.09,0.73-1.83,1.61-2.23,1.49
																		c-0.19-0.07-0.24-0.44-0.03-0.97c0.2-0.53,0.7-1.21,1.44-1.72c0.74-0.51,1.55-0.74,2.11-0.74
																		C965.56,127.56,965.89,127.74,965.88,127.94z"/>
																</g>
															</g>
														</g>
													</g>
												</g>
											</g>
										</g>
									</g>
								</g>
							</g>
						</g>
					</g>
				</g>
			</g>
		</g>
		<g>
			<g>
				<g>
					<path class="st59" d="M958.54,139.22c-0.03,0.01-0.18-0.47-0.68-1.2c-0.5-0.72-1.46-1.68-2.98-2.14
						c-0.75-0.22-1.63-0.32-2.54-0.15c-0.9,0.17-1.85,0.55-2.63,1.24c-0.4,0.33-0.75,0.73-1.05,1.19c-0.3,0.45-0.54,0.96-0.68,1.5
						c-0.32,1.08-0.28,2.3,0.13,3.42c0.42,1.12,1.18,2.07,2.13,2.68c0.47,0.32,0.98,0.55,1.5,0.69c0.52,0.15,1.05,0.23,1.57,0.22
						c1.04,0.01,2.01-0.32,2.8-0.77c0.8-0.47,1.4-1.11,1.83-1.77c0.86-1.34,0.96-2.7,0.87-3.57
						C958.71,139.69,958.51,139.23,958.54,139.22c0.01,0,0.05,0.11,0.13,0.34c0.04,0.11,0.09,0.25,0.12,0.42
						c0.04,0.17,0.09,0.36,0.11,0.59c0.12,0.88,0.05,2.27-0.82,3.67c-0.43,0.68-1.05,1.36-1.87,1.85c-0.82,0.48-1.82,0.83-2.91,0.82
						c-0.54,0.01-1.09-0.06-1.63-0.22c-0.54-0.15-1.08-0.39-1.56-0.72c-0.99-0.63-1.79-1.63-2.23-2.8
						c-0.42-1.17-0.47-2.45-0.13-3.57c0.16-0.57,0.4-1.1,0.72-1.56c0.31-0.47,0.68-0.89,1.1-1.23c0.82-0.71,1.81-1.1,2.74-1.27
						c0.95-0.16,1.86-0.05,2.63,0.18c1.56,0.49,2.53,1.51,3.01,2.25c0.13,0.18,0.22,0.36,0.3,0.52c0.09,0.15,0.14,0.29,0.18,0.4
						C958.51,139.1,958.55,139.22,958.54,139.22z"/>
				</g>
			</g>
		</g>
		<g>
			<g>
				<g>
					<path class="st59" d="M972.28,131.04c-0.03,0.01-0.18-0.47-0.68-1.2c-0.5-0.72-1.46-1.68-2.98-2.14
						c-0.75-0.22-1.63-0.32-2.54-0.15c-0.9,0.17-1.85,0.55-2.63,1.24c-0.4,0.33-0.75,0.73-1.05,1.19c-0.3,0.45-0.54,0.96-0.68,1.5
						c-0.32,1.08-0.28,2.3,0.13,3.42c0.42,1.12,1.18,2.07,2.13,2.68c0.47,0.32,0.98,0.55,1.5,0.69c0.52,0.15,1.05,0.23,1.57,0.22
						c1.04,0.01,2.01-0.32,2.8-0.77c0.8-0.47,1.4-1.11,1.83-1.77c0.86-1.34,0.96-2.7,0.87-3.57
						C972.45,131.51,972.25,131.05,972.28,131.04c0.01,0,0.05,0.11,0.13,0.34c0.04,0.11,0.09,0.25,0.12,0.42
						c0.04,0.17,0.09,0.36,0.11,0.59c0.12,0.88,0.05,2.27-0.82,3.67c-0.43,0.68-1.05,1.36-1.87,1.85c-0.82,0.48-1.82,0.83-2.91,0.82
						c-0.54,0.01-1.09-0.06-1.63-0.22c-0.54-0.15-1.08-0.39-1.56-0.72c-0.99-0.63-1.79-1.63-2.23-2.8
						c-0.42-1.17-0.47-2.45-0.13-3.57c0.16-0.57,0.4-1.1,0.72-1.56c0.31-0.47,0.68-0.89,1.1-1.23c0.82-0.71,1.81-1.1,2.74-1.27
						c0.95-0.16,1.86-0.05,2.63,0.18c1.56,0.49,2.53,1.51,3.01,2.25c0.13,0.18,0.22,0.36,0.3,0.52c0.09,0.15,0.14,0.29,0.18,0.4
						C972.25,130.92,972.29,131.04,972.28,131.04z"/>
				</g>
			</g>
		</g>
		<g>
			<g>
				<path class="st59" d="M969.84,127.47c0,0-2.66-1.61-5.61,0.04c-3.06,1.71-3.82,5.39-3.82,5.39c-3.16,0.93-4.26,2.7-4.26,2.7
					s-2.79-1.5-6.14,0.24c-2.82,1.47-3.4,5.4-3.4,5.4l-2.04,1.5l1.27,1.86l2.33-1.62c0,0-0.89-4.16,2.07-5.99
					c3.98-2.46,6.3,0.21,6.3,0.21l0.92-0.63l-0.63-0.42c0,0,1.86-2.06,3.85-2.24l0.39,0.7l0.72-0.33c0,0-0.76-3.91,2.95-5.83
					c4.22-2.19,6.82,1.58,6.82,1.58l1.55-1.06l-1.1-1.92L969.84,127.47z"/>
			</g>
		</g>
		<g>
			<g>
				<g>
					<path class="st5" d="M955.31,145.63c0.01,0.02-0.31,0.25-0.93,0.44c-0.61,0.19-1.52,0.3-2.48,0.08
						c-0.96-0.22-1.73-0.72-2.2-1.16c-0.47-0.44-0.66-0.79-0.64-0.8c0.03-0.03,0.27,0.28,0.76,0.67c0.48,0.39,1.22,0.84,2.14,1.05
						c0.92,0.21,1.78,0.13,2.38-0.01C954.94,145.77,955.29,145.6,955.31,145.63z"/>
				</g>
			</g>
		</g>
		<g>
			<g>
				<g>
					<g>
						<g>
							<g>
								<g>
									<g>
										<g>
											<g>
												<g>
													<g>
														<path class="st58" d="M964.2,148.06c0.14-0.11,0.84,0.88,2.19,1c1.35,0.12,2.34-0.74,2.44-0.6
															c0.06,0.05-0.1,0.36-0.54,0.68c-0.43,0.32-1.17,0.63-2,0.56c-0.82-0.07-1.45-0.5-1.77-0.88
															C964.19,148.43,964.13,148.1,964.2,148.06z"/>
													</g>
												</g>
											</g>
										</g>
									</g>
								</g>
							</g>
						</g>
					</g>
				</g>
			</g>
		</g>
	</g>
</g>
<text transform="matrix(1 0 0 1 218.8086 150.3945)"><tspan x="0" y="0" class="st5 st60 st61">Ready to take control </tspan><tspan x="0" y="56.4" class="st5 st60 st61">of your AI chats?</tspan></text>
<text transform="matrix(1 0 0 1 246.0479 283.2383)" class="st5 st62 st63">Sign up for BoomConsole today!</text>
<path class="st64" d="M631.27,285l-1.78-1.75l5.74-5.74h-20.18v-2.5h20.18l-5.71-5.74l1.75-1.75l8.73,8.73L631.27,285z"/>
</svg>
