<?xml version="1.0" encoding="utf-8"?>
<!-- Generator: Adobe Illustrator 26.1.0, SVG Export Plug-In . SVG Version: 6.00 Build 0)  -->
<svg version="1.1" id="Layer_1" xmlns="http://www.w3.org/2000/svg" xmlns:xlink="http://www.w3.org/1999/xlink" x="0px" y="0px"
	 viewBox="0 0 1400 403" style="enable-background:new 0 0 1400 403;" xml:space="preserve">
<style type="text/css">
	.st0{fill:#F7F9FB;}
	.st1{fill:url(#SVGID_1_);}
	.st2{fill:url(#SVGID_00000138557074140208286090000005818334318585608109_);}
	.st3{fill:url(#SVGID_00000049931614742374986740000000753745567320768654_);}
	.st4{fill:#FFD001;}
	.st5{fill:#FFFFFF;}
	.st6{fill:none;stroke:#CCEEF4;stroke-width:1.6632;stroke-linecap:round;stroke-linejoin:round;stroke-miterlimit:10;}
	.st7{fill:none;stroke:#FFA21E;stroke-width:1.6632;stroke-linecap:round;stroke-linejoin:round;stroke-miterlimit:10;}
	.st8{fill:#FFFBFF;}
	.st9{fill:none;stroke:#FFA21E;stroke-width:1.621;stroke-linecap:round;stroke-linejoin:round;stroke-miterlimit:10;}
	.st10{fill-rule:evenodd;clip-rule:evenodd;fill:#E5E2DB;}
	.st11{fill-rule:evenodd;clip-rule:evenodd;fill:#FEFFFA;}
	.st12{fill-rule:evenodd;clip-rule:evenodd;fill:#F5773D;}
	.st13{fill-rule:evenodd;clip-rule:evenodd;fill:#143143;}
	.st14{fill-rule:evenodd;clip-rule:evenodd;fill:#172C36;}
	.st15{fill-rule:evenodd;clip-rule:evenodd;fill:#FFFFFF;}
	.st16{fill-rule:evenodd;clip-rule:evenodd;fill:url(#SVGID_00000012443489223534443550000012688947254094731178_);}
	.st17{fill-rule:evenodd;clip-rule:evenodd;fill:url(#SVGID_00000105422864895115785050000000541803010164728472_);}
	
		.st18{fill-rule:evenodd;clip-rule:evenodd;fill:#FFFFFF;stroke:#1A2E35;stroke-linecap:round;stroke-linejoin:round;stroke-miterlimit:10;}
	.st19{fill:url(#SVGID_00000119097987664637690180000010718458479475854720_);}
	.st20{fill:url(#SVGID_00000114759291940049997820000017851114356365823935_);}
	.st21{fill:#FBB255;}
	.st22{fill:#29B99A;}
	.st23{fill:#EC5553;}
	.st24{fill:url(#SVGID_00000087383741706874425490000004669032269312817330_);}
	.st25{fill:#F5773D;}
	.st26{fill:#F38469;}
	.st27{fill:url(#SVGID_00000063595801804497013350000005178272043073865644_);}
	.st28{fill:#386A87;}
	.st29{fill:#F4A091;}
	.st30{fill:#F18F79;}
	.st31{fill:#FAC9BC;}
	.st32{fill:#F7BFAD;}
	.st33{fill:#414142;}
	.st34{fill:#F3A8BD;}
	.st35{fill:#F091A8;}
	.st36{fill:#7E7A7B;}
	.st37{fill:#E9EAE8;}
	.st38{fill:url(#SVGID_00000169534308652146942490000007251166972500529079_);}
	.st39{fill:#F7F7F7;}
	.st40{fill:#F8CAD5;}
	.st41{fill:#F5BBC6;}
	.st42{fill:url(#SVGID_00000004519738021109723060000002545187274642939818_);}
	.st43{fill:#A2BA63;}
	.st44{fill:#F27540;}
	.st45{fill:#ED4327;}
	.st46{fill:#FFFFFF;stroke:#1A2E35;stroke-linecap:round;stroke-linejoin:round;stroke-miterlimit:10;}
	.st47{fill:#FFFFFF;stroke:#1E1E1E;stroke-miterlimit:10;}
	.st48{fill:#7F392B;}
	.st49{fill:url(#SVGID_00000170274832681248134870000014548314004683554743_);}
	.st50{fill:none;stroke:#1A2E35;stroke-linecap:round;stroke-linejoin:round;stroke-miterlimit:10;}
	.st51{fill:url(#SVGID_00000180344442141202069270000010117821815753374087_);}
	.st52{fill:#FFB766;}
	.st53{fill:url(#SVGID_00000158014401712690387750000003505646026912237967_);}
	.st54{fill:#1A2E35;stroke:#1A2E35;stroke-linecap:round;stroke-linejoin:round;stroke-miterlimit:10;}
	.st55{fill:#FE9175;}
	.st56{fill:#FF9A6C;}
	.st57{fill:#DB4B66;}
	.st58{fill:#1A2E35;}
	.st59{fill:#375A64;}
	.st60{fill:#F9F9F9;}
	.st61{fill:none;}
	.st62{enable-background:new    ;}
</style>
<rect x="-5" y="308" class="st0" width="1405" height="100.1"/>
<linearGradient id="SVGID_1_" gradientUnits="userSpaceOnUse" x1="-5" y1="1751.1" x2="1311" y2="1751.1" gradientTransform="matrix(1 0 0 1 0 -1556)">
	<stop  offset="0" style="stop-color:#404F5E"/>
	<stop  offset="1" style="stop-color:#26282A"/>
</linearGradient>
<rect x="-5" y="20.2" class="st1" width="1316" height="349.8"/>
<linearGradient id="SVGID_00000042006536314998710710000002187747139833793202_" gradientUnits="userSpaceOnUse" x1="221" y1="1833" x2="659" y2="1833" gradientTransform="matrix(1 0 0 1 0 -1556)">
	<stop  offset="2.237672e-07" style="stop-color:#F3719C"/>
	<stop  offset="1" style="stop-color:#FF9373"/>
</linearGradient>
<rect x="221" y="247" style="fill:url(#SVGID_00000042006536314998710710000002187747139833793202_);" width="438" height="60"/>
<linearGradient id="SVGID_00000079480654264667812010000000310351809698633389_" gradientUnits="userSpaceOnUse" x1="849" y1="1752.6" x2="1422" y2="1752.6" gradientTransform="matrix(1 0 0 1 0 -1556)">
	<stop  offset="2.237672e-07" style="stop-color:#F3719C"/>
	<stop  offset="1" style="stop-color:#FF9373"/>
</linearGradient>
<polygon style="fill:url(#SVGID_00000079480654264667812010000000310351809698633389_);" points="1204,20.2 849,373 1422,370 
	1419,20.2 "/>
<g>
	<g>
		<path class="st4" d="M1120.5,244.2l-13.3,17.8l36.7-8.4l-19.7-10.2C1122.9,242.7,1121.4,243.1,1120.5,244.2z"/>
		<polyline class="st4" points="1107.2,262 1128.2,270.1 1144,253.6 1140.2,254.4 1113.9,260.5 1107.2,262 1128.2,270.1 1144,253.6 
					"/>
		<g>
			<path class="st5" d="M1139.8,275.2l-19.4,4.5c-0.6,0.1-1.3-0.2-1.4-0.9l-6.3-27.3c-0.2-0.6,0.3-1.3,0.9-1.4l19.4-4.5
				c0.6-0.1,1.3,0.2,1.4,0.9l6.3,27.3C1140.8,274.4,1140.4,275.1,1139.8,275.2z"/>
			<g>
				<line class="st6" x1="1118.8" y1="255.7" x2="1130.7" y2="253"/>
				<line class="st6" x1="1119.8" y1="259.8" x2="1131.7" y2="257.1"/>
				<line class="st6" x1="1120.8" y1="264" x2="1132.6" y2="261.2"/>
			</g>
		</g>
		<path class="st4" d="M1128.2,270.1l-20.9-8.1l4.5,19.6c0.1,0.6,0.8,0.9,1.6,0.8l34-7.8c0.8-0.2,1.2-0.8,1.1-1.4l-4.5-19.6
			L1128.2,270.1z"/>
		<g>
			<g>
				<polyline class="st7" points="1144,253.6 1128.2,270.1 1107.2,262 				"/>
				<line class="st7" x1="1115.8" y1="276.1" x2="1119.9" y2="266.9"/>
				<line class="st7" x1="1142.1" y1="270.1" x2="1134.4" y2="263.6"/>
			</g>
		</g>
	</g>
	<g>
		<path class="st4" d="M888.3,133.7l-31.1,7.2l-2.5-4.5c-0.7-1.2-1.5-1.4-3.2-1l-13,3c-0.8,0.2-1.2,0.9-1.1,1.7l1.5,6.5v0.1
			l6.3,27.2c0.2,0.8,0.9,1.2,1.7,1.1l48.3-11.1c0.8-0.2,1.2-0.9,1.1-1.7l-6.3-27.4C889.8,134,889.1,133.5,888.3,133.7z"/>
		
			<rect x="846.6" y="141.3" transform="matrix(0.9746 -0.224 0.224 0.9746 -13.4647 198.609)" class="st8" width="44.1" height="34.7"/>
		<path class="st4" d="M890.9,144.9l-31.1,7.2l-2.5-4.5c-0.7-1.2-1.5-1.4-3.2-1l-13,3c-0.8,0.2-1.2,0.9-1.1,1.7l1.5,6.5v0.1
			l6.3,27.2c0.2,0.8,0.9,1.2,1.7,1.1l48.3-11.1c0.8-0.2,1.2-0.9,1.1-1.7l-6.3-27.4C892.4,145.2,891.7,144.7,890.9,144.9z"/>
		<path class="st9" d="M892.6,146c-0.2-0.8-0.9-1.2-1.7-1.1l-31.1,7.2l-2.5-4.5c-0.7-1.2-1.5-1.4-3.2-1l-13,3
			c-0.8,0.2-1.2,0.9-1.1,1.7"/>
		<path class="st9" d="M893.3,176.1l-4.3-18.9c-0.2-0.7-0.8-1.1-1.5-0.9l-27.6,6.3l-2.2-4c-0.6-1.1-1.3-1.2-2.8-0.9l-11.5,2.6
			c-0.7,0.2-1.1,0.8-0.9,1.5"/>
	</g>
	<g>
		<polygon class="st10" points="809.2,276.7 855.2,282.9 862.2,263.3 816.3,257.2 		"/>
		
			<rect x="815.9" y="238" transform="matrix(0.1318 -0.9913 0.9913 0.1318 465.7756 1054.0774)" class="st11" width="37.4" height="46.3"/>
		<path class="st12" d="M821.1,252.3l2,0.3l0.5-3.8l1.7,4.1l2,0.3l1-7.6l-2-0.3l-0.5,3.9l-1.7-4.2l-2-0.3L821.1,252.3L821.1,252.3z
			 M828.3,251.5c-0.2,1.6,1.1,1.9,1.8,2c0,0,2.2,0.3,3.3,0.3l0.2-1.7l-2.7-0.4c-0.3,0-0.7-0.1-0.6-0.6l0.1-0.5l2.8,0.3l0.2-1.7
			l-2.8-0.5l0.1-0.5c0-0.3,0.1-0.6,0.6-0.5l2.8,0.4l0.2-1.7c-1.2-0.3-3.4-0.6-3.4-0.6c-0.7-0.1-2-0.1-2.2,1.5L828.3,251.5
			L828.3,251.5z M834.9,246.3l1.1,7.9l2.4,0.3l1-2.4l0.4,2.6l2.4,0.3l2.9-7.4l-2.1-0.3l-1.6,5l-0.6-3.7l0.6-1.5l-2.1-0.3l-1.6,5
			l-0.6-5.3L834.9,246.3L834.9,246.3z M845.2,250.4c-0.1,0.5-0.2,2.2,1.8,2.5l0.9,0.1c0.5,0.1,0.5,0.2,0.5,0.5v0.2
			c0,0.3-0.2,0.4-0.7,0.4c-1-0.1-2.3-0.4-2.7-0.5l-0.2,1.6c1,0.5,1.2,0.5,3.2,0.8c1,0.1,2.2-0.1,2.4-2.1v-0.3
			c0.1-0.8-0.1-2.3-1.7-2.5l-1-0.1c-0.6-0.1-0.6-0.3-0.6-0.6v-0.1c0.1-0.4,0.3-0.4,0.8-0.4c0.7,0.1,1.8,0.3,2.5,0.4l0.2-1.6
			c-0.7-0.4-1.6-0.7-3.2-0.8c-1.2-0.1-2.2,0.4-2.3,1.8L845.2,250.4z"/>
		
			<rect x="823.8" y="245.8" transform="matrix(0.1328 -0.9911 0.9911 0.1328 459.8964 1040.0796)" class="st13" width="1.1" height="22.9"/>
		
			<rect x="823.2" y="249.2" transform="matrix(0.1328 -0.9911 0.9911 0.1328 455.9812 1042.5419)" class="st14" width="1.1" height="22.9"/>
		
			<rect x="822.8" y="252.8" transform="matrix(0.1328 -0.9911 0.9911 0.1328 452.0594 1045.2437)" class="st14" width="1.1" height="22.9"/>
		
			<rect x="822.4" y="256.2" transform="matrix(0.1328 -0.9911 0.9911 0.1328 448.3753 1047.7216)" class="st14" width="1.1" height="22.9"/>
		
			<rect x="821.9" y="259.6" transform="matrix(0.1328 -0.9911 0.9911 0.1328 444.5646 1050.2074)" class="st14" width="1.1" height="22.9"/>
		
			<rect x="821.3" y="263" transform="matrix(0.1328 -0.9911 0.9911 0.1328 440.6754 1052.6067)" class="st14" width="1.1" height="22.9"/>
		
			<rect x="821" y="266.5" transform="matrix(0.1328 -0.9911 0.9911 0.1328 436.9697 1055.2581)" class="st14" width="1.1" height="22.9"/>
		
			<rect x="846.4" y="250.6" transform="matrix(0.1328 -0.9911 0.9911 0.1328 476.2997 1065.2482)" class="st13" width="1.1" height="19.6"/>
		
			<rect x="845.9" y="254" transform="matrix(0.1328 -0.9911 0.9911 0.1328 472.5402 1067.6638)" class="st14" width="1.1" height="19.6"/>
		
			<rect x="845.4" y="257.4" transform="matrix(0.1328 -0.9911 0.9911 0.1328 468.7971 1070.13)" class="st14" width="1.1" height="19.6"/>
		
			<rect x="844.9" y="260.9" transform="matrix(0.1328 -0.9911 0.9911 0.1328 464.8395 1072.7456)" class="st14" width="1.1" height="19.6"/>
		
			<rect x="844.5" y="264.3" transform="matrix(0.1328 -0.9911 0.9911 0.1328 461.0911 1075.2484)" class="st14" width="1.1" height="19.6"/>
		
			<rect x="844.1" y="267.8" transform="matrix(0.1328 -0.9911 0.9911 0.1328 457.3427 1077.8529)" class="st14" width="1.1" height="19.6"/>
		
			<rect x="843.7" y="271" transform="matrix(0.1328 -0.9911 0.9911 0.1328 453.7943 1080.2839)" class="st14" width="1.1" height="19.6"/>
	</g>
	<g>
		<path class="st15" d="M1031.4,196.7l17.6-0.4c0.9,0,1.6,0.7,1.6,1.5l0.7,29.4c0,0.9-0.7,1.6-1.5,1.6l-17.6,0.4
			c-0.9,0-1.6-0.7-1.6-1.5l-0.7-29.4C1029.9,197.5,1030.6,196.8,1031.4,196.7z"/>
		
			<linearGradient id="SVGID_00000058579424135118830010000002990472214208630932_" gradientUnits="userSpaceOnUse" x1="786.0058" y1="1645.7406" x2="807.1626" y2="1645.7406" gradientTransform="matrix(0.985 -0.1727 0.1727 0.985 -28.2697 -1271.7406)">
			<stop  offset="2.237672e-07" style="stop-color:#F3719C"/>
			<stop  offset="1" style="stop-color:#FF9373"/>
		</linearGradient>
		
			<polygon style="fill-rule:evenodd;clip-rule:evenodd;fill:url(#SVGID_00000058579424135118830010000002990472214208630932_);" points="
			1031.6,198.6 1048.9,198.2 1049.5,224.9 1032.2,225.3 		"/>
		
			<linearGradient id="SVGID_00000124879364583155383390000006522948562376056972_" gradientUnits="userSpaceOnUse" x1="790.0401" y1="1645.7406" x2="807.1489" y2="1645.7406" gradientTransform="matrix(0.985 -0.1727 0.1727 0.985 -28.2697 -1271.7406)">
			<stop  offset="2.237672e-07" style="stop-color:#F3719C"/>
			<stop  offset="1" style="stop-color:#FF9373"/>
		</linearGradient>
		
			<polygon style="fill-rule:evenodd;clip-rule:evenodd;fill:url(#SVGID_00000124879364583155383390000006522948562376056972_);" points="
			1031.6,198.6 1048.9,198.2 1049.5,224.9 		"/>
		<path class="st18" d="M1036.9,203.4l3.1-0.1c0.3,0,0.6,0.1,0.8,0.3v-0.1c1,0.6,1.9,1.6,2.7,2.8c0.9,1.6,1.6,3.6,1.8,5.7
			c0.2,2.1-0.2,4.4-1.3,6.2c-0.7,1.2-1.8,2.3-3.1,3.2l-0.1-0.1c-0.1,0-0.2,0.1-0.4,0.1l-3.1,0.1c-0.7,0-1.3-0.5-1.3-1.2l-0.1-3
			c0-0.7,0.5-1.3,1.2-1.3l3.1-0.1c0.5,0,1,0.3,1.2,0.8c0.7-1.3,0.9-2.9,0.8-4.4s-0.5-2.9-1.1-4.1c-0.2,0.4-0.6,0.6-1,0.6l-3.1,0.1
			c-0.7,0-1.3-0.5-1.3-1.2l-0.1-3C1035.7,204,1036.2,203.4,1036.9,203.4z"/>
	</g>
	<g>
		
			<linearGradient id="SVGID_00000082350397073867927060000014584883763225182132_" gradientUnits="userSpaceOnUse" x1="561.4077" y1="1586.4761" x2="575.1394" y2="1586.4761" gradientTransform="matrix(0.985 -0.1727 0.1727 0.985 -28.2697 -1271.7406)">
			<stop  offset="0" style="stop-color:#404F5E"/>
			<stop  offset="1" style="stop-color:#26282A"/>
		</linearGradient>
		<polyline style="fill:url(#SVGID_00000082350397073867927060000014584883763225182132_);" points="811,187.3 798,190.3 
			799.9,198.3 812.8,195.3 811,187.3 		"/>
		
			<linearGradient id="SVGID_00000000912274032041453070000008765984618633626514_" gradientUnits="userSpaceOnUse" x1="554.1711" y1="1605.415" x2="598.3906" y2="1605.415" gradientTransform="matrix(0.985 -0.1727 0.1727 0.985 -28.2697 -1271.7406)">
			<stop  offset="0" style="stop-color:#404F5E"/>
			<stop  offset="1" style="stop-color:#26282A"/>
		</linearGradient>
		<path style="fill:url(#SVGID_00000000912274032041453070000008765984618633626514_);" d="M804.7,221.6l-1.8-8l3.8-0.9l1.8,8
			L804.7,221.6 M809.6,220.5l-1.8-8l3.9-0.9l1.8,8L809.6,220.5 M814.6,219.4l-1.8-8l3.9-0.9l1.8,8L814.6,219.4 M819.6,218.2l-1.8-8
			l3.9-0.9l1.8,8L819.6,218.2 M824.6,217.1l-1.8-8l3.9-0.9l1.8,8L824.6,217.1 M829.6,215.9l-1.8-8l4.1-0.9l1.8,8L829.6,215.9
			 M802.6,212.5l-1.8-7.6l3.8-0.9l1.8,7.6L802.6,212.5 M807.5,211.4l-1.8-7.6l3.9-0.9l1.8,7.6L807.5,211.4 M812.5,210.3l-1.8-7.6
			l3.9-0.9l1.8,7.6L812.5,210.3 M817.5,209.1l-1.8-7.6l3.9-0.9l1.8,7.6L817.5,209.1 M822.5,208l-1.8-7.6l3.9-0.9l1.8,7.6L822.5,208
			 M827.5,206.8l-1.8-7.6l4.1-0.9l1.8,7.6L827.5,206.8 M815.5,200.4c-0.7,0.1-1.3-0.3-1.5-0.9c-0.2-0.7,0.3-1.3,0.9-1.5
			c0.7-0.1,1.3,0.3,1.5,0.9C816.6,199.6,816.2,200.3,815.5,200.4 M835.8,192.9l-16.9,3.9l-5.2,1.2l-20.8,4.8l0.9,3.9l3.3-0.8
			l4.3,18.6l0.9-0.2l0.5,2l34.7-8l-0.5-2l1.1-0.3l-4.3-18.6l3-0.7L835.8,192.9"/>
		
			<rect x="795.1" y="187" transform="matrix(0.9746 -0.224 0.224 0.9746 -22.4335 184.448)" class="st21" width="13.3" height="8.2"/>
		
			<rect x="810.8" y="186.2" transform="matrix(0.9746 -0.224 0.224 0.9746 -21.5621 187.7297)" class="st22" width="11.7" height="5.4"/>
		<path class="st23" d="M815.2,195l-5.2,1.2l-20.8,4.8l0.9,3.9l3.3-0.8l4.3,18.6l0.9-0.2l0.5,2l34.7-8l-0.5-2l1.1-0.3l-4.3-18.6
			l3-0.7l-0.9-3.9L815.2,195z M804.9,219l-3.8,0.9l-1.8-8l3.8-0.9L804.9,219z M802.8,209.9l-3.8,0.9l-1.8-7.6l3.8-0.9L802.8,209.9z
			 M809.9,217.9l-3.9,0.9l-1.8-8l3.9-0.9L809.9,217.9z M807.8,208.8l-3.9,0.9l-1.8-7.6l3.9-0.9L807.8,208.8z M814.9,216.7l-3.9,0.9
			l-1.8-8l3.9-0.9L814.9,216.7z M812.8,207.6l-3.9,0.9l-1.8-7.6l3.9-0.9L812.8,207.6z M810.4,197.8c-0.2-0.7,0.3-1.3,0.9-1.5
			c0.7-0.1,1.3,0.3,1.5,0.9c0.2,0.7-0.3,1.3-0.9,1.5C811.2,198.9,810.5,198.5,810.4,197.8z M819.9,215.6l-3.9,0.9l-1.8-8l3.9-0.9
			L819.9,215.6z M817.8,206.5l-3.9,0.9l-1.8-7.6l3.9-0.9L817.8,206.5z M824.9,214.4l-3.9,0.9l-1.8-8l3.9-0.9L824.9,214.4z
			 M822.8,205.4l-3.9,0.9l-1.8-7.6l3.9-0.9L822.8,205.4z M830,213.3l-4.1,0.9l-1.8-8l4.1-0.9L830,213.3z M827.9,204.2l-4.1,0.9
			l-1.8-7.6l4.1-0.9L827.9,204.2z"/>
	</g>
	<g>
		
			<linearGradient id="SVGID_00000096780777936938820220000017328409035933580685_" gradientUnits="userSpaceOnUse" x1="-106.5761" y1="890.0215" x2="-74.4141" y2="890.0215" gradientTransform="matrix(0.8704 -0.4924 0.4924 0.8704 642.725 -738.5801)">
			<stop  offset="0" style="stop-color:#404F5E"/>
			<stop  offset="1" style="stop-color:#26282A"/>
		</linearGradient>
		<path style="fill:url(#SVGID_00000096780777936938820220000017328409035933580685_);" d="M1009,65.2c0.2,0.2,0.4,0.4,0.5,0.6
			l0.7,1.2l2,3.5l4.6,8.1c0.7,1.3,0.3,3-1,3.7l-23.3,13.2c0,0-0.1,0-0.1,0.1c0.8,0.8,2.2,1,3.2,0.4l11.1-6.3l12.2-6.9
			c1.3-0.7,1.8-2.4,1-3.7l-4.6-8.1l-2-3.5l-0.7-1.2C1011.9,65.1,1010.3,64.6,1009,65.2"/>
		<path class="st25" d="M1016.7,78.7c0.7,1.3,0.3,3-1,3.7l-23.3,13.2c-1.3,0.7-3,0.3-3.7-1l-7.3-12.8c-0.7-1.3-0.3-3,1-3.7
			l23.3-13.2c1.3-0.7,3-0.3,3.7,1L1016.7,78.7"/>
		<polyline class="st5" points="1012.1,70.6 984,86.5 982.1,83 1010.2,67.1 1012.1,70.6 		"/>
		<polyline class="st21" points="997.6,91.2 991.6,94.6 989.7,91.2 995.7,87.8 997.6,91.2 		"/>
		<path class="st26" d="M993.5,71.7L982.4,78c-1.3,0.8-1.8,2.4-1,3.7l0.7,1.2l13.4-7.7L993.5,71.7"/>
		<path class="st26" d="M989.7,91.2L989.7,91.2l6-3.4l2,3.5l-6,3.4L989.7,91.2 M997.5,78.9L984,86.5l4.6,8.1c0.7,1.3,2.4,1.8,3.7,1
			l11.1-6.3L997.5,78.9"/>
		<polyline class="st5" points="995.6,75.4 982.1,83 984,86.5 997.5,78.9 995.6,75.4 		"/>
		
			<rect x="990.2" y="89.2" transform="matrix(0.8704 -0.4924 0.4924 0.8704 83.8976 501.0947)" class="st21" width="6.9" height="4"/>
	</g>
	<g>
		
			<linearGradient id="SVGID_00000076592753881359298550000016807553152658982028_" gradientUnits="userSpaceOnUse" x1="853.666" y1="1565.5142" x2="893.7195" y2="1565.5142" gradientTransform="matrix(0.985 -0.1727 0.1727 0.985 -28.2697 -1271.7406)">
			<stop  offset="0" style="stop-color:#404F5E"/>
			<stop  offset="1" style="stop-color:#26282A"/>
		</linearGradient>
		<path style="fill:url(#SVGID_00000076592753881359298550000016807553152658982028_);" d="M1097.8,110.2c-4.5,1-7.3,5.5-6.2,10
			c0.8,3.3,3.3,5.7,6.4,6.3c-0.9-0.7-1.6-1.6-2.2-2.6c-1.4-0.9-2.5-2.4-2.9-4.1c-0.8-3.6,1.4-7.2,5.1-8.1c1.2-0.3,2.4-0.2,3.5,0.1
			c0.2,0,0.4-0.1,0.6-0.1c0.1,0,0.2,0,0.3,0c0.2,0,0.3,0,0.5,0c0.1,0,0.3,0,0.4,0s0.3,0,0.4,0c0.2,0,0.3,0,0.4,0.1
			c0.1,0,0.2,0,0.4,0c0.1,0,0.2,0,0.3,0.1C1102.9,110.3,1100.3,109.6,1097.8,110.2 M1087.1,111.5l-3.7,0.8c-1.3,0.3-2.1,1.6-1.8,2.8
			l0.1,0.6l2.2-0.5l-0.3-1.5l3.7-0.9L1087.1,111.5 M1114.9,105.1l-3.5,0.8c-0.1,0.3-0.1,0.7-0.1,1c0.2,1.1,1.3,1.7,2.4,1.4
			c0.4-0.1,0.8-0.3,1-0.6c0.1-0.4,0.3-0.8,0.6-1.1c0-0.2,0-0.5,0-0.7C1115.3,105.7,1115.1,105.4,1114.9,105.1 M1117,104.7l-0.7,0.2
			l0.3,1.3c1-0.1,2,0.5,2.2,1.5s-0.4,2-1.3,2.3l2.8,12c0.3,1.3-0.5,2.5-1.8,2.8l-12.4,2.9h-0.1c-0.1,0-0.1,0.1-0.2,0.1
			c-0.3,0.1-0.6,0.2-0.8,0.2c-0.3,0.1-0.6,0.1-0.9,0.1c-0.1,0-0.1,0-0.2,0h-0.1l-18.2,4.2l0,0c0.3,1.3,1.6,2.1,2.8,1.8l33.6-7.7
			c1.3-0.3,2.1-1.6,1.8-2.8l-0.1-0.6l-3-13.2l-0.8-3.3C1119.5,105.2,1118.3,104.4,1117,104.7"/>
		<path class="st28" d="M1113.5,103l-22.8,5.2l-0.5-2.1l-6.5,1.5l0.5,2.1l-4.3,1c-1.3,0.3-2.1,1.6-1.8,2.8l3.9,17.2
			c0.3,1.3,1.6,2.1,2.8,1.8l33.6-7.7c1.3-0.3,2.1-1.6,1.8-2.8l-3.9-17.2C1116,103.5,1114.8,102.7,1113.5,103 M1087.7,114.4l-6.7,1.5
			l-0.9-3.8l6.7-1.5L1087.7,114.4 M1101.5,126.4c-4.5,1-8.9-1.8-10-6.2c-1-4.5,1.8-8.9,6.2-10s8.9,1.8,10,6.2
			C1108.8,120.9,1105.9,125.3,1101.5,126.4 M1113.8,108.4c-1.1,0.2-2.2-0.4-2.4-1.4c-0.2-1.1,0.5-2.1,1.6-2.4
			c1.1-0.2,2.2,0.4,2.4,1.4C1115.6,107.1,1114.9,108.1,1113.8,108.4"/>
		<path class="st29" d="M1103.5,122.1c-0.6,0.2-1.3-0.2-1.4-0.9s0.2-1.3,0.9-1.4s1.3,0.2,1.4,0.9
			C1104.6,121.3,1104.2,121.9,1103.5,122.1 M1101.2,111.8c-0.3,0.1-0.5,0.1-0.8,0.2c-0.1,0-0.2,0.1-0.3,0.1
			c-0.2,0.1-0.3,0.1-0.5,0.2c-0.1,0.1-0.2,0.1-0.4,0.2s-0.2,0.1-0.4,0.2c-0.1,0.1-0.3,0.2-0.4,0.2c-0.1,0.1-0.2,0.1-0.3,0.2
			c-0.1,0.1-0.3,0.2-0.4,0.3c-0.1,0.1-0.2,0.1-0.2,0.2c-0.1,0.1-0.2,0.2-0.4,0.4c-0.1,0.1-0.1,0.1-0.2,0.2c0,0,0,0-0.1,0.1
			c0.6,0.3,1.1,0.8,1.3,1.5c0.3,1.2-0.5,2.3-1.6,2.6c-0.6,0.1-1.2,0-1.7-0.3c-0.3,1.2-0.3,2.4,0,3.7c0.2,0.7,0.4,1.4,0.8,2.1
			c1.5,1,3.3,1.4,5.2,0.9c3.6-0.8,5.9-4.5,5.1-8.1C1105.3,114.3,1103.5,112.5,1101.2,111.8C1101.4,111.8,1101.3,111.8,1101.2,111.8"
			/>
		<path class="st30" d="M1098,111.6c-3.6,0.8-5.9,4.5-5.1,8.1c0.4,1.8,1.5,3.2,2.9,4.1c-0.3-0.6-0.6-1.3-0.8-2.1
			c-0.3-1.3-0.3-2.5,0-3.7c-0.5-0.3-0.8-0.8-0.9-1.3c-0.3-1.2,0.5-2.3,1.6-2.6c0.5-0.1,0.9-0.1,1.4,0.1c0,0,0,0,0.1-0.1
			s0.1-0.1,0.2-0.2s0.2-0.2,0.4-0.4c0.1-0.1,0.2-0.1,0.2-0.2c0.1-0.1,0.2-0.2,0.4-0.3c0.1-0.1,0.2-0.1,0.3-0.2
			c0.1-0.1,0.2-0.2,0.4-0.2c0.1-0.1,0.2-0.1,0.4-0.2c0.1-0.1,0.2-0.1,0.4-0.2c0.2-0.1,0.3-0.1,0.5-0.2c0.1,0,0.2-0.1,0.3-0.1
			c0.3-0.1,0.5-0.2,0.8-0.2c0.1,0,0.2,0,0.2-0.1C1100.4,111.4,1099.2,111.3,1098,111.6"/>
		<path class="st31" d="M1097.1,114.2c-0.1,0.1-0.2,0.2-0.3,0.4c-0.1,0.1-0.1,0.1-0.2,0.2s-0.2,0.3-0.3,0.4c-0.6,0.9-1,1.8-1.3,2.8
			c0.5,0.3,1.1,0.4,1.7,0.3c1.2-0.3,1.9-1.4,1.6-2.6C1098.2,115,1097.7,114.5,1097.1,114.2"/>
		<path class="st32" d="M1095.7,114.1c-1.2,0.3-1.9,1.4-1.6,2.6c0.1,0.6,0.5,1.1,0.9,1.3c0.2-1,0.7-2,1.3-2.8
			c0.1-0.2,0.2-0.3,0.3-0.4c0.1-0.1,0.1-0.1,0.2-0.2s0.2-0.2,0.3-0.4C1096.7,114,1096.2,114,1095.7,114.1"/>
		<path class="st31" d="M1103,119.8c-0.6,0.2-1,0.8-0.9,1.4s0.8,1,1.4,0.9s1-0.8,0.9-1.4C1104.2,120,1103.6,119.6,1103,119.8"/>
		<path class="st5" d="M1113.5,103l-22.8,5.2l-0.5-2.1l-6.5,1.5l0.5,2.1l-4.3,1c-1.3,0.3-2.1,1.6-1.8,2.8l0.8,3.3l13.8-3.2
			c1.1-1.7,2.9-3.1,5.1-3.6s4.3-0.1,6.1,1l13.2-3l-0.8-3.3C1116,103.5,1114.8,102.7,1113.5,103z M1087.7,114.4l-6.7,1.5l-0.9-3.8
			l6.7-1.5L1087.7,114.4z M1113.8,108.4c-1.1,0.2-2.2-0.4-2.4-1.4c-0.2-1.1,0.5-2.1,1.6-2.4c1.1-0.2,2.2,0.4,2.4,1.4
			C1115.6,107.1,1114.9,108.1,1113.8,108.4z"/>
		<path class="st5" d="M1095,113.2l6.4-1.5c-1.1-0.3-2.2-0.4-3.4-0.1C1096.8,111.9,1095.8,112.5,1095,113.2z"/>
		<path class="st5" d="M1084.9,132.5l33.6-7.7c1.3-0.3,2.1-1.6,1.8-2.8l-0.1-0.6l-15.5,3.6c-0.9,0.7-1.9,1.2-3.1,1.4
			c-1.2,0.3-2.3,0.3-3.4,0.1l-16.1,3.7l0.1,0.6C1082.4,132,1083.7,132.8,1084.9,132.5z"/>
	</g>
	<g>
		<path class="st33" d="M861.5,122.9c-6.1-2.6-8.9-9.7-6.3-15.8c2.6-6.1,9.7-8.9,15.8-6.3s8.9,9.7,6.3,15.8
			C874.6,122.7,867.5,125.5,861.5,122.9 M861.9,121.8c5.5,2.4,11.9-0.2,14.3-5.7s-0.2-11.9-5.7-14.3s-11.9,0.2-14.3,5.7
			S856.4,119.5,861.9,121.8"/>
		<path class="st34" d="M861,102.2c-2.1,1.1-3.8,2.9-4.8,5.3c-0.5,1.2-0.8,2.4-0.9,3.6c-0.1,4.3,2.4,8.5,6.6,10.3
			c0.1,0.1,0.2,0.1,0.4,0.2c-2.7-2.4-4.1-5.9-4-9.5c0-1.6,0.3-3.2,1-4.7c0.3-0.8,0.7-1.5,1.2-2.2c0-0.8,0.4-1.6,1.1-2
			c0.3-0.2,0.6-0.2,1-0.3c0.6-0.5,1.3-1,2-1.4c0.3-0.2,0.7-0.3,1-0.5C864,101,862.5,101.5,861,102.2"/>
		<path class="st35" d="M864.6,101.4c-0.7,0.4-1.4,0.9-2,1.4c0.8,0,1.6,0.4,2,1.1c0.6,1.1,0.2,2.4-0.9,2.9s-2.4,0.2-2.9-0.9
			c-0.2-0.3-0.2-0.6-0.2-0.9c-0.5,0.7-0.9,1.4-1.2,2.2c-0.7,1.5-1,3.1-1,4.7c-0.2,3.6,1.3,7.1,4,9.5c3.1,1.2,6.4,0.9,9.1-0.6
			c2.1-1.1,3.8-2.9,4.8-5.3c0.5-1.2,0.8-2.4,0.9-3.6c0.1-4.3-2.4-8.5-6.6-10.3c-1.6-0.7-3.2-0.9-4.8-0.9
			C865.3,101.1,865,101.2,864.6,101.4"/>
		<path class="st36" d="M861,101.7c-2.1,1.1-3.8,2.9-4.8,5.3c-0.6,1.3-0.8,2.7-0.9,4.1c0.1-1.2,0.4-2.4,0.9-3.6
			c1-2.3,2.8-4.2,4.8-5.3c1.4-0.8,3-1.2,4.6-1.3c1.6-0.1,3.2,0.2,4.8,0.9c4.2,1.8,6.7,5.9,6.6,10.3c0.3-4.5-2.2-8.9-6.6-10.8
			C867.3,99.9,863.9,100.2,861,101.7"/>
		<path class="st37" d="M894.7,127.3c0.7,0.3,1.5,0,1.8-0.7l1.6-3.7c0.3-0.7,0-1.5-0.7-1.8l-18.4-6.9c-0.7-0.3-1.5,0-1.8,0.7l-0.9,2
			c-0.3,0.7,0,1.5,0.7,1.8L894.7,127.3z"/>
		
			<linearGradient id="SVGID_00000039815959632519269990000003862947742069709187_" gradientUnits="userSpaceOnUse" x1="650.9588" y1="1524.0294" x2="655.2771" y2="1524.0294" gradientTransform="matrix(0.985 -0.1727 0.1727 0.985 -28.2697 -1271.7406)">
			<stop  offset="0" style="stop-color:#404F5E"/>
			<stop  offset="1" style="stop-color:#26282A"/>
		</linearGradient>
		<path style="fill:url(#SVGID_00000039815959632519269990000003862947742069709187_);" d="M877.2,114.9c0.3-0.7,1.1-1,1.8-0.7
			l1.1,0.4l-2,4.6l-1.1-0.5c-0.7-0.3-1-1.1-0.7-1.8L877.2,114.9z"/>
		<path class="st39" d="M861.5,122.4c-6.1-2.6-8.9-9.7-6.3-15.8s9.7-8.9,15.8-6.3s8.9,9.7,6.3,15.8
			C874.7,122.2,867.6,125,861.5,122.4 M861.9,121.3c5.5,2.4,11.9-0.2,14.3-5.7s-0.2-11.9-5.7-14.3s-11.9,0.2-14.3,5.7
			C853.8,112.5,856.4,119,861.9,121.3"/>
		<path class="st40" d="M861.6,103.1c-0.8,0.4-1.2,1.2-1.1,2c0.6-0.9,1.3-1.6,2.1-2.3C862.3,102.8,861.9,102.9,861.6,103.1"/>
		<path class="st41" d="M862.6,102.8c-0.8,0.7-1.5,1.4-2.1,2.3c0,0.3,0.1,0.6,0.2,0.9c0.6,1.1,1.9,1.4,2.9,0.9s1.5-1.9,0.9-2.9
			C864.1,103.2,863.4,102.8,862.6,102.8"/>
	</g>
	<g>
		<path class="st5" d="M1111.7,19.5c2.4,10.7-4.2,21.3-14.9,23.8s-21.3-4.2-23.8-14.9c-2.4-10.7,4.2-21.3,14.9-23.8
			C1098.6,2.2,1109.2,8.8,1111.7,19.5z"/>
		
			<linearGradient id="SVGID_00000007427634575748071770000007752418449262371721_" gradientUnits="userSpaceOnUse" x1="875.0545" y1="1435.4924" x2="883.8676" y2="1496.5549" gradientTransform="matrix(0.985 -0.1727 0.1727 0.985 -28.2697 -1271.7406)">
			<stop  offset="2.237672e-07" style="stop-color:#F3719C"/>
			<stop  offset="1" style="stop-color:#FF9373"/>
		</linearGradient>
		<path style="fill:url(#SVGID_00000007427634575748071770000007752418449262371721_);" d="M1109.1,20.1c2.1,9.2-3.7,18.5-12.9,20.6
			c-9.2,2.1-18.5-3.7-20.6-12.9s3.7-18.5,12.9-20.6S1106.9,10.9,1109.1,20.1z"/>
		<path class="st5" d="M1090.4,10c0.2,0.7-0.3,1.4-0.9,1.5c-0.7,0.2-1.4-0.3-1.5-0.9c-0.2-0.7,0.3-1.4,0.9-1.5
			C1089.6,8.9,1090.3,9.3,1090.4,10z"/>
		<path class="st5" d="M1096.7,37.4c0.2,0.7-0.3,1.4-0.9,1.5c-0.7,0.2-1.4-0.3-1.5-1s0.3-1.4,0.9-1.5
			C1095.9,36.2,1096.6,36.7,1096.7,37.4z"/>
		<path class="st5" d="M1078.3,25.9c0.7-0.2,1.4,0.3,1.5,1s-0.3,1.4-0.9,1.5c-0.7,0.2-1.4-0.3-1.5-1S1077.7,26,1078.3,25.9z"/>
		<path class="st5" d="M1105.8,19.6c0.7-0.2,1.4,0.3,1.5,1s-0.3,1.4-0.9,1.5c-0.7,0.2-1.4-0.3-1.5-1S1105.1,19.7,1105.8,19.6z"/>
		
			<rect x="1090.9" y="13.1" transform="matrix(0.9746 -0.224 0.224 0.9746 23.5181 244.9177)" class="st37" width="0.7" height="11.4"/>
		<polygon class="st37" points="1104.8,31.5 1105.1,31.6 1092.8,23.9 1092.5,23.8 		"/>
	</g>
	<g>
		
			<rect x="1119.8" y="165.5" transform="matrix(0.9746 -0.224 0.224 0.9746 -9.0383 255.4288)" class="st5" width="3" height="4.1"/>
		
			<rect x="1120.7" y="169.4" transform="matrix(0.9746 -0.224 0.224 0.9746 -9.8891 255.7294)" class="st23" width="3" height="4.1"/>
		
			<rect x="1121.7" y="173.4" transform="matrix(0.9746 -0.224 0.224 0.9746 -10.7596 256.0551)" class="st43" width="3" height="4.1"/>
		
			<rect x="1122.6" y="177.4" transform="matrix(0.9746 -0.224 0.224 0.9746 -11.6328 256.3583)" class="st21" width="3" height="4.1"/>
		<path class="st44" d="M1126.3,190.8c0.5,2.3-0.9,4.5-3.2,5.1l-17.8,4.1c-2.3,0.5-4.5-0.9-5.1-3.2l-6.1-26.5
			c-0.5-2.3,0.9-4.5,3.2-5.1l17.8-4.1c2.3-0.5,4.5,0.9,5.1,3.2L1126.3,190.8"/>
		<polyline class="st5" points="1114.8,171.2 1103,173.9 1102.4,171.2 1114.2,168.5 1114.8,171.2 		"/>
		<polyline class="st5" points="1115.8,175.5 1104,178.2 1103.4,175.5 1115.2,172.8 1115.8,175.5 		"/>
		<polyline class="st5" points="1116.8,179.8 1105,182.5 1104.4,179.8 1116.2,177.1 1116.8,179.8 		"/>
		<path class="st5" d="M1097.9,174.5c0.1,0.4-0.2,0.8-0.6,0.9l-2.7,0.6c-0.4,0.1-0.8-0.2-0.9-0.6c-0.1-0.4,0.2-0.8,0.6-0.9l2.7-0.6
			C1097.4,173.8,1097.8,174.1,1097.9,174.5"/>
		<path class="st5" d="M1098.9,178.7c0.1,0.4-0.2,0.8-0.6,0.9l-2.7,0.6c-0.4,0.1-0.8-0.2-0.9-0.6c-0.1-0.4,0.2-0.8,0.6-0.9l2.7-0.6
			C1098.4,178,1098.8,178.3,1098.9,178.7"/>
		<path class="st5" d="M1099.8,182.9c0.1,0.4-0.2,0.8-0.6,0.9l-2.7,0.6c-0.4,0.1-0.8-0.2-0.9-0.6c-0.1-0.4,0.2-0.8,0.6-0.9l2.7-0.6
			C1099.3,182.2,1099.7,182.5,1099.8,182.9"/>
		<path class="st5" d="M1100.8,187.1c0.1,0.4-0.2,0.8-0.6,0.9l-2.7,0.6c-0.4,0.1-0.8-0.2-0.9-0.6c-0.1-0.4,0.2-0.8,0.6-0.9l2.7-0.6
			C1100.3,186.4,1100.7,186.7,1100.8,187.1"/>
		<path class="st5" d="M1101.8,191.3c0.1,0.4-0.2,0.8-0.6,0.9l-2.7,0.6c-0.4,0.1-0.8-0.2-0.9-0.6c-0.1-0.4,0.2-0.8,0.6-0.9l2.7-0.6
			C1101.3,190.6,1101.7,190.9,1101.8,191.3"/>
		<path class="st5" d="M1102.7,195.5c0.1,0.4-0.2,0.8-0.6,0.9l-2.7,0.6c-0.4,0.1-0.8-0.2-0.9-0.6c-0.1-0.4,0.2-0.8,0.6-0.9l2.7-0.6
			C1102.2,194.8,1102.6,195.1,1102.7,195.5"/>
		<path class="st45" d="M1107,162.9l-9.7,2.2l0,0l0,0l0,0l0,0l0,0l0,0l0,0l0,0l0,0l0,0l0,0l0,0l0,0l0,0l0,0l0,0l0,0l0,0l0,0l0,0l0,0
			l0,0l0,0l0,0l0,0l0,0l0,0l0,0l0,0l0,0l0,0l0,0l0,0l0,0l0,0c-2.1,0.6-3.4,2.8-2.9,4.9l1.9-0.4c0.4-0.1,0.8,0.2,0.9,0.6l0,0l0,0
			c0.1,0.4-0.2,0.8-0.6,0.9l-1.9,0.4l0.6,2.7l1.9-0.4c0.4-0.1,0.8,0.2,0.9,0.6l0,0l0,0c0.1,0.4-0.2,0.8-0.6,0.9l-1.9,0.4l0.6,2.7
			l1.9-0.4c0.4-0.1,0.8,0.2,0.9,0.6l0,0l0,0c0.1,0.4-0.2,0.8-0.6,0.9l-1.9,0.4l0.6,2.7l1.9-0.4c0.4-0.1,0.8,0.2,0.9,0.6l0,0l0,0
			c0.1,0.4-0.2,0.8-0.6,0.9l-1.9,0.4l0.6,2.7l1.9-0.4c0.4-0.1,0.8,0.2,0.9,0.6l0,0l0,0c0.1,0.4-0.2,0.8-0.6,0.9l-1.9,0.4l0.6,2.8
			l1.9-0.4c0.4-0.1,0.8,0.2,0.9,0.6l0,0l0,0c0.1,0.4-0.2,0.8-0.6,0.9l-1.9,0.4l0.6,2.8l1.9-0.4c0.4-0.1,0.8,0.2,0.9,0.6l0,0l0,0
			c0.1,0.4-0.2,0.8-0.6,0.9l-1.9,0.4c0.6,2.2,2.7,3.5,4.9,3.1l0,0l0,0l0,0l0,0l0,0l0,0l0,0l0,0l0,0l0,0l0,0l0,0l0,0l0,0l0,0l0,0l0,0
			l0,0l0,0l0,0l0,0l0,0l0,0l0,0l0,0l0,0l9.7-2.2l-3.8-16.6l-6.2,1.4l-0.6-2.7l6.2-1.4l-0.4-1.6l-6.2,1.4l-0.6-2.7l6.2-1.4l-0.4-1.6
			l-6.2,1.4l-0.6-2.7l6.2-1.4L1107,162.9"/>
		
			<rect x="1102.6" y="170.5" transform="matrix(0.9746 -0.224 0.224 0.9746 -10.3954 252.066)" class="st5" width="6.4" height="2.7"/>
		
			<rect x="1103.6" y="174.8" transform="matrix(0.9746 -0.224 0.224 0.9746 -11.3332 252.3993)" class="st5" width="6.4" height="2.7"/>
		
			<rect x="1104.6" y="179.1" transform="matrix(0.9746 -0.224 0.224 0.9746 -12.271 252.7325)" class="st5" width="6.4" height="2.7"/>
		<path class="st5" d="M1097.9,174.5c-0.1-0.4-0.5-0.6-0.9-0.6l-1.9,0.4l-0.7,0.2c-0.4,0.1-0.7,0.5-0.6,0.9s0.5,0.6,0.9,0.6l0.7-0.2
			l1.9-0.4C1097.7,175.3,1098,174.9,1097.9,174.5z"/>
		<path class="st5" d="M1098.9,178.7c-0.1-0.4-0.5-0.6-0.9-0.6l-1.9,0.4l-0.7,0.2c-0.4,0.1-0.7,0.5-0.6,0.9s0.5,0.6,0.9,0.6l0.7-0.2
			l1.9-0.4C1098.7,179.5,1099,179.1,1098.9,178.7z"/>
		<path class="st5" d="M1099.8,182.9c-0.1-0.4-0.5-0.6-0.9-0.6l-1.9,0.4l-0.7,0.2c-0.4,0.1-0.7,0.5-0.6,0.9s0.5,0.6,0.9,0.6l0.7-0.2
			l1.9-0.4C1099.7,183.7,1099.9,183.3,1099.8,182.9z"/>
		<path class="st5" d="M1100.8,187.1c-0.1-0.4-0.5-0.6-0.9-0.6l-1.9,0.4l-0.7,0.2c-0.4,0.1-0.7,0.5-0.6,0.9s0.5,0.6,0.9,0.6l0.7-0.2
			l1.9-0.4C1100.6,187.9,1100.9,187.5,1100.8,187.1z"/>
		<path class="st5" d="M1101.8,191.3c-0.1-0.4-0.5-0.6-0.9-0.6l-1.9,0.4l-0.7,0.2c-0.4,0.1-0.7,0.5-0.6,0.9s0.5,0.6,0.9,0.6l0.7-0.2
			l1.9-0.4C1101.6,192.1,1101.9,191.7,1101.8,191.3z"/>
		<path class="st5" d="M1102.7,195.5c-0.1-0.4-0.5-0.6-0.9-0.6l-1.9,0.4l-0.7,0.2c-0.4,0.1-0.7,0.5-0.6,0.9s0.5,0.6,0.9,0.6l0.7-0.2
			l1.9-0.4C1102.6,196.3,1102.8,195.9,1102.7,195.5z"/>
	</g>
	<g>
		<path class="st46" d="M865.7,368.2c0,0-6.6-2.1-8.1-3s-14.1-10.1-16.4-8.8s-4.2,7.4-5.8,12.6s-7.7,16.9-8.3,24
			c-0.7,7.1,2.3,5.4,3.3,4.1s10.2-10.3,15-14s7.1-5,7.1-5l10.5,2L865.7,368.2z"/>
		<path class="st47" d="M853.9,362.8c-4.4-2.9-11.1-7.2-12.7-6.3c-2.3,1.3-4.2,7.4-5.8,12.6s-7.7,16.9-8.3,24
			c-0.7,7.1,2.3,5.4,3.3,4.1s10.2-10.3,15-14c2-1.6,3.6-2.7,4.8-3.5l-5.6-3.5C844.4,376.2,849.5,367.2,853.9,362.8z"/>
		<path class="st46" d="M844.5,357.1c-0.2-0.1-0.3-0.1-0.4-0.2H844c-0.2-0.1-0.4-0.2-0.6-0.2c-0.1,0-0.1,0-0.2-0.1
			c-0.2,0-0.3-0.1-0.5-0.1h-0.1c-0.2,0-0.3-0.1-0.5-0.1H842c-0.1,0-0.2,0-0.3,0h-0.1c-0.1,0-0.2,0-0.3,0.1
			c-2.3,1.3-4.2,7.4-5.8,12.6s-7.7,16.9-8.3,24c-0.3,3,0.1,4.5,0.7,5c0.6-7.1,5.9-18.6,10.5-27.8
			C841.5,363.5,843.4,359.4,844.5,357.1z"/>
	</g>
	<g>
		<path class="st47" d="M1142.1,319.3c0,0,11.1-11.4,13.7-15c2.7-3.6,6.3-7.6,7.8-5.8c1.5,1.8,2.1,8.1,0.4,16.8s-8.3,22-8.9,23.2
			c-0.5,1.2-0.6,4.4-4.4,5.6c-3.8,1.1-13.5-6.3-13.5-6.3L1142.1,319.3z"/>
		<path class="st46" d="M1150.7,344.1c3.8-1.1,3.8-4.4,4.4-5.6c0.5-1.2,7.1-14.5,8.9-23.2s1.1-15-0.4-16.8c-0.3-0.4-0.7-0.5-1.1-0.4
			c0.3,2.6,0.5,7.5-0.6,14.2c-1.1,7.1-8.1,22.9-12.3,31.9C1150,344.2,1150.4,344.2,1150.7,344.1z"/>
	</g>
	<path class="st48" d="M903.9,267.5c0,0-3.1,6.4-0.8,14s22,18.3,22,18.3s4.3-11.4,9.4-18s14.4-12.9,14.4-12.9l49.9,4.6
		c0,0,15.8-15.9,16.2-28.4c0.5-12.4-13.1-37.1-18.5-42.3s-8.8-10.3-8.8-10.3l-61.5,23.3c0,0,3.5,9-3.4,21.7
		C916,250.1,903.9,267.5,903.9,267.5z"/>
	
		<linearGradient id="SVGID_00000114061342864704022360000017774699540951962760_" gradientUnits="userSpaceOnUse" x1="443.785" y1="1676.7385" x2="733.6691" y2="1676.7385" gradientTransform="matrix(0.9746 -0.224 0.224 0.9746 43.864 -1183.9636)">
		<stop  offset="0" style="stop-color:#404F5E"/>
		<stop  offset="1" style="stop-color:#26282A"/>
	</linearGradient>
	<path style="fill:url(#SVGID_00000114061342864704022360000017774699540951962760_);" d="M940.6,270.7c0,0-0.5,21,2.6,28.7
		c3.1,7.6,8,12.4,8,12.4l-1.1,46.5l-90,2l-1.9,17.6c0,0,57.5,0.9,79.3,2.6s34.1,3.4,35.9,2.2s3.4-4,3.4-4l11.2-66.8l60.5-9.5
		c0,0,21.7,11.4,38.1,18.6s51.7,19.9,51.7,19.9s3.9-3,4.2-8.7c0.3-5.7-0.3-12.8-0.3-12.8s-3.4-2.2-5.7-2.7s-4.9,0.9-6.8,0.8
		s-51-29.7-56.6-33s-13.8-12.1-21-13.1s-54.8-1.7-54.8-1.7l-2.3-6.5C971.7,264.5,952.9,267,940.6,270.7z"/>
	<g>
		<path class="st46" d="M932,232.4c0,0,7,25.8,6.9,26.6c-0.1,0.8,2,17.1,2,17.1c17.7-4.8,36.2-8,55.8-8.6l-1-66.3L983,163.6
			l-59.8,18.8L932,232.4z"/>
		<g>
			<path class="st50" d="M970,230.2c1.5-1.8,2.5-2.9,2.5-2.9"/>
			<path class="st50" d="M940.6,264.2c0,0,5.5-7.4,8.7-10.4c2.2-2.1,12.2-13.6,18.3-20.8"/>
			<path class="st50" d="M969.9,217.4c0,0-12.6,21.5-19.3,30.5"/>
			<path class="st50" d="M974.8,256.2c-5.5,3-12.5,6.7-17.6,9.4"/>
			<path class="st50" d="M983.8,251.3c0,0-2.3,1.2-5.7,3.1"/>
		</g>
	</g>
	<g>
		<g>
			<g>
				<path class="st46" d="M1058.1,70.8l7.4-22.4c0,0,3.1-10.1,3.8-8.8c0.7,1.3,1,1.5,0.5,3.2c-0.4,1.8-1.2,11.3-1.2,11.3l6.7-10.9
					c0,0,2.3-2,2.3-0.1s-4,10.7-4,10.7s9.4-6.5,10-5.4s-7.9,10-7.9,10s10.4-2,10.5-0.7c0.1,1.2-8.5,4-8.5,4s-0.6,2.8-4.6,7.3
					s-7.5,6.5-7.5,6.5L1058.1,70.8z"/>
				<path class="st46" d="M1062.3,64.7c0,0,5.1-2.2,8.7-6c3.5-3.7,6.8-7,7.1-5.6s-3.5,6.5-4,7s-0.8,3.7-2.2,6.8
					c-1.4,3-6.2,6.4-6.2,6.4"/>
			</g>
			<polygon class="st46" points="1053.6,75.7 1058.6,68.6 1068.4,76.6 1063.8,82.9 			"/>
		</g>
		
			<linearGradient id="SVGID_00000071519004818128134000000000297608051831813252_" gradientUnits="userSpaceOnUse" x1="602.4819" y1="1531.9821" x2="711.4078" y2="1531.9821" gradientTransform="matrix(0.9746 -0.224 0.224 0.9746 43.864 -1183.9636)">
			<stop  offset="2.237672e-07" style="stop-color:#F3719C"/>
			<stop  offset="1" style="stop-color:#FF9373"/>
		</linearGradient>
		<path style="fill:url(#SVGID_00000071519004818128134000000000297608051831813252_);" d="M979.7,177.6c0,0,0.7,3.8,8.7,16.2
			s19.8,34.5,22.8,40.9c2.9,6.4,3.8,10.4,3.8,10.4s2.6-16.9-1.2-32.7s-18.1-35.9-18.1-35.9s28.8-30.9,33.6-37.2s36-55.1,36-55.1
			l-11.8-8.6l-38.6,42.9l-34.5,28.8c0,0-6.9,6.4-7.6,8.8c-0.7,2.5-0.8,10,0.1,12.1C973.8,170.4,979.7,177.6,979.7,177.6z"/>
		<path class="st50" d="M993.7,196.1c1,1.4,2,2.3,2.2,2.6"/>
		<path class="st50" d="M976.9,160.1l11,15l-6.9,0.1l9,4.6c0,0-0.1,5.9,1,10.6c0.4,1.6,1,3,1.7,4.1"/>
		<line class="st50" x1="1001.5" y1="143.5" x2="1002.3" y2="139"/>
		<polyline class="st50" points="989.2,150 995.7,176.4 1000.8,147.8 		"/>
	</g>
	<path class="st52" d="M962.1,183.4l8.9,7.3c0,0,1.9-1,4-4.4s3.5-10,3.7-11.2c0.1-1.2-4.5-3.6-4.5-3.6l-18.3,5L962.1,183.4z"/>
	<g>
		<g>
			
				<linearGradient id="SVGID_00000004544268887596251910000001586333342867952290_" gradientUnits="userSpaceOnUse" x1="479.0705" y1="1570.4207" x2="582.1888" y2="1570.4207" gradientTransform="matrix(0.9746 -0.224 0.224 0.9746 43.864 -1183.9636)">
				<stop  offset="2.237672e-07" style="stop-color:#F3719C"/>
				<stop  offset="1" style="stop-color:#FF9373"/>
			</linearGradient>
			<path style="fill:url(#SVGID_00000004544268887596251910000001586333342867952290_);" d="M941.8,166.4l-4.9,4.9
				c0,0-23.2,5.3-24.4,7.3s-36.4,51.4-36.4,53.5s-3,53.1-3,53.1l16.4,2.5l10.1-50.4l22.4-18.7c0,0,1.1,6.4-2.1,16.4
				s-16.1,32.5-16.1,32.5s14.2-18.9,23.8-26.4s17-6.2,23-18.9c6.1-12.7,8.8-22.5,6.7-31C955.2,182.8,941.8,166.4,941.8,166.4z"/>
			<path class="st50" d="M922.1,218.6c0,0,0.2-5.7-3.1-14.3"/>
			<path class="st50" d="M948.8,220.4c-0.7,2.4-1.2,3.9-1.2,3.9"/>
			<path class="st50" d="M938.7,172l5.5,12.1l6.7,1.8l-4.2,2.4c0,0,7.2,10.6,5.7,18.5c-0.7,3.6-1.7,7.5-2.7,10.7"/>
		</g>
		<polygon class="st46" points="873.1,285.3 872.3,293.1 887,295.5 887,287.7 		"/>
		<g>
			<polygon class="st54" points="869.7,306.6 867.6,314.6 870.3,315.3 871.6,310.6 890.6,315.6 889.4,320.3 892,321 894.2,313 			
				"/>
			<path class="st55" d="M899.2,393.2L826,374.1c-3.2-0.8-5.1-4.1-4.3-7.3L836,312c0.8-3.2,4.1-5.1,7.3-4.3l73.2,19.1
				c3.2,0.8,5.1,4.1,4.3,7.3l-14.3,54.7C905.7,392.1,902.5,394,899.2,393.2z"/>
		</g>
		<path class="st46" d="M887,295.5l4.7,8.5c0,0,0.7,5.1,1,6.6c0.3,1.4,4.2,4.1,2.7,5.2s-3.1,1.7-4.2,0.5c-1-1.3-2.3-3.5-2.3-3.5
			l-0.6,7.2c0,0-4.2-0.5-5.6-1.2c-1.4-0.7-2-4.6-2-4.6s-8.2-1.6-9.2-2.9s-1.4-6.2-1.4-6.2l2.3-11.8L887,295.5z"/>
	</g>
	<path class="st46" d="M944.3,162.9l-2.5,3.6l17.9,27l8.2-15.1C968,178.4,951.9,163,944.3,162.9z"/>
	<path class="st46" d="M974.7,176.2l7.4,7.5c0,0-2.9-10.1-6.5-16.6L974.7,176.2z"/>
	<path class="st52" d="M971,190.7c0,0-1,3.8-10.7,4.5s-23.5-8.8-32.8-8.1c-9.2,0.7-21.7,13.6-33.7,14c-12,0.5-24.3-3-24.3-3
		l-16.1,15.2c0,0,20.1,3.9,22,3.7s26.3-2.7,33-7.4s14.9-14.1,23.1-13.2c8.1,0.9,19.6,9.9,28.5,6.6C968.7,199.8,971,190.7,971,190.7z
		"/>
	<path class="st46" d="M946.7,114.2c0,0,11.6,1.9,12.7,3.7s3.2,15,3.2,15s2.3,1,2.3,3.5s6.3-3,6.3-3s3.3,5.1,4.9,8.7
		c1.6,3.6,1.7,5.6,1,8.2s-2.6,4.6-2.6,4.6s-2.2,11.1-2.7,16.7s-0.8,8.4-3.6,7.9c-2.8-0.4-4.5-1.9-4.5-1.9s-6.7-8.7-11-11.3
		s-7.8-3.9-8.4-4.1c-0.6-0.2-3.5-1-4-3.3s2.1-5.1,2.1-5.1s-8.5,1.8-12.3-8.5s3.8-22.2,6.8-26C939.8,115.7,946.7,114.2,946.7,114.2z"
		/>
	<g>
		<g>
			<path class="st56" d="M964.5,148.7c0.1-0.4,0.4-0.8,0.8-1c0.5-0.4,1.2-0.5,1.8-0.4s1.1,0.7,1.2,1.3l-0.1-0.1
				c0.2,0.6,0.1,1.2-0.3,1.7s-1,0.7-1.6,0.7s-1.2-0.4-1.5-0.9C964.5,149.6,964.3,149.1,964.5,148.7z"/>
		</g>
		<g>
			<path class="st57" d="M950.8,167.4c0,0-15.5-0.9-24.9-12.6c-9.5-11.8-1.8-16.3-1.8-16.3s-11.2-1-8.8-11.9
				c2.5-10.9,9.8-14.4,7.5-7c0,0,9-11.9,21.7-13.2c12.7-1.3,8.8-12,11.9-12.7c3.1-0.7,5.5,6.8,3.6,10.3c0,0,4-8.6,6-8
				c2,0.7,8.5,13,0.1,23.7c0,0,7.6,3.6,6,19.6C970.6,155.3,950.8,167.4,950.8,167.4z"/>
			<path class="st46" d="M962.7,122.3c8.8,10.6,16.8,21.3,14.9,33.7c-0.5,3.2-2.6,5.9-5.6,7.1c-5.9,2.3-16.9,4.2-28.3-5.8
				c0,0-1.2,3.7-7.3-0.2s-5.6-6.6-3.5-8.4s9.7,4.3,9.7,4.3s4.1-8.8-4.7-18.1c0,0,6.9,0.2,10.2-1.6c3.2-1.9-2.7-4.7-2.7-4.7
				S954.1,132,962.7,122.3z"/>
		</g>
		<g>
			<g>
				<g>
					<g>
						<g>
							<g>
								<g>
									<g>
										<g>
											<g>
												<g>
													<g>
														<g>
															<g>
																<g>
																	<g>
																		<g>
																			<g>
																				<g>
																					<path class="st58" d="M968.7,133.4c0.4,0.6,0.2,1.4-0.5,1.8s-1.4,0.2-1.8-0.4c-0.4-0.6-0.2-1.4,0.5-1.8
																						C967.5,132.7,968.3,132.8,968.7,133.4z"/>
																				</g>
																			</g>
																		</g>
																	</g>
																</g>
															</g>
														</g>
													</g>
												</g>
											</g>
										</g>
									</g>
									<g>
										<g>
											<g>
												<g>
													<g>
														<g>
															<g>
																<g>
																	<g>
																		<g>
																			<g>
																				<g>
																					<g>
																						<path class="st58" d="M967.7,131.2c0,0.2-1.3,0.2-2.5,1.1c-1.1,0.9-1.4,2.2-1.7,2.1c-0.1,0-0.2-0.4-0.1-1
																							s0.5-1.3,1.2-1.9c0.7-0.6,1.5-0.7,2.1-0.7C967.4,130.9,967.7,131.1,967.7,131.2z"/>
																					</g>
																				</g>
																			</g>
																		</g>
																	</g>
																</g>
															</g>
														</g>
													</g>
												</g>
											</g>
										</g>
									</g>
								</g>
								<g>
									<g>
										<g>
											<g>
												<g>
													<g>
														<g>
															<g>
																<g>
																	<g>
																		<g>
																			<g>
																				<g>
																					<path class="st58" d="M956.7,140.8c0.4,0.6,0.2,1.4-0.5,1.8s-1.4,0.2-1.8-0.4c-0.4-0.6-0.2-1.4,0.5-1.8
																						C955.5,140.1,956.3,140.2,956.7,140.8z"/>
																				</g>
																			</g>
																		</g>
																	</g>
																</g>
															</g>
														</g>
													</g>
												</g>
											</g>
										</g>
									</g>
									<g>
										<g>
											<g>
												<g>
													<g>
														<g>
															<g>
																<g>
																	<g>
																		<g>
																			<g>
																				<g>
																					<g>
																						<path class="st58" d="M955.9,138.7c-0.1,0.3-1.5,0.1-2.9,0.9c-1.4,0.8-2,2.1-2.3,2c-0.1,0-0.1-0.4,0.1-1
																							c0.3-0.6,0.8-1.4,1.7-1.9s1.8-0.6,2.5-0.5C955.6,138.3,956,138.6,955.9,138.7z"/>
																					</g>
																				</g>
																			</g>
																		</g>
																	</g>
																</g>
															</g>
														</g>
													</g>
												</g>
											</g>
										</g>
									</g>
								</g>
								<g>
									<g>
										<g>
											<g>
												<g>
													<g>
														<g>
															<g>
																<g>
																	<g>
																		<g>
																			<g>
																				<g>
																					<path class="st58" d="M964.8,145.1c0-0.1,0.7-0.6,1.8-1.5c0.3-0.2,0.6-0.4,0.5-0.7c0-0.3-0.4-0.5-0.8-0.8
																						c-0.7-0.6-1.5-1.2-2.3-1.9c-3.3-2.7-5.8-5.1-5.7-5.2c0.1-0.1,2.8,2,6.1,4.7c0.8,0.7,1.6,1.3,2.3,1.9
																						c0.3,0.3,0.8,0.6,0.9,1.2c0,0.3-0.1,0.6-0.3,0.8s-0.3,0.3-0.5,0.4C965.6,144.7,964.8,145.1,964.8,145.1z"/>
																				</g>
																			</g>
																		</g>
																	</g>
																</g>
															</g>
														</g>
													</g>
												</g>
											</g>
										</g>
									</g>
								</g>
							</g>
						</g>
					</g>
					<g>
						<g>
							<g>
								<g>
									<g>
										<g>
											<g>
												<g>
													<g>
														<g>
															<g>
																<g>
																	<path class="st58" d="M954.9,135.5c0,0.4-1.4,0.8-2.9,1.6s-2.6,1.8-2.9,1.5c-0.2-0.1-0.1-0.6,0.3-1.1
																		c0.4-0.6,1-1.2,1.9-1.7s1.8-0.7,2.5-0.7C954.5,135.2,954.9,135.4,954.9,135.5z"/>
																</g>
															</g>
														</g>
													</g>
												</g>
											</g>
										</g>
									</g>
								</g>
							</g>
						</g>
					</g>
					<g>
						<g>
							<g>
								<g>
									<g>
										<g>
											<g>
												<g>
													<g>
														<g>
															<g>
																<g>
																	<path class="st58" d="M965.9,127.9c0,0.4-1.1,0.8-2.2,1.6c-1.1,0.7-1.8,1.6-2.2,1.5c-0.2-0.1-0.2-0.4,0-1
																		c0.2-0.5,0.7-1.2,1.4-1.7s1.5-0.7,2.1-0.7C965.6,127.6,965.9,127.7,965.9,127.9z"/>
																</g>
															</g>
														</g>
													</g>
												</g>
											</g>
										</g>
									</g>
								</g>
							</g>
						</g>
					</g>
				</g>
			</g>
		</g>
		<g>
			<g>
				<g>
					<path class="st59" d="M958.5,139.2c0,0-0.2-0.5-0.7-1.2s-1.5-1.7-3-2.1c-0.8-0.2-1.6-0.3-2.5-0.1s-1.8,0.6-2.6,1.2
						c-0.4,0.3-0.8,0.7-1,1.2c-0.3,0.4-0.5,1-0.7,1.5c-0.3,1.1-0.3,2.3,0.1,3.4c0.4,1.1,1.2,2.1,2.1,2.7c0.5,0.3,1,0.6,1.5,0.7
						c0.5,0.1,1,0.2,1.6,0.2c1,0,2-0.3,2.8-0.8s1.4-1.1,1.8-1.8c0.9-1.3,1-2.7,0.9-3.6C958.7,139.7,958.5,139.2,958.5,139.2
						s0,0.1,0.1,0.3c0,0.1,0.1,0.2,0.1,0.4s0.1,0.4,0.1,0.6c0.1,0.9,0,2.3-0.8,3.7c-0.4,0.7-1,1.4-1.9,1.9c-0.8,0.5-1.8,0.8-2.9,0.8
						c-0.5,0-1.1-0.1-1.6-0.2c-0.5-0.1-1.1-0.4-1.6-0.7c-1-0.6-1.8-1.6-2.2-2.8s-0.5-2.4-0.1-3.6c0.2-0.6,0.4-1.1,0.7-1.6
						s0.7-0.9,1.1-1.2c0.8-0.7,1.8-1.1,2.7-1.3c1-0.2,1.9-0.1,2.6,0.2c1.6,0.5,2.5,1.5,3,2.2c0.1,0.2,0.2,0.4,0.3,0.5
						s0.1,0.3,0.2,0.4C958.5,139.1,958.5,139.2,958.5,139.2z"/>
				</g>
			</g>
		</g>
		<g>
			<g>
				<g>
					<path class="st59" d="M972.3,131c0,0-0.2-0.5-0.7-1.2s-1.5-1.7-3-2.1c-0.8-0.2-1.6-0.3-2.5-0.2c-0.9,0.2-1.8,0.5-2.6,1.2
						c-0.4,0.3-0.8,0.7-1,1.2c-0.3,0.4-0.5,1-0.7,1.5c-0.3,1.1-0.3,2.3,0.1,3.4c0.4,1.1,1.2,2.1,2.1,2.7c0.5,0.3,1,0.6,1.5,0.7
						c0.5,0.1,1,0.2,1.6,0.2c1,0,2-0.3,2.8-0.8s1.4-1.1,1.8-1.8c0.9-1.3,1-2.7,0.9-3.6C972.5,131.5,972.2,131.1,972.3,131
						c0,0,0,0.1,0.1,0.3c0,0.1,0.1,0.2,0.1,0.4s0.1,0.4,0.1,0.6c0.1,0.9,0,2.3-0.8,3.7c-0.4,0.7-1,1.4-1.9,1.9
						c-0.8,0.5-1.8,0.8-2.9,0.8c-0.5,0-1.1-0.1-1.6-0.2c-0.5-0.1-1.1-0.4-1.6-0.7c-1-0.6-1.8-1.6-2.2-2.8s-0.5-2.4-0.1-3.6
						c0.2-0.6,0.4-1.1,0.7-1.6s0.7-0.9,1.1-1.2c0.8-0.7,1.8-1.1,2.7-1.3c1-0.2,1.9-0.1,2.6,0.2c1.6,0.5,2.5,1.5,3,2.2
						c0.1,0.2,0.2,0.4,0.3,0.5s0.1,0.3,0.2,0.4C972.2,130.9,972.3,131,972.3,131z"/>
				</g>
			</g>
		</g>
		<g>
			<g>
				<path class="st59" d="M969.8,127.5c0,0-2.7-1.6-5.6,0c-3.1,1.7-3.8,5.4-3.8,5.4c-3.2,0.9-4.3,2.7-4.3,2.7s-2.8-1.5-6.1,0.2
					c-2.8,1.5-3.4,5.4-3.4,5.4l-2,1.5l1.3,1.9l2.3-1.6c0,0-0.9-4.2,2.1-6c4-2.5,6.3,0.2,6.3,0.2l0.9-0.6l-0.6-0.4
					c0,0,1.9-2.1,3.8-2.2l0.4,0.7l0.7-0.3c0,0-0.8-3.9,3-5.8c4.2-2.2,6.8,1.6,6.8,1.6l1.5-1.1l-1.1-1.9L969.8,127.5z"/>
			</g>
		</g>
		<g>
			<g>
				<g>
					<path class="st5" d="M955.3,145.6c0,0-0.3,0.2-0.9,0.4c-0.6,0.2-1.5,0.3-2.5,0.1s-1.7-0.7-2.2-1.2c-0.5-0.4-0.7-0.8-0.6-0.8
						c0,0,0.3,0.3,0.8,0.7s1.2,0.8,2.1,1.1c0.9,0.2,1.8,0.1,2.4,0C954.9,145.8,955.3,145.6,955.3,145.6z"/>
				</g>
			</g>
		</g>
		<g>
			<g>
				<g>
					<g>
						<g>
							<g>
								<g>
									<g>
										<g>
											<g>
												<g>
													<g>
														<path class="st58" d="M964.2,148.1c0.1-0.1,0.8,0.9,2.2,1s2.3-0.7,2.4-0.6c0.1,0.1-0.1,0.4-0.5,0.7s-1.2,0.6-2,0.6
															c-0.8-0.1-1.5-0.5-1.8-0.9C964.2,148.4,964.1,148.1,964.2,148.1z"/>
													</g>
												</g>
											</g>
										</g>
									</g>
								</g>
							</g>
						</g>
					</g>
				</g>
			</g>
		</g>
	</g>
</g>
<g>
	<path class="st5" d="M252.6,283.5c-1.1,0-2.2-0.2-3.3-0.5s-1.9-0.8-2.5-1.3l0.9-2.1c0.6,0.5,1.3,0.9,2.2,1.1
		c0.9,0.3,1.8,0.5,2.7,0.5c0.8,0,1.4-0.1,1.9-0.2s0.8-0.4,1.1-0.7c0.2-0.3,0.3-0.6,0.3-1c0-0.5-0.2-0.8-0.5-1.1
		c-0.3-0.3-0.7-0.5-1.2-0.6s-1.1-0.3-1.7-0.5s-1.2-0.3-1.9-0.5s-1.2-0.4-1.7-0.7c-0.5-0.3-0.9-0.7-1.2-1.2s-0.5-1.1-0.5-1.9
		s0.2-1.5,0.6-2.2c0.4-0.7,1.1-1.2,1.9-1.6s2-0.6,3.3-0.6c0.9,0,1.8,0.1,2.6,0.3c0.9,0.2,1.6,0.5,2.3,1l-0.9,2.1
		c-0.7-0.4-1.3-0.7-2-0.9s-1.4-0.3-2-0.3c-0.8,0-1.4,0.1-1.8,0.3s-0.8,0.4-1,0.7c-0.2,0.3-0.3,0.6-0.3,1c0,0.5,0.2,0.8,0.5,1.1
		s0.7,0.5,1.2,0.6s1.1,0.3,1.7,0.5c0.6,0.1,1.3,0.3,1.9,0.5c0.6,0.2,1.2,0.4,1.7,0.7c0.5,0.3,0.9,0.7,1.2,1.2
		c0.3,0.5,0.5,1.1,0.5,1.9s-0.2,1.5-0.6,2.2s-1.1,1.2-2,1.6C255,283.2,253.9,283.5,252.6,283.5z"/>
	<path class="st5" d="M262.3,270.2c-0.5,0-0.9-0.1-1.2-0.5c-0.3-0.3-0.5-0.7-0.5-1.1c0-0.5,0.2-0.8,0.5-1.1s0.7-0.5,1.2-0.5
		s0.9,0.1,1.2,0.4c0.3,0.3,0.5,0.6,0.5,1.1s-0.1,0.9-0.5,1.2C263.2,270,262.8,270.2,262.3,270.2z M261,283.2V272h2.6v11.2H261z"/>
	<path class="st5" d="M271.8,282.7c-1.1,0-2-0.2-2.9-0.7s-1.5-1.1-2-1.9s-0.8-1.8-0.8-2.9s0.2-2,0.8-2.8s1.2-1.4,2-1.9
		c0.9-0.5,1.8-0.7,2.9-0.7c1,0,1.8,0.2,2.6,0.6c0.8,0.4,1.4,1,1.8,1.8c0.5,0.8,0.7,1.8,0.7,3.1s-0.2,2.3-0.7,3.1
		c-0.5,0.8-1.1,1.4-1.8,1.8C273.6,282.5,272.8,282.7,271.8,282.7z M272.1,287.5c-1,0-2-0.1-3-0.4s-1.8-0.7-2.4-1.2l1.2-2
		c0.5,0.4,1.1,0.7,1.9,1c0.8,0.2,1.5,0.4,2.3,0.4c1.2,0,2.1-0.3,2.7-0.9s0.9-1.4,0.9-2.5v-2l0.2-2.5l-0.1-2.5V272h2.5v9.5
		c0,2-0.5,3.5-1.5,4.5C275.6,287,274.1,287.5,272.1,287.5z M272.2,280.5c0.7,0,1.2-0.1,1.8-0.4s0.9-0.6,1.2-1.1s0.4-1,0.4-1.7
		s-0.1-1.2-0.4-1.7s-0.7-0.9-1.2-1.1c-0.5-0.3-1.1-0.4-1.8-0.4c-0.7,0-1.2,0.1-1.8,0.4s-0.9,0.6-1.2,1.1c-0.3,0.5-0.4,1-0.4,1.7
		s0.1,1.2,0.4,1.7s0.7,0.9,1.2,1.1C270.9,280.4,271.5,280.5,272.2,280.5z"/>
	<path class="st5" d="M288,271.9c0.9,0,1.7,0.2,2.4,0.5c0.7,0.4,1.3,0.9,1.7,1.6c0.4,0.7,0.6,1.6,0.6,2.8v6.4H290v-6.1
		c0-1-0.2-1.7-0.7-2.2s-1.1-0.7-2-0.7c-0.6,0-1.2,0.1-1.6,0.4s-0.8,0.6-1.1,1.1s-0.4,1.1-0.4,1.9v5.7h-2.6V272h2.5v3l-0.4-0.9
		c0.4-0.7,1-1.3,1.7-1.6C286.1,272.1,287,271.9,288,271.9z"/>
	<path class="st5" d="M306.5,283.4c-1,0-1.8-0.2-2.5-0.5c-0.7-0.4-1.3-0.9-1.7-1.6c-0.4-0.7-0.6-1.7-0.6-2.8V272h2.6v6
		c0,1,0.2,1.8,0.7,2.3s1.1,0.8,1.9,0.8c0.6,0,1.1-0.1,1.6-0.4c0.5-0.2,0.8-0.6,1.1-1.1s0.4-1.1,0.4-1.9V272h2.6v11.2h-2.5v-3
		l0.4,0.9c-0.4,0.7-0.9,1.3-1.7,1.7C308.2,283.2,307.4,283.4,306.5,283.4z"/>
	<path class="st5" d="M316.1,287.3V272h2.5v2.6l-0.1,3l0.2,3v6.7L316.1,287.3L316.1,287.3z M322.3,283.4c-0.9,0-1.7-0.2-2.5-0.6
		s-1.3-1-1.8-1.9s-0.7-1.9-0.7-3.2c0-1.3,0.2-2.4,0.6-3.2c0.4-0.8,1-1.5,1.8-1.9s1.6-0.6,2.5-0.6c1.1,0,2.1,0.2,2.9,0.7
		c0.9,0.5,1.5,1.1,2,2s0.8,1.9,0.8,3s-0.2,2.2-0.8,3s-1.2,1.5-2,2C324.4,283.1,323.4,283.4,322.3,283.4z M322,281.1
		c0.6,0,1.2-0.1,1.7-0.4s0.9-0.7,1.2-1.2s0.4-1.2,0.4-1.9c0-0.7-0.1-1.4-0.4-1.9s-0.7-0.9-1.2-1.2s-1.1-0.4-1.7-0.4
		s-1.2,0.1-1.7,0.4s-0.9,0.7-1.2,1.2c-0.3,0.5-0.4,1.1-0.4,1.9c0,0.7,0.1,1.3,0.4,1.9s0.7,0.9,1.2,1.2S321.4,281.1,322,281.1z"/>
	<path class="st5" d="M334.8,274.2v-2.1h7.5v2.1H334.8z M336.7,283.2v-11.8c0-1.2,0.4-2.1,1-2.8c0.7-0.7,1.7-1.1,3-1.1
		c0.5,0,0.9,0,1.3,0.1s0.8,0.2,1,0.5l-0.7,2c-0.2-0.1-0.4-0.3-0.7-0.4c-0.2-0.1-0.5-0.1-0.8-0.1c-0.5,0-1,0.1-1.2,0.5
		c-0.3,0.3-0.4,0.8-0.4,1.4v1.3l0.1,1.2v9.4h-2.6L336.7,283.2L336.7,283.2z"/>
	<path class="st5" d="M348.9,283.4c-1.1,0-2.2-0.2-3.1-0.8s-1.6-1.2-2.1-2s-0.8-1.9-0.8-3s0.3-2.1,0.8-3s1.2-1.5,2.1-2
		s1.9-0.7,3.1-0.7s2.2,0.2,3.1,0.7s1.6,1.2,2.1,2c0.5,0.9,0.8,1.9,0.8,3s-0.3,2.1-0.8,3s-1.2,1.5-2.1,2S350.1,283.4,348.9,283.4z
		 M348.9,281.1c0.6,0,1.2-0.1,1.7-0.4s0.9-0.7,1.2-1.2s0.4-1.2,0.4-1.9c0-0.7-0.1-1.4-0.4-1.9s-0.7-0.9-1.2-1.2s-1.1-0.4-1.7-0.4
		s-1.2,0.1-1.7,0.4s-0.9,0.7-1.2,1.2c-0.3,0.5-0.4,1.1-0.4,1.9c0,0.7,0.1,1.3,0.4,1.9s0.7,0.9,1.2,1.2
		C347.7,281,348.3,281.1,348.9,281.1z"/>
	<path class="st5" d="M357.4,283.2V272h2.5v3.1l-0.3-0.9c0.3-0.8,0.9-1.3,1.6-1.7c0.7-0.4,1.6-0.6,2.7-0.6v2.5c-0.1,0-0.2,0-0.3,0
		c-0.1,0-0.2,0-0.3,0c-1,0-1.8,0.3-2.4,0.9s-0.9,1.5-0.9,2.6v5.4L357.4,283.2L357.4,283.2z"/>
	<path class="st5" d="M372.3,283.2v-14.7h6.9c1.8,0,3.1,0.4,4,1s1.4,1.6,1.4,2.8c0,0.8-0.2,1.5-0.5,2c-0.4,0.5-0.9,1-1.5,1.3
		s-1.3,0.5-2,0.5l0.4-0.8c0.8,0,1.6,0.1,2.2,0.5c0.7,0.3,1.2,0.7,1.6,1.3s0.6,1.3,0.6,2.1c0,1.3-0.5,2.2-1.5,2.9s-2.4,1-4.3,1
		L372.3,283.2L372.3,283.2z M375,281.1h4.4c1,0,1.8-0.2,2.4-0.5c0.5-0.3,0.8-0.9,0.8-1.6s-0.3-1.3-0.8-1.6c-0.5-0.3-1.3-0.5-2.4-0.5
		h-4.6v-2.1h4.1c1,0,1.7-0.2,2.2-0.5s0.8-0.8,0.8-1.5s-0.3-1.2-0.8-1.5s-1.2-0.5-2.2-0.5H375V281.1L375,281.1z"/>
	<path class="st5" d="M393.1,283.4c-1.1,0-2.2-0.2-3.1-0.8s-1.6-1.2-2.1-2s-0.8-1.9-0.8-3s0.3-2.1,0.8-3s1.2-1.5,2.1-2
		s1.9-0.7,3.1-0.7s2.2,0.2,3.1,0.7s1.6,1.2,2.1,2c0.5,0.9,0.8,1.9,0.8,3s-0.3,2.1-0.8,3s-1.2,1.5-2.1,2
		C395.3,283.1,394.2,283.4,393.1,283.4z M393.1,281.1c0.6,0,1.2-0.1,1.7-0.4s0.9-0.7,1.2-1.2s0.4-1.2,0.4-1.9c0-0.7-0.1-1.4-0.4-1.9
		s-0.7-0.9-1.2-1.2s-1.1-0.4-1.7-0.4s-1.2,0.1-1.7,0.4s-0.9,0.7-1.2,1.2c-0.3,0.5-0.4,1.1-0.4,1.9c0,0.7,0.1,1.3,0.4,1.9
		s0.7,0.9,1.2,1.2C391.9,281,392.4,281.1,393.1,281.1z"/>
	<path class="st5" d="M406.6,283.4c-1.1,0-2.2-0.2-3.1-0.8s-1.6-1.2-2.1-2s-0.8-1.9-0.8-3s0.3-2.1,0.8-3s1.2-1.5,2.1-2
		s1.9-0.7,3.1-0.7s2.2,0.2,3.1,0.7s1.6,1.2,2.1,2c0.5,0.9,0.8,1.9,0.8,3s-0.3,2.1-0.8,3s-1.2,1.5-2.1,2S407.8,283.4,406.6,283.4z
		 M406.6,281.1c0.6,0,1.2-0.1,1.7-0.4s0.9-0.7,1.2-1.2s0.4-1.2,0.4-1.9c0-0.7-0.1-1.4-0.4-1.9s-0.7-0.9-1.2-1.2s-1.1-0.4-1.7-0.4
		s-1.2,0.1-1.7,0.4s-0.9,0.7-1.2,1.2c-0.3,0.5-0.4,1.1-0.4,1.9c0,0.7,0.1,1.3,0.4,1.9s0.7,0.9,1.2,1.2
		C405.4,281,406,281.1,406.6,281.1z"/>
	<path class="st5" d="M429.3,271.9c0.9,0,1.7,0.2,2.4,0.5c0.7,0.4,1.2,0.9,1.6,1.6s0.6,1.6,0.6,2.8v6.4h-2.6v-6.1
		c0-1-0.2-1.7-0.6-2.2s-1.1-0.7-1.9-0.7c-0.6,0-1.1,0.1-1.5,0.4s-0.8,0.6-1,1.1s-0.4,1.1-0.4,1.9v5.7h-2.6v-6.1c0-1-0.2-1.7-0.6-2.2
		s-1.1-0.7-1.9-0.7c-0.6,0-1.1,0.1-1.5,0.4s-0.8,0.6-1,1.1s-0.4,1.1-0.4,1.9v5.7h-2.6V272h2.5v3l-0.4-0.9c0.4-0.7,0.9-1.3,1.6-1.7
		s1.5-0.6,2.5-0.6s2,0.3,2.7,0.8s1.3,1.3,1.5,2.4l-1-0.4c0.4-0.8,1-1.5,1.8-2S428.2,271.9,429.3,271.9z"/>
	<path class="st5" d="M444.3,283.5c-1.1,0-2.2-0.2-3.1-0.6s-1.8-0.9-2.5-1.6s-1.3-1.5-1.6-2.4c-0.4-0.9-0.6-1.9-0.6-3s0.2-2.1,0.6-3
		s0.9-1.7,1.7-2.4s1.5-1.2,2.5-1.6s2-0.6,3.1-0.6c1.2,0,2.3,0.2,3.3,0.6s1.8,1,2.5,1.8l-1.8,1.7c-0.5-0.6-1.1-1-1.8-1.3
		s-1.4-0.4-2.1-0.4s-1.5,0.1-2.1,0.4c-0.6,0.2-1.2,0.6-1.7,1.1s-0.8,1-1.1,1.6s-0.4,1.3-0.4,2.1s0.1,1.5,0.4,2.1s0.6,1.2,1.1,1.6
		c0.5,0.5,1,0.8,1.7,1.1s1.3,0.4,2.1,0.4s1.5-0.1,2.1-0.4s1.2-0.7,1.8-1.3l1.8,1.7c-0.7,0.8-1.5,1.4-2.5,1.8
		C446.6,283.2,445.5,283.5,444.3,283.5z"/>
	<path class="st5" d="M457.1,283.4c-1.1,0-2.2-0.2-3.1-0.8s-1.6-1.2-2.1-2s-0.8-1.9-0.8-3s0.3-2.1,0.8-3s1.2-1.5,2.1-2
		s1.9-0.7,3.1-0.7s2.2,0.2,3.1,0.7s1.6,1.2,2.1,2c0.5,0.9,0.8,1.9,0.8,3s-0.3,2.1-0.8,3s-1.2,1.5-2.1,2
		C459.3,283.1,458.3,283.4,457.1,283.4z M457.1,281.1c0.6,0,1.2-0.1,1.7-0.4s0.9-0.7,1.2-1.2s0.4-1.2,0.4-1.9c0-0.7-0.1-1.4-0.4-1.9
		s-0.7-0.9-1.2-1.2s-1.1-0.4-1.7-0.4s-1.2,0.1-1.7,0.4s-0.9,0.7-1.2,1.2c-0.3,0.5-0.4,1.1-0.4,1.9c0,0.7,0.1,1.3,0.4,1.9
		s0.7,0.9,1.2,1.2C455.9,281,456.5,281.1,457.1,281.1z"/>
	<path class="st5" d="M472,271.9c0.9,0,1.7,0.2,2.4,0.5c0.7,0.4,1.3,0.9,1.7,1.6c0.4,0.7,0.6,1.6,0.6,2.8v6.4H474v-6.1
		c0-1-0.2-1.7-0.7-2.2s-1.1-0.7-2-0.7c-0.6,0-1.2,0.1-1.6,0.4s-0.8,0.6-1.1,1.1s-0.4,1.1-0.4,1.9v5.7h-2.6V272h2.5v3l-0.4-0.9
		c0.4-0.7,1-1.3,1.7-1.6C470.1,272.1,471,271.9,472,271.9z"/>
	<path class="st5" d="M483.5,283.4c-0.9,0-1.8-0.1-2.7-0.4c-0.9-0.2-1.5-0.5-2-0.9l1-2c0.5,0.3,1.1,0.6,1.8,0.8s1.4,0.3,2.1,0.3
		c0.8,0,1.4-0.1,1.8-0.3c0.4-0.2,0.6-0.5,0.6-0.9c0-0.3-0.1-0.5-0.4-0.7s-0.6-0.3-1-0.4s-0.9-0.2-1.4-0.2c-0.5-0.1-1-0.2-1.5-0.3
		s-1-0.3-1.4-0.5s-0.7-0.5-1-0.9c-0.2-0.4-0.4-0.9-0.4-1.5c0-0.7,0.2-1.3,0.6-1.9c0.4-0.5,1-0.9,1.7-1.2c0.7-0.3,1.6-0.4,2.6-0.4
		c0.8,0,1.5,0.1,2.3,0.2s1.4,0.4,1.9,0.7l-1,2c-0.5-0.3-1.1-0.5-1.6-0.7c-0.5-0.1-1.1-0.2-1.6-0.2c-0.8,0-1.4,0.1-1.8,0.4
		c-0.4,0.2-0.6,0.5-0.6,0.9c0,0.3,0.1,0.6,0.4,0.8s0.6,0.3,1,0.4s0.9,0.2,1.4,0.2c0.5,0.1,1,0.2,1.5,0.3c0.5,0.1,0.9,0.3,1.4,0.5
		c0.4,0.2,0.8,0.5,1,0.9s0.4,0.9,0.4,1.5c0,0.7-0.2,1.3-0.6,1.8s-1,0.9-1.8,1.2C485.4,283.2,484.5,283.4,483.5,283.4z"/>
	<path class="st5" d="M495.9,283.4c-1.1,0-2.2-0.2-3.1-0.8s-1.6-1.2-2.1-2s-0.8-1.9-0.8-3s0.3-2.1,0.8-3s1.2-1.5,2.1-2
		s1.9-0.7,3.1-0.7s2.2,0.2,3.1,0.7s1.6,1.2,2.1,2c0.5,0.9,0.8,1.9,0.8,3s-0.3,2.1-0.8,3s-1.2,1.5-2.1,2S497,283.4,495.9,283.4z
		 M495.9,281.1c0.6,0,1.2-0.1,1.7-0.4s0.9-0.7,1.2-1.2s0.4-1.2,0.4-1.9c0-0.7-0.1-1.4-0.4-1.9s-0.7-0.9-1.2-1.2s-1.1-0.4-1.7-0.4
		s-1.2,0.1-1.7,0.4s-0.9,0.7-1.2,1.2c-0.3,0.5-0.4,1.1-0.4,1.9c0,0.7,0.1,1.3,0.4,1.9s0.7,0.9,1.2,1.2
		C494.7,281,495.2,281.1,495.9,281.1z"/>
	<path class="st5" d="M504.4,283.2v-15.6h2.6v15.6H504.4z"/>
	<path class="st5" d="M515.7,283.4c-1.2,0-2.3-0.2-3.3-0.8c-0.9-0.5-1.6-1.2-2.2-2s-0.8-1.9-0.8-3s0.2-2.1,0.8-3
		c0.5-0.9,1.2-1.5,2.1-2c0.9-0.5,1.9-0.7,3-0.7s2.1,0.2,2.9,0.7c0.8,0.5,1.5,1.1,2,2s0.7,1.9,0.7,3.1c0,0.1,0,0.2,0,0.4s0,0.3,0,0.4
		h-9.4v-1.7h8l-1,0.5c0-0.6-0.1-1.2-0.4-1.7c-0.3-0.5-0.7-0.9-1.1-1.1c-0.5-0.3-1-0.4-1.7-0.4c-0.6,0-1.2,0.1-1.7,0.4
		s-0.9,0.7-1.1,1.2s-0.4,1.1-0.4,1.8v0.4c0,0.7,0.2,1.3,0.5,1.8s0.7,0.9,1.3,1.2s1.2,0.4,1.9,0.4c0.6,0,1.2-0.1,1.7-0.3
		c0.5-0.2,1-0.5,1.3-0.9l1.4,1.6c-0.5,0.6-1.1,1-1.9,1.4S516.7,283.4,515.7,283.4z"/>
	<path class="st5" d="M527.8,274.2v-2.1h7.5v2.1H527.8z M533.5,283.4c-1.2,0-2.2-0.3-2.9-1c-0.7-0.6-1-1.6-1-2.8v-10.1h2.6v10
		c0,0.5,0.1,0.9,0.4,1.2c0.3,0.3,0.7,0.4,1.1,0.4c0.6,0,1.1-0.1,1.5-0.5l0.7,1.9c-0.3,0.2-0.7,0.4-1.1,0.6
		C534.5,283.3,534,283.4,533.5,283.4z"/>
	<path class="st5" d="M542.9,283.4c-1.2,0-2.2-0.2-3.1-0.8s-1.6-1.2-2.1-2s-0.8-1.9-0.8-3s0.3-2.1,0.8-3s1.2-1.5,2.1-2
		s1.9-0.7,3.1-0.7c1.2,0,2.2,0.2,3.1,0.7c0.9,0.5,1.6,1.2,2.1,2c0.5,0.9,0.8,1.9,0.8,3s-0.3,2.1-0.8,3s-1.2,1.5-2.1,2
		C545,283.1,544,283.4,542.9,283.4z M542.9,281.1c0.6,0,1.2-0.1,1.7-0.4s0.9-0.7,1.2-1.2s0.4-1.2,0.4-1.9c0-0.7-0.1-1.4-0.4-1.9
		s-0.7-0.9-1.2-1.2s-1.1-0.4-1.7-0.4c-0.6,0-1.2,0.1-1.7,0.4s-0.9,0.7-1.2,1.2s-0.4,1.1-0.4,1.9c0,0.7,0.2,1.3,0.4,1.9
		s0.7,0.9,1.2,1.2C541.7,281,542.2,281.1,542.9,281.1z"/>
	<path class="st5" d="M556.1,283.4c-1.1,0-2-0.2-2.9-0.7s-1.5-1.1-2-2s-0.7-1.9-0.7-3s0.2-2.2,0.7-3c0.5-0.9,1.2-1.5,2-2
		c0.9-0.5,1.8-0.7,2.9-0.7c0.9,0,1.8,0.2,2.5,0.6s1.3,1,1.8,1.9s0.7,1.9,0.7,3.2c0,1.3-0.2,2.4-0.6,3.2s-1,1.5-1.7,1.9
		S557.1,283.4,556.1,283.4z M556.4,281.1c0.6,0,1.2-0.1,1.7-0.4s0.9-0.7,1.2-1.2s0.5-1.2,0.5-1.9c0-0.7-0.2-1.4-0.5-1.9
		s-0.7-0.9-1.2-1.2s-1.1-0.4-1.7-0.4s-1.2,0.1-1.7,0.4s-0.9,0.7-1.2,1.2s-0.5,1.1-0.5,1.9c0,0.7,0.2,1.3,0.5,1.9s0.7,0.9,1.2,1.2
		S555.8,281.1,556.4,281.1z M559.8,283.2v-2.6l0.1-3l-0.2-3v-7h2.6v15.6H559.8L559.8,283.2z"/>
	<path class="st5" d="M569.2,283.4c-0.8,0-1.6-0.1-2.2-0.4c-0.6-0.3-1.1-0.7-1.5-1.2s-0.5-1.1-0.5-1.7s0.2-1.2,0.5-1.7
		s0.8-0.9,1.5-1.2s1.6-0.4,2.7-0.4h3.2v1.7h-3.1c-0.9,0-1.5,0.1-1.8,0.4s-0.5,0.6-0.5,1.1s0.2,0.9,0.6,1.1s0.9,0.4,1.6,0.4
		c0.6,0,1.2-0.1,1.7-0.4s0.9-0.7,1.1-1.3l0.4,1.6c-0.2,0.7-0.7,1.2-1.3,1.5C571,283.2,570.2,283.4,569.2,283.4z M572.7,283.2V281
		l-0.2-0.5v-4c0-0.8-0.2-1.4-0.7-1.8s-1.2-0.6-2.1-0.6c-0.6,0-1.2,0.1-1.9,0.3c-0.6,0.2-1.1,0.5-1.5,0.8l-1-1.9
		c0.6-0.5,1.3-0.8,2.2-1s1.7-0.4,2.6-0.4c1.6,0,2.9,0.4,3.8,1.2s1.3,2,1.3,3.6v6.6L572.7,283.2L572.7,283.2z"/>
	<path class="st5" d="M579.2,287.5c-0.5,0-1.1-0.1-1.6-0.3s-1-0.4-1.4-0.8l1-1.9c0.3,0.2,0.6,0.4,0.9,0.6c0.3,0.1,0.7,0.2,1,0.2
		c0.5,0,0.9-0.1,1.2-0.4c0.3-0.2,0.6-0.6,0.8-1.2l0.7-1.5l0.2-0.3l4.2-9.9h2.5l-5.2,12.1c-0.3,0.8-0.7,1.5-1.2,2
		c-0.4,0.5-0.9,0.8-1.4,1C580.5,287.4,579.9,287.5,579.2,287.5z M581.6,283.6l-5.1-11.6h2.7l4.1,9.7L581.6,283.6z"/>
	<path class="st5" d="M591.7,283.4c-0.5,0-0.9-0.2-1.2-0.5s-0.5-0.7-0.5-1.2s0.2-0.8,0.5-1.1c0.3-0.3,0.7-0.5,1.2-0.5
		s0.9,0.2,1.2,0.5s0.5,0.7,0.5,1.1c0,0.5-0.2,0.8-0.5,1.2C592.6,283.2,592.2,283.4,591.7,283.4z M590.6,278.4l-0.5-9.8h3.1l-0.5,9.8
		H590.6z"/>
</g>
<path class="st60" d="M631.3,285l-1.8-1.8l5.7-5.7H615V275h20.2l-5.7-5.7l1.8-1.8l8.7,8.7L631.3,285z"/>
<g>
	<path class="st5" d="M444-521v-34.1h14c3,0,5.6,0.5,7.8,1.5s3.8,2.4,5,4.2s1.8,4,1.8,6.5s-0.6,4.7-1.8,6.5s-2.8,3.2-5,4.1
		c-2.2,1-4.8,1.4-7.8,1.4h-10.5l2.8-2.9v12.8H444z M450.3-533.1l-2.8-3h10.2c2.8,0,4.9-0.6,6.3-1.8s2.1-2.9,2.1-5
		c0-2.2-0.7-3.9-2.1-5c-1.4-1.2-3.5-1.8-6.3-1.8h-10.2l2.8-3.1V-533.1z M466.3-521l-8.6-12.4h6.8l8.6,12.4H466.3z"/>
	<path class="st5" d="M491.2-520.6c-2.9,0-5.4-0.6-7.6-1.7c-2.2-1.2-3.8-2.7-5-4.8c-1.2-2-1.8-4.3-1.8-6.9c0-2.6,0.6-4.9,1.7-6.9
		c1.2-2,2.7-3.6,4.8-4.7c2-1.1,4.3-1.7,6.9-1.7c2.5,0,4.8,0.6,6.8,1.7c2,1.1,3.5,2.7,4.7,4.7c1.1,2,1.7,4.4,1.7,7.1
		c0,0.3,0,0.6,0,0.9s0,0.6-0.1,0.9h-21.7v-4h18.5l-2.4,1.3c0-1.5-0.3-2.8-0.9-3.9c-0.7-1.1-1.5-2-2.7-2.7c-1.1-0.6-2.4-1-3.9-1
		s-2.8,0.3-3.9,1s-2,1.6-2.6,2.7c-0.6,1.2-1,2.5-1,4.1v1c0,1.6,0.4,2.9,1.1,4.1s1.7,2.1,3,2.8s2.8,1,4.5,1c1.5,0,2.8-0.2,3.9-0.7
		c1.2-0.5,2.2-1.2,3.1-2.1l3.3,3.8c-1.2,1.4-2.6,2.4-4.4,3.1C495.5-521,493.5-520.6,491.2-520.6z"/>
	<path class="st5" d="M516.4-520.6c-1.9,0-3.7-0.3-5.1-1c-1.5-0.7-2.6-1.6-3.4-2.8s-1.2-2.5-1.2-4s0.3-2.8,1-3.9
		c0.7-1.2,1.8-2.1,3.4-2.8s3.7-1,6.3-1h7.6v4h-7.1c-2.1,0-3.5,0.3-4.2,1s-1.1,1.5-1.1,2.5c0,1.1,0.4,2,1.3,2.6c0.9,0.7,2.1,1,3.7,1
		c1.5,0,2.8-0.3,4-1s2-1.7,2.6-3l1,3.7c-0.6,1.5-1.6,2.7-3.1,3.6C520.7-521.1,518.7-520.6,516.4-520.6z M524.6-521v-5.3l-0.3-1.1
		v-9.2c0-1.8-0.5-3.2-1.6-4.2s-2.7-1.5-4.9-1.5c-1.5,0-2.9,0.2-4.3,0.7c-1.4,0.5-2.6,1.1-3.6,1.9l-2.4-4.4c1.4-1.1,3.1-1.9,5-2.4
		c1.9-0.5,3.9-0.8,6-0.8c3.8,0,6.7,0.9,8.8,2.7s3.1,4.6,3.1,8.4v15.2L524.6-521L524.6-521z"/>
	<path class="st5" d="M549.2-520.6c-2.5,0-4.8-0.6-6.8-1.7c-2-1.1-3.6-2.7-4.7-4.7c-1.1-2-1.7-4.3-1.7-7s0.6-5,1.7-7
		c1.1-2,2.7-3.5,4.7-4.6s4.2-1.7,6.8-1.7c2.2,0,4.1,0.5,5.8,1.4c1.7,1,3.1,2.4,4.1,4.4c1,1.9,1.5,4.5,1.5,7.5s-0.5,5.5-1.5,7.5
		s-2.3,3.4-4,4.4C553.5-521.1,551.5-520.6,549.2-520.6z M550-525.8c1.5,0,2.8-0.3,3.9-1c1.2-0.7,2.1-1.6,2.8-2.8s1-2.7,1-4.3
		c0-1.7-0.3-3.1-1-4.4c-0.7-1.2-1.6-2.2-2.8-2.8s-2.5-1-3.9-1s-2.8,0.3-3.9,1c-1.2,0.7-2.1,1.6-2.8,2.8s-1,2.7-1,4.4s0.3,3.1,1,4.3
		s1.6,2.2,2.8,2.8C547.2-526.2,548.5-525.8,550-525.8z M557.9-521v-6.1l0.2-6.9l-0.5-6.9v-16.2h6v36.1L557.9-521L557.9-521z"/>
	<path class="st5" d="M573.9-511.2c-1.3,0-2.5-0.2-3.8-0.6s-2.3-1-3.2-1.8l2.4-4.5c0.6,0.6,1.3,1,2.1,1.3s1.6,0.5,2.4,0.5
		c1.1,0,2-0.3,2.7-0.8c0.7-0.6,1.3-1.5,1.9-2.8l1.5-3.4l0.5-0.7l9.8-23h5.8l-12.2,28.1c-0.8,1.9-1.7,3.5-2.7,4.6s-2.1,1.9-3.3,2.4
		C576.7-511.4,575.3-511.2,573.9-511.2z M579.2-520l-11.7-27h6.3l9.6,22.5L579.2-520z"/>
	<path class="st5" d="M609.9-541.9v-4.9h17.4v4.9H609.9z M623.1-520.6c-2.9,0-5.1-0.7-6.6-2.2c-1.6-1.5-2.3-3.7-2.3-6.6v-23.3h6.1
		v23.2c0,1.2,0.3,2.2,1,2.9c0.6,0.7,1.5,1,2.7,1c1.4,0,2.5-0.4,3.4-1.1l1.7,4.3c-0.7,0.6-1.6,1-2.6,1.3
		C625.3-520.8,624.2-520.6,623.1-520.6z"/>
	<path class="st5" d="M644.8-520.6c-2.7,0-5-0.6-7.1-1.7c-2.1-1.2-3.7-2.7-4.9-4.8c-1.2-2-1.8-4.3-1.8-6.9c0-2.6,0.6-4.9,1.8-6.9
		s2.8-3.6,4.9-4.7c2.1-1.1,4.5-1.7,7.1-1.7c2.7,0,5.1,0.6,7.2,1.7c2.1,1.1,3.7,2.7,4.9,4.7s1.8,4.3,1.8,6.9c0,2.6-0.6,4.9-1.8,6.9
		s-2.8,3.6-4.9,4.8C649.9-521.2,647.5-520.6,644.8-520.6z M644.8-525.8c1.5,0,2.8-0.3,4-1s2.1-1.6,2.8-2.8s1-2.7,1-4.3
		c0-1.7-0.3-3.1-1-4.4c-0.7-1.2-1.6-2.2-2.8-2.8s-2.5-1-3.9-1c-1.5,0-2.8,0.3-4,1s-2.1,1.6-2.8,2.8s-1,2.7-1,4.4s0.3,3.1,1,4.3
		s1.6,2.2,2.8,2.8S643.4-525.8,644.8-525.8z"/>
	<path class="st5" d="M674.6-541.9v-4.9H692v4.9H674.6z M687.8-520.6c-2.9,0-5.1-0.7-6.6-2.2c-1.6-1.5-2.3-3.7-2.3-6.6v-23.3h6.1
		v23.2c0,1.2,0.3,2.2,1,2.9c0.6,0.7,1.5,1,2.7,1c1.4,0,2.5-0.4,3.4-1.1l1.7,4.3c-0.7,0.6-1.6,1-2.6,1.3
		C690-520.8,688.9-520.6,687.8-520.6z"/>
	<path class="st5" d="M706.5-520.6c-1.9,0-3.7-0.3-5.1-1c-1.5-0.7-2.6-1.6-3.4-2.8s-1.2-2.5-1.2-4s0.3-2.8,1-3.9
		c0.7-1.2,1.8-2.1,3.4-2.8c1.6-0.7,3.7-1,6.3-1h7.6v4h-7c-2.1,0-3.5,0.3-4.2,1s-1.1,1.5-1.1,2.5c0,1.1,0.4,2,1.3,2.6
		c0.9,0.7,2.1,1,3.7,1c1.5,0,2.8-0.3,4-1s2-1.7,2.6-3l1,3.7c-0.6,1.5-1.6,2.7-3.1,3.6C710.8-521.1,708.9-520.6,706.5-520.6z
		 M714.7-521v-5.3l-0.3-1.1v-9.2c0-1.8-0.5-3.2-1.6-4.2s-2.7-1.5-4.9-1.5c-1.5,0-2.9,0.2-4.3,0.7c-1.4,0.5-2.6,1.1-3.6,1.9l-2.4-4.4
		c1.4-1.1,3.1-1.9,5-2.4s3.9-0.8,6-0.8c3.8,0,6.7,0.9,8.8,2.7s3.1,4.6,3.1,8.4v15.2L714.7-521L714.7-521z"/>
	<path class="st5" d="M728.3-521v-36.2h6.1v36.2H728.3z M733.3-526.8l0.1-7.7l13.6-12.6h7.3l-11.6,11.6l-3.2,2.7L733.3-526.8z
		 M747.9-521l-9.5-11.7l3.9-4.9l13.1,16.6L747.9-521L747.9-521z"/>
	<path class="st5" d="M770.5-520.6c-2.9,0-5.4-0.6-7.6-1.7c-2.2-1.2-3.8-2.7-5-4.8c-1.2-2-1.8-4.3-1.8-6.9c0-2.6,0.6-4.9,1.7-6.9
		c1.2-2,2.7-3.6,4.8-4.7c2-1.1,4.3-1.7,6.9-1.7c2.5,0,4.8,0.6,6.8,1.7c2,1.1,3.5,2.7,4.7,4.7c1.1,2,1.7,4.4,1.7,7.1
		c0,0.3,0,0.6,0,0.9s0,0.6-0.1,0.9h-21.7v-4h18.5l-2.4,1.3c0-1.5-0.3-2.8-0.9-3.9c-0.7-1.1-1.5-2-2.7-2.7c-1.1-0.6-2.4-1-3.9-1
		s-2.8,0.3-3.9,1c-1.1,0.7-2,1.6-2.6,2.7c-0.6,1.2-1,2.5-1,4.1v1c0,1.6,0.4,2.9,1.1,4.1c0.7,1.2,1.7,2.1,3,2.8s2.8,1,4.5,1
		c1.5,0,2.8-0.2,3.9-0.7c1.2-0.5,2.2-1.2,3.1-2.1l3.3,3.8c-1.2,1.4-2.6,2.4-4.4,3.1C774.7-521,772.7-520.6,770.5-520.6z"/>
	<path class="st5" d="M813.9-520.6c-2.7,0-5.2-0.6-7.3-1.7c-2.1-1.2-3.8-2.7-5-4.8c-1.2-2-1.8-4.3-1.8-6.9c0-2.6,0.6-4.9,1.8-6.9
		s2.9-3.6,5-4.7c2.1-1.1,4.6-1.7,7.3-1.7c2.5,0,4.8,0.5,6.7,1.5s3.4,2.5,4.4,4.5l-4.7,2.7c-0.8-1.2-1.7-2.1-2.9-2.7
		c-1.1-0.6-2.3-0.9-3.6-0.9c-1.5,0-2.8,0.3-4,1s-2.1,1.6-2.8,2.8s-1,2.7-1,4.4s0.3,3.1,1,4.4c0.7,1.2,1.6,2.2,2.8,2.8
		c1.2,0.7,2.6,1,4,1c1.3,0,2.5-0.3,3.6-0.9c1.1-0.6,2.1-1.5,2.9-2.7l4.7,2.7c-1,1.9-2.5,3.5-4.4,4.5S816.5-520.6,813.9-520.6z"/>
	<path class="st5" d="M841.6-520.6c-2.7,0-5-0.6-7.1-1.7c-2.1-1.2-3.7-2.7-4.9-4.8c-1.2-2-1.8-4.3-1.8-6.9c0-2.6,0.6-4.9,1.8-6.9
		s2.8-3.6,4.9-4.7c2.1-1.1,4.5-1.7,7.1-1.7c2.7,0,5.1,0.6,7.2,1.7c2.1,1.1,3.7,2.7,4.9,4.7s1.8,4.3,1.8,6.9c0,2.6-0.6,4.9-1.8,6.9
		s-2.8,3.6-4.9,4.8C846.7-521.2,844.3-520.6,841.6-520.6z M841.6-525.8c1.5,0,2.8-0.3,4-1s2.1-1.6,2.8-2.8s1-2.7,1-4.3
		c0-1.7-0.3-3.1-1-4.4c-0.7-1.2-1.6-2.2-2.8-2.8s-2.5-1-3.9-1c-1.5,0-2.8,0.3-4,1s-2.1,1.6-2.8,2.8s-1,2.7-1,4.4s0.3,3.1,1,4.3
		s1.6,2.2,2.8,2.8C838.9-526.2,840.2-525.8,841.6-525.8z"/>
	<path class="st5" d="M876.1-547.3c2.1,0,3.9,0.4,5.6,1.2c1.6,0.8,2.9,2.1,3.9,3.7c0.9,1.7,1.4,3.8,1.4,6.5v14.9h-6.1v-14.1
		c0-2.3-0.5-4-1.6-5.2c-1.1-1.1-2.6-1.7-4.6-1.7c-1.4,0-2.7,0.3-3.8,0.9c-1.1,0.6-2,1.5-2.6,2.6c-0.6,1.2-0.9,2.6-0.9,4.4v13.1h-6.1
		v-26h5.8v7l-1-2.1c0.9-1.7,2.2-2.9,4-3.8C871.9-546.8,873.9-547.3,876.1-547.3z"/>
	<path class="st5" d="M891.3-541.9v-4.9h17.4v4.9H891.3z M904.6-520.6c-2.9,0-5.1-0.7-6.6-2.2c-1.6-1.5-2.3-3.7-2.3-6.6v-23.3h6.1
		v23.2c0,1.2,0.3,2.2,1,2.9c0.6,0.7,1.5,1,2.7,1c1.4,0,2.5-0.4,3.4-1.1l1.7,4.3c-0.7,0.6-1.6,1-2.6,1.3
		C906.7-520.8,905.7-520.6,904.6-520.6z"/>
	<path class="st5" d="M915.4-521v-26h5.8v7.2l-0.7-2.1c0.8-1.8,2-3.1,3.7-4s3.8-1.4,6.3-1.4v5.8c-0.3-0.1-0.5-0.1-0.7-0.1
		s-0.5,0-0.7,0c-2.3,0-4.1,0.7-5.5,2s-2,3.4-2,6v12.6H915.4z"/>
	<path class="st5" d="M947.1-520.6c-2.7,0-5-0.6-7.1-1.7c-2.1-1.2-3.7-2.7-4.9-4.8c-1.2-2-1.8-4.3-1.8-6.9c0-2.6,0.6-4.9,1.8-6.9
		s2.8-3.6,4.9-4.7c2.1-1.1,4.5-1.7,7.1-1.7c2.7,0,5.1,0.6,7.2,1.7c2.1,1.1,3.7,2.7,4.9,4.7s1.8,4.3,1.8,6.9c0,2.6-0.6,4.9-1.8,6.9
		s-2.8,3.6-4.9,4.8C952.2-521.2,949.8-520.6,947.1-520.6z M947.1-525.8c1.5,0,2.8-0.3,4-1s2.1-1.6,2.8-2.8s1-2.7,1-4.3
		c0-1.7-0.3-3.1-1-4.4c-0.7-1.2-1.6-2.2-2.8-2.8s-2.5-1-3.9-1c-1.5,0-2.8,0.3-4,1s-2.1,1.6-2.8,2.8s-1,2.7-1,4.4s0.3,3.1,1,4.3
		s1.6,2.2,2.8,2.8C944.3-526.2,945.6-525.8,947.1-525.8z"/>
	<path class="st5" d="M966.8-521v-36.2h6.1v36.2H966.8z"/>
	<path class="st5" d="M455.1-462.1c-2.7,0-5-0.6-7.1-1.7c-2.1-1.2-3.7-2.7-4.9-4.8c-1.2-2-1.8-4.3-1.8-6.9s0.6-4.9,1.8-6.9
		c1.2-2,2.8-3.6,4.9-4.7s4.5-1.7,7.1-1.7c2.7,0,5.1,0.6,7.2,1.7s3.7,2.7,4.9,4.7s1.8,4.3,1.8,6.9s-0.6,4.9-1.8,6.9s-2.8,3.6-4.9,4.8
		C460.2-462.7,457.8-462.1,455.1-462.1z M455.1-467.4c1.5,0,2.8-0.3,4-1s2.1-1.6,2.8-2.8c0.7-1.2,1-2.7,1-4.3c0-1.7-0.3-3.1-1-4.4
		c-0.7-1.2-1.6-2.2-2.8-2.8c-1.2-0.6-2.5-1-3.9-1c-1.5,0-2.8,0.3-4,1s-2.1,1.6-2.8,2.8c-0.7,1.2-1,2.7-1,4.4c0,1.7,0.3,3.1,1,4.3
		c0.7,1.2,1.6,2.2,2.8,2.8C452.3-467.7,453.6-467.4,455.1-467.4z"/>
	<path class="st5" d="M471.3-483.4v-4.9h17.4v4.9H471.3z M475.6-462.5V-490c0-2.7,0.8-4.9,2.4-6.6c1.6-1.6,3.9-2.5,6.9-2.5
		c1.1,0,2.1,0.1,3,0.3c1,0.2,1.8,0.6,2.4,1.1l-1.7,4.6c-0.5-0.4-1-0.6-1.6-0.8c-0.6-0.2-1.2-0.3-1.8-0.3c-1.3,0-2.2,0.3-2.9,1
		c-0.7,0.7-1,1.7-1,3.1v2.9l0.2,2.7v21.7h-5.9V-462.5z"/>
	<path class="st5" d="M508.4-452.7c-1.3,0-2.5-0.2-3.8-0.6s-2.3-1-3.2-1.8l2.4-4.5c0.6,0.6,1.3,1,2.1,1.3c0.8,0.3,1.6,0.5,2.4,0.5
		c1.1,0,2-0.3,2.7-0.8c0.7-0.6,1.3-1.5,1.9-2.8l1.5-3.4l0.5-0.7l9.8-23h5.8l-12.2,28.1c-0.8,1.9-1.7,3.5-2.7,4.6s-2.1,1.9-3.3,2.4
		C511.2-452.9,509.9-452.7,508.4-452.7z M513.8-461.5l-11.7-27h6.3L518-466L513.8-461.5z"/>
	<path class="st5" d="M545.4-462.1c-2.7,0-5-0.6-7.1-1.7c-2.1-1.2-3.7-2.7-4.9-4.8c-1.2-2-1.8-4.3-1.8-6.9s0.6-4.9,1.8-6.9
		s2.8-3.6,4.9-4.7c2.1-1.1,4.5-1.7,7.1-1.7c2.7,0,5.1,0.6,7.2,1.7c2.1,1.1,3.7,2.7,4.9,4.7s1.8,4.3,1.8,6.9s-0.6,4.9-1.8,6.9
		s-2.8,3.6-4.9,4.8C550.5-462.7,548.1-462.1,545.4-462.1z M545.4-467.4c1.5,0,2.8-0.3,4-1s2.1-1.6,2.8-2.8c0.7-1.2,1-2.7,1-4.3
		c0-1.7-0.3-3.1-1-4.4c-0.7-1.2-1.6-2.2-2.8-2.8c-1.2-0.6-2.5-1-3.9-1c-1.5,0-2.8,0.3-4,1s-2.1,1.6-2.8,2.8c-0.7,1.2-1,2.7-1,4.4
		c0,1.7,0.3,3.1,1,4.3c0.7,1.2,1.6,2.2,2.8,2.8C542.6-467.7,543.9-467.4,545.4-467.4z"/>
	<path class="st5" d="M576.2-462.1c-2.2,0-4.2-0.4-5.8-1.2c-1.7-0.8-3-2.1-3.9-3.8c-0.9-1.7-1.4-3.9-1.4-6.5v-14.9h6.1v14
		c0,2.3,0.5,4.1,1.6,5.2c1.1,1.2,2.6,1.7,4.5,1.7c1.4,0,2.7-0.3,3.7-0.9c1.1-0.6,1.9-1.5,2.5-2.6c0.6-1.2,0.9-2.6,0.9-4.3v-13.2h6.1
		v26h-5.8v-7l1,2.1c-0.9,1.7-2.2,3-3.9,3.9C580-462.6,578.2-462.1,576.2-462.1z"/>
	<path class="st5" d="M598.3-462.5v-26h5.8v7.2l-0.7-2.1c0.8-1.8,2-3.1,3.7-4s3.8-1.4,6.3-1.4v5.8c-0.3-0.1-0.5-0.1-0.7-0.1
		s-0.5,0-0.7,0c-2.3,0-4.1,0.7-5.5,2s-2,3.4-2,6v12.6H598.3z"/>
	<path class="st5" d="M632.8-462.5v-34.1h6.3v34.1H632.8z"/>
	<path class="st5" d="M662.6-488.8c2.1,0,3.9,0.4,5.6,1.2c1.6,0.8,2.9,2.1,3.9,3.7c0.9,1.7,1.4,3.8,1.4,6.5v14.9h-6.1v-14.1
		c0-2.3-0.5-4-1.6-5.2c-1.1-1.1-2.6-1.7-4.6-1.7c-1.4,0-2.7,0.3-3.8,0.9s-2,1.5-2.6,2.6c-0.6,1.2-0.9,2.6-0.9,4.4v13.2h-6.1v-26h5.8
		v7l-1-2.1c0.9-1.7,2.2-2.9,4-3.8C658.3-488.4,660.3-488.8,662.6-488.8z"/>
	<path class="st5" d="M689.2-462.1c-2.2,0-4.3-0.3-6.3-0.9s-3.6-1.3-4.8-2.1l2.3-4.6c1.2,0.7,2.6,1.4,4.2,1.9
		c1.6,0.5,3.2,0.7,4.9,0.7c1.9,0,3.3-0.3,4.2-0.8s1.3-1.2,1.3-2.1c0-0.7-0.3-1.3-0.9-1.6c-0.6-0.4-1.3-0.7-2.3-0.9
		c-0.9-0.2-2-0.4-3.1-0.5c-1.2-0.2-2.3-0.4-3.5-0.7c-1.2-0.3-2.2-0.7-3.1-1.2c-0.9-0.5-1.7-1.3-2.3-2.2s-0.9-2.1-0.9-3.6
		c0-1.7,0.5-3.1,1.4-4.3c0.9-1.2,2.3-2.2,4-2.8c1.7-0.7,3.7-1,6.1-1c1.8,0,3.5,0.2,5.3,0.6s3.3,0.9,4.4,1.7l-2.3,4.6
		c-1.2-0.7-2.5-1.3-3.7-1.5c-1.3-0.3-2.5-0.4-3.7-0.4c-1.9,0-3.2,0.3-4.1,0.8c-0.9,0.6-1.3,1.3-1.3,2.1c0,0.8,0.3,1.4,0.9,1.8
		c0.6,0.4,1.3,0.7,2.3,0.9c0.9,0.2,2,0.4,3.1,0.6c1.2,0.1,2.3,0.4,3.4,0.7c1.1,0.3,2.2,0.7,3.1,1.2c1,0.5,1.7,1.2,2.3,2.1
		s0.9,2.1,0.9,3.6c0,1.6-0.5,3-1.4,4.2c-1,1.2-2.3,2.1-4.1,2.8C693.8-462.5,691.7-462.1,689.2-462.1z"/>
	<path class="st5" d="M709.4-492.8c-1.1,0-2.1-0.4-2.8-1.1s-1.1-1.6-1.1-2.6s0.4-1.9,1.1-2.6s1.7-1,2.8-1s2.1,0.3,2.8,1
		s1.1,1.5,1.1,2.5c0,1.1-0.4,2-1.1,2.7C711.5-493.2,710.5-492.8,709.4-492.8z M706.3-462.5v-26h6.1v26H706.3z"/>
	<path class="st5" d="M731.4-463.6c-2.5,0-4.7-0.5-6.7-1.6s-3.6-2.5-4.7-4.4c-1.2-1.9-1.7-4.1-1.7-6.6s0.6-4.7,1.7-6.6
		c1.2-1.9,2.7-3.3,4.7-4.4c2-1,4.2-1.6,6.7-1.6c2.2,0,4.2,0.4,5.9,1.3c1.8,0.9,3.2,2.2,4.2,4.1c1.1,1.9,1.6,4.2,1.6,7.1
		s-0.5,5.3-1.6,7.1c-1.1,1.9-2.5,3.2-4.2,4.1C735.6-464.1,733.6-463.6,731.4-463.6z M732.2-452.7c-2.4,0-4.8-0.3-7-1
		c-2.3-0.6-4.2-1.6-5.6-2.8l2.7-4.6c1.1,0.9,2.6,1.7,4.3,2.3c1.7,0.6,3.5,0.9,5.3,0.9c2.9,0,5-0.7,6.3-2s2-3.3,2-5.9v-4.6l0.5-5.9
		l-0.2-5.9v-6.3h5.8v22.1c0,4.7-1.2,8.2-3.6,10.4C740.2-453.8,736.7-452.7,732.2-452.7z M732.3-468.8c1.5,0,2.9-0.3,4.1-1
		c1.2-0.6,2.1-1.5,2.8-2.6s1-2.4,1-3.9s-0.3-2.8-1-3.9s-1.6-2-2.8-2.6s-2.6-0.9-4.1-0.9s-2.9,0.3-4.1,0.9s-2.2,1.5-2.8,2.6
		c-0.7,1.1-1,2.4-1,3.9s0.3,2.8,1,3.9s1.6,2,2.8,2.6C729.4-469.1,730.8-468.8,732.3-468.8z"/>
	<path class="st5" d="M769-488.8c2.1,0,3.9,0.4,5.6,1.2c1.6,0.8,2.9,2.1,3.9,3.7c0.9,1.7,1.4,3.8,1.4,6.5v14.9h-6.1v-14.1
		c0-2.3-0.5-4-1.6-5.2c-1.1-1.1-2.6-1.7-4.6-1.7c-1.4,0-2.7,0.3-3.8,0.9s-2,1.5-2.6,2.6c-0.6,1.2-0.9,2.6-0.9,4.4v13.2h-6.1v-36.2
		h6.1v17.2l-1.3-2.1c0.9-1.7,2.2-2.9,4-3.8C764.7-488.4,766.7-488.8,769-488.8z"/>
	<path class="st5" d="M784.1-483.4v-4.9h17.4v4.9H784.1z M797.4-462.1c-2.9,0-5.1-0.7-6.6-2.2c-1.6-1.5-2.3-3.7-2.3-6.6v-23.3h6.1
		v23.2c0,1.2,0.3,2.2,1,2.9c0.6,0.7,1.5,1,2.7,1c1.4,0,2.5-0.4,3.4-1.1l1.7,4.3c-0.7,0.6-1.6,1-2.6,1.3
		C799.6-462.3,798.5-462.1,797.4-462.1z"/>
	<path class="st5" d="M816.3-462.1c-2.2,0-4.3-0.3-6.3-0.9s-3.6-1.3-4.8-2.1l2.3-4.6c1.2,0.7,2.6,1.4,4.2,1.9
		c1.6,0.5,3.2,0.7,4.9,0.7c1.9,0,3.3-0.3,4.2-0.8s1.3-1.2,1.3-2.1c0-0.7-0.3-1.3-0.9-1.6c-0.6-0.4-1.3-0.7-2.3-0.9
		c-0.9-0.2-2-0.4-3.1-0.5c-1.2-0.2-2.3-0.4-3.5-0.7c-1.2-0.3-2.2-0.7-3.1-1.2c-0.9-0.5-1.7-1.3-2.3-2.2s-0.9-2.1-0.9-3.6
		c0-1.7,0.5-3.1,1.4-4.3c0.9-1.2,2.3-2.2,4-2.8c1.7-0.7,3.7-1,6.1-1c1.8,0,3.5,0.2,5.3,0.6s3.3,0.9,4.4,1.7l-2.3,4.6
		c-1.2-0.7-2.5-1.3-3.7-1.5c-1.3-0.3-2.5-0.4-3.7-0.4c-1.9,0-3.2,0.3-4.1,0.8c-0.9,0.6-1.3,1.3-1.3,2.1c0,0.8,0.3,1.4,0.9,1.8
		c0.6,0.4,1.3,0.7,2.3,0.9c0.9,0.2,2,0.4,3.1,0.6c1.2,0.1,2.3,0.4,3.4,0.7c1.1,0.3,2.2,0.7,3.1,1.2c1,0.5,1.7,1.2,2.3,2.1
		s0.9,2.1,0.9,3.6c0,1.6-0.5,3-1.4,4.2c-1,1.2-2.3,2.1-4.1,2.8C820.9-462.5,818.8-462.1,816.3-462.1z"/>
	<path class="st5" d="M839.5-473.8c0-1.2,0.2-2.3,0.6-3.2c0.4-0.9,0.9-1.7,1.5-2.4c0.6-0.7,1.3-1.4,2-2s1.4-1.2,2-1.8
		s1.1-1.2,1.5-1.9c0.4-0.6,0.6-1.4,0.6-2.2c0-1.4-0.6-2.5-1.7-3.3c-1.1-0.8-2.6-1.3-4.4-1.3c-1.8,0-3.3,0.3-4.7,1
		c-1.3,0.7-2.4,1.6-3.3,2.8l-4.7-3.1c1.4-1.9,3.2-3.3,5.4-4.4s4.8-1.6,7.8-1.6c2.4,0,4.5,0.3,6.2,1c1.8,0.7,3.2,1.7,4.2,3
		s1.5,2.9,1.5,4.8c0,1.3-0.2,2.4-0.6,3.4c-0.4,1-0.9,1.8-1.6,2.6c-0.6,0.7-1.3,1.4-2,2s-1.4,1.3-2,1.9s-1.1,1.3-1.5,2
		s-0.6,1.6-0.6,2.5h-6.2V-473.8z M842.6-462.1c-1.1,0-2.1-0.4-2.8-1.1s-1.1-1.6-1.1-2.7c0-1,0.4-1.9,1.1-2.7
		c0.7-0.7,1.7-1.1,2.8-1.1s2.1,0.4,2.8,1.1s1.1,1.6,1.1,2.7c0,1-0.4,1.9-1.1,2.7C844.7-462.5,843.7-462.1,842.6-462.1z"/>
</g>
<rect x="124.8" y="-442.2" class="st61" width="530" height="153"/>
<text transform="matrix(1 0 0 1 124.8 -406.5848)" class="st5" style="font-family:'Montserrat-SemiBold'; font-size:48px;">Ready to take con</text>
<text transform="matrix(1 0 0 1 572.2 -406.5848)" class="st5" style="font-family:'Montserrat-SemiBold'; font-size:48px;">-</text>
<text transform="matrix(1 0 0 1 124.8 -348.9849)" class="st5" style="font-family:'Montserrat-SemiBold'; font-size:48px;">trol</text>
<text transform="matrix(1 0 0 1 124.8 -291.3848)" class="st5" style="font-family:'Montserrat-SemiBold'; font-size:48px;">of your Insights?</text>
<text transform="matrix(1 0 0 1 761.0112 -248.1727)" class="st5" style="font-family:'Montserrat-SemiBold'; font-size:48px;">of your Insights?</text>
<rect x="220" y="100.9" class="st61" width="581.7" height="145.1"/>
<g class="st62">
	<path class="st5" d="M224.5,136.5v-33.6h13.8c3,0,5.5,0.5,7.7,1.4c2.1,1,3.8,2.3,4.9,4.1c1.2,1.8,1.7,3.9,1.7,6.4
		c0,2.5-0.6,4.6-1.7,6.4c-1.2,1.8-2.8,3.1-4.9,4.1c-2.1,0.9-4.7,1.4-7.7,1.4H228l2.8-2.8v12.6H224.5z M230.8,124.5l-2.8-3H238
		c2.8,0,4.8-0.6,6.2-1.8c1.4-1.2,2.1-2.8,2.1-4.9c0-2.1-0.7-3.8-2.1-4.9c-1.4-1.2-3.5-1.7-6.2-1.7H228l2.8-3.1V124.5z M246.5,136.5
		l-8.5-12.2h6.7l8.5,12.2H246.5z"/>
	<path class="st5" d="M271.1,136.8c-2.8,0-5.3-0.6-7.5-1.7c-2.1-1.1-3.8-2.7-4.9-4.7c-1.2-2-1.8-4.2-1.8-6.8c0-2.6,0.6-4.8,1.7-6.8
		c1.1-2,2.7-3.5,4.7-4.6c2-1.1,4.3-1.7,6.8-1.7c2.5,0,4.7,0.5,6.7,1.6c2,1.1,3.5,2.6,4.6,4.6c1.1,2,1.7,4.3,1.7,7c0,0.3,0,0.5,0,0.9
		s0,0.6-0.1,0.9h-21.4v-4h18.2l-2.4,1.2c0-1.5-0.3-2.8-0.9-3.9c-0.6-1.1-1.5-2-2.6-2.6c-1.1-0.6-2.4-1-3.8-1c-1.5,0-2.8,0.3-3.9,1
		c-1.1,0.6-2,1.5-2.6,2.7c-0.6,1.1-0.9,2.5-0.9,4v1c0,1.5,0.4,2.9,1.1,4.1c0.7,1.2,1.7,2.1,3,2.7c1.3,0.6,2.8,1,4.4,1
		c1.4,0,2.7-0.2,3.9-0.7c1.2-0.4,2.2-1.2,3.1-2.1l3.2,3.7c-1.2,1.3-2.6,2.4-4.3,3.1C275.3,136.4,273.3,136.8,271.1,136.8z"/>
	<path class="st5" d="M295.9,136.8c-1.9,0-3.6-0.3-5-1c-1.4-0.7-2.6-1.6-3.3-2.7c-0.8-1.2-1.2-2.5-1.2-4c0-1.4,0.3-2.7,1-3.9
		c0.7-1.2,1.8-2.1,3.4-2.7s3.6-1,6.2-1h7.4v4h-7c-2,0-3.4,0.3-4.1,1c-0.7,0.7-1.1,1.5-1.1,2.4c0,1.1,0.4,2,1.3,2.6
		c0.9,0.6,2.1,1,3.6,1c1.5,0,2.8-0.3,4-1c1.2-0.7,2-1.7,2.5-3l1,3.6c-0.6,1.5-1.6,2.7-3.1,3.5C300,136.4,298.2,136.8,295.9,136.8z
		 M304,136.5v-5.2l-0.3-1.1v-9.1c0-1.8-0.5-3.1-1.6-4.1c-1.1-1-2.7-1.5-4.8-1.5c-1.4,0-2.9,0.2-4.2,0.7c-1.4,0.4-2.6,1.1-3.5,1.9
		l-2.4-4.4c1.4-1.1,3-1.8,4.9-2.4c1.9-0.5,3.9-0.8,5.9-0.8c3.7,0,6.6,0.9,8.6,2.7c2,1.8,3,4.5,3,8.2v15H304z"/>
	<path class="st5" d="M328.2,136.8c-2.5,0-4.7-0.6-6.6-1.7c-2-1.1-3.5-2.6-4.6-4.6c-1.1-2-1.7-4.3-1.7-6.9c0-2.7,0.6-5,1.7-6.9
		c1.1-2,2.7-3.5,4.6-4.6c2-1.1,4.2-1.6,6.6-1.6c2.1,0,4.1,0.5,5.8,1.4c1.7,0.9,3,2.4,4,4.3c1,1.9,1.5,4.4,1.5,7.4
		c0,3-0.5,5.4-1.4,7.4c-1,1.9-2.3,3.4-4,4.3C332.3,136.3,330.4,136.8,328.2,136.8z M328.9,131.7c1.4,0,2.7-0.3,3.9-1
		c1.1-0.6,2-1.6,2.7-2.8c0.7-1.2,1-2.6,1-4.3c0-1.7-0.3-3.1-1-4.3c-0.7-1.2-1.6-2.1-2.7-2.8c-1.1-0.6-2.4-1-3.9-1s-2.7,0.3-3.9,1
		c-1.1,0.6-2,1.6-2.7,2.8c-0.7,1.2-1,2.6-1,4.3c0,1.6,0.3,3.1,1,4.3c0.7,1.2,1.6,2.1,2.7,2.8C326.2,131.4,327.5,131.7,328.9,131.7z
		 M336.7,136.5v-6l0.2-6.8l-0.5-6.8v-15.9h6v35.6H336.7z"/>
	<path class="st5" d="M352.4,146.1c-1.2,0-2.5-0.2-3.7-0.6c-1.2-0.4-2.3-1-3.1-1.7l2.4-4.4c0.6,0.5,1.3,1,2.1,1.3
		c0.8,0.3,1.6,0.5,2.4,0.5c1.1,0,2-0.3,2.6-0.8c0.7-0.5,1.3-1.5,1.9-2.7l1.5-3.4l0.5-0.7l9.7-22.7h5.8l-12,27.7
		c-0.8,1.9-1.7,3.4-2.7,4.6c-1,1.1-2.1,1.9-3.3,2.4C355.2,145.9,353.9,146.1,352.4,146.1z M357.7,137.4l-11.6-26.5h6.2l9.4,22.1
		L357.7,137.4z"/>
	<path class="st5" d="M387.9,115.8V111H405v4.8H387.9z M401,136.8c-2.8,0-5-0.7-6.5-2.2c-1.5-1.5-2.3-3.6-2.3-6.5v-23h6V128
		c0,1.2,0.3,2.2,0.9,2.8s1.5,1,2.6,1c1.3,0,2.5-0.4,3.4-1.1l1.7,4.3c-0.7,0.6-1.6,1-2.6,1.3C403.1,136.7,402,136.8,401,136.8z"/>
	<path class="st5" d="M422.3,136.8c-2.6,0-5-0.6-7-1.7c-2-1.1-3.7-2.7-4.8-4.7c-1.2-2-1.8-4.2-1.8-6.8c0-2.6,0.6-4.8,1.8-6.8
		c1.2-2,2.8-3.5,4.8-4.6c2-1.1,4.4-1.7,7-1.7c2.7,0,5,0.6,7.1,1.7c2.1,1.1,3.7,2.7,4.8,4.6c1.2,2,1.8,4.2,1.8,6.8
		c0,2.5-0.6,4.8-1.8,6.8c-1.2,2-2.8,3.5-4.8,4.7C427.3,136.2,425,136.8,422.3,136.8z M422.3,131.7c1.5,0,2.8-0.3,3.9-1
		c1.2-0.6,2.1-1.6,2.7-2.8c0.7-1.2,1-2.6,1-4.3c0-1.7-0.3-3.1-1-4.3c-0.7-1.2-1.6-2.1-2.7-2.8c-1.2-0.6-2.4-1-3.9-1
		c-1.5,0-2.8,0.3-3.9,1c-1.1,0.6-2,1.6-2.7,2.8c-0.7,1.2-1,2.6-1,4.3c0,1.6,0.3,3.1,1,4.3c0.7,1.2,1.6,2.1,2.7,2.8
		C419.6,131.4,420.9,131.7,422.3,131.7z"/>
	<path class="st5" d="M451.6,115.8V111h17.1v4.8H451.6z M464.7,136.8c-2.8,0-5-0.7-6.5-2.2c-1.5-1.5-2.3-3.6-2.3-6.5v-23h6V128
		c0,1.2,0.3,2.2,0.9,2.8s1.5,1,2.6,1c1.3,0,2.5-0.4,3.4-1.1l1.7,4.3c-0.7,0.6-1.6,1-2.6,1.3C466.8,136.7,465.7,136.8,464.7,136.8z"
		/>
	<path class="st5" d="M483.1,136.8c-1.9,0-3.6-0.3-5-1c-1.4-0.7-2.6-1.6-3.3-2.7c-0.8-1.2-1.2-2.5-1.2-4c0-1.4,0.3-2.7,1-3.9
		c0.7-1.2,1.8-2.1,3.4-2.7s3.6-1,6.2-1h7.4v4h-7c-2,0-3.4,0.3-4.1,1c-0.7,0.7-1.1,1.5-1.1,2.4c0,1.1,0.4,2,1.3,2.6
		c0.9,0.6,2.1,1,3.6,1c1.5,0,2.8-0.3,4-1c1.2-0.7,2-1.7,2.5-3l1,3.6c-0.6,1.5-1.6,2.7-3.1,3.5C487.2,136.4,485.4,136.8,483.1,136.8z
		 M491.1,136.5v-5.2l-0.3-1.1v-9.1c0-1.8-0.5-3.1-1.6-4.1c-1.1-1-2.7-1.5-4.8-1.5c-1.4,0-2.9,0.2-4.2,0.7c-1.4,0.4-2.6,1.1-3.5,1.9
		l-2.4-4.4c1.4-1.1,3-1.8,4.9-2.4c1.9-0.5,3.9-0.8,5.9-0.8c3.7,0,6.6,0.9,8.6,2.7c2,1.8,3,4.5,3,8.2v15H491.1z"/>
	<path class="st5" d="M504.5,136.5v-35.6h6v35.6H504.5z M509.4,130.8l0.1-7.5l13.4-12.4h7.2l-11.4,11.4l-3.2,2.6L509.4,130.8z
		 M523.8,136.5l-9.4-11.6l3.8-4.8l12.9,16.4H523.8z"/>
	<path class="st5" d="M546,136.8c-2.8,0-5.3-0.6-7.5-1.7c-2.1-1.1-3.8-2.7-4.9-4.7c-1.2-2-1.8-4.2-1.8-6.8c0-2.6,0.6-4.8,1.7-6.8
		c1.1-2,2.7-3.5,4.7-4.6c2-1.1,4.3-1.7,6.8-1.7c2.5,0,4.7,0.5,6.7,1.6c2,1.1,3.5,2.6,4.6,4.6c1.1,2,1.7,4.3,1.7,7c0,0.3,0,0.5,0,0.9
		s0,0.6-0.1,0.9h-21.4v-4h18.2l-2.4,1.2c0-1.5-0.3-2.8-0.9-3.9c-0.6-1.1-1.5-2-2.6-2.6c-1.1-0.6-2.4-1-3.8-1c-1.5,0-2.8,0.3-3.9,1
		c-1.1,0.6-2,1.5-2.6,2.7c-0.6,1.1-0.9,2.5-0.9,4v1c0,1.5,0.4,2.9,1.1,4.1c0.7,1.2,1.7,2.1,3,2.7c1.3,0.6,2.8,1,4.4,1
		c1.4,0,2.7-0.2,3.9-0.7c1.2-0.4,2.2-1.2,3.1-2.1l3.2,3.7c-1.2,1.3-2.6,2.4-4.3,3.1C550.2,136.4,548.3,136.8,546,136.8z"/>
	<path class="st5" d="M588.8,136.8c-2.7,0-5.1-0.6-7.2-1.7c-2.1-1.1-3.7-2.7-4.9-4.7c-1.2-2-1.8-4.2-1.8-6.8c0-2.6,0.6-4.8,1.8-6.8
		c1.2-2,2.8-3.5,4.9-4.6c2.1-1.1,4.5-1.7,7.2-1.7c2.5,0,4.7,0.5,6.6,1.5c1.9,1,3.4,2.5,4.3,4.4l-4.6,2.7c-0.8-1.2-1.7-2.1-2.8-2.7
		s-2.3-0.9-3.6-0.9c-1.5,0-2.8,0.3-4,1c-1.2,0.6-2.1,1.6-2.8,2.8c-0.7,1.2-1,2.6-1,4.3c0,1.7,0.3,3.1,1,4.3c0.7,1.2,1.6,2.1,2.8,2.8
		c1.2,0.6,2.5,1,4,1c1.3,0,2.5-0.3,3.6-0.9s2-1.5,2.8-2.7l4.6,2.7c-1,1.9-2.4,3.4-4.3,4.4C593.5,136.3,591.3,136.8,588.8,136.8z"/>
	<path class="st5" d="M616.1,136.8c-2.6,0-5-0.6-7-1.7c-2-1.1-3.7-2.7-4.8-4.7c-1.2-2-1.8-4.2-1.8-6.8c0-2.6,0.6-4.8,1.8-6.8
		c1.2-2,2.8-3.5,4.8-4.6c2-1.1,4.4-1.7,7-1.7c2.7,0,5,0.6,7.1,1.7c2.1,1.1,3.7,2.7,4.8,4.6c1.2,2,1.8,4.2,1.8,6.8
		c0,2.5-0.6,4.8-1.8,6.8c-1.2,2-2.8,3.5-4.8,4.7C621.1,136.2,618.7,136.8,616.1,136.8z M616.1,131.7c1.5,0,2.8-0.3,3.9-1
		c1.2-0.6,2.1-1.6,2.7-2.8c0.7-1.2,1-2.6,1-4.3c0-1.7-0.3-3.1-1-4.3c-0.7-1.2-1.6-2.1-2.7-2.8c-1.2-0.6-2.4-1-3.9-1
		c-1.5,0-2.8,0.3-3.9,1c-1.1,0.6-2,1.6-2.7,2.8c-0.7,1.2-1,2.6-1,4.3c0,1.6,0.3,3.1,1,4.3c0.7,1.2,1.6,2.1,2.7,2.8
		C613.4,131.4,614.7,131.7,616.1,131.7z"/>
	<path class="st5" d="M650.1,110.6c2,0,3.9,0.4,5.5,1.2c1.6,0.8,2.9,2,3.8,3.7c0.9,1.6,1.4,3.8,1.4,6.4v14.7h-6v-13.9
		c0-2.3-0.5-4-1.6-5.1c-1.1-1.1-2.6-1.7-4.5-1.7c-1.4,0-2.7,0.3-3.7,0.9c-1.1,0.6-1.9,1.4-2.5,2.6c-0.6,1.1-0.9,2.6-0.9,4.3v13h-6
		v-25.6h5.7v6.9l-1-2.1c0.9-1.6,2.2-2.9,3.9-3.8S647.8,110.6,650.1,110.6z"/>
	<path class="st5" d="M665,115.8V111h17.1v4.8H665z M678.1,136.8c-2.8,0-5-0.7-6.5-2.2c-1.5-1.5-2.3-3.6-2.3-6.5v-23h6V128
		c0,1.2,0.3,2.2,0.9,2.8s1.5,1,2.6,1c1.3,0,2.5-0.4,3.4-1.1l1.7,4.3c-0.7,0.6-1.6,1-2.6,1.3C680.2,136.7,679.1,136.8,678.1,136.8z"
		/>
	<path class="st5" d="M688.8,136.5v-25.6h5.7v7.1l-0.7-2.1c0.8-1.7,2-3,3.6-3.9c1.6-0.9,3.7-1.3,6.2-1.3v5.7
		c-0.3-0.1-0.5-0.1-0.7-0.1c-0.2,0-0.4,0-0.7,0c-2.3,0-4.1,0.7-5.4,2c-1.3,1.3-2,3.3-2,5.9v12.4H688.8z"/>
	<path class="st5" d="M720,136.8c-2.6,0-5-0.6-7-1.7c-2-1.1-3.7-2.7-4.8-4.7s-1.8-4.2-1.8-6.8c0-2.6,0.6-4.8,1.8-6.8
		c1.2-2,2.8-3.5,4.8-4.6c2-1.1,4.4-1.7,7-1.7c2.7,0,5,0.6,7.1,1.7c2.1,1.1,3.7,2.7,4.8,4.6s1.8,4.2,1.8,6.8c0,2.5-0.6,4.8-1.8,6.8
		s-2.8,3.5-4.8,4.7C725,136.2,722.6,136.8,720,136.8z M720,131.7c1.5,0,2.8-0.3,3.9-1c1.2-0.6,2.1-1.6,2.7-2.8c0.7-1.2,1-2.6,1-4.3
		c0-1.7-0.3-3.1-1-4.3c-0.7-1.2-1.6-2.1-2.7-2.8c-1.2-0.6-2.4-1-3.9-1c-1.5,0-2.8,0.3-3.9,1c-1.1,0.6-2,1.6-2.7,2.8
		c-0.7,1.2-1,2.6-1,4.3c0,1.6,0.3,3.1,1,4.3c0.7,1.2,1.6,2.1,2.7,2.8C717.2,131.4,718.5,131.7,720,131.7z"/>
	<path class="st5" d="M739.4,136.5v-35.6h6v35.6H739.4z"/>
</g>
<g class="st62">
	<path class="st5" d="M235.5,194.4c-2.6,0-5-0.6-7-1.7c-2-1.1-3.7-2.7-4.8-4.7c-1.2-2-1.8-4.2-1.8-6.8c0-2.6,0.6-4.8,1.8-6.8
		c1.2-2,2.8-3.5,4.8-4.6c2-1.1,4.4-1.7,7-1.7c2.7,0,5,0.6,7.1,1.7c2.1,1.1,3.7,2.7,4.8,4.6c1.2,2,1.8,4.2,1.8,6.8
		c0,2.5-0.6,4.8-1.8,6.8c-1.2,2-2.8,3.5-4.8,4.7C240.5,193.8,238.1,194.4,235.5,194.4z M235.5,189.3c1.5,0,2.8-0.3,3.9-1
		c1.2-0.6,2.1-1.6,2.7-2.8c0.7-1.2,1-2.6,1-4.3c0-1.7-0.3-3.1-1-4.3c-0.7-1.2-1.6-2.1-2.7-2.8c-1.2-0.6-2.4-1-3.9-1
		c-1.5,0-2.8,0.3-3.9,1c-1.1,0.6-2,1.6-2.7,2.8c-0.7,1.2-1,2.6-1,4.3c0,1.6,0.3,3.1,1,4.3c0.7,1.2,1.6,2.1,2.7,2.8
		C232.7,189,234,189.3,235.5,189.3z"/>
	<path class="st5" d="M251.5,173.4v-4.8h17.1v4.8H251.5z M255.7,194.1V167c0-2.7,0.8-4.8,2.4-6.5c1.6-1.6,3.8-2.4,6.8-2.4
		c1.1,0,2.1,0.1,3,0.3c0.9,0.2,1.7,0.6,2.4,1.1l-1.6,4.5c-0.4-0.4-1-0.6-1.5-0.8s-1.2-0.3-1.8-0.3c-1.2,0-2.2,0.3-2.8,1
		c-0.6,0.7-1,1.7-1,3.1v2.9l0.2,2.7v21.4H255.7z"/>
	<path class="st5" d="M288,203.7c-1.2,0-2.5-0.2-3.7-0.6c-1.2-0.4-2.3-1-3.1-1.7l2.4-4.4c0.6,0.5,1.3,1,2.1,1.3
		c0.8,0.3,1.6,0.5,2.4,0.5c1.1,0,2-0.3,2.6-0.8c0.7-0.5,1.3-1.5,1.9-2.7l1.5-3.4l0.5-0.7l9.7-22.7h5.8l-12,27.7
		c-0.8,1.9-1.7,3.4-2.7,4.6c-1,1.1-2.1,1.9-3.3,2.4C290.7,203.5,289.4,203.7,288,203.7z M293.2,195l-11.6-26.5h6.2l9.4,22.1
		L293.2,195z"/>
	<path class="st5" d="M324.4,194.4c-2.6,0-5-0.6-7-1.7c-2-1.1-3.7-2.7-4.8-4.7c-1.2-2-1.8-4.2-1.8-6.8c0-2.6,0.6-4.8,1.8-6.8
		c1.2-2,2.8-3.5,4.8-4.6c2-1.1,4.4-1.7,7-1.7c2.7,0,5,0.6,7.1,1.7c2.1,1.1,3.7,2.7,4.8,4.6c1.2,2,1.8,4.2,1.8,6.8
		c0,2.5-0.6,4.8-1.8,6.8c-1.2,2-2.8,3.5-4.8,4.7C329.4,193.8,327.1,194.4,324.4,194.4z M324.4,189.3c1.5,0,2.8-0.3,3.9-1
		c1.2-0.6,2.1-1.6,2.7-2.8c0.7-1.2,1-2.6,1-4.3c0-1.7-0.3-3.1-1-4.3c-0.7-1.2-1.6-2.1-2.7-2.8c-1.2-0.6-2.4-1-3.9-1
		c-1.5,0-2.8,0.3-3.9,1c-1.1,0.6-2,1.6-2.7,2.8c-0.7,1.2-1,2.6-1,4.3c0,1.6,0.3,3.1,1,4.3c0.7,1.2,1.6,2.1,2.7,2.8
		C321.7,189,323,189.3,324.4,189.3z"/>
	<path class="st5" d="M354.7,194.4c-2.2,0-4.1-0.4-5.8-1.2c-1.7-0.8-3-2.1-3.9-3.7c-0.9-1.7-1.4-3.8-1.4-6.4v-14.6h6v13.8
		c0,2.3,0.5,4,1.6,5.2c1,1.1,2.5,1.7,4.4,1.7c1.4,0,2.6-0.3,3.7-0.9c1-0.6,1.9-1.4,2.4-2.6c0.6-1.2,0.9-2.6,0.9-4.3v-13h6v25.6h-5.7
		v-6.9l1,2.1c-0.9,1.7-2.1,2.9-3.8,3.8C358.5,194,356.7,194.4,354.7,194.4z"/>
	<path class="st5" d="M376.5,194.1v-25.6h5.7v7.1l-0.7-2.1c0.8-1.7,2-3,3.6-3.9c1.6-0.9,3.7-1.3,6.2-1.3v5.7
		c-0.3-0.1-0.5-0.1-0.7-0.1c-0.2,0-0.4,0-0.7,0c-2.3,0-4.1,0.7-5.4,2c-1.3,1.3-2,3.3-2,5.9v12.4H376.5z"/>
	<path class="st5" d="M412,203.7c-1.2,0-2.5-0.2-3.7-0.6c-1.2-0.4-2.3-1-3.1-1.7l2.4-4.4c0.6,0.5,1.3,1,2.1,1.3
		c0.8,0.3,1.6,0.5,2.4,0.5c1.1,0,2-0.3,2.6-0.8c0.7-0.5,1.3-1.5,1.9-2.7l1.5-3.4l0.5-0.7l9.7-22.7h5.8l-12,27.7
		c-0.8,1.9-1.7,3.4-2.7,4.6c-1,1.1-2.1,1.9-3.3,2.4C414.8,203.5,413.5,203.7,412,203.7z M417.3,195l-11.6-26.5h6.2l9.4,22.1
		L417.3,195z"/>
	<path class="st5" d="M448.5,194.4c-2.6,0-5-0.6-7-1.7c-2-1.1-3.7-2.7-4.8-4.7c-1.2-2-1.8-4.2-1.8-6.8c0-2.6,0.6-4.8,1.8-6.8
		c1.2-2,2.8-3.5,4.8-4.6c2-1.1,4.4-1.7,7-1.7c2.7,0,5,0.6,7.1,1.7c2.1,1.1,3.7,2.7,4.8,4.6c1.2,2,1.8,4.2,1.8,6.8
		c0,2.5-0.6,4.8-1.8,6.8c-1.2,2-2.8,3.5-4.8,4.7C453.5,193.8,451.1,194.4,448.5,194.4z M448.5,189.3c1.5,0,2.8-0.3,3.9-1
		c1.2-0.6,2.1-1.6,2.7-2.8c0.7-1.2,1-2.6,1-4.3c0-1.7-0.3-3.1-1-4.3c-0.7-1.2-1.6-2.1-2.7-2.8c-1.2-0.6-2.4-1-3.9-1
		c-1.5,0-2.8,0.3-3.9,1c-1.1,0.6-2,1.6-2.7,2.8c-0.7,1.2-1,2.6-1,4.3c0,1.6,0.3,3.1,1,4.3c0.7,1.2,1.6,2.1,2.7,2.8
		C445.7,189,447,189.3,448.5,189.3z"/>
	<path class="st5" d="M478.8,194.4c-2.2,0-4.1-0.4-5.8-1.2c-1.7-0.8-3-2.1-3.9-3.7c-0.9-1.7-1.4-3.8-1.4-6.4v-14.6h6v13.8
		c0,2.3,0.5,4,1.6,5.2c1,1.1,2.5,1.7,4.4,1.7c1.4,0,2.6-0.3,3.7-0.9c1-0.6,1.9-1.4,2.4-2.6c0.6-1.2,0.9-2.6,0.9-4.3v-13h6v25.6H487
		v-6.9l1,2.1c-0.9,1.7-2.1,2.9-3.8,3.8C482.6,194,480.7,194.4,478.8,194.4z"/>
	<path class="st5" d="M497.2,173.4v-4.8h17.1v4.8H497.2z M510.3,194.4c-2.8,0-5-0.7-6.5-2.2c-1.5-1.5-2.3-3.6-2.3-6.5v-23h6v22.8
		c0,1.2,0.3,2.2,0.9,2.8s1.5,1,2.6,1c1.3,0,2.5-0.4,3.4-1.1l1.7,4.3c-0.7,0.6-1.6,1-2.6,1.3C512.4,194.3,511.3,194.4,510.3,194.4z"
		/>
	<path class="st5" d="M531.8,194.4c-2.2,0-4.1-0.4-5.8-1.2c-1.7-0.8-3-2.1-3.9-3.7c-0.9-1.7-1.4-3.8-1.4-6.4v-14.6h6v13.8
		c0,2.3,0.5,4,1.6,5.2c1,1.1,2.5,1.7,4.4,1.7c1.4,0,2.6-0.3,3.7-0.9c1-0.6,1.9-1.4,2.4-2.6c0.6-1.2,0.9-2.6,0.9-4.3v-13h6v25.6h-5.7
		v-6.9l1,2.1c-0.9,1.7-2.1,2.9-3.8,3.8C535.6,194,533.8,194.4,531.8,194.4z"/>
	<path class="st5" d="M553.6,194.1v-35.6h6v15.9l-0.5,6.8l0.2,6.8v6H553.6z M567.9,194.4c-2.2,0-4.1-0.5-5.8-1.4c-1.7-1-3-2.4-4-4.3
		c-1-1.9-1.5-4.4-1.5-7.4c0-3,0.5-5.5,1.5-7.4s2.4-3.4,4.1-4.3c1.7-0.9,3.6-1.4,5.7-1.4c2.5,0,4.8,0.5,6.7,1.6
		c1.9,1.1,3.5,2.6,4.6,4.6c1.1,2,1.7,4.3,1.7,6.9c0,2.7-0.6,5-1.7,6.9c-1.1,2-2.7,3.5-4.6,4.6C572.6,193.9,570.4,194.4,567.9,194.4z
		 M567.2,189.3c1.4,0,2.7-0.3,3.9-1c1.1-0.6,2-1.6,2.7-2.8c0.7-1.2,1-2.6,1-4.3c0-1.7-0.3-3.1-1-4.3c-0.7-1.2-1.6-2.1-2.7-2.8
		c-1.1-0.6-2.4-1-3.9-1s-2.7,0.3-3.9,1c-1.2,0.6-2.1,1.6-2.7,2.8c-0.7,1.2-1,2.6-1,4.3c0,1.6,0.3,3.1,1,4.3c0.7,1.2,1.6,2.1,2.7,2.8
		C564.4,189,565.7,189.3,567.2,189.3z"/>
	<path class="st5" d="M598.6,194.4c-2.8,0-5.3-0.6-7.5-1.7c-2.1-1.1-3.8-2.7-4.9-4.7c-1.2-2-1.8-4.2-1.8-6.8c0-2.6,0.6-4.8,1.7-6.8
		c1.1-2,2.7-3.5,4.7-4.6c2-1.1,4.3-1.7,6.8-1.7c2.5,0,4.7,0.5,6.7,1.6c2,1.1,3.5,2.6,4.6,4.6c1.1,2,1.7,4.3,1.7,7c0,0.3,0,0.5,0,0.9
		s0,0.6-0.1,0.9h-21.4v-4h18.2l-2.4,1.2c0-1.5-0.3-2.8-0.9-3.9c-0.6-1.1-1.5-2-2.6-2.6c-1.1-0.6-2.4-1-3.8-1c-1.5,0-2.8,0.3-3.9,1
		c-1.1,0.6-2,1.5-2.6,2.7c-0.6,1.1-0.9,2.5-0.9,4v1c0,1.5,0.4,2.9,1.1,4.1c0.7,1.2,1.7,2.1,3,2.7c1.3,0.6,2.8,1,4.4,1
		c1.4,0,2.7-0.2,3.9-0.7c1.2-0.4,2.2-1.2,3.1-2.1l3.2,3.7c-1.2,1.3-2.6,2.4-4.3,3.1C602.9,194,600.9,194.4,598.6,194.4z"/>
	<path class="st5" d="M621,182.9c0-1.2,0.2-2.2,0.6-3.1c0.4-0.9,0.9-1.7,1.5-2.4c0.6-0.7,1.3-1.4,1.9-2c0.7-0.6,1.3-1.2,1.9-1.8
		c0.6-0.6,1.1-1.2,1.5-1.8c0.4-0.6,0.6-1.4,0.6-2.2c0-1.3-0.5-2.4-1.6-3.3c-1.1-0.8-2.5-1.2-4.4-1.2c-1.8,0-3.3,0.3-4.6,1
		c-1.3,0.6-2.4,1.6-3.2,2.7l-4.7-3c1.3-1.8,3.1-3.3,5.3-4.3c2.2-1,4.8-1.6,7.7-1.6c2.3,0,4.4,0.3,6.1,1c1.8,0.7,3.1,1.7,4.1,3
		c1,1.3,1.5,2.9,1.5,4.7c0,1.3-0.2,2.4-0.6,3.4c-0.4,1-0.9,1.8-1.5,2.5s-1.3,1.4-2,2c-0.7,0.6-1.4,1.2-2,1.8s-1.1,1.3-1.5,2
		c-0.4,0.7-0.6,1.5-0.6,2.5H621z M624.1,194.4c-1.1,0-2-0.4-2.8-1.1c-0.7-0.7-1.1-1.6-1.1-2.6c0-1,0.4-1.9,1.1-2.6
		c0.7-0.7,1.6-1.1,2.8-1.1c1.1,0,2,0.4,2.7,1.1c0.7,0.7,1.1,1.6,1.1,2.6c0,1-0.4,1.9-1.1,2.6C626.1,194,625.2,194.4,624.1,194.4z"/>
</g>
<text transform="matrix(1 0 0 1 143 -178.5272)" class="st5" style="font-family:'Montserrat-SemiBold'; font-size:48px;">Ready to take control</text>
<text transform="matrix(1 0 0 1 143 -120.9272)" class="st5" style="font-family:'Montserrat-SemiBold'; font-size:48px;">of your youtube?</text>
</svg>
