<?xml version="1.0" encoding="utf-8"?>
<!-- Generator: Adobe Illustrator 26.1.0, SVG Export Plug-In . SVG Version: 6.00 Build 0)  -->
<svg version="1.1" id="Layer_1" xmlns="http://www.w3.org/2000/svg" xmlns:xlink="http://www.w3.org/1999/xlink" x="0px" y="0px"
	 viewBox="0 0 1400 403" style="enable-background:new 0 0 1400 403;" xml:space="preserve">
<style type="text/css">
	.st0{fill:#F7F9FB;}
	.st1{fill:url(#SVGID_1_);}
	.st2{fill:url(#SVGID_00000144337509839203925160000015656844804047858056_);}
	.st3{fill:url(#SVGID_00000007397522663194935290000003523854721185262270_);}
	.st4{fill:#FFD001;}
	.st5{fill:#FFFFFF;}
	.st6{fill:none;stroke:#CCEEF4;stroke-width:1.6632;stroke-linecap:round;stroke-linejoin:round;stroke-miterlimit:10;}
	.st7{fill:none;stroke:#FFA21E;stroke-width:1.6632;stroke-linecap:round;stroke-linejoin:round;stroke-miterlimit:10;}
	.st8{fill:#FFFBFF;}
	.st9{fill:none;stroke:#FFA21E;stroke-width:1.621;stroke-linecap:round;stroke-linejoin:round;stroke-miterlimit:10;}
	.st10{fill-rule:evenodd;clip-rule:evenodd;fill:#E5E2DB;}
	.st11{fill-rule:evenodd;clip-rule:evenodd;fill:#FEFFFA;}
	.st12{fill-rule:evenodd;clip-rule:evenodd;fill:#F5773D;}
	.st13{fill-rule:evenodd;clip-rule:evenodd;fill:#143143;}
	.st14{fill-rule:evenodd;clip-rule:evenodd;fill:#172C36;}
	.st15{fill-rule:evenodd;clip-rule:evenodd;fill:#FFFFFF;}
	.st16{fill-rule:evenodd;clip-rule:evenodd;fill:url(#SVGID_00000183240482417661482490000005249987126244181903_);}
	.st17{fill-rule:evenodd;clip-rule:evenodd;fill:url(#SVGID_00000005252645697526826770000012995217556118800563_);}
	
		.st18{fill-rule:evenodd;clip-rule:evenodd;fill:#FFFFFF;stroke:#1A2E35;stroke-linecap:round;stroke-linejoin:round;stroke-miterlimit:10;}
	.st19{fill:url(#SVGID_00000032621994724774514890000009623134181407631797_);}
	.st20{fill:url(#SVGID_00000088099342072628794910000007985621320380030599_);}
	.st21{fill:#FBB255;}
	.st22{fill:#29B99A;}
	.st23{fill:#EC5553;}
	.st24{fill:url(#SVGID_00000096025171244068954270000010225322011705200541_);}
	.st25{fill:#F5773D;}
	.st26{fill:#F38469;}
	.st27{fill:url(#SVGID_00000056385242349084612240000004835969511175824803_);}
	.st28{fill:#386A87;}
	.st29{fill:#F4A091;}
	.st30{fill:#F18F79;}
	.st31{fill:#FAC9BC;}
	.st32{fill:#F7BFAD;}
	.st33{fill:#414142;}
	.st34{fill:#F3A8BD;}
	.st35{fill:#F091A8;}
	.st36{fill:#7E7A7B;}
	.st37{fill:#E9EAE8;}
	.st38{fill:url(#SVGID_00000032632727643172414840000000145923087269081773_);}
	.st39{fill:#F7F7F7;}
	.st40{fill:#F8CAD5;}
	.st41{fill:#F5BBC6;}
	.st42{fill:url(#SVGID_00000113345955176643764540000015528715624717251760_);}
	.st43{fill:#A2BA63;}
	.st44{fill:#F27540;}
	.st45{fill:#ED4327;}
	.st46{fill:#FFFFFF;stroke:#1A2E35;stroke-linecap:round;stroke-linejoin:round;stroke-miterlimit:10;}
	.st47{fill:#FFFFFF;stroke:#1E1E1E;stroke-miterlimit:10;}
	.st48{fill:#7F392B;}
	.st49{fill:url(#SVGID_00000016039268181649957490000013113183579330257038_);}
	.st50{fill:none;stroke:#1A2E35;stroke-linecap:round;stroke-linejoin:round;stroke-miterlimit:10;}
	.st51{fill:url(#SVGID_00000108284933501607352460000017142253534889705344_);}
	.st52{fill:#FFB766;}
	.st53{fill:url(#SVGID_00000149364467804262935720000004989080250391084425_);}
	.st54{fill:#1A2E35;stroke:#1A2E35;stroke-linecap:round;stroke-linejoin:round;stroke-miterlimit:10;}
	.st55{fill:#FE9175;}
	.st56{fill:#FF9A6C;}
	.st57{fill:#DB4B66;}
	.st58{fill:#1A2E35;}
	.st59{fill:#375A64;}
	.st60{fill:#F9F9F9;}
	.st61{fill:none;}
	.st62{enable-background:new    ;}
</style>
<g>
	<rect x="-13.5" y="303.4" class="st0" width="1405" height="100.1"/>
	
		<linearGradient id="SVGID_1_" gradientUnits="userSpaceOnUse" x1="-13.5" y1="-746.5" x2="1302.5" y2="-746.5" gradientTransform="matrix(1 0 0 -1 0 -556)">
		<stop  offset="0" style="stop-color:#404F5E"/>
		<stop  offset="1" style="stop-color:#26282A"/>
	</linearGradient>
	<rect x="-13.5" y="15.6" class="st1" width="1316" height="349.8"/>
	
		<linearGradient id="SVGID_00000026885708860318575830000010126578468030614159_" gradientUnits="userSpaceOnUse" x1="212.5" y1="-828.4" x2="650.5" y2="-828.4" gradientTransform="matrix(1 0 0 -1 0 -556)">
		<stop  offset="2.237672e-07" style="stop-color:#F3719C"/>
		<stop  offset="1" style="stop-color:#FF9373"/>
	</linearGradient>
	
		<rect x="212.5" y="242.4" style="fill:url(#SVGID_00000026885708860318575830000010126578468030614159_);" width="438" height="60"/>
	
		<linearGradient id="SVGID_00000111907117494218301130000014174433765398497978_" gradientUnits="userSpaceOnUse" x1="840.5" y1="-748" x2="1413.5" y2="-748" gradientTransform="matrix(1 0 0 -1 0 -556)">
		<stop  offset="2.237672e-07" style="stop-color:#F3719C"/>
		<stop  offset="1" style="stop-color:#FF9373"/>
	</linearGradient>
	<polygon style="fill:url(#SVGID_00000111907117494218301130000014174433765398497978_);" points="1195.5,15.6 840.5,368.4 
		1413.5,365.4 1410.5,15.6 	"/>
	<g>
		<g>
			<path class="st4" d="M1112,239.6l-13.3,17.8l36.7-8.4l-19.7-10.2C1114.4,238.1,1112.9,238.5,1112,239.6z"/>
			<polyline class="st4" points="1098.7,257.4 1119.7,265.5 1135.5,249 1131.7,249.8 1105.4,255.9 1098.7,257.4 1119.7,265.5 
				1135.5,249 			"/>
			<g>
				<path class="st5" d="M1131.3,270.6l-19.4,4.5c-0.6,0.1-1.3-0.2-1.4-0.9l-6.3-27.3c-0.2-0.6,0.3-1.3,0.9-1.4l19.4-4.5
					c0.6-0.1,1.3,0.2,1.4,0.9l6.3,27.3C1132.3,269.8,1131.9,270.5,1131.3,270.6z"/>
				<g>
					<line class="st6" x1="1110.3" y1="251.1" x2="1122.2" y2="248.4"/>
					<line class="st6" x1="1111.3" y1="255.2" x2="1123.2" y2="252.5"/>
					<line class="st6" x1="1112.3" y1="259.4" x2="1124.1" y2="256.6"/>
				</g>
			</g>
			<path class="st4" d="M1119.7,265.5l-20.9-8.1l4.5,19.6c0.1,0.6,0.8,0.9,1.6,0.8l34-7.8c0.8-0.2,1.2-0.8,1.1-1.4l-4.5-19.6
				L1119.7,265.5z"/>
			<g>
				<g>
					<polyline class="st7" points="1135.5,249 1119.7,265.5 1098.7,257.4 					"/>
					<line class="st7" x1="1107.3" y1="271.5" x2="1111.4" y2="262.3"/>
					<line class="st7" x1="1133.6" y1="265.5" x2="1125.9" y2="259"/>
				</g>
			</g>
		</g>
		<g>
			<path class="st4" d="M879.8,129.1l-31.1,7.2l-2.5-4.5c-0.7-1.2-1.5-1.4-3.2-1l-13,3c-0.8,0.2-1.2,0.9-1.1,1.7l1.5,6.5v0.1
				l6.3,27.2c0.2,0.8,0.9,1.2,1.7,1.1l48.3-11.1c0.8-0.2,1.2-0.9,1.1-1.7l-6.3-27.4C881.3,129.4,880.6,128.9,879.8,129.1z"/>
			
				<rect x="838.1" y="136.7" transform="matrix(0.9746 -0.224 0.224 0.9746 -12.6503 196.5883)" class="st8" width="44.1" height="34.7"/>
			<path class="st4" d="M882.4,140.3l-31.1,7.2l-2.5-4.5c-0.7-1.2-1.5-1.4-3.2-1l-13,3c-0.8,0.2-1.2,0.9-1.1,1.7l1.5,6.5v0.1
				l6.3,27.2c0.2,0.8,0.9,1.2,1.7,1.1l48.3-11.1c0.8-0.2,1.2-0.9,1.1-1.7l-6.3-27.4C883.9,140.6,883.2,140.1,882.4,140.3z"/>
			<path class="st9" d="M884.1,141.4c-0.2-0.8-0.9-1.2-1.7-1.1l-31.1,7.2l-2.5-4.5c-0.7-1.2-1.5-1.4-3.2-1l-13,3
				c-0.8,0.2-1.2,0.9-1.1,1.7"/>
			<path class="st9" d="M884.8,171.5l-4.3-18.9c-0.2-0.7-0.8-1.1-1.5-0.9l-27.6,6.3l-2.2-4c-0.6-1.1-1.3-1.2-2.8-0.9l-11.5,2.6
				c-0.7,0.2-1.1,0.8-0.9,1.5"/>
		</g>
		<g>
			<polygon class="st10" points="800.7,272.1 846.7,278.3 853.7,258.7 807.8,252.6 			"/>
			
				<rect x="807.5" y="233.4" transform="matrix(0.1318 -0.9913 0.9913 0.1318 462.9328 1041.7373)" class="st11" width="37.4" height="46.3"/>
			<path class="st12" d="M812.6,247.7l2,0.3l0.5-3.8l1.7,4.1l2,0.3l1-7.6l-2-0.3l-0.5,3.9l-1.7-4.2l-2-0.3L812.6,247.7L812.6,247.7z
				 M819.8,246.9c-0.2,1.6,1.1,1.9,1.8,2c0,0,2.2,0.3,3.3,0.3l0.2-1.7l-2.7-0.4c-0.3,0-0.7-0.1-0.6-0.6l0.1-0.5l2.8,0.3l0.2-1.7
				l-2.8-0.5l0.1-0.5c0-0.3,0.1-0.6,0.6-0.5l2.8,0.4l0.2-1.7c-1.2-0.3-3.4-0.6-3.4-0.6c-0.7-0.1-2-0.1-2.2,1.5L819.8,246.9
				L819.8,246.9z M826.4,241.7l1.1,7.9l2.4,0.3l1-2.4l0.4,2.6l2.4,0.3l2.9-7.4l-2.1-0.3l-1.6,5l-0.6-3.7l0.6-1.5l-2.1-0.3l-1.6,5
				l-0.6-5.3L826.4,241.7L826.4,241.7z M836.7,245.8c-0.1,0.5-0.2,2.2,1.8,2.5l0.9,0.1c0.5,0.1,0.5,0.2,0.5,0.5v0.2
				c0,0.3-0.2,0.4-0.7,0.4c-1-0.1-2.3-0.4-2.7-0.5l-0.2,1.6c1,0.5,1.2,0.5,3.2,0.8c1,0.1,2.2-0.1,2.4-2.1V249
				c0.1-0.8-0.1-2.3-1.7-2.5l-1-0.1c-0.6-0.1-0.6-0.3-0.6-0.6v-0.1c0.1-0.4,0.3-0.4,0.8-0.4c0.7,0.1,1.8,0.3,2.5,0.4l0.2-1.6
				c-0.7-0.4-1.6-0.7-3.2-0.8c-1.2-0.1-2.2,0.4-2.3,1.8L836.7,245.8z"/>
			
				<rect x="815.3" y="241.2" transform="matrix(0.1328 -0.9911 0.9911 0.1328 457.0781 1027.6627)" class="st13" width="1.1" height="22.9"/>
			
				<rect x="814.8" y="244.6" transform="matrix(0.1328 -0.9911 0.9911 0.1328 453.2244 1030.1841)" class="st14" width="1.1" height="22.9"/>
			
				<rect x="814.3" y="248.2" transform="matrix(0.1328 -0.9911 0.9911 0.1328 449.306 1032.8025)" class="st14" width="1.1" height="22.9"/>
			
				<rect x="813.9" y="251.5" transform="matrix(0.1328 -0.9911 0.9911 0.1328 445.6624 1035.3121)" class="st14" width="1.1" height="22.9"/>
			
				<rect x="813.4" y="255" transform="matrix(0.1328 -0.9911 0.9911 0.1328 441.775 1037.7725)" class="st14" width="1.1" height="22.9"/>
			
				<rect x="812.9" y="258.4" transform="matrix(0.1328 -0.9911 0.9911 0.1328 437.8982 1040.2477)" class="st14" width="1.1" height="22.9"/>
			
				<rect x="812.5" y="261.9" transform="matrix(0.1328 -0.9911 0.9911 0.1328 434.1448 1042.8297)" class="st14" width="1.1" height="22.9"/>
			
				<rect x="837.8" y="246" transform="matrix(0.1328 -0.9911 0.9911 0.1328 473.5529 1052.7544)" class="st13" width="1.1" height="19.6"/>
			
				<rect x="837.4" y="249.4" transform="matrix(0.1328 -0.9911 0.9911 0.1328 469.737 1055.2629)" class="st14" width="1.1" height="19.6"/>
			
				<rect x="836.9" y="252.8" transform="matrix(0.1328 -0.9911 0.9911 0.1328 465.9714 1057.6877)" class="st14" width="1.1" height="19.6"/>
			
				<rect x="836.4" y="256.3" transform="matrix(0.1328 -0.9911 0.9911 0.1328 462.0849 1060.297)" class="st14" width="1.1" height="19.6"/>
			
				<rect x="835.9" y="259.6" transform="matrix(0.1328 -0.9911 0.9911 0.1328 458.3377 1062.7434)" class="st14" width="1.1" height="19.6"/>
			
				<rect x="835.6" y="263.2" transform="matrix(0.1328 -0.9911 0.9911 0.1328 454.5227 1065.4255)" class="st14" width="1.1" height="19.6"/>
			
				<rect x="835.2" y="266.4" transform="matrix(0.1328 -0.9911 0.9911 0.1328 451.0193 1067.8475)" class="st14" width="1.1" height="19.6"/>
		</g>
		<g>
			<path class="st15" d="M1022.9,192.1l17.6-0.4c0.9,0,1.6,0.7,1.6,1.5l0.7,29.4c0,0.9-0.7,1.6-1.5,1.6l-17.6,0.4
				c-0.9,0-1.6-0.7-1.6-1.5l-0.7-29.4C1021.4,192.9,1022.1,192.2,1022.9,192.1z"/>
			
				<linearGradient id="SVGID_00000096779877923791837930000003743278778736814227_" gradientUnits="userSpaceOnUse" x1="826.8809" y1="-678.765" x2="848.0377" y2="-678.765" gradientTransform="matrix(0.985 -0.1727 -0.1727 -0.985 89.9657 -316.8106)">
				<stop  offset="2.237672e-07" style="stop-color:#F3719C"/>
				<stop  offset="1" style="stop-color:#FF9373"/>
			</linearGradient>
			
				<polygon style="fill-rule:evenodd;clip-rule:evenodd;fill:url(#SVGID_00000096779877923791837930000003743278778736814227_);" points="
				1023.1,194 1040.4,193.6 1041,220.3 1023.7,220.7 			"/>
			
				<linearGradient id="SVGID_00000036959878636657467330000002378702292578363290_" gradientUnits="userSpaceOnUse" x1="830.9152" y1="-678.765" x2="848.024" y2="-678.765" gradientTransform="matrix(0.985 -0.1727 -0.1727 -0.985 89.9657 -316.8106)">
				<stop  offset="2.237672e-07" style="stop-color:#F3719C"/>
				<stop  offset="1" style="stop-color:#FF9373"/>
			</linearGradient>
			
				<polygon style="fill-rule:evenodd;clip-rule:evenodd;fill:url(#SVGID_00000036959878636657467330000002378702292578363290_);" points="
				1023.1,194 1040.4,193.6 1041,220.3 			"/>
			<path class="st18" d="M1028.4,198.8l3.1-0.1c0.3,0,0.6,0.1,0.8,0.3v-0.1c1,0.6,1.9,1.6,2.7,2.8c0.9,1.6,1.6,3.6,1.8,5.7
				c0.2,2.1-0.2,4.4-1.3,6.2c-0.7,1.2-1.8,2.3-3.1,3.2l-0.1-0.1c-0.1,0-0.2,0.1-0.4,0.1l-3.1,0.1c-0.7,0-1.3-0.5-1.3-1.2l-0.1-3
				c0-0.7,0.5-1.3,1.2-1.3l3.1-0.1c0.5,0,1,0.3,1.2,0.8c0.7-1.3,0.9-2.9,0.8-4.4s-0.5-2.9-1.1-4.1c-0.2,0.4-0.6,0.6-1,0.6l-3.1,0.1
				c-0.7,0-1.3-0.5-1.3-1.2l-0.1-3C1027.2,199.4,1027.7,198.8,1028.4,198.8z"/>
		</g>
		<g>
			
				<linearGradient id="SVGID_00000042700748860015446090000011003309958962098582_" gradientUnits="userSpaceOnUse" x1="602.2828" y1="-619.5005" x2="616.0145" y2="-619.5005" gradientTransform="matrix(0.985 -0.1727 -0.1727 -0.985 89.9657 -316.8106)">
				<stop  offset="0" style="stop-color:#404F5E"/>
				<stop  offset="1" style="stop-color:#26282A"/>
			</linearGradient>
			<polyline style="fill:url(#SVGID_00000042700748860015446090000011003309958962098582_);" points="802.5,182.7 789.5,185.7 
				791.4,193.7 804.3,190.7 802.5,182.7 			"/>
			
				<linearGradient id="SVGID_00000098219620259956013870000016651113048050180745_" gradientUnits="userSpaceOnUse" x1="595.0455" y1="-638.4394" x2="639.2652" y2="-638.4394" gradientTransform="matrix(0.985 -0.1727 -0.1727 -0.985 89.9657 -316.8106)">
				<stop  offset="0" style="stop-color:#404F5E"/>
				<stop  offset="1" style="stop-color:#26282A"/>
			</linearGradient>
			<path style="fill:url(#SVGID_00000098219620259956013870000016651113048050180745_);" d="M796.2,217l-1.8-8l3.8-0.9l1.8,8
				L796.2,217 M801.1,215.9l-1.8-8l3.9-0.9l1.8,8L801.1,215.9 M806.1,214.8l-1.8-8l3.9-0.9l1.8,8L806.1,214.8 M811.1,213.6l-1.8-8
				l3.9-0.9l1.8,8L811.1,213.6 M816.1,212.5l-1.8-8l3.9-0.9l1.8,8L816.1,212.5 M821.1,211.3l-1.8-8l4.1-0.9l1.8,8L821.1,211.3
				 M794.1,207.9l-1.8-7.6l3.8-0.9l1.8,7.6L794.1,207.9 M799,206.8l-1.8-7.6l3.9-0.9l1.8,7.6L799,206.8 M804,205.7l-1.8-7.6l3.9-0.9
				l1.8,7.6L804,205.7 M809,204.5l-1.8-7.6l3.9-0.9l1.8,7.6L809,204.5 M814,203.4l-1.8-7.6l3.9-0.9l1.8,7.6L814,203.4 M819,202.2
				l-1.8-7.6l4.1-0.9l1.8,7.6L819,202.2 M807,195.8c-0.7,0.1-1.3-0.3-1.5-0.9c-0.2-0.7,0.3-1.3,0.9-1.5c0.7-0.1,1.3,0.3,1.5,0.9
				C808.1,195,807.7,195.7,807,195.8 M827.3,188.3l-16.9,3.9l-5.2,1.2l-20.8,4.8l0.9,3.9l3.3-0.8l4.3,18.6l0.9-0.2l0.5,2l34.7-8
				l-0.5-2l1.1-0.3l-4.3-18.6l3-0.7L827.3,188.3"/>
			
				<rect x="786.6" y="182.4" transform="matrix(0.9746 -0.224 0.224 0.9746 -21.619 182.4273)" class="st21" width="13.3" height="8.2"/>
			
				<rect x="802.3" y="181.6" transform="matrix(0.9746 -0.224 0.224 0.9746 -20.7476 185.709)" class="st22" width="11.7" height="5.4"/>
			<path class="st23" d="M806.7,190.4l-5.2,1.2l-20.8,4.8l0.9,3.9l3.3-0.8l4.3,18.6l0.9-0.2l0.5,2l34.7-8l-0.5-2l1.1-0.3l-4.3-18.6
				l3-0.7l-0.9-3.9L806.7,190.4z M796.4,214.4l-3.8,0.9l-1.8-8l3.8-0.9L796.4,214.4z M794.3,205.3l-3.8,0.9l-1.8-7.6l3.8-0.9
				L794.3,205.3z M801.4,213.3l-3.9,0.9l-1.8-8l3.9-0.9L801.4,213.3z M799.3,204.2l-3.9,0.9l-1.8-7.6l3.9-0.9L799.3,204.2z
				 M806.4,212.1l-3.9,0.9l-1.8-8l3.9-0.9L806.4,212.1z M804.3,203l-3.9,0.9l-1.8-7.6l3.9-0.9L804.3,203z M801.9,193.2
				c-0.2-0.7,0.3-1.3,0.9-1.5c0.7-0.1,1.3,0.3,1.5,0.9c0.2,0.7-0.3,1.3-0.9,1.5C802.7,194.3,802,193.9,801.9,193.2z M811.4,211
				l-3.9,0.9l-1.8-8l3.9-0.9L811.4,211z M809.3,201.9l-3.9,0.9l-1.8-7.6l3.9-0.9L809.3,201.9z M816.4,209.8l-3.9,0.9l-1.8-8l3.9-0.9
				L816.4,209.8z M814.3,200.8l-3.9,0.9l-1.8-7.6l3.9-0.9L814.3,200.8z M821.5,208.7l-4.1,0.9l-1.8-8l4.1-0.9L821.5,208.7z
				 M819.4,199.6l-4.1,0.9l-1.8-7.6l4.1-0.9L819.4,199.6z"/>
		</g>
		<g>
			
				<linearGradient id="SVGID_00000155111294530911025030000014210945715193800383_" gradientUnits="userSpaceOnUse" x1="9.0906" y1="-18.9421" x2="41.2526" y2="-18.9421" gradientTransform="matrix(0.8704 -0.4924 -0.4924 -0.8704 962.4698 71.9607)">
				<stop  offset="0" style="stop-color:#404F5E"/>
				<stop  offset="1" style="stop-color:#26282A"/>
			</linearGradient>
			<path style="fill:url(#SVGID_00000155111294530911025030000014210945715193800383_);" d="M1000.5,60.6c0.2,0.2,0.4,0.4,0.5,0.6
				l0.7,1.2l2,3.5l4.6,8.1c0.7,1.3,0.3,3-1,3.7L984,90.9c0,0-0.1,0-0.1,0.1c0.8,0.8,2.2,1,3.2,0.4l11.1-6.3l12.2-6.9
				c1.3-0.7,1.8-2.4,1-3.7l-4.6-8.1l-2-3.5l-0.7-1.2C1003.4,60.5,1001.8,60,1000.5,60.6"/>
			<path class="st25" d="M1008.2,74.1c0.7,1.3,0.3,3-1,3.7L983.9,91c-1.3,0.7-3,0.3-3.7-1l-7.3-12.8c-0.7-1.3-0.3-3,1-3.7l23.3-13.2
				c1.3-0.7,3-0.3,3.7,1L1008.2,74.1"/>
			<polyline class="st5" points="1003.6,66 975.5,81.9 973.6,78.4 1001.7,62.5 1003.6,66 			"/>
			<polyline class="st21" points="989.1,86.6 983.1,90 981.2,86.6 987.2,83.2 989.1,86.6 			"/>
			<path class="st26" d="M985,67.1l-11.1,6.3c-1.3,0.8-1.8,2.4-1,3.7l0.7,1.2l13.4-7.7L985,67.1"/>
			<path class="st26" d="M981.2,86.6L981.2,86.6l6-3.4l2,3.5l-6,3.4L981.2,86.6 M989,74.3l-13.5,7.6l4.6,8.1c0.7,1.3,2.4,1.8,3.7,1
				l11.1-6.3L989,74.3"/>
			<polyline class="st5" points="987.1,70.8 973.6,78.4 975.5,81.9 989,74.3 987.1,70.8 			"/>
			
				<rect x="981.7" y="84.6" transform="matrix(0.8704 -0.4924 0.4924 0.8704 85.0599 496.3129)" class="st21" width="6.9" height="4"/>
		</g>
		<g>
			
				<linearGradient id="SVGID_00000006671493308398732640000013734943640263274383_" gradientUnits="userSpaceOnUse" x1="894.5403" y1="-598.5385" x2="934.5939" y2="-598.5385" gradientTransform="matrix(0.985 -0.1727 -0.1727 -0.985 89.9657 -316.8106)">
				<stop  offset="0" style="stop-color:#404F5E"/>
				<stop  offset="1" style="stop-color:#26282A"/>
			</linearGradient>
			<path style="fill:url(#SVGID_00000006671493308398732640000013734943640263274383_);" d="M1089.3,105.6c-4.5,1-7.3,5.5-6.2,10
				c0.8,3.3,3.3,5.7,6.4,6.3c-0.9-0.7-1.6-1.6-2.2-2.6c-1.4-0.9-2.5-2.4-2.9-4.1c-0.8-3.6,1.4-7.2,5.1-8.1c1.2-0.3,2.4-0.2,3.5,0.1
				c0.2,0,0.4-0.1,0.6-0.1c0.1,0,0.2,0,0.3,0c0.2,0,0.3,0,0.5,0c0.1,0,0.3,0,0.4,0s0.3,0,0.4,0c0.2,0,0.3,0,0.4,0.1
				c0.1,0,0.2,0,0.4,0c0.1,0,0.2,0,0.3,0.1C1094.4,105.7,1091.8,105,1089.3,105.6 M1078.6,106.9l-3.7,0.8c-1.3,0.3-2.1,1.6-1.8,2.8
				l0.1,0.6l2.2-0.5l-0.3-1.5l3.7-0.9L1078.6,106.9 M1106.4,100.5l-3.5,0.8c-0.1,0.3-0.1,0.7-0.1,1c0.2,1.1,1.3,1.7,2.4,1.4
				c0.4-0.1,0.8-0.3,1-0.6c0.1-0.4,0.3-0.8,0.6-1.1c0-0.2,0-0.5,0-0.7C1106.8,101.1,1106.6,100.8,1106.4,100.5 M1108.5,100.1
				l-0.7,0.2l0.3,1.3c1-0.1,2,0.5,2.2,1.5s-0.4,2-1.3,2.3l2.8,12c0.3,1.3-0.5,2.5-1.8,2.8l-12.4,2.9h-0.1c-0.1,0-0.1,0.1-0.2,0.1
				c-0.3,0.1-0.6,0.2-0.8,0.2c-0.3,0.1-0.6,0.1-0.9,0.1c-0.1,0-0.1,0-0.2,0h-0.1l-18.2,4.2l0,0c0.3,1.3,1.6,2.1,2.8,1.8l33.6-7.7
				c1.3-0.3,2.1-1.6,1.8-2.8l-0.1-0.6l-3-13.2l-0.8-3.3C1111,100.6,1109.8,99.8,1108.5,100.1"/>
			<path class="st28" d="M1105,98.4l-22.8,5.2l-0.5-2.1l-6.5,1.5l0.5,2.1l-4.3,1c-1.3,0.3-2.1,1.6-1.8,2.8l3.9,17.2
				c0.3,1.3,1.6,2.1,2.8,1.8l33.6-7.7c1.3-0.3,2.1-1.6,1.8-2.8l-3.9-17.2C1107.5,98.9,1106.3,98.1,1105,98.4 M1079.2,109.8l-6.7,1.5
				l-0.9-3.8l6.7-1.5L1079.2,109.8 M1093,121.8c-4.5,1-8.9-1.8-10-6.2c-1-4.5,1.8-8.9,6.2-10s8.9,1.8,10,6.2
				C1100.3,116.3,1097.4,120.7,1093,121.8 M1105.3,103.8c-1.1,0.2-2.2-0.4-2.4-1.4c-0.2-1.1,0.5-2.1,1.6-2.4
				c1.1-0.2,2.2,0.4,2.4,1.4C1107.1,102.5,1106.4,103.5,1105.3,103.8"/>
			<path class="st29" d="M1095,117.5c-0.6,0.2-1.3-0.2-1.4-0.9s0.2-1.3,0.9-1.4s1.3,0.2,1.4,0.9
				C1096.1,116.7,1095.7,117.3,1095,117.5 M1092.7,107.2c-0.3,0.1-0.5,0.1-0.8,0.2c-0.1,0-0.2,0.1-0.3,0.1c-0.2,0.1-0.3,0.1-0.5,0.2
				c-0.1,0.1-0.2,0.1-0.4,0.2s-0.2,0.1-0.4,0.2c-0.1,0.1-0.3,0.2-0.4,0.2c-0.1,0.1-0.2,0.1-0.3,0.2c-0.1,0.1-0.3,0.2-0.4,0.3
				c-0.1,0.1-0.2,0.1-0.2,0.2c-0.1,0.1-0.2,0.2-0.4,0.4c-0.1,0.1-0.1,0.1-0.2,0.2c0,0,0,0-0.1,0.1c0.6,0.3,1.1,0.8,1.3,1.5
				c0.3,1.2-0.5,2.3-1.6,2.6c-0.6,0.1-1.2,0-1.7-0.3c-0.3,1.2-0.3,2.4,0,3.7c0.2,0.7,0.4,1.4,0.8,2.1c1.5,1,3.3,1.4,5.2,0.9
				c3.6-0.8,5.9-4.5,5.1-8.1C1096.8,109.7,1095,107.9,1092.7,107.2C1092.9,107.2,1092.8,107.2,1092.7,107.2"/>
			<path class="st30" d="M1089.5,107c-3.6,0.8-5.9,4.5-5.1,8.1c0.4,1.8,1.5,3.2,2.9,4.1c-0.3-0.6-0.6-1.3-0.8-2.1
				c-0.3-1.3-0.3-2.5,0-3.7c-0.5-0.3-0.8-0.8-0.9-1.3c-0.3-1.2,0.5-2.3,1.6-2.6c0.5-0.1,0.9-0.1,1.4,0.1c0,0,0,0,0.1-0.1
				s0.1-0.1,0.2-0.2s0.2-0.2,0.4-0.4c0.1-0.1,0.2-0.1,0.2-0.2c0.1-0.1,0.2-0.2,0.4-0.3c0.1-0.1,0.2-0.1,0.3-0.2
				c0.1-0.1,0.2-0.2,0.4-0.2c0.1-0.1,0.2-0.1,0.4-0.2c0.1-0.1,0.2-0.1,0.4-0.2c0.2-0.1,0.3-0.1,0.5-0.2c0.1,0,0.2-0.1,0.3-0.1
				c0.3-0.1,0.5-0.2,0.8-0.2c0.1,0,0.2,0,0.2-0.1C1091.9,106.8,1090.7,106.7,1089.5,107"/>
			<path class="st31" d="M1088.6,109.6c-0.1,0.1-0.2,0.2-0.3,0.4c-0.1,0.1-0.1,0.1-0.2,0.2s-0.2,0.3-0.3,0.4c-0.6,0.9-1,1.8-1.3,2.8
				c0.5,0.3,1.1,0.4,1.7,0.3c1.2-0.3,1.9-1.4,1.6-2.6C1089.7,110.4,1089.2,109.9,1088.6,109.6"/>
			<path class="st32" d="M1087.2,109.5c-1.2,0.3-1.9,1.4-1.6,2.6c0.1,0.6,0.5,1.1,0.9,1.3c0.2-1,0.7-2,1.3-2.8
				c0.1-0.2,0.2-0.3,0.3-0.4c0.1-0.1,0.1-0.1,0.2-0.2s0.2-0.2,0.3-0.4C1088.2,109.4,1087.7,109.4,1087.2,109.5"/>
			<path class="st31" d="M1094.5,115.2c-0.6,0.2-1,0.8-0.9,1.4s0.8,1,1.4,0.9s1-0.8,0.9-1.4C1095.7,115.4,1095.1,115,1094.5,115.2"
				/>
			<path class="st5" d="M1105,98.4l-22.8,5.2l-0.5-2.1l-6.5,1.5l0.5,2.1l-4.3,1c-1.3,0.3-2.1,1.6-1.8,2.8l0.8,3.3l13.8-3.2
				c1.1-1.7,2.9-3.1,5.1-3.6s4.3-0.1,6.1,1l13.2-3l-0.8-3.3C1107.5,98.9,1106.3,98.1,1105,98.4z M1079.2,109.8l-6.7,1.5l-0.9-3.8
				l6.7-1.5L1079.2,109.8z M1105.3,103.8c-1.1,0.2-2.2-0.4-2.4-1.4c-0.2-1.1,0.5-2.1,1.6-2.4c1.1-0.2,2.2,0.4,2.4,1.4
				C1107.1,102.5,1106.4,103.5,1105.3,103.8z"/>
			<path class="st5" d="M1086.5,108.6l6.4-1.5c-1.1-0.3-2.2-0.4-3.4-0.1C1088.3,107.3,1087.3,107.9,1086.5,108.6z"/>
			<path class="st5" d="M1076.4,127.9l33.6-7.7c1.3-0.3,2.1-1.6,1.8-2.8l-0.1-0.6l-15.5,3.6c-0.9,0.7-1.9,1.2-3.1,1.4
				c-1.2,0.3-2.3,0.3-3.4,0.1l-16.1,3.7l0.1,0.6C1073.9,127.4,1075.2,128.2,1076.4,127.9z"/>
		</g>
		<g>
			<path class="st33" d="M853,118.3c-6.1-2.6-8.9-9.7-6.3-15.8c2.6-6.1,9.7-8.9,15.8-6.3s8.9,9.7,6.3,15.8
				C866.1,118.1,859,120.9,853,118.3 M853.4,117.2c5.5,2.4,11.9-0.2,14.3-5.7s-0.2-11.9-5.7-14.3s-11.9,0.2-14.3,5.7
				S847.9,114.9,853.4,117.2"/>
			<path class="st34" d="M852.5,97.6c-2.1,1.1-3.8,2.9-4.8,5.3c-0.5,1.2-0.8,2.4-0.9,3.6c-0.1,4.3,2.4,8.5,6.6,10.3
				c0.1,0.1,0.2,0.1,0.4,0.2c-2.7-2.4-4.1-5.9-4-9.5c0-1.6,0.3-3.2,1-4.7c0.3-0.8,0.7-1.5,1.2-2.2c0-0.8,0.4-1.6,1.1-2
				c0.3-0.2,0.6-0.2,1-0.3c0.6-0.5,1.3-1,2-1.4c0.3-0.2,0.7-0.3,1-0.5C855.5,96.4,854,96.9,852.5,97.6"/>
			<path class="st35" d="M856.1,96.8c-0.7,0.4-1.4,0.9-2,1.4c0.8,0,1.6,0.4,2,1.1c0.6,1.1,0.2,2.4-0.9,2.9s-2.4,0.2-2.9-0.9
				c-0.2-0.3-0.2-0.6-0.2-0.9c-0.5,0.7-0.9,1.4-1.2,2.2c-0.7,1.5-1,3.1-1,4.7c-0.2,3.6,1.3,7.1,4,9.5c3.1,1.2,6.4,0.9,9.1-0.6
				c2.1-1.1,3.8-2.9,4.8-5.3c0.5-1.2,0.8-2.4,0.9-3.6c0.1-4.3-2.4-8.5-6.6-10.3c-1.6-0.7-3.2-0.9-4.8-0.9
				C856.8,96.5,856.5,96.6,856.1,96.8"/>
			<path class="st36" d="M852.5,97.1c-2.1,1.1-3.8,2.9-4.8,5.3c-0.6,1.3-0.8,2.7-0.9,4.1c0.1-1.2,0.4-2.4,0.9-3.6
				c1-2.3,2.8-4.2,4.8-5.3c1.4-0.8,3-1.2,4.6-1.3c1.6-0.1,3.2,0.2,4.8,0.9c4.2,1.8,6.7,5.9,6.6,10.3c0.3-4.5-2.2-8.9-6.6-10.8
				C858.8,95.3,855.4,95.6,852.5,97.1"/>
			<path class="st37" d="M886.2,122.7c0.7,0.3,1.5,0,1.8-0.7l1.6-3.7c0.3-0.7,0-1.5-0.7-1.8l-18.4-6.9c-0.7-0.3-1.5,0-1.8,0.7
				l-0.9,2c-0.3,0.7,0,1.5,0.7,1.8L886.2,122.7z"/>
			
				<linearGradient id="SVGID_00000033338915457514826970000014391766241373047990_" gradientUnits="userSpaceOnUse" x1="691.8339" y1="-557.0538" x2="696.1522" y2="-557.0538" gradientTransform="matrix(0.985 -0.1727 -0.1727 -0.985 89.9657 -316.8106)">
				<stop  offset="0" style="stop-color:#404F5E"/>
				<stop  offset="1" style="stop-color:#26282A"/>
			</linearGradient>
			<path style="fill:url(#SVGID_00000033338915457514826970000014391766241373047990_);" d="M868.7,110.3c0.3-0.7,1.1-1,1.8-0.7
				l1.1,0.4l-2,4.6l-1.1-0.5c-0.7-0.3-1-1.1-0.7-1.8L868.7,110.3z"/>
			<path class="st39" d="M853,117.8c-6.1-2.6-8.9-9.7-6.3-15.8s9.7-8.9,15.8-6.3s8.9,9.7,6.3,15.8
				C866.2,117.6,859.1,120.4,853,117.8 M853.4,116.7c5.5,2.4,11.9-0.2,14.3-5.7s-0.2-11.9-5.7-14.3s-11.9,0.2-14.3,5.7
				C845.3,107.9,847.9,114.4,853.4,116.7"/>
			<path class="st40" d="M853.1,98.5c-0.8,0.4-1.2,1.2-1.1,2c0.6-0.9,1.3-1.6,2.1-2.3C853.8,98.2,853.4,98.3,853.1,98.5"/>
			<path class="st41" d="M854.1,98.2c-0.8,0.7-1.5,1.4-2.1,2.3c0,0.3,0.1,0.6,0.2,0.9c0.6,1.1,1.9,1.4,2.9,0.9s1.5-1.9,0.9-2.9
				C855.6,98.6,854.9,98.2,854.1,98.2"/>
		</g>
		<g>
			<path class="st5" d="M1103.2,14.9c2.4,10.7-4.2,21.3-14.9,23.8s-21.3-4.2-23.8-14.9c-2.4-10.7,4.2-21.3,14.9-23.8
				C1090.1-2.4,1100.7,4.2,1103.2,14.9z"/>
			
				<linearGradient id="SVGID_00000044139379551966811110000016484117589527212733_" gradientUnits="userSpaceOnUse" x1="915.9283" y1="-468.5132" x2="924.7415" y2="-529.5757" gradientTransform="matrix(0.985 -0.1727 -0.1727 -0.985 89.9657 -316.8106)">
				<stop  offset="2.237672e-07" style="stop-color:#F3719C"/>
				<stop  offset="1" style="stop-color:#FF9373"/>
			</linearGradient>
			<path style="fill:url(#SVGID_00000044139379551966811110000016484117589527212733_);" d="M1100.6,15.5
				c2.1,9.2-3.7,18.5-12.9,20.6c-9.2,2.1-18.5-3.7-20.6-12.9s3.7-18.5,12.9-20.6S1098.4,6.3,1100.6,15.5z"/>
			<path class="st5" d="M1081.9,5.4c0.2,0.7-0.3,1.4-0.9,1.5c-0.7,0.2-1.4-0.3-1.5-0.9c-0.2-0.7,0.3-1.4,0.9-1.5
				C1081.1,4.3,1081.8,4.7,1081.9,5.4z"/>
			<path class="st5" d="M1088.2,32.8c0.2,0.7-0.3,1.4-0.9,1.5c-0.7,0.2-1.4-0.3-1.5-1s0.3-1.4,0.9-1.5
				C1087.4,31.6,1088.1,32.1,1088.2,32.8z"/>
			<path class="st5" d="M1069.8,21.3c0.7-0.2,1.4,0.3,1.5,1s-0.3,1.4-0.9,1.5c-0.7,0.2-1.4-0.3-1.5-1S1069.2,21.4,1069.8,21.3z"/>
			<path class="st5" d="M1097.3,15c0.7-0.2,1.4,0.3,1.5,1c0.1,0.7-0.3,1.4-0.9,1.5c-0.7,0.2-1.4-0.3-1.5-1
				C1096.3,15.8,1096.6,15.1,1097.3,15z"/>
			
				<rect x="1082.4" y="8.5" transform="matrix(0.9746 -0.224 0.224 0.9746 24.3325 242.897)" class="st37" width="0.7" height="11.4"/>
			<polygon class="st37" points="1096.3,26.9 1096.6,27 1084.3,19.3 1084,19.2 			"/>
		</g>
		<g>
			
				<rect x="1111.3" y="160.9" transform="matrix(0.9746 -0.224 0.224 0.9746 -8.2238 253.4081)" class="st5" width="3" height="4.1"/>
			
				<rect x="1112.2" y="164.8" transform="matrix(0.9746 -0.224 0.224 0.9746 -9.0746 253.7088)" class="st23" width="3" height="4.1"/>
			
				<rect x="1113.2" y="168.8" transform="matrix(0.9746 -0.224 0.224 0.9746 -9.9452 254.0344)" class="st43" width="3" height="4.1"/>
			
				<rect x="1114.1" y="172.8" transform="matrix(0.9746 -0.224 0.224 0.9746 -10.8184 254.3376)" class="st21" width="3" height="4.1"/>
			<path class="st44" d="M1117.8,186.2c0.5,2.3-0.9,4.5-3.2,5.1l-17.8,4.1c-2.3,0.5-4.5-0.9-5.1-3.2l-6.1-26.5
				c-0.5-2.3,0.9-4.5,3.2-5.1l17.8-4.1c2.3-0.5,4.5,0.9,5.1,3.2L1117.8,186.2"/>
			<polyline class="st5" points="1106.3,166.6 1094.5,169.3 1093.9,166.6 1105.7,163.9 1106.3,166.6 			"/>
			<polyline class="st5" points="1107.3,170.9 1095.5,173.6 1094.9,170.9 1106.7,168.2 1107.3,170.9 			"/>
			<polyline class="st5" points="1108.3,175.2 1096.5,177.9 1095.9,175.2 1107.7,172.5 1108.3,175.2 			"/>
			<path class="st5" d="M1089.4,169.9c0.1,0.4-0.2,0.8-0.6,0.9l-2.7,0.6c-0.4,0.1-0.8-0.2-0.9-0.6c-0.1-0.4,0.2-0.8,0.6-0.9l2.7-0.6
				C1088.9,169.2,1089.3,169.5,1089.4,169.9"/>
			<path class="st5" d="M1090.4,174.1c0.1,0.4-0.2,0.8-0.6,0.9l-2.7,0.6c-0.4,0.1-0.8-0.2-0.9-0.6c-0.1-0.4,0.2-0.8,0.6-0.9l2.7-0.6
				C1089.9,173.4,1090.3,173.7,1090.4,174.1"/>
			<path class="st5" d="M1091.3,178.3c0.1,0.4-0.2,0.8-0.6,0.9l-2.7,0.6c-0.4,0.1-0.8-0.2-0.9-0.6c-0.1-0.4,0.2-0.8,0.6-0.9l2.7-0.6
				C1090.8,177.6,1091.2,177.9,1091.3,178.3"/>
			<path class="st5" d="M1092.3,182.5c0.1,0.4-0.2,0.8-0.6,0.9l-2.7,0.6c-0.4,0.1-0.8-0.2-0.9-0.6c-0.1-0.4,0.2-0.8,0.6-0.9l2.7-0.6
				C1091.8,181.8,1092.2,182.1,1092.3,182.5"/>
			<path class="st5" d="M1093.3,186.7c0.1,0.4-0.2,0.8-0.6,0.9l-2.7,0.6c-0.4,0.1-0.8-0.2-0.9-0.6c-0.1-0.4,0.2-0.8,0.6-0.9l2.7-0.6
				C1092.8,186,1093.2,186.3,1093.3,186.7"/>
			<path class="st5" d="M1094.2,190.9c0.1,0.4-0.2,0.8-0.6,0.9l-2.7,0.6c-0.4,0.1-0.8-0.2-0.9-0.6c-0.1-0.4,0.2-0.8,0.6-0.9l2.7-0.6
				C1093.7,190.2,1094.1,190.5,1094.2,190.9"/>
			<path class="st45" d="M1098.5,158.3l-9.7,2.2l0,0l0,0l0,0l0,0l0,0l0,0l0,0l0,0l0,0l0,0l0,0l0,0l0,0l0,0l0,0l0,0l0,0l0,0l0,0l0,0
				l0,0l0,0l0,0l0,0l0,0l0,0l0,0l0,0l0,0l0,0l0,0l0,0l0,0l0,0l0,0c-2.1,0.6-3.4,2.8-2.9,4.9l1.9-0.4c0.4-0.1,0.8,0.2,0.9,0.6l0,0
				l0,0c0.1,0.4-0.2,0.8-0.6,0.9l-1.9,0.4l0.6,2.7l1.9-0.4c0.4-0.1,0.8,0.2,0.9,0.6l0,0l0,0c0.1,0.4-0.2,0.8-0.6,0.9l-1.9,0.4
				l0.6,2.7l1.9-0.4c0.4-0.1,0.8,0.2,0.9,0.6l0,0l0,0c0.1,0.4-0.2,0.8-0.6,0.9l-1.9,0.4l0.6,2.7l1.9-0.4c0.4-0.1,0.8,0.2,0.9,0.6
				l0,0l0,0c0.1,0.4-0.2,0.8-0.6,0.9l-1.9,0.4l0.6,2.7l1.9-0.4c0.4-0.1,0.8,0.2,0.9,0.6l0,0l0,0c0.1,0.4-0.2,0.8-0.6,0.9l-1.9,0.4
				l0.6,2.8l1.9-0.4c0.4-0.1,0.8,0.2,0.9,0.6l0,0l0,0c0.1,0.4-0.2,0.8-0.6,0.9l-1.9,0.4l0.6,2.8l1.9-0.4c0.4-0.1,0.8,0.2,0.9,0.6
				l0,0l0,0c0.1,0.4-0.2,0.8-0.6,0.9l-1.9,0.4c0.6,2.2,2.7,3.5,4.9,3.1l0,0l0,0l0,0l0,0l0,0l0,0l0,0l0,0l0,0l0,0l0,0l0,0l0,0l0,0
				l0,0l0,0l0,0l0,0l0,0l0,0l0,0l0,0l0,0l0,0l0,0l0,0l9.7-2.2l-3.8-16.6l-6.2,1.4l-0.6-2.7l6.2-1.4l-0.4-1.6l-6.2,1.4l-0.6-2.7
				l6.2-1.4l-0.4-1.6l-6.2,1.4l-0.6-2.7l6.2-1.4L1098.5,158.3"/>
			
				<rect x="1094.1" y="165.9" transform="matrix(0.9746 -0.224 0.224 0.9746 -9.581 250.0453)" class="st5" width="6.4" height="2.7"/>
			
				<rect x="1095.1" y="170.2" transform="matrix(0.9746 -0.224 0.224 0.9746 -10.5187 250.3786)" class="st5" width="6.4" height="2.7"/>
			
				<rect x="1096.1" y="174.5" transform="matrix(0.9746 -0.224 0.224 0.9746 -11.4565 250.7118)" class="st5" width="6.4" height="2.7"/>
			<path class="st5" d="M1089.4,169.9c-0.1-0.4-0.5-0.6-0.9-0.6l-1.9,0.4l-0.7,0.2c-0.4,0.1-0.7,0.5-0.6,0.9s0.5,0.6,0.9,0.6
				l0.7-0.2l1.9-0.4C1089.2,170.7,1089.5,170.3,1089.4,169.9z"/>
			<path class="st5" d="M1090.4,174.1c-0.1-0.4-0.5-0.6-0.9-0.6l-1.9,0.4l-0.7,0.2c-0.4,0.1-0.7,0.5-0.6,0.9s0.5,0.6,0.9,0.6
				l0.7-0.2l1.9-0.4C1090.2,174.9,1090.5,174.5,1090.4,174.1z"/>
			<path class="st5" d="M1091.3,178.3c-0.1-0.4-0.5-0.6-0.9-0.6l-1.9,0.4l-0.7,0.2c-0.4,0.1-0.7,0.5-0.6,0.9s0.5,0.6,0.9,0.6
				l0.7-0.2l1.9-0.4C1091.2,179.1,1091.4,178.7,1091.3,178.3z"/>
			<path class="st5" d="M1092.3,182.5c-0.1-0.4-0.5-0.6-0.9-0.6l-1.9,0.4l-0.7,0.2c-0.4,0.1-0.7,0.5-0.6,0.9s0.5,0.6,0.9,0.6
				l0.7-0.2l1.9-0.4C1092.1,183.3,1092.4,182.9,1092.3,182.5z"/>
			<path class="st5" d="M1093.3,186.7c-0.1-0.4-0.5-0.6-0.9-0.6l-1.9,0.4l-0.7,0.2c-0.4,0.1-0.7,0.5-0.6,0.9s0.5,0.6,0.9,0.6
				l0.7-0.2l1.9-0.4C1093.1,187.5,1093.4,187.1,1093.3,186.7z"/>
			<path class="st5" d="M1094.2,190.9c-0.1-0.4-0.5-0.6-0.9-0.6l-1.9,0.4l-0.7,0.2c-0.4,0.1-0.7,0.5-0.6,0.9s0.5,0.6,0.9,0.6
				l0.7-0.2l1.9-0.4C1094.1,191.7,1094.3,191.3,1094.2,190.9z"/>
		</g>
		<g>
			<path class="st46" d="M857.2,363.6c0,0-6.6-2.1-8.1-3s-14.1-10.1-16.4-8.8s-4.2,7.4-5.8,12.6s-7.7,16.9-8.3,24
				c-0.7,7.1,2.3,5.4,3.3,4.1s10.2-10.3,15-14s7.1-5,7.1-5l10.5,2L857.2,363.6z"/>
			<path class="st47" d="M845.4,358.2c-4.4-2.9-11.1-7.2-12.7-6.3c-2.3,1.3-4.2,7.4-5.8,12.6s-7.7,16.9-8.3,24
				c-0.7,7.1,2.3,5.4,3.3,4.1s10.2-10.3,15-14c2-1.6,3.6-2.7,4.8-3.5l-5.6-3.5C835.9,371.6,841,362.6,845.4,358.2z"/>
			<path class="st46" d="M836,352.5c-0.2-0.1-0.3-0.1-0.4-0.2h-0.1c-0.2-0.1-0.4-0.2-0.6-0.2c-0.1,0-0.1,0-0.2-0.1
				c-0.2,0-0.3-0.1-0.5-0.1h-0.1c-0.2,0-0.3-0.1-0.5-0.1h-0.1c-0.1,0-0.2,0-0.3,0h-0.1c-0.1,0-0.2,0-0.3,0.1
				c-2.3,1.3-4.2,7.4-5.8,12.6s-7.7,16.9-8.3,24c-0.3,3,0.1,4.5,0.7,5c0.6-7.1,5.9-18.6,10.5-27.8C833,358.9,834.9,354.8,836,352.5z
				"/>
		</g>
		<g>
			<path class="st47" d="M1133.6,314.7c0,0,11.1-11.4,13.7-15c2.7-3.6,6.3-7.6,7.8-5.8c1.5,1.8,2.1,8.1,0.4,16.8s-8.3,22-8.9,23.2
				c-0.5,1.2-0.6,4.4-4.4,5.6c-3.8,1.1-13.5-6.3-13.5-6.3L1133.6,314.7z"/>
			<path class="st46" d="M1142.2,339.5c3.8-1.1,3.8-4.4,4.4-5.6c0.5-1.2,7.1-14.5,8.9-23.2s1.1-15-0.4-16.8
				c-0.3-0.4-0.7-0.5-1.1-0.4c0.3,2.6,0.5,7.5-0.6,14.2c-1.1,7.1-8.1,22.9-12.3,31.9C1141.5,339.6,1141.9,339.6,1142.2,339.5z"/>
		</g>
		<path class="st48" d="M895.4,262.9c0,0-3.1,6.4-0.8,14s22,18.3,22,18.3s4.3-11.4,9.4-18s14.4-12.9,14.4-12.9l49.9,4.6
			c0,0,15.8-15.9,16.2-28.4c0.5-12.4-13.1-37.1-18.5-42.3s-8.8-10.3-8.8-10.3l-61.5,23.3c0,0,3.5,9-3.4,21.7
			C907.5,245.5,895.4,262.9,895.4,262.9z"/>
		
			<linearGradient id="SVGID_00000162338244878979740190000010398428601378844850_" gradientUnits="userSpaceOnUse" x1="498.1979" y1="-722.7259" x2="788.082" y2="-722.7259" gradientTransform="matrix(0.9746 -0.224 -0.224 -0.9746 196.032 -246.5944)">
			<stop  offset="0" style="stop-color:#404F5E"/>
			<stop  offset="1" style="stop-color:#26282A"/>
		</linearGradient>
		<path style="fill:url(#SVGID_00000162338244878979740190000010398428601378844850_);" d="M932.1,266.1c0,0-0.5,21,2.6,28.7
			c3.1,7.6,8,12.4,8,12.4l-1.1,46.5l-90,2l-1.9,17.6c0,0,57.5,0.9,79.3,2.6s34.1,3.4,35.9,2.2s3.4-4,3.4-4l11.2-66.8l60.5-9.5
			c0,0,21.7,11.4,38.1,18.6s51.7,19.9,51.7,19.9s3.9-3,4.2-8.7c0.3-5.7-0.3-12.8-0.3-12.8s-3.4-2.2-5.7-2.7s-4.9,0.9-6.8,0.8
			s-51-29.7-56.6-33s-13.8-12.1-21-13.1s-54.8-1.7-54.8-1.7l-2.3-6.5C963.2,259.9,944.4,262.4,932.1,266.1z"/>
		<g>
			<path class="st46" d="M923.5,227.8c0,0,7,25.8,6.9,26.6s2,17.1,2,17.1c17.7-4.8,36.2-8,55.8-8.6l-1-66.3L974.5,159l-59.8,18.8
				L923.5,227.8z"/>
			<g>
				<path class="st50" d="M961.5,225.6c1.5-1.8,2.5-2.9,2.5-2.9"/>
				<path class="st50" d="M932.1,259.6c0,0,5.5-7.4,8.7-10.4c2.2-2.1,12.2-13.6,18.3-20.8"/>
				<path class="st50" d="M961.4,212.8c0,0-12.6,21.5-19.3,30.5"/>
				<path class="st50" d="M966.3,251.6c-5.5,3-12.5,6.7-17.6,9.4"/>
				<path class="st50" d="M975.3,246.7c0,0-2.3,1.2-5.7,3.1"/>
			</g>
		</g>
		<g>
			<g>
				<g>
					<path class="st46" d="M1049.6,66.2l7.4-22.4c0,0,3.1-10.1,3.8-8.8c0.7,1.3,1,1.5,0.5,3.2c-0.4,1.8-1.2,11.3-1.2,11.3l6.7-10.9
						c0,0,2.3-2,2.3-0.1s-4,10.7-4,10.7s9.4-6.5,10-5.4s-7.9,10-7.9,10s10.4-2,10.5-0.7c0.1,1.2-8.5,4-8.5,4s-0.6,2.8-4.6,7.3
						s-7.5,6.5-7.5,6.5L1049.6,66.2z"/>
					<path class="st46" d="M1053.8,60.1c0,0,5.1-2.2,8.7-6c3.5-3.7,6.8-7,7.1-5.6s-3.5,6.5-4,7s-0.8,3.7-2.2,6.8
						c-1.4,3-6.2,6.4-6.2,6.4"/>
				</g>
				<polygon class="st46" points="1045.1,71.1 1050.1,64 1059.9,72 1055.3,78.3 				"/>
			</g>
			
				<linearGradient id="SVGID_00000020394129207244888440000009870179686244459697_" gradientUnits="userSpaceOnUse" x1="656.8948" y1="-577.9694" x2="765.8208" y2="-577.9694" gradientTransform="matrix(0.9746 -0.224 -0.224 -0.9746 196.032 -246.5944)">
				<stop  offset="2.237672e-07" style="stop-color:#F3719C"/>
				<stop  offset="1" style="stop-color:#FF9373"/>
			</linearGradient>
			<path style="fill:url(#SVGID_00000020394129207244888440000009870179686244459697_);" d="M971.2,173c0,0,0.7,3.8,8.7,16.2
				s19.8,34.5,22.8,40.9c2.9,6.4,3.8,10.4,3.8,10.4s2.6-16.9-1.2-32.7s-18.1-35.9-18.1-35.9s28.8-30.9,33.6-37.2s36-55.1,36-55.1
				L1045,71l-38.6,42.9l-34.5,28.8c0,0-6.9,6.4-7.6,8.8c-0.7,2.5-0.8,10,0.1,12.1C965.3,165.8,971.2,173,971.2,173z"/>
			<path class="st50" d="M985.2,191.5c1,1.4,2,2.3,2.2,2.6"/>
			<path class="st50" d="M968.4,155.5l11,15l-6.9,0.1l9,4.6c0,0-0.1,5.9,1,10.6c0.4,1.6,1,3,1.7,4.1"/>
			<line class="st50" x1="993" y1="138.9" x2="993.8" y2="134.4"/>
			<polyline class="st50" points="980.7,145.4 987.2,171.8 992.3,143.2 			"/>
		</g>
		<path class="st52" d="M953.6,178.8l8.9,7.3c0,0,1.9-1,4-4.4s3.5-10,3.7-11.2c0.1-1.2-4.5-3.6-4.5-3.6l-18.3,5L953.6,178.8z"/>
		<g>
			<g>
				
					<linearGradient id="SVGID_00000055700362834445046050000008011873974121336965_" gradientUnits="userSpaceOnUse" x1="533.4835" y1="-616.408" x2="636.6017" y2="-616.408" gradientTransform="matrix(0.9746 -0.224 -0.224 -0.9746 196.032 -246.5944)">
					<stop  offset="2.237672e-07" style="stop-color:#F3719C"/>
					<stop  offset="1" style="stop-color:#FF9373"/>
				</linearGradient>
				<path style="fill:url(#SVGID_00000055700362834445046050000008011873974121336965_);" d="M933.3,161.8l-4.9,4.9
					c0,0-23.2,5.3-24.4,7.3s-36.4,51.4-36.4,53.5s-3,53.1-3,53.1l16.4,2.5l10.1-50.4l22.4-18.7c0,0,1.1,6.4-2.1,16.4
					s-16.1,32.5-16.1,32.5s14.2-18.9,23.8-26.4s17-6.2,23-18.9c6.1-12.7,8.8-22.5,6.7-31C946.7,178.2,933.3,161.8,933.3,161.8z"/>
				<path class="st50" d="M913.6,214c0,0,0.2-5.7-3.1-14.3"/>
				<path class="st50" d="M940.3,215.8c-0.7,2.4-1.2,3.9-1.2,3.9"/>
				<path class="st50" d="M930.2,167.4l5.5,12.1l6.7,1.8l-4.2,2.4c0,0,7.2,10.6,5.7,18.5c-0.7,3.6-1.7,7.5-2.7,10.7"/>
			</g>
			<polygon class="st46" points="864.6,280.7 863.8,288.5 878.5,290.9 878.5,283.1 			"/>
			<g>
				<polygon class="st54" points="861.2,302 859.1,310 861.8,310.7 863.1,306 882.1,311 880.9,315.7 883.5,316.4 885.7,308.4 				
					"/>
				<path class="st55" d="M890.7,388.6l-73.2-19.1c-3.2-0.8-5.1-4.1-4.3-7.3l14.3-54.8c0.8-3.2,4.1-5.1,7.3-4.3l73.2,19.1
					c3.2,0.8,5.1,4.1,4.3,7.3L898,384.2C897.2,387.5,894,389.4,890.7,388.6z"/>
			</g>
			<path class="st46" d="M878.5,290.9l4.7,8.5c0,0,0.7,5.1,1,6.6c0.3,1.4,4.2,4.1,2.7,5.2s-3.1,1.7-4.2,0.5c-1-1.3-2.3-3.5-2.3-3.5
				l-0.6,7.2c0,0-4.2-0.5-5.6-1.2c-1.4-0.7-2-4.6-2-4.6s-8.2-1.6-9.2-2.9s-1.4-6.2-1.4-6.2l2.3-11.8L878.5,290.9z"/>
		</g>
		<path class="st46" d="M935.8,158.3l-2.5,3.6l17.9,27l8.2-15.1C959.5,173.8,943.4,158.4,935.8,158.3z"/>
		<path class="st46" d="M966.2,171.6l7.4,7.5c0,0-2.9-10.1-6.5-16.6L966.2,171.6z"/>
		<path class="st52" d="M962.5,186.1c0,0-1,3.8-10.7,4.5s-23.5-8.8-32.8-8.1c-9.2,0.7-21.7,13.6-33.7,14c-12,0.5-24.3-3-24.3-3
			l-16.1,15.2c0,0,20.1,3.9,22,3.7s26.3-2.7,33-7.4s14.9-14.1,23.1-13.2c8.1,0.9,19.6,9.9,28.5,6.6
			C960.2,195.2,962.5,186.1,962.5,186.1z"/>
		<path class="st46" d="M938.2,109.6c0,0,11.6,1.9,12.7,3.7s3.2,15,3.2,15s2.3,1,2.3,3.5s6.3-3,6.3-3s3.3,5.1,4.9,8.7
			c1.6,3.6,1.7,5.6,1,8.2s-2.6,4.6-2.6,4.6s-2.2,11.1-2.7,16.7s-0.8,8.4-3.6,7.9c-2.8-0.4-4.5-1.9-4.5-1.9s-6.7-8.7-11-11.3
			s-7.8-3.9-8.4-4.1c-0.6-0.2-3.5-1-4-3.3s2.1-5.1,2.1-5.1s-8.5,1.8-12.3-8.5s3.8-22.2,6.8-26C931.3,111.1,938.2,109.6,938.2,109.6z
			"/>
		<g>
			<g>
				<path class="st56" d="M956,144.1c0.1-0.4,0.4-0.8,0.8-1c0.5-0.4,1.2-0.5,1.8-0.4s1.1,0.7,1.2,1.3l-0.1-0.1
					c0.2,0.6,0.1,1.2-0.3,1.7s-1,0.7-1.6,0.7s-1.2-0.4-1.5-0.9C956,145,955.8,144.5,956,144.1z"/>
			</g>
			<g>
				<path class="st57" d="M942.3,162.8c0,0-15.5-0.9-24.9-12.6c-9.5-11.8-1.8-16.3-1.8-16.3s-11.2-1-8.8-11.9
					c2.5-10.9,9.8-14.4,7.5-7c0,0,9-11.9,21.7-13.2c12.7-1.3,8.8-12,11.9-12.7c3.1-0.7,5.5,6.8,3.6,10.3c0,0,4-8.6,6-8
					c2,0.7,8.5,13,0.1,23.7c0,0,7.6,3.6,6,19.6C962.1,150.7,942.3,162.8,942.3,162.8z"/>
				<path class="st46" d="M954.2,117.7c8.8,10.6,16.8,21.3,14.9,33.7c-0.5,3.2-2.6,5.9-5.6,7.1c-5.9,2.3-16.9,4.2-28.3-5.8
					c0,0-1.2,3.7-7.3-0.2s-5.6-6.6-3.5-8.4s9.7,4.3,9.7,4.3s4.1-8.8-4.7-18.1c0,0,6.9,0.2,10.2-1.6c3.2-1.9-2.7-4.7-2.7-4.7
					S945.6,127.4,954.2,117.7z"/>
			</g>
			<g>
				<g>
					<g>
						<g>
							<g>
								<g>
									<g>
										<g>
											<g>
												<g>
													<g>
														<g>
															<g>
																<g>
																	<g>
																		<g>
																			<g>
																				<g>
																					<g>
																						<path class="st58" d="M960.2,128.8c0.4,0.6,0.2,1.4-0.5,1.8s-1.4,0.2-1.8-0.4c-0.4-0.6-0.2-1.4,0.5-1.8
																							C959,128.1,959.8,128.2,960.2,128.8z"/>
																					</g>
																				</g>
																			</g>
																		</g>
																	</g>
																</g>
															</g>
														</g>
													</g>
												</g>
											</g>
										</g>
										<g>
											<g>
												<g>
													<g>
														<g>
															<g>
																<g>
																	<g>
																		<g>
																			<g>
																				<g>
																					<g>
																						<g>
																							<path class="st58" d="M959.2,126.6c0,0.2-1.3,0.2-2.5,1.1c-1.1,0.9-1.4,2.2-1.7,2.1c-0.1,0-0.2-0.4-0.1-1
																								s0.5-1.3,1.2-1.9s1.5-0.7,2.1-0.7C958.9,126.3,959.2,126.5,959.2,126.6z"/>
																						</g>
																					</g>
																				</g>
																			</g>
																		</g>
																	</g>
																</g>
															</g>
														</g>
													</g>
												</g>
											</g>
										</g>
									</g>
									<g>
										<g>
											<g>
												<g>
													<g>
														<g>
															<g>
																<g>
																	<g>
																		<g>
																			<g>
																				<g>
																					<g>
																						<path class="st58" d="M948.2,136.2c0.4,0.6,0.2,1.4-0.5,1.8s-1.4,0.2-1.8-0.4c-0.4-0.6-0.2-1.4,0.5-1.8
																							C947,135.5,947.8,135.6,948.2,136.2z"/>
																					</g>
																				</g>
																			</g>
																		</g>
																	</g>
																</g>
															</g>
														</g>
													</g>
												</g>
											</g>
										</g>
										<g>
											<g>
												<g>
													<g>
														<g>
															<g>
																<g>
																	<g>
																		<g>
																			<g>
																				<g>
																					<g>
																						<g>
																							<path class="st58" d="M947.4,134.1c-0.1,0.3-1.5,0.1-2.9,0.9c-1.4,0.8-2,2.1-2.3,2c-0.1,0-0.1-0.4,0.1-1
																								c0.3-0.6,0.8-1.4,1.7-1.9s1.8-0.6,2.5-0.5C947.1,133.7,947.5,134,947.4,134.1z"/>
																						</g>
																					</g>
																				</g>
																			</g>
																		</g>
																	</g>
																</g>
															</g>
														</g>
													</g>
												</g>
											</g>
										</g>
									</g>
									<g>
										<g>
											<g>
												<g>
													<g>
														<g>
															<g>
																<g>
																	<g>
																		<g>
																			<g>
																				<g>
																					<g>
																						<path class="st58" d="M956.3,140.5c0-0.1,0.7-0.6,1.8-1.5c0.3-0.2,0.6-0.4,0.5-0.7c0-0.3-0.4-0.5-0.8-0.8
																							c-0.7-0.6-1.5-1.2-2.3-1.9c-3.3-2.7-5.8-5.1-5.7-5.2c0.1-0.1,2.8,2,6.1,4.7c0.8,0.7,1.6,1.3,2.3,1.9
																							c0.3,0.3,0.8,0.6,0.9,1.2c0,0.3-0.1,0.6-0.3,0.8s-0.3,0.3-0.5,0.4C957.1,140.1,956.3,140.5,956.3,140.5z"/>
																					</g>
																				</g>
																			</g>
																		</g>
																	</g>
																</g>
															</g>
														</g>
													</g>
												</g>
											</g>
										</g>
									</g>
								</g>
							</g>
						</g>
						<g>
							<g>
								<g>
									<g>
										<g>
											<g>
												<g>
													<g>
														<g>
															<g>
																<g>
																	<g>
																		<path class="st58" d="M946.4,130.9c0,0.4-1.4,0.8-2.9,1.6s-2.6,1.8-2.9,1.5c-0.2-0.1-0.1-0.6,0.3-1.1
																			c0.4-0.6,1-1.2,1.9-1.7s1.8-0.7,2.5-0.7C946,130.6,946.4,130.8,946.4,130.9z"/>
																	</g>
																</g>
															</g>
														</g>
													</g>
												</g>
											</g>
										</g>
									</g>
								</g>
							</g>
						</g>
						<g>
							<g>
								<g>
									<g>
										<g>
											<g>
												<g>
													<g>
														<g>
															<g>
																<g>
																	<g>
																		<path class="st58" d="M957.4,123.3c0,0.4-1.1,0.8-2.2,1.6c-1.1,0.7-1.8,1.6-2.2,1.5c-0.2-0.1-0.2-0.4,0-1
																			c0.2-0.5,0.7-1.2,1.4-1.7s1.5-0.7,2.1-0.7C957.1,123,957.4,123.1,957.4,123.3z"/>
																	</g>
																</g>
															</g>
														</g>
													</g>
												</g>
											</g>
										</g>
									</g>
								</g>
							</g>
						</g>
					</g>
				</g>
			</g>
			<g>
				<g>
					<g>
						<path class="st59" d="M950,134.6c0,0-0.2-0.5-0.7-1.2s-1.5-1.7-3-2.1c-0.8-0.2-1.6-0.3-2.5-0.1s-1.8,0.6-2.6,1.2
							c-0.4,0.3-0.8,0.7-1,1.2c-0.3,0.4-0.5,1-0.7,1.5c-0.3,1.1-0.3,2.3,0.1,3.4c0.4,1.1,1.2,2.1,2.1,2.7c0.5,0.3,1,0.6,1.5,0.7
							c0.5,0.1,1,0.2,1.6,0.2c1,0,2-0.3,2.8-0.8s1.4-1.1,1.8-1.8c0.9-1.3,1-2.7,0.9-3.6C950.2,135.1,950,134.6,950,134.6
							s0,0.1,0.1,0.3c0,0.1,0.1,0.2,0.1,0.4s0.1,0.4,0.1,0.6c0.1,0.9,0,2.3-0.8,3.7c-0.4,0.7-1,1.4-1.9,1.9
							c-0.8,0.5-1.8,0.8-2.9,0.8c-0.5,0-1.1-0.1-1.6-0.2c-0.5-0.1-1.1-0.4-1.6-0.7c-1-0.6-1.8-1.6-2.2-2.8s-0.5-2.4-0.1-3.6
							c0.2-0.6,0.4-1.1,0.7-1.6s0.7-0.9,1.1-1.2c0.8-0.7,1.8-1.1,2.7-1.3c1-0.2,1.9-0.1,2.6,0.2c1.6,0.5,2.5,1.5,3,2.2
							c0.1,0.2,0.2,0.4,0.3,0.5s0.1,0.3,0.2,0.4C950,134.5,950,134.6,950,134.6z"/>
					</g>
				</g>
			</g>
			<g>
				<g>
					<g>
						<path class="st59" d="M963.8,126.4c0,0-0.2-0.5-0.7-1.2s-1.5-1.7-3-2.1c-0.8-0.2-1.6-0.3-2.5-0.2c-0.9,0.2-1.8,0.5-2.6,1.2
							c-0.4,0.3-0.8,0.7-1,1.2c-0.3,0.4-0.5,1-0.7,1.5c-0.3,1.1-0.3,2.3,0.1,3.4c0.4,1.1,1.2,2.1,2.1,2.7c0.5,0.3,1,0.6,1.5,0.7
							c0.5,0.1,1,0.2,1.6,0.2c1,0,2-0.3,2.8-0.8s1.4-1.1,1.8-1.8c0.9-1.3,1-2.7,0.9-3.6C964,126.9,963.7,126.5,963.8,126.4
							c0,0,0,0.1,0.1,0.3c0,0.1,0.1,0.2,0.1,0.4s0.1,0.4,0.1,0.6c0.1,0.9,0,2.3-0.8,3.7c-0.4,0.7-1,1.4-1.9,1.9
							c-0.8,0.5-1.8,0.8-2.9,0.8c-0.5,0-1.1-0.1-1.6-0.2c-0.5-0.1-1.1-0.4-1.6-0.7c-1-0.6-1.8-1.6-2.2-2.8s-0.5-2.4-0.1-3.6
							c0.2-0.6,0.4-1.1,0.7-1.6s0.7-0.9,1.1-1.2c0.8-0.7,1.8-1.1,2.7-1.3c1-0.2,1.9-0.1,2.6,0.2c1.6,0.5,2.5,1.5,3,2.2
							c0.1,0.2,0.2,0.4,0.3,0.5s0.1,0.3,0.2,0.4C963.7,126.3,963.8,126.4,963.8,126.4z"/>
					</g>
				</g>
			</g>
			<g>
				<g>
					<path class="st59" d="M961.3,122.9c0,0-2.7-1.6-5.6,0c-3.1,1.7-3.8,5.4-3.8,5.4c-3.2,0.9-4.3,2.7-4.3,2.7s-2.8-1.5-6.1,0.2
						c-2.8,1.5-3.4,5.4-3.4,5.4l-2,1.5l1.3,1.9l2.3-1.6c0,0-0.9-4.2,2.1-6c4-2.5,6.3,0.2,6.3,0.2l0.9-0.6l-0.6-0.4
						c0,0,1.9-2.1,3.8-2.2l0.4,0.7l0.7-0.3c0,0-0.8-3.9,3-5.8c4.2-2.2,6.8,1.6,6.8,1.6l1.5-1.1l-1.1-1.9L961.3,122.9z"/>
				</g>
			</g>
			<g>
				<g>
					<g>
						<path class="st5" d="M946.8,141c0,0-0.3,0.2-0.9,0.4c-0.6,0.2-1.5,0.3-2.5,0.1s-1.7-0.7-2.2-1.2c-0.5-0.4-0.7-0.8-0.6-0.8
							c0,0,0.3,0.3,0.8,0.7s1.2,0.8,2.1,1.1c0.9,0.2,1.8,0.1,2.4,0C946.4,141.2,946.8,141,946.8,141z"/>
					</g>
				</g>
			</g>
			<g>
				<g>
					<g>
						<g>
							<g>
								<g>
									<g>
										<g>
											<g>
												<g>
													<g>
														<g>
															<path class="st58" d="M955.7,143.5c0.1-0.1,0.8,0.9,2.2,1s2.3-0.7,2.4-0.6c0.1,0.1-0.1,0.4-0.5,0.7s-1.2,0.6-2,0.6
																c-0.8-0.1-1.5-0.5-1.8-0.9C955.7,143.8,955.6,143.5,955.7,143.5z"/>
														</g>
													</g>
												</g>
											</g>
										</g>
									</g>
								</g>
							</g>
						</g>
					</g>
				</g>
			</g>
		</g>
	</g>
	<g>
		<path class="st5" d="M244.1,278.9c-1.1,0-2.2-0.2-3.3-0.5s-1.9-0.8-2.5-1.3l0.9-2.1c0.6,0.5,1.3,0.9,2.2,1.1
			c0.9,0.3,1.8,0.5,2.7,0.5c0.8,0,1.4-0.1,1.9-0.2s0.8-0.4,1.1-0.7c0.2-0.3,0.3-0.6,0.3-1c0-0.5-0.2-0.8-0.5-1.1
			c-0.3-0.3-0.7-0.5-1.2-0.6s-1.1-0.3-1.7-0.5s-1.2-0.3-1.9-0.5s-1.2-0.4-1.7-0.7c-0.5-0.3-0.9-0.7-1.2-1.2s-0.5-1.1-0.5-1.9
			s0.2-1.5,0.6-2.2c0.4-0.7,1.1-1.2,1.9-1.6s2-0.6,3.3-0.6c0.9,0,1.8,0.1,2.6,0.3c0.9,0.2,1.6,0.5,2.3,1l-0.9,2.1
			c-0.7-0.4-1.3-0.7-2-0.9s-1.4-0.3-2-0.3c-0.8,0-1.4,0.1-1.8,0.3s-0.8,0.4-1,0.7c-0.2,0.3-0.3,0.6-0.3,1c0,0.5,0.2,0.8,0.5,1.1
			s0.7,0.5,1.2,0.6s1.1,0.3,1.7,0.5c0.6,0.1,1.3,0.3,1.9,0.5c0.6,0.2,1.2,0.4,1.7,0.7c0.5,0.3,0.9,0.7,1.2,1.2s0.5,1.1,0.5,1.9
			s-0.2,1.5-0.6,2.2s-1.1,1.2-2,1.6C246.5,278.6,245.4,278.9,244.1,278.9z"/>
		<path class="st5" d="M253.8,265.6c-0.5,0-0.9-0.1-1.2-0.5c-0.3-0.3-0.5-0.7-0.5-1.1c0-0.5,0.2-0.8,0.5-1.1s0.7-0.5,1.2-0.5
			s0.9,0.1,1.2,0.4s0.5,0.6,0.5,1.1s-0.1,0.9-0.5,1.2C254.7,265.4,254.3,265.6,253.8,265.6z M252.5,278.6v-11.2h2.6v11.2H252.5z"/>
		<path class="st5" d="M263.3,278.1c-1.1,0-2-0.2-2.9-0.7s-1.5-1.1-2-1.9s-0.8-1.8-0.8-2.9s0.2-2,0.8-2.8s1.2-1.4,2-1.9
			c0.9-0.5,1.8-0.7,2.9-0.7c1,0,1.8,0.2,2.6,0.6c0.8,0.4,1.4,1,1.8,1.8c0.5,0.8,0.7,1.8,0.7,3.1s-0.2,2.3-0.7,3.1
			c-0.5,0.8-1.1,1.4-1.8,1.8C265.1,277.9,264.3,278.1,263.3,278.1z M263.6,282.9c-1,0-2-0.1-3-0.4s-1.8-0.7-2.4-1.2l1.2-2
			c0.5,0.4,1.1,0.7,1.9,1c0.8,0.2,1.5,0.4,2.3,0.4c1.2,0,2.1-0.3,2.7-0.9s0.9-1.4,0.9-2.5v-2l0.2-2.5l-0.1-2.5v-2.9h2.5v9.5
			c0,2-0.5,3.5-1.5,4.5C267.1,282.4,265.6,282.9,263.6,282.9z M263.7,275.9c0.7,0,1.2-0.1,1.8-0.4s0.9-0.6,1.2-1.1s0.4-1,0.4-1.7
			s-0.1-1.2-0.4-1.7s-0.7-0.9-1.2-1.1c-0.5-0.3-1.1-0.4-1.8-0.4c-0.7,0-1.2,0.1-1.8,0.4s-0.9,0.6-1.2,1.1c-0.3,0.5-0.4,1-0.4,1.7
			s0.1,1.2,0.4,1.7s0.7,0.9,1.2,1.1C262.4,275.8,263,275.9,263.7,275.9z"/>
		<path class="st5" d="M279.5,267.3c0.9,0,1.7,0.2,2.4,0.5c0.7,0.4,1.3,0.9,1.7,1.6c0.4,0.7,0.6,1.6,0.6,2.8v6.4h-2.7v-6.1
			c0-1-0.2-1.7-0.7-2.2s-1.1-0.7-2-0.7c-0.6,0-1.2,0.1-1.6,0.4s-0.8,0.6-1.1,1.1s-0.4,1.1-0.4,1.9v5.7h-2.6v-11.3h2.5v3l-0.4-0.9
			c0.4-0.7,1-1.3,1.7-1.6C277.6,267.5,278.5,267.3,279.5,267.3z"/>
		<path class="st5" d="M298,278.8c-1,0-1.8-0.2-2.5-0.5c-0.7-0.4-1.3-0.9-1.7-1.6c-0.4-0.7-0.6-1.7-0.6-2.8v-6.5h2.6v6
			c0,1,0.2,1.8,0.7,2.3s1.1,0.8,1.9,0.8c0.6,0,1.1-0.1,1.6-0.4c0.5-0.2,0.8-0.6,1.1-1.1s0.4-1.1,0.4-1.9v-5.7h2.6v11.2h-2.5v-3
			l0.4,0.9c-0.4,0.7-0.9,1.3-1.7,1.7C299.7,278.6,298.9,278.8,298,278.8z"/>
		<path class="st5" d="M307.6,282.7v-15.3h2.5v2.6l-0.1,3l0.2,3v6.7L307.6,282.7L307.6,282.7z M313.8,278.8c-0.9,0-1.7-0.2-2.5-0.6
			s-1.3-1-1.8-1.9s-0.7-1.9-0.7-3.2c0-1.3,0.2-2.4,0.6-3.2c0.4-0.8,1-1.5,1.8-1.9s1.6-0.6,2.5-0.6c1.1,0,2.1,0.2,2.9,0.7
			c0.9,0.5,1.5,1.1,2,2s0.8,1.9,0.8,3s-0.2,2.2-0.8,3s-1.2,1.5-2,2C315.9,278.5,314.9,278.8,313.8,278.8z M313.5,276.5
			c0.6,0,1.2-0.1,1.7-0.4s0.9-0.7,1.2-1.2s0.4-1.2,0.4-1.9c0-0.7-0.1-1.4-0.4-1.9s-0.7-0.9-1.2-1.2s-1.1-0.4-1.7-0.4
			s-1.2,0.1-1.7,0.4s-0.9,0.7-1.2,1.2c-0.3,0.5-0.4,1.1-0.4,1.9c0,0.7,0.1,1.3,0.4,1.9s0.7,0.9,1.2,1.2S312.9,276.5,313.5,276.5z"/>
		<path class="st5" d="M326.3,269.6v-2.1h7.5v2.1H326.3z M328.2,278.6v-11.8c0-1.2,0.4-2.1,1-2.8c0.7-0.7,1.7-1.1,3-1.1
			c0.5,0,0.9,0,1.3,0.1s0.8,0.2,1,0.5l-0.7,2c-0.2-0.1-0.4-0.3-0.7-0.4c-0.2-0.1-0.5-0.1-0.8-0.1c-0.5,0-1,0.1-1.2,0.5
			c-0.3,0.3-0.4,0.8-0.4,1.4v1.3l0.1,1.2v9.4h-2.6L328.2,278.6L328.2,278.6z"/>
		<path class="st5" d="M340.4,278.8c-1.1,0-2.2-0.2-3.1-0.8s-1.6-1.2-2.1-2s-0.8-1.9-0.8-3s0.3-2.1,0.8-3s1.2-1.5,2.1-2
			s1.9-0.7,3.1-0.7s2.2,0.2,3.1,0.7s1.6,1.2,2.1,2c0.5,0.9,0.8,1.9,0.8,3s-0.3,2.1-0.8,3s-1.2,1.5-2.1,2S341.6,278.8,340.4,278.8z
			 M340.4,276.5c0.6,0,1.2-0.1,1.7-0.4s0.9-0.7,1.2-1.2s0.4-1.2,0.4-1.9c0-0.7-0.1-1.4-0.4-1.9s-0.7-0.9-1.2-1.2s-1.1-0.4-1.7-0.4
			s-1.2,0.1-1.7,0.4s-0.9,0.7-1.2,1.2c-0.3,0.5-0.4,1.1-0.4,1.9c0,0.7,0.1,1.3,0.4,1.9s0.7,0.9,1.2,1.2
			C339.2,276.4,339.8,276.5,340.4,276.5z"/>
		<path class="st5" d="M348.9,278.6v-11.2h2.5v3.1l-0.3-0.9c0.3-0.8,0.9-1.3,1.6-1.7c0.7-0.4,1.6-0.6,2.7-0.6v2.5
			c-0.1,0-0.2,0-0.3,0c-0.1,0-0.2,0-0.3,0c-1,0-1.8,0.3-2.4,0.9s-0.9,1.5-0.9,2.6v5.4L348.9,278.6L348.9,278.6z"/>
		<path class="st5" d="M363.8,278.6v-14.7h6.9c1.8,0,3.1,0.4,4,1s1.4,1.6,1.4,2.8c0,0.8-0.2,1.5-0.5,2c-0.4,0.5-0.9,1-1.5,1.3
			s-1.3,0.5-2,0.5l0.4-0.8c0.8,0,1.6,0.1,2.2,0.5c0.7,0.3,1.2,0.7,1.6,1.3s0.6,1.3,0.6,2.1c0,1.3-0.5,2.2-1.5,2.9s-2.4,1-4.3,1
			L363.8,278.6L363.8,278.6z M366.5,276.5h4.4c1,0,1.8-0.2,2.4-0.5c0.5-0.3,0.8-0.9,0.8-1.6s-0.3-1.3-0.8-1.6
			c-0.5-0.3-1.3-0.5-2.4-0.5h-4.6v-2.1h4.1c1,0,1.7-0.2,2.2-0.5s0.8-0.8,0.8-1.5s-0.3-1.2-0.8-1.5s-1.2-0.5-2.2-0.5h-3.9V276.5
			L366.5,276.5z"/>
		<path class="st5" d="M384.6,278.8c-1.1,0-2.2-0.2-3.1-0.8s-1.6-1.2-2.1-2s-0.8-1.9-0.8-3s0.3-2.1,0.8-3s1.2-1.5,2.1-2
			s1.9-0.7,3.1-0.7s2.2,0.2,3.1,0.7s1.6,1.2,2.1,2c0.5,0.9,0.8,1.9,0.8,3s-0.3,2.1-0.8,3s-1.2,1.5-2.1,2
			C386.8,278.5,385.7,278.8,384.6,278.8z M384.6,276.5c0.6,0,1.2-0.1,1.7-0.4s0.9-0.7,1.2-1.2s0.4-1.2,0.4-1.9
			c0-0.7-0.1-1.4-0.4-1.9s-0.7-0.9-1.2-1.2s-1.1-0.4-1.7-0.4s-1.2,0.1-1.7,0.4s-0.9,0.7-1.2,1.2c-0.3,0.5-0.4,1.1-0.4,1.9
			c0,0.7,0.1,1.3,0.4,1.9s0.7,0.9,1.2,1.2C383.4,276.4,383.9,276.5,384.6,276.5z"/>
		<path class="st5" d="M398.1,278.8c-1.1,0-2.2-0.2-3.1-0.8s-1.6-1.2-2.1-2s-0.8-1.9-0.8-3s0.3-2.1,0.8-3s1.2-1.5,2.1-2
			s1.9-0.7,3.1-0.7s2.2,0.2,3.1,0.7s1.6,1.2,2.1,2c0.5,0.9,0.8,1.9,0.8,3s-0.3,2.1-0.8,3s-1.2,1.5-2.1,2S399.3,278.8,398.1,278.8z
			 M398.1,276.5c0.6,0,1.2-0.1,1.7-0.4s0.9-0.7,1.2-1.2s0.4-1.2,0.4-1.9c0-0.7-0.1-1.4-0.4-1.9s-0.7-0.9-1.2-1.2s-1.1-0.4-1.7-0.4
			s-1.2,0.1-1.7,0.4s-0.9,0.7-1.2,1.2c-0.3,0.5-0.4,1.1-0.4,1.9c0,0.7,0.1,1.3,0.4,1.9s0.7,0.9,1.2,1.2
			C396.9,276.4,397.5,276.5,398.1,276.5z"/>
		<path class="st5" d="M420.8,267.3c0.9,0,1.7,0.2,2.4,0.5c0.7,0.4,1.2,0.9,1.6,1.6s0.6,1.6,0.6,2.8v6.4h-2.6v-6.1
			c0-1-0.2-1.7-0.6-2.2s-1.1-0.7-1.9-0.7c-0.6,0-1.1,0.1-1.5,0.4s-0.8,0.6-1,1.1s-0.4,1.1-0.4,1.9v5.7h-2.6v-6.1
			c0-1-0.2-1.7-0.6-2.2s-1.1-0.7-1.9-0.7c-0.6,0-1.1,0.1-1.5,0.4s-0.8,0.6-1,1.1s-0.4,1.1-0.4,1.9v5.7h-2.6v-11.4h2.5v3l-0.4-0.9
			c0.4-0.7,0.9-1.3,1.6-1.7s1.5-0.6,2.5-0.6s2,0.3,2.7,0.8s1.3,1.3,1.5,2.4l-1-0.4c0.4-0.8,1-1.5,1.8-2S419.7,267.3,420.8,267.3z"/>
		<path class="st5" d="M435.8,278.9c-1.1,0-2.2-0.2-3.1-0.6s-1.8-0.9-2.5-1.6s-1.3-1.5-1.6-2.4c-0.4-0.9-0.6-1.9-0.6-3
			s0.2-2.1,0.6-3s0.9-1.7,1.7-2.4s1.5-1.2,2.5-1.6s2-0.6,3.1-0.6c1.2,0,2.3,0.2,3.3,0.6s1.8,1,2.5,1.8l-1.8,1.7
			c-0.5-0.6-1.1-1-1.8-1.3s-1.4-0.4-2.1-0.4s-1.5,0.1-2.1,0.4c-0.6,0.2-1.2,0.6-1.7,1.1s-0.8,1-1.1,1.6s-0.4,1.3-0.4,2.1
			s0.1,1.5,0.4,2.1s0.6,1.2,1.1,1.6c0.5,0.5,1,0.8,1.7,1.1s1.3,0.4,2.1,0.4s1.5-0.1,2.1-0.4s1.2-0.7,1.8-1.3l1.8,1.7
			c-0.7,0.8-1.5,1.4-2.5,1.8C438.1,278.6,437,278.9,435.8,278.9z"/>
		<path class="st5" d="M448.6,278.8c-1.1,0-2.2-0.2-3.1-0.8s-1.6-1.2-2.1-2s-0.8-1.9-0.8-3s0.3-2.1,0.8-3s1.2-1.5,2.1-2
			s1.9-0.7,3.1-0.7s2.2,0.2,3.1,0.7s1.6,1.2,2.1,2c0.5,0.9,0.8,1.9,0.8,3s-0.3,2.1-0.8,3s-1.2,1.5-2.1,2
			C450.8,278.5,449.8,278.8,448.6,278.8z M448.6,276.5c0.6,0,1.2-0.1,1.7-0.4s0.9-0.7,1.2-1.2s0.4-1.2,0.4-1.9
			c0-0.7-0.1-1.4-0.4-1.9s-0.7-0.9-1.2-1.2s-1.1-0.4-1.7-0.4s-1.2,0.1-1.7,0.4s-0.9,0.7-1.2,1.2c-0.3,0.5-0.4,1.1-0.4,1.9
			c0,0.7,0.1,1.3,0.4,1.9s0.7,0.9,1.2,1.2C447.4,276.4,448,276.5,448.6,276.5z"/>
		<path class="st5" d="M463.5,267.3c0.9,0,1.7,0.2,2.4,0.5c0.7,0.4,1.3,0.9,1.7,1.6c0.4,0.7,0.6,1.6,0.6,2.8v6.4h-2.7v-6.1
			c0-1-0.2-1.7-0.7-2.2s-1.1-0.7-2-0.7c-0.6,0-1.2,0.1-1.6,0.4s-0.8,0.6-1.1,1.1s-0.4,1.1-0.4,1.9v5.7h-2.6v-11.3h2.5v3l-0.4-0.9
			c0.4-0.7,1-1.3,1.7-1.6C461.6,267.5,462.5,267.3,463.5,267.3z"/>
		<path class="st5" d="M475,278.8c-0.9,0-1.8-0.1-2.7-0.4c-0.9-0.2-1.5-0.5-2-0.9l1-2c0.5,0.3,1.1,0.6,1.8,0.8s1.4,0.3,2.1,0.3
			c0.8,0,1.4-0.1,1.8-0.3c0.4-0.2,0.6-0.5,0.6-0.9c0-0.3-0.1-0.5-0.4-0.7s-0.6-0.3-1-0.4s-0.9-0.2-1.4-0.2c-0.5-0.1-1-0.2-1.5-0.3
			s-1-0.3-1.4-0.5s-0.7-0.5-1-0.9c-0.2-0.4-0.4-0.9-0.4-1.5c0-0.7,0.2-1.3,0.6-1.9c0.4-0.5,1-0.9,1.7-1.2c0.7-0.3,1.6-0.4,2.6-0.4
			c0.8,0,1.5,0.1,2.3,0.2s1.4,0.4,1.9,0.7l-1,2c-0.5-0.3-1.1-0.5-1.6-0.7c-0.5-0.1-1.1-0.2-1.6-0.2c-0.8,0-1.4,0.1-1.8,0.4
			c-0.4,0.2-0.6,0.5-0.6,0.9c0,0.3,0.1,0.6,0.4,0.8s0.6,0.3,1,0.4s0.9,0.2,1.4,0.2c0.5,0.1,1,0.2,1.5,0.3c0.5,0.1,0.9,0.3,1.4,0.5
			c0.4,0.2,0.8,0.5,1,0.9s0.4,0.9,0.4,1.5c0,0.7-0.2,1.3-0.6,1.8s-1,0.9-1.8,1.2C476.9,278.6,476,278.8,475,278.8z"/>
		<path class="st5" d="M487.4,278.8c-1.1,0-2.2-0.2-3.1-0.8s-1.6-1.2-2.1-2s-0.8-1.9-0.8-3s0.3-2.1,0.8-3s1.2-1.5,2.1-2
			s1.9-0.7,3.1-0.7s2.2,0.2,3.1,0.7s1.6,1.2,2.1,2c0.5,0.9,0.8,1.9,0.8,3s-0.3,2.1-0.8,3s-1.2,1.5-2.1,2S488.5,278.8,487.4,278.8z
			 M487.4,276.5c0.6,0,1.2-0.1,1.7-0.4s0.9-0.7,1.2-1.2s0.4-1.2,0.4-1.9c0-0.7-0.1-1.4-0.4-1.9s-0.7-0.9-1.2-1.2s-1.1-0.4-1.7-0.4
			s-1.2,0.1-1.7,0.4s-0.9,0.7-1.2,1.2c-0.3,0.5-0.4,1.1-0.4,1.9c0,0.7,0.1,1.3,0.4,1.9s0.7,0.9,1.2,1.2
			C486.2,276.4,486.7,276.5,487.4,276.5z"/>
		<path class="st5" d="M495.9,278.6V263h2.6v15.6H495.9z"/>
		<path class="st5" d="M507.2,278.8c-1.2,0-2.3-0.2-3.3-0.8c-0.9-0.5-1.6-1.2-2.2-2s-0.8-1.9-0.8-3s0.2-2.1,0.8-3
			c0.5-0.9,1.2-1.5,2.1-2s1.9-0.7,3-0.7s2.1,0.2,2.9,0.7s1.5,1.1,2,2s0.7,1.9,0.7,3.1c0,0.1,0,0.2,0,0.4s0,0.3,0,0.4H503v-1.7h8
			l-1,0.5c0-0.6-0.1-1.2-0.4-1.7s-0.7-0.9-1.1-1.1c-0.5-0.3-1-0.4-1.7-0.4c-0.6,0-1.2,0.1-1.7,0.4s-0.9,0.7-1.1,1.2
			s-0.4,1.1-0.4,1.8v0.4c0,0.7,0.2,1.3,0.5,1.8s0.7,0.9,1.3,1.2s1.2,0.4,1.9,0.4c0.6,0,1.2-0.1,1.7-0.3c0.5-0.2,1-0.5,1.3-0.9
			l1.4,1.6c-0.5,0.6-1.1,1-1.9,1.4S508.2,278.8,507.2,278.8z"/>
		<path class="st5" d="M519.3,269.6v-2.1h7.5v2.1H519.3z M525,278.8c-1.2,0-2.2-0.3-2.9-1c-0.7-0.6-1-1.6-1-2.8v-10.1h2.6v10
			c0,0.5,0.1,0.9,0.4,1.2c0.3,0.3,0.7,0.4,1.1,0.4c0.6,0,1.1-0.1,1.5-0.5l0.7,1.9c-0.3,0.2-0.7,0.4-1.1,0.6
			C526,278.7,525.5,278.8,525,278.8z"/>
		<path class="st5" d="M534.4,278.8c-1.2,0-2.2-0.2-3.1-0.8s-1.6-1.2-2.1-2s-0.8-1.9-0.8-3s0.3-2.1,0.8-3s1.2-1.5,2.1-2
			s1.9-0.7,3.1-0.7c1.2,0,2.2,0.2,3.1,0.7c0.9,0.5,1.6,1.2,2.1,2c0.5,0.9,0.8,1.9,0.8,3s-0.3,2.1-0.8,3s-1.2,1.5-2.1,2
			C536.5,278.5,535.5,278.8,534.4,278.8z M534.4,276.5c0.6,0,1.2-0.1,1.7-0.4s0.9-0.7,1.2-1.2s0.4-1.2,0.4-1.9
			c0-0.7-0.1-1.4-0.4-1.9s-0.7-0.9-1.2-1.2s-1.1-0.4-1.7-0.4c-0.6,0-1.2,0.1-1.7,0.4s-0.9,0.7-1.2,1.2s-0.4,1.1-0.4,1.9
			c0,0.7,0.2,1.3,0.4,1.9s0.7,0.9,1.2,1.2C533.2,276.4,533.7,276.5,534.4,276.5z"/>
		<path class="st5" d="M547.6,278.8c-1.1,0-2-0.2-2.9-0.7s-1.5-1.1-2-2s-0.7-1.9-0.7-3s0.2-2.2,0.7-3c0.5-0.9,1.2-1.5,2-2
			c0.9-0.5,1.8-0.7,2.9-0.7c0.9,0,1.8,0.2,2.5,0.6s1.3,1,1.8,1.9s0.7,1.9,0.7,3.2c0,1.3-0.2,2.4-0.6,3.2s-1,1.5-1.7,1.9
			S548.6,278.8,547.6,278.8z M547.9,276.5c0.6,0,1.2-0.1,1.7-0.4s0.9-0.7,1.2-1.2s0.5-1.2,0.5-1.9c0-0.7-0.2-1.4-0.5-1.9
			s-0.7-0.9-1.2-1.2s-1.1-0.4-1.7-0.4s-1.2,0.1-1.7,0.4s-0.9,0.7-1.2,1.2s-0.5,1.1-0.5,1.9c0,0.7,0.2,1.3,0.5,1.9s0.7,0.9,1.2,1.2
			S547.3,276.5,547.9,276.5z M551.3,278.6V276l0.1-3l-0.2-3v-7h2.6v15.6H551.3L551.3,278.6z"/>
		<path class="st5" d="M560.7,278.8c-0.8,0-1.6-0.1-2.2-0.4c-0.6-0.3-1.1-0.7-1.5-1.2s-0.5-1.1-0.5-1.7s0.2-1.2,0.5-1.7
			s0.8-0.9,1.5-1.2s1.6-0.4,2.7-0.4h3.2v1.7h-3.1c-0.9,0-1.5,0.1-1.8,0.4s-0.5,0.6-0.5,1.1s0.2,0.9,0.6,1.1s0.9,0.4,1.6,0.4
			c0.6,0,1.2-0.1,1.7-0.4s0.9-0.7,1.1-1.3l0.4,1.6c-0.2,0.7-0.7,1.2-1.3,1.5C562.5,278.6,561.7,278.8,560.7,278.8z M564.2,278.6
			v-2.2l-0.2-0.5v-4c0-0.8-0.2-1.4-0.7-1.8s-1.2-0.6-2.1-0.6c-0.6,0-1.2,0.1-1.9,0.3c-0.6,0.2-1.1,0.5-1.5,0.8l-1-1.9
			c0.6-0.5,1.3-0.8,2.2-1s1.7-0.4,2.6-0.4c1.6,0,2.9,0.4,3.8,1.2s1.3,2,1.3,3.6v6.6L564.2,278.6L564.2,278.6z"/>
		<path class="st5" d="M570.7,282.9c-0.5,0-1.1-0.1-1.6-0.3s-1-0.4-1.4-0.8l1-1.9c0.3,0.2,0.6,0.4,0.9,0.6c0.3,0.1,0.7,0.2,1,0.2
			c0.5,0,0.9-0.1,1.2-0.4c0.3-0.2,0.6-0.6,0.8-1.2l0.7-1.5l0.2-0.3l4.2-9.9h2.5l-5.2,12.1c-0.3,0.8-0.7,1.5-1.2,2
			c-0.4,0.5-0.9,0.8-1.4,1C572,282.8,571.4,282.9,570.7,282.9z M573.1,279l-5.1-11.6h2.7l4.1,9.7L573.1,279z"/>
		<path class="st5" d="M583.2,278.8c-0.5,0-0.9-0.2-1.2-0.5s-0.5-0.7-0.5-1.2s0.2-0.8,0.5-1.1c0.3-0.3,0.7-0.5,1.2-0.5
			s0.9,0.2,1.2,0.5s0.5,0.7,0.5,1.1c0,0.5-0.2,0.8-0.5,1.2C584.1,278.6,583.7,278.8,583.2,278.8z M582.1,273.8l-0.5-9.8h3.1
			l-0.5,9.8H582.1z"/>
	</g>
	<path class="st60" d="M622.8,280.4l-1.8-1.8l5.7-5.7h-20.2v-2.5h20.2l-5.7-5.7l1.8-1.8l8.7,8.7L622.8,280.4z"/>
	<rect x="219.1" y="103.1" class="st61" width="543.2" height="117.3"/>
	<g class="st62">
		<path class="st5" d="M223.6,138.7v-33.6h13.8c3,0,5.5,0.5,7.7,1.4c2.1,1,3.8,2.3,4.9,4.1c1.2,1.8,1.7,3.9,1.7,6.4
			c0,2.5-0.6,4.6-1.7,6.4c-1.2,1.8-2.8,3.1-4.9,4.1c-2.1,0.9-4.7,1.4-7.7,1.4H227l2.8-2.8v12.6H223.6z M229.8,126.8l-2.8-3h10.1
			c2.8,0,4.8-0.6,6.2-1.8c1.4-1.2,2.1-2.8,2.1-4.9c0-2.1-0.7-3.8-2.1-4.9c-1.4-1.2-3.5-1.7-6.2-1.7H227l2.8-3.1V126.8z M245.6,138.7
			l-8.5-12.2h6.7l8.5,12.2H245.6z"/>
		<path class="st5" d="M270.2,139.1c-2.8,0-5.3-0.6-7.5-1.7c-2.1-1.1-3.8-2.7-4.9-4.7c-1.2-2-1.8-4.2-1.8-6.8c0-2.6,0.6-4.8,1.7-6.8
			c1.1-2,2.7-3.5,4.7-4.6c2-1.1,4.3-1.7,6.8-1.7c2.5,0,4.7,0.5,6.7,1.6c2,1.1,3.5,2.6,4.6,4.6c1.1,2,1.7,4.3,1.7,7
			c0,0.3,0,0.5,0,0.9s0,0.6-0.1,0.9h-21.4v-4h18.2l-2.4,1.2c0-1.5-0.3-2.8-0.9-3.9c-0.6-1.1-1.5-2-2.6-2.6c-1.1-0.6-2.4-1-3.8-1
			c-1.5,0-2.8,0.3-3.9,1c-1.1,0.6-2,1.5-2.6,2.7c-0.6,1.1-0.9,2.5-0.9,4v1c0,1.5,0.4,2.9,1.1,4.1c0.7,1.2,1.7,2.1,3,2.7
			c1.3,0.6,2.8,1,4.4,1c1.4,0,2.7-0.2,3.9-0.7c1.2-0.4,2.2-1.2,3.1-2.1l3.2,3.7c-1.2,1.3-2.6,2.4-4.3,3.1
			C274.4,138.7,272.4,139.1,270.2,139.1z"/>
		<path class="st5" d="M295,139.1c-1.9,0-3.6-0.3-5-1c-1.4-0.7-2.6-1.6-3.3-2.7c-0.8-1.2-1.2-2.5-1.2-4c0-1.4,0.3-2.7,1-3.9
			c0.7-1.2,1.8-2.1,3.4-2.7s3.6-1,6.2-1h7.4v4h-7c-2,0-3.4,0.3-4.1,1c-0.7,0.7-1.1,1.5-1.1,2.4c0,1.1,0.4,2,1.3,2.6
			c0.9,0.6,2.1,1,3.6,1c1.5,0,2.8-0.3,4-1c1.2-0.7,2-1.7,2.5-3l1,3.6c-0.6,1.5-1.6,2.7-3.1,3.5C299.1,138.7,297.2,139.1,295,139.1z
			 M303,138.7v-5.2l-0.3-1.1v-9.1c0-1.8-0.5-3.1-1.6-4.1c-1.1-1-2.7-1.5-4.8-1.5c-1.4,0-2.9,0.2-4.2,0.7c-1.4,0.4-2.6,1.1-3.5,1.9
			l-2.4-4.4c1.4-1.1,3-1.8,4.9-2.4c1.9-0.5,3.9-0.8,5.9-0.8c3.7,0,6.6,0.9,8.6,2.7c2,1.8,3,4.5,3,8.2v15H303z"/>
		<path class="st5" d="M327.3,139.1c-2.5,0-4.7-0.6-6.6-1.7c-2-1.1-3.5-2.6-4.6-4.6c-1.1-2-1.7-4.3-1.7-6.9c0-2.7,0.6-5,1.7-6.9
			c1.1-2,2.7-3.5,4.6-4.6c2-1.1,4.2-1.6,6.6-1.6c2.1,0,4.1,0.5,5.8,1.4c1.7,0.9,3,2.4,4,4.3c1,1.9,1.5,4.4,1.5,7.4
			c0,3-0.5,5.4-1.4,7.4c-1,1.9-2.3,3.4-4,4.3C331.4,138.6,329.5,139.1,327.3,139.1z M328,133.9c1.4,0,2.7-0.3,3.9-1
			c1.1-0.6,2-1.6,2.7-2.8c0.7-1.2,1-2.6,1-4.3c0-1.7-0.3-3.1-1-4.3c-0.7-1.2-1.6-2.1-2.7-2.8c-1.1-0.6-2.4-1-3.9-1s-2.7,0.3-3.9,1
			c-1.1,0.6-2,1.6-2.7,2.8c-0.7,1.2-1,2.6-1,4.3c0,1.6,0.3,3.1,1,4.3c0.7,1.2,1.6,2.1,2.7,2.8C325.3,133.6,326.6,133.9,328,133.9z
			 M335.8,138.7v-6l0.2-6.8l-0.5-6.8v-15.9h6v35.6H335.8z"/>
		<path class="st5" d="M351.5,148.4c-1.2,0-2.5-0.2-3.7-0.6c-1.2-0.4-2.3-1-3.1-1.7l2.4-4.4c0.6,0.5,1.3,1,2.1,1.3
			c0.8,0.3,1.6,0.5,2.4,0.5c1.1,0,2-0.3,2.6-0.8c0.7-0.5,1.3-1.5,1.9-2.7l1.5-3.4l0.5-0.7l9.7-22.7h5.8l-12,27.7
			c-0.8,1.9-1.7,3.4-2.7,4.6c-1,1.1-2.1,1.9-3.3,2.4C354.3,148.2,353,148.4,351.5,148.4z M356.8,139.7l-11.6-26.5h6.2l9.4,22.1
			L356.8,139.7z"/>
		<path class="st5" d="M387,118.1v-4.8h17.1v4.8H387z M400,139.1c-2.8,0-5-0.7-6.5-2.2c-1.5-1.5-2.3-3.6-2.3-6.5v-23h6v22.8
			c0,1.2,0.3,2.2,0.9,2.8s1.5,1,2.6,1c1.3,0,2.5-0.4,3.4-1.1l1.7,4.3c-0.7,0.6-1.6,1-2.6,1.3C402.2,138.9,401.1,139.1,400,139.1z"/>
		<path class="st5" d="M421.4,139.1c-2.6,0-5-0.6-7-1.7c-2-1.1-3.7-2.7-4.8-4.7c-1.2-2-1.8-4.2-1.8-6.8c0-2.6,0.6-4.8,1.8-6.8
			c1.2-2,2.8-3.5,4.8-4.6c2-1.1,4.4-1.7,7-1.7c2.7,0,5,0.6,7.1,1.7c2.1,1.1,3.7,2.7,4.8,4.6c1.2,2,1.8,4.2,1.8,6.8
			c0,2.5-0.6,4.8-1.8,6.8c-1.2,2-2.8,3.5-4.8,4.7C426.4,138.5,424.1,139.1,421.4,139.1z M421.4,133.9c1.5,0,2.8-0.3,3.9-1
			c1.2-0.6,2.1-1.6,2.7-2.8c0.7-1.2,1-2.6,1-4.3c0-1.7-0.3-3.1-1-4.3c-0.7-1.2-1.6-2.1-2.7-2.8c-1.2-0.6-2.4-1-3.9-1
			c-1.5,0-2.8,0.3-3.9,1c-1.1,0.6-2,1.6-2.7,2.8c-0.7,1.2-1,2.6-1,4.3c0,1.6,0.3,3.1,1,4.3c0.7,1.2,1.6,2.1,2.7,2.8
			C418.7,133.6,420,133.9,421.4,133.9z"/>
		<path class="st5" d="M450.7,118.1v-4.8h17.1v4.8H450.7z M463.7,139.1c-2.8,0-5-0.7-6.5-2.2c-1.5-1.5-2.3-3.6-2.3-6.5v-23h6v22.8
			c0,1.2,0.3,2.2,0.9,2.8s1.5,1,2.6,1c1.3,0,2.5-0.4,3.4-1.1l1.7,4.3c-0.7,0.6-1.6,1-2.6,1.3C465.9,138.9,464.8,139.1,463.7,139.1z"
			/>
		<path class="st5" d="M482.2,139.1c-1.9,0-3.6-0.3-5-1c-1.4-0.7-2.6-1.6-3.3-2.7c-0.8-1.2-1.2-2.5-1.2-4c0-1.4,0.3-2.7,1-3.9
			c0.7-1.2,1.8-2.1,3.4-2.7s3.6-1,6.2-1h7.4v4h-7c-2,0-3.4,0.3-4.1,1c-0.7,0.7-1.1,1.5-1.1,2.4c0,1.1,0.4,2,1.3,2.6
			c0.9,0.6,2.1,1,3.6,1c1.5,0,2.8-0.3,4-1c1.2-0.7,2-1.7,2.5-3l1,3.6c-0.6,1.5-1.6,2.7-3.1,3.5C486.3,138.7,484.4,139.1,482.2,139.1
			z M490.2,138.7v-5.2l-0.3-1.1v-9.1c0-1.8-0.5-3.1-1.6-4.1c-1.1-1-2.7-1.5-4.8-1.5c-1.4,0-2.9,0.2-4.2,0.7
			c-1.4,0.4-2.6,1.1-3.5,1.9l-2.4-4.4c1.4-1.1,3-1.8,4.9-2.4c1.9-0.5,3.9-0.8,5.9-0.8c3.7,0,6.6,0.9,8.6,2.7c2,1.8,3,4.5,3,8.2v15
			H490.2z"/>
		<path class="st5" d="M503.6,138.7v-35.6h6v35.6H503.6z M508.5,133l0.1-7.5l13.4-12.4h7.2l-11.4,11.4l-3.2,2.6L508.5,133z
			 M522.9,138.7l-9.4-11.6l3.8-4.8l12.9,16.4H522.9z"/>
		<path class="st5" d="M545.1,139.1c-2.8,0-5.3-0.6-7.5-1.7c-2.1-1.1-3.8-2.7-4.9-4.7c-1.2-2-1.8-4.2-1.8-6.8c0-2.6,0.6-4.8,1.7-6.8
			c1.1-2,2.7-3.5,4.7-4.6c2-1.1,4.3-1.7,6.8-1.7c2.5,0,4.7,0.5,6.7,1.6c2,1.1,3.5,2.6,4.6,4.6c1.1,2,1.7,4.3,1.7,7
			c0,0.3,0,0.5,0,0.9s0,0.6-0.1,0.9h-21.4v-4h18.2l-2.4,1.2c0-1.5-0.3-2.8-0.9-3.9c-0.6-1.1-1.5-2-2.6-2.6c-1.1-0.6-2.4-1-3.8-1
			c-1.5,0-2.8,0.3-3.9,1c-1.1,0.6-2,1.5-2.6,2.7c-0.6,1.1-0.9,2.5-0.9,4v1c0,1.5,0.4,2.9,1.1,4.1c0.7,1.2,1.7,2.1,3,2.7
			c1.3,0.6,2.8,1,4.4,1c1.4,0,2.7-0.2,3.9-0.7c1.2-0.4,2.2-1.2,3.1-2.1l3.2,3.7c-1.2,1.3-2.6,2.4-4.3,3.1
			C549.3,138.7,547.3,139.1,545.1,139.1z"/>
		<path class="st5" d="M587.9,139.1c-2.7,0-5.1-0.6-7.2-1.7c-2.1-1.1-3.7-2.7-4.9-4.7c-1.2-2-1.8-4.2-1.8-6.8c0-2.6,0.6-4.8,1.8-6.8
			c1.2-2,2.8-3.5,4.9-4.6c2.1-1.1,4.5-1.7,7.2-1.7c2.5,0,4.7,0.5,6.6,1.5c1.9,1,3.4,2.5,4.3,4.4l-4.6,2.7c-0.8-1.2-1.7-2.1-2.8-2.7
			s-2.3-0.9-3.6-0.9c-1.5,0-2.8,0.3-4,1c-1.2,0.6-2.1,1.6-2.8,2.8c-0.7,1.2-1,2.6-1,4.3c0,1.7,0.3,3.1,1,4.3
			c0.7,1.2,1.6,2.1,2.8,2.8c1.2,0.6,2.5,1,4,1c1.3,0,2.5-0.3,3.6-0.9s2-1.5,2.8-2.7l4.6,2.7c-1,1.9-2.4,3.4-4.3,4.4
			C592.6,138.6,590.4,139.1,587.9,139.1z"/>
		<path class="st5" d="M615.2,139.1c-2.6,0-5-0.6-7-1.7c-2-1.1-3.7-2.7-4.8-4.7c-1.2-2-1.8-4.2-1.8-6.8c0-2.6,0.6-4.8,1.8-6.8
			c1.2-2,2.8-3.5,4.8-4.6c2-1.1,4.4-1.7,7-1.7c2.7,0,5,0.6,7.1,1.7c2.1,1.1,3.7,2.7,4.8,4.6c1.2,2,1.8,4.2,1.8,6.8
			c0,2.5-0.6,4.8-1.8,6.8c-1.2,2-2.8,3.5-4.8,4.7C620.2,138.5,617.8,139.1,615.2,139.1z M615.2,133.9c1.5,0,2.8-0.3,3.9-1
			c1.2-0.6,2.1-1.6,2.7-2.8c0.7-1.2,1-2.6,1-4.3c0-1.7-0.3-3.1-1-4.3c-0.7-1.2-1.6-2.1-2.7-2.8c-1.2-0.6-2.4-1-3.9-1
			c-1.5,0-2.8,0.3-3.9,1c-1.1,0.6-2,1.6-2.7,2.8c-0.7,1.2-1,2.6-1,4.3c0,1.6,0.3,3.1,1,4.3c0.7,1.2,1.6,2.1,2.7,2.8
			C612.4,133.6,613.7,133.9,615.2,133.9z"/>
		<path class="st5" d="M649.2,112.8c2,0,3.9,0.4,5.5,1.2c1.6,0.8,2.9,2,3.8,3.7c0.9,1.6,1.4,3.8,1.4,6.4v14.7h-6v-13.9
			c0-2.3-0.5-4-1.6-5.1c-1.1-1.1-2.6-1.7-4.5-1.7c-1.4,0-2.7,0.3-3.7,0.9c-1.1,0.6-1.9,1.4-2.5,2.6c-0.6,1.1-0.9,2.6-0.9,4.3v13h-6
			v-25.6h5.7v6.9l-1-2.1c0.9-1.6,2.2-2.9,3.9-3.8S646.9,112.8,649.2,112.8z"/>
		<path class="st5" d="M664.1,118.1v-4.8h17.1v4.8H664.1z M677.1,139.1c-2.8,0-5-0.7-6.5-2.2c-1.5-1.5-2.3-3.6-2.3-6.5v-23h6v22.8
			c0,1.2,0.3,2.2,0.9,2.8s1.5,1,2.6,1c1.3,0,2.5-0.4,3.4-1.1l1.7,4.3c-0.7,0.6-1.6,1-2.6,1.3C679.3,138.9,678.2,139.1,677.1,139.1z"
			/>
		<path class="st5" d="M687.8,138.7v-25.6h5.7v7.1l-0.7-2.1c0.8-1.7,2-3,3.6-3.9c1.6-0.9,3.7-1.3,6.2-1.3v5.7
			c-0.3-0.1-0.5-0.1-0.7-0.1c-0.2,0-0.4,0-0.7,0c-2.3,0-4.1,0.7-5.4,2c-1.3,1.3-2,3.3-2,5.9v12.4H687.8z"/>
		<path class="st5" d="M719,139.1c-2.6,0-5-0.6-7-1.7c-2-1.1-3.7-2.7-4.8-4.7c-1.2-2-1.8-4.2-1.8-6.8c0-2.6,0.6-4.8,1.8-6.8
			c1.2-2,2.8-3.5,4.8-4.6c2-1.1,4.4-1.7,7-1.7c2.7,0,5,0.6,7.1,1.7c2.1,1.1,3.7,2.7,4.8,4.6s1.8,4.2,1.8,6.8c0,2.5-0.6,4.8-1.8,6.8
			s-2.8,3.5-4.8,4.7C724.1,138.5,721.7,139.1,719,139.1z M719,133.9c1.5,0,2.8-0.3,3.9-1c1.2-0.6,2.1-1.6,2.7-2.8
			c0.7-1.2,1-2.6,1-4.3c0-1.7-0.3-3.1-1-4.3c-0.7-1.2-1.6-2.1-2.7-2.8c-1.2-0.6-2.4-1-3.9-1c-1.5,0-2.8,0.3-3.9,1
			c-1.1,0.6-2,1.6-2.7,2.8c-0.7,1.2-1,2.6-1,4.3c0,1.6,0.3,3.1,1,4.3c0.7,1.2,1.6,2.1,2.7,2.8C716.3,133.6,717.6,133.9,719,133.9z"
			/>
		<path class="st5" d="M738.5,138.7v-35.6h6v35.6H738.5z"/>
	</g>
	<g class="st62">
		<path class="st5" d="M234.5,196.7c-2.6,0-5-0.6-7-1.7c-2-1.1-3.7-2.7-4.8-4.7c-1.2-2-1.8-4.2-1.8-6.8c0-2.6,0.6-4.8,1.8-6.8
			c1.2-2,2.8-3.5,4.8-4.6c2-1.1,4.4-1.7,7-1.7c2.7,0,5,0.6,7.1,1.7c2.1,1.1,3.7,2.7,4.8,4.6c1.2,2,1.8,4.2,1.8,6.8
			c0,2.5-0.6,4.8-1.8,6.8c-1.2,2-2.8,3.5-4.8,4.7C239.6,196.1,237.2,196.7,234.5,196.7z M234.5,191.5c1.5,0,2.8-0.3,3.9-1
			c1.2-0.6,2.1-1.6,2.7-2.8c0.7-1.2,1-2.6,1-4.3c0-1.7-0.3-3.1-1-4.3c-0.7-1.2-1.6-2.1-2.7-2.8c-1.2-0.6-2.4-1-3.9-1
			c-1.5,0-2.8,0.3-3.9,1c-1.1,0.6-2,1.6-2.7,2.8c-0.7,1.2-1,2.6-1,4.3c0,1.6,0.3,3.1,1,4.3c0.7,1.2,1.6,2.1,2.7,2.8
			C231.8,191.2,233.1,191.5,234.5,191.5z"/>
		<path class="st5" d="M250.6,175.7v-4.8h17.1v4.8H250.6z M254.8,196.3v-27.1c0-2.7,0.8-4.8,2.4-6.5c1.6-1.6,3.8-2.4,6.8-2.4
			c1.1,0,2.1,0.1,3,0.3c0.9,0.2,1.7,0.6,2.4,1.1l-1.6,4.5c-0.4-0.4-1-0.6-1.5-0.8s-1.2-0.3-1.8-0.3c-1.2,0-2.2,0.3-2.8,1
			c-0.6,0.7-1,1.7-1,3.1v2.9l0.2,2.7v21.4H254.8z"/>
		<path class="st5" d="M287,206c-1.2,0-2.5-0.2-3.7-0.6c-1.2-0.4-2.3-1-3.1-1.7l2.4-4.4c0.6,0.5,1.3,1,2.1,1.3
			c0.8,0.3,1.6,0.5,2.4,0.5c1.1,0,2-0.3,2.6-0.8c0.7-0.5,1.3-1.5,1.9-2.7l1.5-3.4l0.5-0.7l9.7-22.7h5.8l-12,27.7
			c-0.8,1.9-1.7,3.4-2.7,4.6c-1,1.1-2.1,1.9-3.3,2.4C289.8,205.8,288.5,206,287,206z M292.3,197.3l-11.6-26.5h6.2l9.4,22.1
			L292.3,197.3z"/>
		<path class="st5" d="M323.5,196.7c-2.6,0-5-0.6-7-1.7c-2-1.1-3.7-2.7-4.8-4.7c-1.2-2-1.8-4.2-1.8-6.8c0-2.6,0.6-4.8,1.8-6.8
			c1.2-2,2.8-3.5,4.8-4.6c2-1.1,4.4-1.7,7-1.7c2.7,0,5,0.6,7.1,1.7c2.1,1.1,3.7,2.7,4.8,4.6c1.2,2,1.8,4.2,1.8,6.8
			c0,2.5-0.6,4.8-1.8,6.8c-1.2,2-2.8,3.5-4.8,4.7C328.5,196.1,326.1,196.7,323.5,196.7z M323.5,191.5c1.5,0,2.8-0.3,3.9-1
			c1.2-0.6,2.1-1.6,2.7-2.8c0.7-1.2,1-2.6,1-4.3c0-1.7-0.3-3.1-1-4.3c-0.7-1.2-1.6-2.1-2.7-2.8c-1.2-0.6-2.4-1-3.9-1
			c-1.5,0-2.8,0.3-3.9,1c-1.1,0.6-2,1.6-2.7,2.8c-0.7,1.2-1,2.6-1,4.3c0,1.6,0.3,3.1,1,4.3c0.7,1.2,1.6,2.1,2.7,2.8
			C320.8,191.2,322,191.5,323.5,191.5z"/>
		<path class="st5" d="M353.8,196.7c-2.2,0-4.1-0.4-5.8-1.2c-1.7-0.8-3-2.1-3.9-3.7c-0.9-1.7-1.4-3.8-1.4-6.4v-14.6h6v13.8
			c0,2.3,0.5,4,1.6,5.2c1,1.1,2.5,1.7,4.4,1.7c1.4,0,2.6-0.3,3.7-0.9c1-0.6,1.9-1.4,2.4-2.6c0.6-1.2,0.9-2.6,0.9-4.3v-13h6v25.6H362
			v-6.9l1,2.1c-0.9,1.7-2.1,2.9-3.8,3.8C357.6,196.2,355.8,196.7,353.8,196.7z"/>
		<path class="st5" d="M375.6,196.3v-25.6h5.7v7.1l-0.7-2.1c0.8-1.7,2-3,3.6-3.9c1.6-0.9,3.7-1.3,6.2-1.3v5.7
			c-0.3-0.1-0.5-0.1-0.7-0.1c-0.2,0-0.4,0-0.7,0c-2.3,0-4.1,0.7-5.4,2c-1.3,1.3-2,3.3-2,5.9v12.4H375.6z"/>
		<path class="st5" d="M409.6,196.3v-33.6h14.7c3.6,0,6.8,0.7,9.6,2.1c2.8,1.4,4.9,3.4,6.4,5.9s2.3,5.4,2.3,8.8
			c0,3.4-0.8,6.3-2.3,8.8c-1.5,2.5-3.7,4.5-6.4,5.9c-2.8,1.4-6,2.1-9.6,2.1H409.6z M415.8,191.1h8.2c2.5,0,4.7-0.5,6.6-1.4
			c1.8-1,3.3-2.3,4.3-4c1-1.7,1.5-3.7,1.5-6c0-2.3-0.5-4.4-1.5-6.1c-1-1.7-2.4-3-4.3-4c-1.8-1-4-1.4-6.6-1.4h-8.2V191.1z"/>
		<path class="st5" d="M456.4,196.7c-1.9,0-3.6-0.3-5-1c-1.4-0.7-2.6-1.6-3.3-2.7c-0.8-1.2-1.2-2.5-1.2-4c0-1.4,0.3-2.7,1-3.9
			c0.7-1.2,1.8-2.1,3.4-2.7s3.6-1,6.2-1h7.4v4h-7c-2,0-3.4,0.3-4.1,1c-0.7,0.7-1.1,1.5-1.1,2.4c0,1.1,0.4,2,1.3,2.6
			c0.9,0.6,2.1,1,3.6,1c1.5,0,2.8-0.3,4-1c1.2-0.7,2-1.7,2.5-3l1,3.6c-0.6,1.5-1.6,2.7-3.1,3.5C460.5,196.3,458.7,196.7,456.4,196.7
			z M464.5,196.3v-5.2l-0.3-1.1V181c0-1.8-0.5-3.1-1.6-4.1c-1.1-1-2.7-1.5-4.8-1.5c-1.4,0-2.9,0.2-4.2,0.7c-1.4,0.4-2.6,1.1-3.5,1.9
			l-2.4-4.4c1.4-1.1,3-1.8,4.9-2.4c1.9-0.5,3.9-0.8,5.9-0.8c3.7,0,6.6,0.9,8.6,2.7c2,1.8,3,4.5,3,8.2v15H464.5z"/>
		<path class="st5" d="M474.4,175.7v-4.8h17.1v4.8H474.4z M487.4,196.7c-2.8,0-5-0.7-6.5-2.2c-1.5-1.5-2.3-3.6-2.3-6.5v-23h6v22.8
			c0,1.2,0.3,2.2,0.9,2.8s1.5,1,2.6,1c1.3,0,2.5-0.4,3.4-1.1l1.7,4.3c-0.7,0.6-1.6,1-2.6,1.3C489.6,196.5,488.5,196.7,487.4,196.7z"
			/>
		<path class="st5" d="M505.9,196.7c-1.9,0-3.6-0.3-5-1c-1.4-0.7-2.6-1.6-3.3-2.7c-0.8-1.2-1.2-2.5-1.2-4c0-1.4,0.3-2.7,1-3.9
			c0.7-1.2,1.8-2.1,3.4-2.7s3.6-1,6.2-1h7.4v4h-7c-2,0-3.4,0.3-4.1,1c-0.7,0.7-1.1,1.5-1.1,2.4c0,1.1,0.4,2,1.3,2.6
			c0.9,0.6,2.1,1,3.6,1c1.5,0,2.8-0.3,4-1c1.2-0.7,2-1.7,2.5-3l1,3.6c-0.6,1.5-1.6,2.7-3.1,3.5C510,196.3,508.1,196.7,505.9,196.7z
			 M513.9,196.3v-5.2l-0.3-1.1V181c0-1.8-0.5-3.1-1.6-4.1c-1.1-1-2.7-1.5-4.8-1.5c-1.4,0-2.9,0.2-4.2,0.7c-1.4,0.4-2.6,1.1-3.5,1.9
			l-2.4-4.4c1.4-1.1,3-1.8,4.9-2.4c1.9-0.5,3.9-0.8,5.9-0.8c3.7,0,6.6,0.9,8.6,2.7c2,1.8,3,4.5,3,8.2v15H513.9z"/>
		<path class="st5" d="M531.8,185.2c0-1.2,0.2-2.2,0.6-3.1c0.4-0.9,0.9-1.7,1.5-2.4c0.6-0.7,1.3-1.4,1.9-2c0.7-0.6,1.3-1.2,1.9-1.8
			c0.6-0.6,1.1-1.2,1.5-1.8c0.4-0.6,0.6-1.4,0.6-2.2c0-1.3-0.5-2.4-1.6-3.3c-1.1-0.8-2.5-1.2-4.4-1.2c-1.8,0-3.3,0.3-4.6,1
			c-1.3,0.6-2.4,1.6-3.2,2.7l-4.7-3c1.3-1.8,3.1-3.3,5.3-4.3c2.2-1,4.8-1.6,7.7-1.6c2.3,0,4.4,0.3,6.1,1c1.8,0.7,3.1,1.7,4.1,3
			c1,1.3,1.5,2.9,1.5,4.7c0,1.3-0.2,2.4-0.6,3.4c-0.4,1-0.9,1.8-1.5,2.5s-1.3,1.4-2,2c-0.7,0.6-1.4,1.2-2,1.8s-1.1,1.3-1.5,2
			c-0.4,0.7-0.6,1.5-0.6,2.5H531.8z M534.9,196.7c-1.1,0-2-0.4-2.8-1.1c-0.7-0.7-1.1-1.6-1.1-2.6c0-1,0.4-1.9,1.1-2.6
			c0.7-0.7,1.6-1.1,2.8-1.1c1.1,0,2,0.4,2.7,1.1c0.7,0.7,1.1,1.6,1.1,2.6c0,1-0.4,1.9-1.1,2.6C536.9,196.3,536,196.7,534.9,196.7z"
			/>
	</g>
	<text transform="matrix(1 0 0 1 152.0918 -359.3199)" class="st5" style="font-family:'Montserrat-SemiBold'; font-size:48px;">Ready to take control </text>
	<text transform="matrix(1 0 0 1 152.0918 -301.7199)" class="st5" style="font-family:'Montserrat-SemiBold'; font-size:48px;">of your Data?</text>
</g>
</svg>
